<?xml version="1.0" standalone="no"?><!DOCTYPE svg PUBLIC "-//W3C//DTD SVG 1.1//EN" "http://www.w3.org/Graphics/SVG/1.1/DTD/svg11.dtd"><svg class="icon" width="600px" height="600.00px" viewBox="0 0 1024 1024" version="1.1" xmlns="http://www.w3.org/2000/svg"><path d="M407.38 929.988c31.169-1.145 68.306-8.556 110.651-28.092 102.246-47.188 182.24-215.281-73.602-278.669-82.432-24.466-172.798-94.323-171.717-241.458-2.855-33.929 17.717-129.054 49.669-175.781-12.629 42.279 10.938 76.903 23.438 87.682 58.737 50.717 141.726 70.403 212.706 112.758v-0.011l2.491-2.373c0 0.021 0 0.021 0.033 0.021 44.183-39.886 152.792-81.887 230.487 15.547-61.934 17.184-84.348 55.882-123.782 93.628-0.557 0.556-1.508 1.465-3.391 3.229v-0.021h-0.032c4.588 9.131 8.801 18.819 12.619 29.171 42.129 114.287 24.615 183.641-32.304 276.284-34.657 56.396-108.769 108.856-196.057 116.275 40.217 5.969 81.931 6.405 124.243 0.376 235.535-33.607 399.309-251.842 365.69-487.387-33.608-235.534-251.82-399.255-487.323-365.669C215.601 119.074 51.859 337.275 85.478 572.82c25.481 178.595 157.08 315.829 321.902 357.168z m36.035-696.498c14.959-50.108 67.719-78.626 117.848-63.677 50.118 14.959 78.604 67.708 63.666 117.826-14.959 50.129-67.697 78.658-117.827 63.698-50.118-14.959-78.635-67.719-63.687-117.847z" fill="#153456" /><path d="M553.126 467.998s57.848-113.164 191.127-60.362c0 0-88.015 40.248-125.739 123.225-37.725 83 2.512-20.113 2.512-20.113l-67.9-42.75z" fill="#67B6BC" /><path d="M314.222 302.021s7.539 30.187 85.501 65.389c77.963 35.201 399.843 153.4 228.842 455.178 0 0 47.786-128.251-77.952-191.126-125.739-62.876-276.628-70.425-236.391-329.441z" fill="#19A49C" /></svg>