<?xml version="1.0" standalone="no"?><!DOCTYPE svg PUBLIC "-//W3C//DTD SVG 1.1//EN" "http://www.w3.org/Graphics/SVG/1.1/DTD/svg11.dtd"><svg class="icon" width="600px" height="600.00px" viewBox="0 0 1024 1024" version="1.1" xmlns="http://www.w3.org/2000/svg"><path d="M512 1017.321739c-11.130435 0-22.26087-2.226087-33.391304-8.904348L97.947826 788.034783c-20.034783-11.130435-33.391304-33.391304-33.391304-57.878261V293.843478c0-24.486957 13.356522-46.747826 33.391304-57.878261L478.608696 17.808696c20.034783-11.130435 46.747826-11.130435 66.782608 0l380.66087 218.156521c20.034783 11.130435 33.391304 33.391304 33.391304 57.878261v438.539131c0 24.486957-13.356522 46.747826-33.391304 57.878261l-380.66087 218.156521c-11.130435 6.678261-22.26087 8.904348-33.391304 8.904348z m0-966.121739c-4.452174 0-6.678261 0-11.130435 2.226087L120.208696 273.808696c-6.678261 4.452174-11.130435 11.130435-11.130435 20.034782v438.539131c0 8.904348 4.452174 15.582609 11.130435 20.034782l380.660869 218.156522c6.678261 4.452174 15.582609 4.452174 22.26087 0l380.660869-218.156522c6.678261-4.452174 11.130435-11.130435 11.130435-20.034782V293.843478c0-8.904348-4.452174-15.582609-11.130435-20.034782L523.130435 53.426087c-4.452174 0-6.678261-2.226087-11.130435-2.226087z" fill="#0A1F44" /><path d="M532.034783 278.26087l158.052174 82.365217c15.582609 8.904348 22.26087 28.93913 13.356521 44.521739-2.226087 6.678261-8.904348 11.130435-13.356521 13.356522l-155.826087 80.13913c-13.356522 6.678261-28.93913 6.678261-40.069566 0l-155.826087-82.365217c-15.582609-8.904348-22.26087-28.93913-13.356521-44.521739 2.226087-6.678261 8.904348-11.130435 13.356521-13.356522l155.826087-82.365217c8.904348-4.452174 24.486957-4.452174 37.843479 2.226087z" fill="#89BEFF" /><path d="M589.913043 812.521739c-37.843478 0-66.782609-28.93913-66.782608-66.782609v-162.504347c0-22.26087 13.356522-44.521739 33.391304-57.878261l133.565218-80.139131c11.130435-6.678261 22.26087-8.904348 33.391304-8.904348 37.843478 0 66.782609 28.93913 66.782609 66.782609v162.504348c0 22.26087-13.356522 44.521739-33.391305 57.878261L623.304348 801.391304c-8.904348 6.678261-22.26087 11.130435-33.391305 11.130435zM712.347826 483.06087l-133.565217 80.13913c-6.678261 4.452174-11.130435 11.130435-11.130435 20.034783v162.504347c0 13.356522 8.904348 22.26087 22.260869 22.26087 4.452174 0 8.904348 0 11.130435-2.226087l133.565218-80.13913c6.678261-4.452174 11.130435-11.130435 11.130434-20.034783v-162.504348c0-13.356522-8.904348-22.26087-22.260869-22.260869-4.452174-2.226087-8.904348 0-11.130435 2.226087zM434.086957 812.521739c-11.130435 0-24.486957-2.226087-33.391305-8.904348l-133.565217-80.13913c-20.034783-11.130435-33.391304-33.391304-33.391305-57.878261v-162.504348c0-37.843478 28.93913-66.782609 66.782609-66.782609 11.130435 0 24.486957 2.226087 33.391304 8.904348l133.565218 80.139131c20.034783 11.130435 33.391304 33.391304 33.391304 57.878261v162.504347c0 35.617391-28.93913 66.782609-66.782608 66.782609z m-133.565218-333.913043c-13.356522 0-22.26087 8.904348-22.260869 22.260869v162.504348c0 6.678261 4.452174 15.582609 11.130434 20.034783l133.565218 80.13913c4.452174 2.226087 6.678261 2.226087 11.130435 2.226087 13.356522 0 22.26087-8.904348 22.260869-22.26087v-162.504347c0-6.678261-4.452174-15.582609-11.130435-20.034783l-133.565217-80.13913c-2.226087 0-6.678261-2.226087-11.130435-2.226087z m211.478261-17.808696c-11.130435 0-20.034783-2.226087-31.165217-6.678261l-155.826087-82.365217c-13.356522-6.678261-22.26087-17.808696-26.713044-33.391305-4.452174-13.356522-2.226087-28.93913 4.452174-42.295652 4.452174-11.130435 13.356522-17.808696 22.26087-24.486956l155.826087-82.365218c20.034783-11.130435 42.295652-11.130435 62.330434 0l158.052174 82.365218c13.356522 6.678261 22.26087 17.808696 26.713044 33.391304 4.452174 13.356522 2.226087 28.93913-4.452174 42.295652-4.452174 11.130435-13.356522 17.808696-24.486957 24.486957l-155.826087 80.13913c-8.904348 6.678261-20.034783 8.904348-31.165217 8.904348z m0-231.513043c-4.452174 0-6.678261 0-11.130435 2.226086l-155.826087 82.365218c-2.226087 0-4.452174 2.226087-4.452174 4.452174-2.226087 4.452174-2.226087 6.678261 0 8.904348s2.226087 4.452174 4.452174 6.67826l155.826087 82.365218c6.678261 2.226087 13.356522 2.226087 20.034783 0l155.826087-80.139131c2.226087 0 4.452174-2.226087 4.452174-4.452173 2.226087-2.226087 2.226087-6.678261 0-8.904348 0-2.226087-2.226087-4.452174-4.452174-6.678261l-158.052174-82.365218c0-4.452174-4.452174-4.452174-6.678261-4.452173z" fill="#0A1F44" /></svg>