<?xml version="1.0" standalone="no"?><!DOCTYPE svg PUBLIC "-//W3C//DTD SVG 1.1//EN" "http://www.w3.org/Graphics/SVG/1.1/DTD/svg11.dtd"><svg class="icon" width="600px" height="600.00px" viewBox="0 0 1024 1024" version="1.1" xmlns="http://www.w3.org/2000/svg"><path d="M1016.112 649.525333s-67.28 191.12-341.84 191.12c-440.122667 0-488.586667-666.24-86.730667-666.24 384.165333 0 349.162667 497.994667 71.909334 437.429334 204.570667 0 173.626667-314.176-37.685334-314.176-292.074667 0-265.146667 486.458667 59.226667 486.458666 263.786667-0.005333 335.12-134.592 335.12-134.592z" fill="#17A3B6" /><path d="M407.76 784.112C181.653333 544.533333 251.237333 206.714667 501.968 143.450667 534.277333 20.970667 199.146667 45.205333 185.68 399.173333c-9.813333 258.336 222.08 384.938667 222.08 384.938667z" fill="#CF4337" /><path d="M196.448 618.56C135.893333 516.277333 141.109333 422.064 150.517333 345.328c-92.101333 92.122667-36.133333 220.410667 45.930667 273.232z" fill="#F1C547" /><path d="M339.109333 794.885333C273.168 702.016 115.701333 548.570667 5.333333 693.925333c92.869333-5.370667 230.149333-14.805333 333.776 100.96z" fill="#4979BD" /></svg>