<?xml version="1.0" standalone="no"?><!DOCTYPE svg PUBLIC "-//W3C//DTD SVG 1.1//EN" "http://www.w3.org/Graphics/SVG/1.1/DTD/svg11.dtd"><svg class="icon" width="600px" height="320.84px" viewBox="0 0 1915 1024" version="1.1" xmlns="http://www.w3.org/2000/svg"><path d="M1594.75373 546.403541c0 154.42921-125.185001 279.621706-279.621707 279.621707h-216.236269c-154.424714 0-279.621706-125.192496-279.621707-279.621707V337.622971c0-154.42921 125.195494-279.623205 279.621707-279.623205h216.236269c154.436705 0 279.621706 125.192496 279.621707 279.623205v208.78057z" fill="#4FB233" /><path d="M1107.120407 403.05895c56.169567-37.098625 49.871045-57.047942 56.169567-37.098625 0 0 2.803007 10.847788 2.453755 18.020189-0.876877 23.452327-10.326159 51.977048-48.474038 81.549523-26.249338 20.298569-38.847882 48.47104-34.823243 77.520388 5.424643 38.847882 35.172495 66.146474 76.821885 60.898705 41.647891-5.424643 64.746469-39.374008 60.547954-79.971146-2.975385-27.124716-32.19711-35.524744-28.875471-68.24798 1.924632-17.49856 8.049277-27.824718 19.600065-37.624751 19.949317 22.749327 34.646369 30.626227 46.374031 43.223271 13.298546 14.524674 23.624704 27.649343 27.824718 53.200178 2.79851 16.098555 3.673888 32.897112 1.049254 48.646416-2.449259 14.873926-6.824648 27.997096-13.475419 41.29714-18.723189 37.450875-53.371057 66.847975-102.194347 73.321873-56.698691 7.347776-101.146591-15.398553-128.443684-50.746423-16.800056-21.873949-27.826217-51.97405-29.049348-72.620371-1.924632-30.273977 4.721643-60.374078 17.84931-81.549524 20.472445-33.070989 39.547884-45.146404 76.645011-69.818863z" fill="#FFFFFF" /><path d="M1453.429702 252.390566c0.526126 0 0.350751 0.175375 0 0 1.573881-3.324636-19.423191 1.924632-39.023257 7.523152-9.10003 1.224629-14.69855 2.101506-20.472445 2.27838-15.052299-6.473897-18.726187-18.023187-47.074033-2.624634 8.747781 2.100007 13.47542 11.549289 24.498583 11.372415 6.300021-0.175375 13.473921-4.547767 22.221702-6.121648 2.103005 0 4.203012-0.175375 6.304517-0.35225h0.172378c3.15076-0.172377 6.476895-1.047755 9.801532-1.398506 14.697051-2.626133 24.672459-9.10003 43.571023-10.676909z" fill="#FFFFFF" /><path d="M1387.983231 249.41668c6.124646-2.975385 11.201536-10.32466 19.250814-15.575427 6.124646-1.22313 12.247793-2.098508 18.373937-2.79851 5.946273-0.873879 11.721667-1.750755 17.673935-3.326135 6.998524-1.749256 18.723189-5.94927 26.247839-5.949271 1.049254 0 0.873879-1.401504-0.175375-1.401503-5.775394-0.175375-16.27393 2.79851-21.87245 4.200014-7.700026 1.750755-14.703047 2.976884-22.401574 4.024638-7.172401 0.878376-14.873926 1.578378-22.398576 3.152259-15.924679 0.172377-25.897089-5.600019-43.395648 18.375437 9.272408-1.92763 18.197063 4.197016 28.697098-0.701502z" fill="#FFFFFF" /><path d="M1369.957046 226.316603c7.352273-4.201513 14.700049-8.573904 22.923203-11.550788 16.101553-5.947772 26.252336-2.450758 43.223271-5.423145 1.052252-0.176874 0.875378-1.576879-0.172377-1.400004-17.153805 2.621636-27.126215-0.701501-43.575521 4.547767-7.52465 2.449259-14.69855 6.298522-21.349322 9.973909-4.37389 2.450758-8.74928 4.901515-12.949294 7.526149-6.124646 2.100007-11.898541 3.849263-15.575426 7.000024-9.273907 8.047779-5.59852 18.200061-9.97391 26.075462 32.201607-10.500035 25.376959-20.300068 37.449376-36.749374zM1278.43811 267.965993c-8.224653 9.62166-20.473944 13.997049-25.547837 21.349322-6.650772 10.147786-0.524627 18.894067-2.447759 27.646345 30.095604-19.772443 17.318687-27.473968 27.995596-48.995667zM1315.709113 300.512354c-11.19704 2.275382-18.370939 11.550788-25.89559 13.824672-10.67541 2.975385-17.675434-4.900016-26.601588-4.72614 26.076961-24.844837 30.973979-9.273907 52.497178-9.098532z" fill="#FFFFFF" /><path d="M1308.361337 250.290559c-9.098532 8.74928-21.524697 12.073916-27.124716 18.900063-7.698527 9.623159-2.273883 18.898564-5.075392 27.295595 31.849357-16.969436 19.77694-25.723212 32.200108-46.195658zM1342.661452 285.990679c-11.376912 1.398506-19.42469 9.97241-27.124716 11.373913-10.676909 2.098508-17.152306-6.300021-25.900087-6.826147 28.17397-22.572452 31.500105-6.649273 53.024803-4.547766z" fill="#FFFFFF" /><path d="M1339.859943 235.239759c-9.798534 8.050776-22.573951 10.153781-28.873972 16.627679-8.398529 8.746282-3.847764 18.372438-7.350774 26.600089 33.250861-14.003045 21.873949-23.804576 36.224746-43.227768zM1370.835422 273.913764c-11.375413 0.350751-20.124693 8.223154-28.000094 9.098532-11.024662 1.052252-16.449306-8.047779-25.370963-9.272408 30.095604-19.772443 32.19711-3.849263 53.371057 0.173876zM1212.290137 342.68787c-4.549266 12.595545-7.698527 22.397077-12.247792 30.97398-5.250767 9.097033-9.623159 15.572429-16.270932 24.846336 0 0 5.947772-0.524627 9.449282-1.400005 2.79851-4.375389 5.423144-9.273907 8.398529-13.473921 10.673912-3.673888 29.049348-10.149284 53.19718-12.775417 36.223248-4.02314 62.297211-19.423191 61.94646-20.298569 0.349252 0.875378-27.123217 11.375413-63.347964 15.40155-22.046326 2.273883-40.247886 8.924655-51.095674 13.998548 15.573928-8.750779 41.997143-21.70307 74.021875-32.021735 52.495679-16.800056 86.269668-47.600159 85.745041-48.826287 0.524627 1.224629-36.747875 25.024709-89.423426 41.998641-28.697098 9.275406-51.795677 22.573951-66.844977 33.073987 12.075415-16.098555 25.201583-31.149355 39.549383-44.798651 4.723142 3.323137 9.10003 4.901515 17.324683 1.750755 6.121648-2.450758 8.74928-9.623159 17.84931-12.773918-13.649296-2.275382-17.84931-11.021664-35.350867 6.473897 7.701525-9.975408-2.623135-14.3478 2.450757-28.17397-5.59852 8.575403-10.32466 10.501534-13.823172 16.800056-4.72614 8.400028 0.350751 13.298546-0.175376 20.301567-8.400028 7.870904-14.350797 17.147809-22.050823 25.894091 2.452257-4.721643 2.626133-8.923156 4.724641-14.521676 9.973909-33.947865 28.000094-56.872567 28.700096-56.34794-0.701501-0.524627-23.973956 18.200061-32.726234 53.898681z" fill="#FFFFFF" /><path d="M1094.69574 336.561726c21.873949-35.695623 22.050823-35.695623 28.349345-21.873949 4.724641 12.601541 8.923156 48.121788-19.250814 72.972621-21.347823 18.897065-49.347917 17.500059-49.347916 17.500058 15.047802-27.124716 18.20156-32.901609 40.249385-68.59873zM1033.449282 322.387802c-0.524627-32.19711-1.047755-32.549359 12.249292-22.923203 13.124669 12.073916 23.795583 26.773965 17.147809 53.020306-5.94927 22.9277-27.824718 33.601611-27.824719 33.601612-0.521629-26.95084-0.873879-31.503103-1.572382-63.698715z" fill="#FFFFFF" /><path d="M1163.291472 445.58072c19.778439-12.247793 17.852308-7.698527 17.152306-1.22313-2.801508 11.198539-12.075415 26.247839-28.000093 28.347846-15.049301 1.750755-24.846336-5.249268-25.547838-4.900016 14.521676-9.449282 16.447807-9.800033 36.395625-22.2247z" fill="#FFFFFF" /></svg>