<?xml version="1.0" standalone="no"?><!DOCTYPE svg PUBLIC "-//W3C//DTD SVG 1.1//EN" "http://www.w3.org/Graphics/SVG/1.1/DTD/svg11.dtd"><svg class="icon" width="600px" height="600.00px" viewBox="0 0 1024 1024" version="1.1" xmlns="http://www.w3.org/2000/svg"><path d="M672.994233 602.731163l-145.467535-84.956279L842.561488 335.538605l146.872559 84.503814L672.994233 602.731163z m-152.111628 105.579163l-0.571535-168.448 316.844651 179.057116 1.678884 169.424372-317.952-180.033488z m2.71479-576.642977L671.196279 48.461395l-4.286512 365.353675-147.277395 81.777116 3.965023-363.924837z m-24.409302 763.427721l-147.598884 83.21786 4.286512-365.365581 147.265488-81.777116-3.953116 363.924837zM180.212093 691.235721L33.351442 606.731907l316.427907-182.700651 145.467535 84.956279-315.034791 182.248186z m321.702698-372.783628l0.571535 168.459907-316.868466-179.057116-1.666976-169.436279 317.963907 180.033488z m517.036651 97.446698l-169.876837-98.077768-0.381024 0.214326V121.891721L678.816744 23.813953l-169.86493 98.077768-0.023814 0.321488-169.876837-98.077767-169.876837 98.077767v196.012651L0 415.898791v196.155535l169.876837 98.077767-0.071442 0.226233v196.143627l169.876838 98.077768 169.86493-98.077768 0.023814-0.321488 169.876837 98.077768 169.876837-98.077768V710.02493l-0.035721-0.023814 169.662512-97.94679V415.898791z" /></svg>