<?xml version="1.0" standalone="no"?><!DOCTYPE svg PUBLIC "-//W3C//DTD SVG 1.1//EN" "http://www.w3.org/Graphics/SVG/1.1/DTD/svg11.dtd"><svg class="icon" width="600px" height="593.62px" viewBox="0 0 1035 1024" version="1.1" xmlns="http://www.w3.org/2000/svg"><path d="M914.334975 779.159045c24.451498-67.715678 24.109715-138.863785 27.036159-211.282937 0.762627-27.246581 7.96562-44.19709 12.03418-62.969633 5.974519-37.332231-3.602713-58.902289 11.779971-93.184012 4.535623-32.205481 15.596755-50.765169 43.138899-79.876354-60.256043 10.635423-103.480084 63.689689-163.906411 94.199632-110.93607 76.87085-224.419095 103.312233-275.693898 237.17698-36.483246 95.171464 0 173.229434 62.165651 214.671579 23.772797-107.165506 36.314179-148.523726 128.437568-228.656722-56.823614 71.105536-80.302063 135.006863-98.47983 244.92853C747.547124 931.709976 863.315597 906.45328 914.334975 779.159045M102.127546 725.344584c56.613192 44.32237 124.327653 66.314488 192.213615 91.954322 25.55226 9.236665 39.40969 21.397342 55.935707 31.103503 33.646809 17.244856 57.12161 15.043333 84.791467 40.382739 29.197544 14.405987 43.393108 30.636439 62.421076 66.018924 8.728247-60.555255-28.095566-118.267992-38.138645-185.137118-38.094858-129.540762-27.628503-245.479519-138.819998-336.247937-78.818164-64.409745-164.416045-54.156244-223.275763-8.221046 94.368699 56.191132 129.711045 81.106045 176.917288 193.697514-49.664407-76.317429-103.099379-118.693701-201.705705-170.306639C9.749948 519.018114-2.582228 636.949188 102.127546 725.344584M550.245681 59.669781c-69.198361 19.83195-126.743247 61.783729-187.21336 101.870905-22.415394 15.340113-40.383955 19.407457-57.884237 27.163872-33.688164 17.075789-45.722344 37.416157-82.504802 44.959717-28.814406 15.212401-50.172825 17.203502-90.004575 11.863897 43.90031 42.586694 112.209548 46.612683 172.34031 77.588474 127.336806 44.960933 215.181214 121.407291 353.833361 84.538474 98.438475-26.187174 140.262543-101.487767 137.42124-176.1948-100.767711 43.559743-141.616297 57.713953-260.606778 29.916383 90.980057 4.407911 156.575705-13.983927 256.24387-63.689689C771.486555 105.562408 683.221304 26.404894 550.245681 59.669781" /></svg>