<?xml version="1.0" standalone="no"?><!DOCTYPE svg PUBLIC "-//W3C//DTD SVG 1.1//EN" "http://www.w3.org/Graphics/SVG/1.1/DTD/svg11.dtd"><svg class="icon" width="600px" height="600.00px" viewBox="0 0 1024 1024" version="1.1" xmlns="http://www.w3.org/2000/svg"><path d="M814.656 395.84c16-62.784 22.656-128.064 19.968-194.176A446.144 446.144 0 0 1 959.872 512c0 4.992-0.512 9.728-0.64 14.592a675.136 675.136 0 0 0-144.64-130.752zM260.416 307.84c-62.656 17.536-122.624 44.416-178.56 80a448.512 448.512 0 0 1 221.184-272 676.672 676.672 0 0 0-42.688 192z m259.712 491.52a671.616 671.616 0 0 0 165.952-146.496 674.624 674.624 0 0 0 108.864-193.152 609.28 609.28 0 0 1 138.88 137.344c4.928 6.72 8.384 14.208 12.992 21.12a448.192 448.192 0 0 1-240.64 297.024 612.096 612.096 0 0 1-186.048-115.84z m101.248 146.56a446.592 446.592 0 0 1-109.376 14.08 445.184 445.184 0 0 1-236.352-68.032 677.632 677.632 0 0 0 185.92-59.968c47.488 46.08 101.824 83.712 159.808 113.92zM386.624 82.112a446.336 446.336 0 0 1 377.344 59.456c1.152 8.448 3.648 16.448 4.544 24.96a607.424 607.424 0 0 1-11.328 194.944 671.104 671.104 0 0 0-210.112-70.656 671.808 671.808 0 0 0-221.312 2.176 610.368 610.368 0 0 1 60.864-210.88z m-63.616 276.48a606.272 606.272 0 0 1 214.016-4.544 604.928 604.928 0 0 1 202.432 70.656 608.576 608.576 0 0 1-103.104 187.968 608.64 608.64 0 0 1-162.176 139.776 604.544 604.544 0 0 1-111.552-183.104 603.392 603.392 0 0 1-39.68-210.752z m-20.16 233.6a667.2 667.2 0 0 0 113.088 190.72c-58.88 26.88-122.24 44.8-188.544 51.84-8 0.832-15.936 1.088-23.936 1.536A446.208 446.208 0 0 1 64 512c0-11.264 0.832-22.272 1.664-33.28 6.528-5.184 12.16-11.2 18.88-16.128a607.04 607.04 0 0 1 174.72-87.68c2.432 72.512 16.128 145.856 43.584 217.344z" /></svg>