<?xml version="1.0" standalone="no"?><!DOCTYPE svg PUBLIC "-//W3C//DTD SVG 1.1//EN" "http://www.w3.org/Graphics/SVG/1.1/DTD/svg11.dtd"><svg class="icon" width="600px" height="600.00px" viewBox="0 0 1024 1024" version="1.1" xmlns="http://www.w3.org/2000/svg"><path d="M437.76 177.963a1115.221 1115.221 0 0 0-67.456-30.678C403.157 58.54 450.603 0 512 0c59.819 0 106.41 55.51 139.093 140.459-20.992 9.002-42.581 19.072-67.072 31.53-25.088-66.858-53.674-97.066-72.021-97.066-18.859 0-48.64 32-74.24 103.04zM512 949.077c-18.304 0-46.933-30.208-72.021-97.066a1122.133 1122.133 0 0 1-67.072 31.53C405.632 968.491 452.18 1024 512 1024c61.397 0 108.843-58.539 141.696-147.285a1119.744 1119.744 0 0 1-67.456-30.678c-25.6 71.04-55.381 103.04-74.24 103.04z m-200.875-94.549c-81.792 30.08-203.861 59.392-252.416-13.525C34.731 804.949 25.813 735.7 119.296 610.26a994.432 994.432 0 0 1 82.645-95.957 1572.523 1572.523 0 0 1 234.88-196.181c-46.208-25.43-96.597-49.75-145.749-67.883-50.347-18.517-94.677-28.8-128.64-28.8-21.675 0-37.803 4.565-43.05 12.33-5.59 8.193-5.889 33.409 18.986 78.593l8.96-0.512c44.715 0 80.939 36.906 80.939 82.432S192 476.715 147.328 476.715s-80.939-36.907-80.939-82.432c0-14.72 3.798-28.544 10.496-40.534-47.36-83.626-37.589-133.93-17.877-162.773 13.824-20.31 43.05-44.459 103.424-44.459 107.264 0 251.776 70.827 344.832 125.696 94.464-58.154 243.925-134.826 354.304-134.826 60.63 0 89.856 24.789 103.723 45.61 23.978 36.054 32.896 105.302-60.587 230.699-131.584 176.512-393.216 367.19-593.579 440.832zM846.08 368.384c64.256-86.144 66.219-131.499 58.283-143.403-5.376-8.064-20.992-12.714-42.795-12.714-83.328 0-210.176 62.25-283.221 104.405a1700.437 1700.437 0 0 1 150.272 111.659c-17.366 17.621-35.584 34.944-54.23 51.669a1614.507 1614.507 0 0 0-166.4-119.936 1614.805 1614.805 0 0 0-196.394 151.51 1582.379 1582.379 0 0 0 158.762 122.58c-22.272 14.123-44.8 27.649-70.485 41.814l-0.555-0.384a1640.107 1640.107 0 0 1-141.482-112.299C137.6 686.08 103.723 775.083 119.637 799.02c5.376 8.064 20.992 12.714 42.795 12.714 100.267 0 259.413-86.058 353.579-147.797C631.595 588.16 763.435 479.275 846.08 368.384z m101.419 302.55c6.016-11.52 9.386-24.62 9.386-38.529 0-45.525-36.224-82.432-80.938-82.432s-80.939 36.907-80.939 82.432 36.224 82.432 80.939 82.432l11.008-0.768c23.594 43.691 23.21 68.182 17.706 76.246-5.29 7.722-21.376 12.288-43.05 12.288-68.352 0-163.542-40.32-224.854-70.742-20.48 14.592-45.952 31.915-70.784 47.744 82.176 44.246 203.008 97.92 295.638 97.92 60.373 0 89.6-24.149 103.424-44.458 19.669-28.758 29.44-78.934-17.536-162.134z" /></svg>