<?xml version="1.0" standalone="no"?><!DOCTYPE svg PUBLIC "-//W3C//DTD SVG 1.1//EN" "http://www.w3.org/Graphics/SVG/1.1/DTD/svg11.dtd"><svg class="icon" width="600px" height="600.00px" viewBox="0 0 1024 1024" version="1.1" xmlns="http://www.w3.org/2000/svg"><path d="M402.563723 1021.887435h-6.389321c-9.047277 3.066874-8.689476 2.555728 6.389321 0zM564.596884 9.052389C433.79472-11.393436 356.662846 6.394432 323.591724 26.840257c-65.426639 32.559976-100.286771 83.47008-100.28677 156.257216 0 80.761008 71.458158 146.44322 159.733006 146.44322 9.200621 0 17.890097-0.715604 26.681801-2.044583-46.309793-14.414306-63.126484-74.116115-63.126484-92.875159 0-44.571898 20.496939-89.8594 80.147634-102.842499 0 0 47.894345-15.998858 135.811391 7.973872 124.157271 46.923168 160.44861 102.944728 193.979763 188.663848 41.913941 135.402475 6.440435 315.683535-60.417413 418.014888-127.530832 195.257627-443.009909 258.639684-443.009909 258.639684 320.488304-78.716425 463.813536-264.262286 492.182118-504.142925 18.554586-318.239263-279.801112-393.428784-326.366478-196.433262 41.402795-36.649141 86.639183-28.879728 131.87557-10.018454 104.018134 71.918189 89.29714 185.596975 79.89206 248.110084-21.212543 140.973962-104.018134 277.654301-225.824135 360.817693-127.990863 72.633793-296.46446 105.807143-352.946051 118.585784h344.30769c28.57304-1.686781 151.656905-9.609538 217.748034-34.246756C793.999039 920.476144 972.031058 759.516388 972.031058 499.087695 972.031058 238.454543 771.406402 41.459021 564.54577 9.001274z m-343.08094 907.283476c-37.466974 29.748675-166.122327 87.405901-166.122326 87.405901s119.250273-10.836287 215.959024-52.750228c86.741412-37.518089 127.581947-76.467385 168.166909-136.57811 36.955828-54.692581 72.122647-222.348345-58.679517-302.393749-76.058468-46.514251-181.967841-47.536543-225.721906 8.996163-51.932395 67.11342-11.756349 125.690708-11.756349 125.690708s15.487712-53.67029 66.44893-62.870911c13.647588-2.555728 66.346701 0.56226 93.897451 25.65951 20.752512 18.861273 53.976977 52.647999 35.217933 138.724921-14.107619 65.119952-51.421249 115.621139-117.410149 168.166909z" fill="#80B2FC" /></svg>