<?xml version="1.0" standalone="no"?><!DOCTYPE svg PUBLIC "-//W3C//DTD SVG 1.1//EN" "http://www.w3.org/Graphics/SVG/1.1/DTD/svg11.dtd"><svg class="icon" width="600px" height="600.00px" viewBox="0 0 1024 1024" version="1.1" xmlns="http://www.w3.org/2000/svg"><path d="M877.947 261.95S765.226 73.891 543.613 78.36c-195.918 3.963-379.17 112.948-435.791 306.711-58.208 199.263 51.482 364.89 199.263 441.057 147.745 76.075 364.875 4.463 427.572-152.242 62.69-156.739-11.2-255.253-60.427-302.252-49.271-46.986-161.2-69.393-255.235-13.435 0 0 127.621-129.831 273.116-42.552 145.555 87.339 141.05 257.494 120.912 322.397-20.174 64.932-49.227 143.291-150.008 208.2-100.723 64.933-295.503 118.655-505.931-87.317 0 0 143.254 232.828 418.62 181.366 275.359-51.504 416.422-331.331 335.829-544.035-80.622-212.673-308.945-282.08-465.648-208.208-156.717 73.9-221.656 239.548-147.758 387.296 73.869 147.745 252.965 123.139 308.944 80.601 0 0-134.352 147.773-293.297 26.877-158.938-120.919-101.485-326.859-77.59-371.643 23.866-44.783 119.239-222.35 379.071-197.003 122.405 11.94 219.4 102.986 253.712 147.773 0-0.001 10.688 10.641 8.98-0.001" fill="#9B9B9B" /><path d="M876.947 260.95S764.226 72.891 542.613 77.36c-195.918 3.963-379.17 112.948-435.791 306.711-58.208 199.263 51.482 364.89 199.263 441.057 147.745 76.075 364.875 4.463 427.572-152.242 62.69-156.739-11.2-255.253-60.427-302.252-49.271-46.986-161.2-69.393-255.235-13.435 0 0 127.621-129.831 273.116-42.552 145.555 87.339 141.05 257.494 120.912 322.397-20.174 64.932-49.227 143.291-150.008 208.2-100.723 64.933-295.503 118.655-505.931-87.317 0 0 143.254 232.828 418.62 181.366 275.359-51.504 416.422-331.331 335.829-544.035-80.622-212.673-308.945-282.08-465.648-208.208-156.717 73.9-221.656 239.548-147.758 387.296 73.869 147.745 252.965 123.139 308.944 80.601 0 0-134.352 147.773-293.297 26.877-158.938-120.919-101.485-326.859-77.59-371.643 23.866-44.783 119.239-222.35 379.071-197.003 122.405 11.94 219.4 102.986 253.712 147.773 0-0.001 10.688 10.641 8.98-0.001" fill="#2187FF" /></svg>