<?xml version="1.0" standalone="no"?><!DOCTYPE svg PUBLIC "-//W3C//DTD SVG 1.1//EN" "http://www.w3.org/Graphics/SVG/1.1/DTD/svg11.dtd"><svg class="icon" width="600px" height="600.00px" viewBox="0 0 1024 1024" version="1.1" xmlns="http://www.w3.org/2000/svg"><path d="M865.3203125 227.234375v147.65625h26.3671875c15.8203125 0 31.640625 15.8203125 31.640625 31.640625s-15.8203125 31.640625-31.640625 31.640625h-79.1015625c26.3671875 42.1875 26.3671875 100.1953125 0 147.65625h79.1015625c15.8203125 0 31.640625 15.8203125 31.640625 31.640625s-15.8203125 31.640625-31.640625 31.640625h-26.3671875v147.65625h26.3671875c15.8203125 0 31.640625 15.8203125 31.640625 31.640625s-15.8203125 31.640625-31.640625 31.640625H322.15625c-105.46875 0-163.4765625-126.5625-110.7421875-210.9375H132.3125c-15.8203125 0-31.640625-15.8203125-31.640625-31.640625s15.8203125-31.640625 31.640625-31.640625h26.3671875V438.171875H132.3125C116.4921875 438.171875 100.671875 422.3515625 100.671875 406.53125s15.8203125-31.640625 31.640625-31.640625h79.1015625c-52.734375-84.375 5.2734375-210.9375 110.7421875-210.9375h569.53125c15.8203125 0 31.640625 15.8203125 31.640625 31.640625s-15.8203125 31.640625-31.640625 31.640625h-26.3671875z m-163.4765625 210.9375H195.59375v147.65625h506.25c15.8203125 0 36.9140625-10.546875 47.4609375-21.09375 26.3671875-31.640625 26.3671875-79.1015625 0-105.46875-15.8203125-10.546875-31.640625-21.09375-47.4609375-21.09375z m126.5625 210.9375H322.15625c-15.8203125 0-36.9140625 10.546875-47.4609375 21.09375-42.1875 42.1875-15.8203125 126.5625 47.4609375 126.5625H828.40625v-147.65625z m0-274.21875V227.234375H322.15625c-63.28125 0-84.375 84.375-47.4609375 126.5625 10.546875 10.546875 26.3671875 21.09375 47.4609375 21.09375H828.40625z" fill="#d81e06" /></svg>