<?xml version="1.0" standalone="no"?><!DOCTYPE svg PUBLIC "-//W3C//DTD SVG 1.1//EN" "http://www.w3.org/Graphics/SVG/1.1/DTD/svg11.dtd"><svg class="icon" width="600px" height="503.61px" viewBox="0 0 1220 1024" version="1.1" xmlns="http://www.w3.org/2000/svg"><path d="M1138.622501 495.782805c4.00369-4.138646 7.91741-8.322277 11.606203-12.730835a285.746518 285.746518 0 0 0 38.597373-57.31125 294.428678 294.428678 0 0 0 24.022142-64.778808 302.436059 302.436059 0 0 0 8.097351-68.467601 294.068796 294.068796 0 0 0-25.326715-119.076045 284.351975 284.351975 0 0 0-71.976453-98.247858 291.459649 291.459649 0 0 0-342.203049-35.223477l-13.180688 7.872425c-4.228617 2.879058-8.322277 5.938057-12.460923 8.997057s-8.232307 6.073013-12.280982 8.997056l-11.381277 10.211659c-3.688793 3.328911-7.782454 7.017704-11.06638 10.166674l-8.367262 8.322278-16.644555 16.68954-85.606994 85.786935-94.244168-94.469095-17.994113-17.994113a308.868954 308.868954 0 0 0-24.337038-21.592936 292.40434 292.40434 0 0 0-412.155165 408.691297 138.464701 138.464701 0 0 0 10.436586 12.505909l10.931424 12.056056 2.699117 2.879058 2.204279 2.249264 4.498528 4.498529 8.997057 8.997056 94.963932 94.963933-155.199226 155.199227a22.492642 22.492642 0 0 0 0 31.804595 22.492642 22.492642 0 0 0 31.75961 0l155.244212-155.199227 31.84958 31.849581-155.379168 155.244212a22.492642 22.492642 0 0 0 0 31.804595 22.492642 22.492642 0 0 0 31.75961 0l155.244212-155.244212 318.720731 318.720731 318.720731-318.720731 155.244212 155.199227a22.492642 22.492642 0 0 0 31.804595 0 22.492642 22.492642 0 0 0 0-31.804596l-155.244212-155.199226-31.804595-31.804596-31.804595-31.804595-31.804595-31.804595-222.677152-222.677152 31.849581-31.84958 222.677151 222.677152 31.804595 31.804595 31.804596 31.804595 31.804595 31.804595 155.199227 155.244212a22.492642 22.492642 0 0 0 31.759609 0 22.492642 22.492642 0 0 0 0-31.75961l-155.199226-155.244212 111.023678-111.023679z m-241.256073 177.691869l-286.916136 286.916136-286.916136-286.916136-12.955761-12.955762-18.848834-18.848833-31.84958-31.849581-31.804596-31.804595-94.963932-94.963933-8.997057-8.997056-4.498528-4.498529c-1.439529-1.439529-2.924043-2.969029-4.498528-4.76844l-9.266969-10.211659a98.967623 98.967623 0 0 1-8.997056-10.571541 247.419057 247.419057 0 0 1 348.725914-345.801872 264.963318 264.963318 0 0 1 20.60326 18.30901l17.994113 17.769187 93.569389 93.614374-31.804595 31.804596-93.614374-93.569389L434.647806 148.451434a204.1882 204.1882 0 0 0-55.106972-38.867284 202.433774 202.433774 0 0 0-247.10416 306.754645 74.360673 74.360673 0 0 0 7.24263 8.637175l7.602513 8.412248c1.169617 1.394544 2.609146 2.834073 4.138646 4.498528l4.498528 4.498528 8.997057 8.997057 35.493388 35.493388 59.470545 59.470545 31.804595 31.804595 31.84958 31.84958 31.804595 31.804595 255.111541 255.111541 255.111541-255.111541z m-383.004701-381.745113l-222.632166 222.677152-94.963933-95.098889-8.997056-8.997057-4.498529-4.498528-2.249264-2.204279-1.484514-1.70944-5.893072-6.567852a47.414488 47.414488 0 0 1-5.668146-6.747792 159.067961 159.067961 0 0 1-29.46536-62.979397 153.579757 153.579757 0 0 1 0.674779-69.772174 157.133594 157.133594 0 0 1 250.613012-87.271449 170.944076 170.944076 0 0 1 13.225674 11.696174l17.54426 17.54426z m319.395511 318.135922l-223.306946 223.306946-223.306945-223.306946 222.677151-222.677151 0.629794 0.629794 0.629794-0.629794z m-127.218381-318.135922l85.06717-85.06717 16.68954-16.644555 8.322278-8.367263 6.38791-5.668145 6.073013-5.623161 6.702807-4.85841c2.204279-1.61947 4.498528-3.328911 6.612837-4.903396l7.107675-4.138646a158.618108 158.618108 0 0 1 62.169661-20.558275 154.254536 154.254536 0 0 1 65.408602 6.837763A158.213241 158.213241 0 0 1 1086.124676 292.40434a167.57018 167.57018 0 0 1-4.498528 36.977903 159.067961 159.067961 0 0 1-12.865791 34.773624 153.219874 153.219874 0 0 1-20.738216 30.769934c-1.979352 2.38422-4.138646 4.498528-6.297939 6.882748l-1.619471 1.709441-2.249264 2.294249-108.594473 108.594474z m399.784211 172.563546c-3.508852 3.733779-6.432895 6.522866-9.62685 9.761807l-18.803849 18.803848-85.06717 85.157141-31.804595-31.804595 85.06717-85.067171 18.803848-18.803848c3.058999-3.103985 6.522866-6.432895 8.997057-9.221983s5.53319-5.758116 8.097351-8.997057a197.125511 197.125511 0 0 0 26.676273-39.587049 206.302508 206.302508 0 0 0 16.599569-44.985283 213.230242 213.230242 0 0 0 5.623161-47.459474 202.208848 202.208848 0 0 0-304.100514-174.81281l-8.997057 5.398234c-2.924043 1.979352-5.713131 4.183631-8.592189 6.252954l-8.547204 6.252955-8.00738 7.467557c-2.609146 2.429205-5.218293 4.498528-7.91741 7.197645l-8.232307 8.547204-16.68954 16.644555-85.06717 85.06717-25.236744 25.236744-0.809735-0.989676-6.567852 6.567851-31.84958 31.84958-0.629794 0.629794-31.174801 31.174802-0.629794 0.629794-222.632166 222.677151-31.849581-31.84958 222.632166-222.677152 0.629794-0.629794 31.174802-31.174801 0.629794-0.629794 31.174801-31.174801 0.674779 0.674779 0.674779-0.674779 31.804595-31.804595 85.067171-85.067171 16.644555-16.68954 8.367262-8.322277c3.014014-2.834073 6.342925-5.803102 9.491895-8.68216l9.626851-8.682159 10.436585-7.737469c3.508852-2.519176 6.927734-5.173308 10.481571-7.602513l11.201336-6.612837a247.643984 247.643984 0 0 1 97.842991-32.209462 244.090146 244.090146 0 0 1 102.431489 10.571541 246.699293 246.699293 0 0 1 89.205817 51.463164 240.041471 240.041471 0 0 1 60.775117 83.087818 248.588675 248.588675 0 0 1 21.45798 100.767034 256.731011 256.731011 0 0 1-6.882748 57.98603 248.408733 248.408733 0 0 1-20.288363 54.792075 242.920529 242.920529 0 0 1-32.61433 48.404165c-2.969029 3.958705-6.29794 7.467557-9.671836 10.886438z" fill="#2c2c2c" /></svg>