<?xml version="1.0" standalone="no"?><!DOCTYPE svg PUBLIC "-//W3C//DTD SVG 1.1//EN" "http://www.w3.org/Graphics/SVG/1.1/DTD/svg11.dtd"><svg class="icon" width="600px" height="477.02px" viewBox="0 0 1288 1024" version="1.1" xmlns="http://www.w3.org/2000/svg"><path d="M698.447378 4.031325c89.590874-18.370166 192.262333 27.338309 231.590863 110.858615 35.989529 141.452921-41.31118 281.242001-127.798858 388.229637 17.921193-99.545626 79.200355-230.602368 4.936817-319.050059-127.17256-98.862734-251.24381 82.309211-265.443054 196.357798-82.311097-68.721173-185.342866-153.154517-299.619713-118.904287-74.486138 30.079308-108.426992 124.152367-72.282774 195.601334 77.683656 163.324322 240.772174 258.536792 390.110419 348.061641-179.792956-39.179501-362.181655-120.038038-482.987475-262.862402-120.039925-133.407248-106.997069-394.303979 91.418837-445.93022 114.261755-36.519619 236.299421 12.143023 322.69089 87.549745 39.254959-85.714237 108.345875-167.576361 207.36141-179.874073l0.022638-0.037729z m0 0M1287.666026 124.380626c16.100777 150.722894-162.264142 187.089711-275.022403 186.26345 7.890984-27.176075 39.10593-38.502269 55.804709-60.292553-55.04636-0.301831-84.352227 52.850542-122.928067 77.440305 0.905492-53.984293 21.265854-107.372471 66.200888-139.781534 78.059058-66.436693 190.28157-16.630867 275.929782-63.637213l0.015091 0.007545z m0 0" fill="#d81e06" /><path d="M979.240405 337.437203c165.601257-39.179501 246.842742 165.286221 180.251361 294.299948-68.274087 170.915363-273.726418 232.341667-441.759298 196.963345-55.053905 44.493607-72.592151 126.576444-85.959475 195.299504-49.813371-64.69928-7.581608-160.141896 45.63679-217.302956-157.930986-93.024198 27.176075-348.969019 167.959309-250.425094 79.192809 73.807019-12.675 171.217193-69.098461 225.959835 143.501596 2.129792 307.210753-101.447158 306.295828-257.852013-0.301831-94.831409-92.030043-169.860842-183.750709-136.899052 17.840076-27.715597 49.813371-41.31118 80.409564-50.035971l0.015091-0.007546zM751.526179 618.075542c-66.585722 13.50692-102.354537 108.123275-38.421152 147.378234 59.4512 5.917767 153.529919-170.834246 38.421152-147.378234z m0 0" fill="#d81e06" /></svg>