<?xml version="1.0" standalone="no"?><!DOCTYPE svg PUBLIC "-//W3C//DTD SVG 1.1//EN" "http://www.w3.org/Graphics/SVG/1.1/DTD/svg11.dtd"><svg class="icon" width="600px" height="600.00px" viewBox="0 0 1024 1024" version="1.1" xmlns="http://www.w3.org/2000/svg"><path d="M0 0h1024v1024H0z" fill="#FFFDDC" /><path d="M512 510.795294m-360.207059 0a360.207059 360.207059 0 1 0 720.414118 0 360.207059 360.207059 0 1 0-720.414118 0Z" fill="#228BAF" /><path d="M613.195294 227.689412s-357.797647 307.2-31.322353 399.962353c-114.447059 43.369412-283.105882-13.251765-271.058823-124.084706s175.887059-239.736471 302.381176-275.877647z" fill="#FFFFFF" /><path d="M699.934118 301.176471s-269.854118 237.327059-15.661177 302.381176c-162.635294 37.345882-220.461176-43.369412-216.847059-81.92 3.614118-39.755294 18.070588-132.517647 232.508236-220.461176z" fill="#FFFFFF" /><path d="M230.098824 825.223529s204.8-243.350588 622.832941-203.595294C639.698824 666.202353 462.607059 686.682353 230.098824 825.223529z" fill="#FFFFFF" /><path d="M310.814118 787.877647s155.407059-171.068235 471.04-143.36c-160.225882 31.322353-295.152941 45.778824-471.04 143.36z" fill="#FFFFFF" /></svg>