<?xml version="1.0" standalone="no"?><!DOCTYPE svg PUBLIC "-//W3C//DTD SVG 1.1//EN" "http://www.w3.org/Graphics/SVG/1.1/DTD/svg11.dtd"><svg class="icon" width="600px" height="591.91px" viewBox="0 0 1038 1024" version="1.1" xmlns="http://www.w3.org/2000/svg"><path d="M707.644 898.336a45493.809 45493.809 0 0 0 31.226 61.063 727.353 727.353 0 0 1-89.217 36.275c-5.576-16.79-11.335-33.568-17.114-50.357 15.31-5.07 30.415-10.585 45.146-16.82 2.028 5.07 4.32 9.956 6.428 14.985-10.037 4.258-20.165 8.16-30.354 11.861 1.774 4.786 3.579 9.743 5.414 14.752 15.907-5.78 31.429-12.055 46.86-18.827q-9.805-21.727-19.811-43.483a635.074 635.074 0 0 1-73.939 27.535c8.455 26.907 16.83 53.916 25.214 80.732a718.198 718.198 0 0 0 124.488-50.783c-10.614-20.277-21.472-40.3-32.189-60.485a641.978 641.978 0 0 0 75.085-45.623c10.067 14.042 20.276 28.002 30.313 42.013-14.082 10.007-28.67 19.395-43.483 28.286a1664.329 1664.329 0 0 1-8.516-13.869c9.641-5.759 18.918-11.649 28.245-17.813-2.95-4.288-6.083-8.709-8.84-13.007-13.83 9.124-27.82 17.782-42.267 25.842 8.02 13.91 16.14 27.586 24.099 41.405a733.487 733.487 0 0 0 74.699-48.664q-25.346-33.325-50.945-66.71a636.92 636.92 0 0 1-100.542 61.692zM888.37 740.279c19.942 11.446 39.803 22.964 59.816 34.36a720.094 720.094 0 0 1-54.747 78.49q-20.976-16.586-42.145-33.051c10.067-12.43 19.709-25.184 28.65-38.384 4.421 3.042 9.024 6.083 13.566 9.125-6.083 8.901-12.4 17.59-18.908 26.248 4.146 3.041 8.516 6.245 12.713 9.439 10.139-13.292 19.679-26.958 28.864-40.97q-20.277-12.915-40.553-25.811a632.448 632.448 0 0 1-46.85 62.766q32.768 27.17 65.687 54.28a708.455 708.455 0 0 0 76.402-109.635q-30.161-16.749-60.424-33.284a643.651 643.651 0 0 0 37.887-78.643c16.13 6.326 32.351 12.561 48.532 18.969-6.337 15.927-13.271 31.661-20.774 47-4.988-2.31-9.966-4.572-14.822-6.985a1028.584 1028.584 0 0 0 13.85-30.15c-4.979-2.029-9.886-4.137-14.701-6.135-6.51 15.005-13.505 29.827-21.129 44.366q21.564 10.95 43.068 21.827a722.193 722.193 0 0 0 35.758-80.924c-26.36-9.692-52.922-19.15-79.505-28.691a626.203 626.203 0 0 1-50.235 105.793z m149.824-233.749c-23.197 0.234-46.22 0.629-69.275 0.953a625.92 625.92 0 0 0-7.168-86.743c17.306-2.535 34.52-5.07 51.705-7.614 2.616 16.972 4.542 34.065 5.83 51.097-5.445 0.416-10.91 0.821-16.343 1.146a909.516 909.516 0 0 0-3.336-32.889q-7.867 0.923-15.836 1.916 3.042 24.332 4.258 48.877c16.11-0.8 32.18-1.622 48.31-2.393a706.407 706.407 0 0 0-9.997-87.757c-27.85 4.725-55.517 9.51-83.398 14.346a628.85 628.85 0 0 1 10.078 116.59c23.064 0.082 46.129 0.213 69.143 0.193a696.259 696.259 0 0 1-7.614 94.935c-17.772-2.656-35.393-5.18-53.216-7.745 2.433-15.745 4.278-31.571 5.373-47.356l16.374 1.216a546.019 546.019 0 0 1-3.194 32.027c5.282 0.578 10.412 1.207 15.775 1.855 2.15-16.474 3.559-33.06 4.33-49.677a6380.616 6380.616 0 0 0-48.178-2.271 635.591 635.591 0 0 1-8.719 77.538 27633.52 27633.52 0 0 1 84.28 14.477 710.919 710.919 0 0 0 10.818-132.72zM889.15 289.966q29.077-18.401 58.174-36.964a716.241 716.241 0 0 1 45.967 83.762c-16.353 7.35-32.635 14.68-48.907 22.092a641.971 641.971 0 0 0-21.656-42.47c4.776-2.676 9.56-5.282 14.366-7.938 5.313 9.398 10.25 18.928 15.076 28.57 4.755-2.302 9.5-4.603 14.244-6.864q-11.05-22.375-23.815-44.02-20.884 11.922-41.729 23.967a618.68 618.68 0 0 1 35.484 69.72q39.327-16.596 78.805-33.223a718.33 718.33 0 0 0-64.287-116.904 10607.6 10607.6 0 0 0-57.545 37.937 645.02 645.02 0 0 0-53.794-69.042c12.998-11.294 26.036-22.76 39.155-34.014 11.507 12.754 22.588 26.066 33.121 39.651-4.42 3.315-8.85 6.63-13.119 9.905-6.823-8.921-13.788-17.498-20.935-25.934-4.126 3.356-8.172 6.742-12.166 10.058 10.574 12.561 20.794 25.498 30.415 38.789 13.119-9.398 26.167-18.665 39.225-27.972a766.984 766.984 0 0 0-56.775-68.25q-31.124 28.457-62.137 56.916a637.548 637.548 0 0 1 72.833 92.228zM734.794 65.808a718.005 718.005 0 0 1 84.726 45.541c-9.54 14.985-19.161 29.847-28.742 44.76-13.676-8.465-27.535-16.555-41.699-23.966 2.616-4.816 5.16-9.52 7.787-14.285a523.31 523.31 0 0 1 28.336 15.846c2.707-4.43 5.455-8.942 8.11-13.494-14.314-8.567-29.045-16.546-44.192-24.058-7.168 14.193-14.528 28.387-21.757 42.58a648.274 648.274 0 0 1 68.18 39.378q23.886-35.14 47.772-70.178A728.681 728.681 0 0 0 724.97 44.345q-13.767 31.429-27.373 62.756a664.212 664.212 0 0 0-83.134-28.762c4.765-16.566 9.297-33.193 14.062-49.749 16.616 4.552 33.264 9.733 49.475 15.532-1.683 5.07-3.62 10.2-5.455 15.278-10.625-3.76-21.148-7.249-31.723-10.462a777.478 777.478 0 0 0-4.744 15.014c15.816 4.857 31.55 10.2 46.94 16.1q8.689-22.304 17.53-44.548a752.912 752.912 0 0 0-85.365-26.643c-6.915 27.018-13.829 53.956-20.672 81.106a642.029 642.029 0 0 1 111.906 38.252q14.326-31.175 28.377-62.411zM463.93 90.626q-5.231-33.659-10.564-67.51a729.715 729.715 0 0 1 96.132-7.371c0.162 17.681 0.415 35.393 0.527 53.185-16.009 0.102-32.139 0.74-48.086 2.14-0.588-5.394-1.014-10.757-1.38-16.171 10.778-0.892 21.646-1.632 32.525-1.906-0.325-5.211-0.416-10.402-0.588-15.704a693.749 693.749 0 0 0-50.418 3.589c1.713 15.775 3.396 31.58 5.18 47.406a651.894 651.894 0 0 1 78.968-3.67c0.405-28.073 0.943-56.359 1.308-84.502a733.7 733.7 0 0 0-134.343 10.3c3.883 22.446 7.857 44.882 11.74 67.308a652.42 652.42 0 0 0-85.689 20.54c-5.333-16.413-10.584-32.777-15.674-49.21 16.546-5.161 33.325-9.683 50.185-13.606 1.196 5.23 2.494 10.483 3.802 15.775-10.98 2.494-21.747 5.383-32.534 8.344 1.46 5.069 3.041 10.138 4.41 15.045 15.907-4.38 32.017-8.435 48.167-11.7a4612.6 4612.6 0 0 0-9.844-46.758 741.182 741.182 0 0 0-86.176 23.572q13.575 39.54 27.374 78.977a652.634 652.634 0 0 1 114.978-28.073z m-224.117 98.97c-15.43-16.93-30.77-33.993-46.15-50.904a731.276 731.276 0 0 1 76.524-57.92c9.956 14.802 19.932 29.502 29.776 44.203-13.362 8.85-26.481 18.066-39.123 27.749-3.275-4.238-6.702-8.446-10.139-12.734 8.567-6.691 17.377-13.028 26.228-19.121l-9.124-12.937c-13.819 9.601-27.222 19.578-40.29 30.182 10.077 12.237 20.368 24.616 30.506 36.904a640.224 640.224 0 0 1 64.105-45.47c-15.036-23.836-30.182-47.772-45.42-71.587a715.4 715.4 0 0 0-106.898 80.893c15.562 16.82 31.226 33.457 46.96 50.195a633.645 633.645 0 0 0-60.556 63.294c-13.453-11.01-26.937-21.92-40.249-32.9 11.05-13.179 22.517-26.085 34.531-38.525l11.801 11.274c-7.776 8.03-15.207 16.14-22.558 24.454 3.995 3.447 8.02 6.884 11.974 10.29 10.868-12.247 22.142-24.332 33.912-35.758-11.324-11.274-22.638-22.517-34.024-33.842a721.909 721.909 0 0 0-59.36 66.072q33.284 25.832 66.589 51.573a638.39 638.39 0 0 1 80.985-85.384z m-133.4 203.507c-22.244-5.982-44.487-11.984-66.791-17.985a706.073 706.073 0 0 1 32.34-89.714c16.445 7.096 32.92 14.072 49.395 21.097-6.388 14.63-12.339 29.402-17.61 44.366a1813.84 1813.84 0 0 0-15.512-5.333 614.606 614.606 0 0 1 11.497-30.151c-4.978-1.835-9.875-3.863-14.904-5.89-6.255 15.46-11.943 31.053-17.164 46.9 15.208 4.876 30.628 9.772 46.008 14.548a617.697 617.697 0 0 1 28.813-72.55c-25.904-11.821-51.868-23.815-77.7-35.535a703.214 703.214 0 0 0-45.085 125.36c22.304 5.617 44.608 11.152 67.044 16.82a604.578 604.578 0 0 0-15.795 85.567c-17.367-2.028-34.734-3.883-51.98-5.87 2.028-17.022 4.512-34.055 7.736-50.752 5.343 1.013 10.818 1.875 16.15 2.95q-3.04 16.363-5.454 32.595c5.242 0.861 10.585 1.45 15.806 2.25a675.626 675.626 0 0 1 8.729-48.299c-15.785-3.386-31.56-6.66-47.346-9.996a706.002 706.002 0 0 0-13.291 87.362l84.33 7.36a621.854 621.854 0 0 1 20.784-115.1z m0.395 242.326q-32.98 10.483-65.899 20.834A693.582 693.582 0 0 1 18.482 563.7q26.573-4.4 52.983-8.921c2.707 15.775 5.92 31.337 9.763 46.697a1820.86 1820.86 0 0 0-15.958 3.913c-2.605-10.483-4.937-20.946-7.096-31.429a1937.897 1937.897 0 0 1-15.745 3.042c3.356 16.393 7.168 32.544 11.598 48.613q23.318-6.205 46.636-12.48a616.937 616.937 0 0 1-15.917-76.443C56.47 540.555 28.144 544.61 0 548.604A694.718 694.718 0 0 0 31.368 678.02c21.909-7.31 43.656-14.792 65.534-22.03a641.917 641.917 0 0 0 33.842 80.325c-15.552 7.634-31.105 15.36-46.778 22.913-7.736-15.258-14.904-30.932-21.565-46.799a949.895 949.895 0 0 0 15.208-6.083c4.319 10.26 8.76 20.277 13.484 30.284 4.765-2.19 9.641-4.471 14.457-6.671-7.006-14.792-13.565-29.909-19.384-45.217-15.046 5.708-30.03 11.415-45.157 17.103a730.972 730.972 0 0 0 36.995 80.356c24.96-12.957 49.81-26.055 74.79-39.093a632.823 632.823 0 0 1-45.987-107.68z m90.241 256.002a725.71 725.71 0 0 1-69.883-65.635c13.281-11.984 26.44-23.987 39.62-35.98 10.848 11.74 22.234 23.094 33.883 33.952-3.731 3.833-7.462 7.847-11.244 11.74-8.04-7.279-15.633-14.842-23.217-22.537-3.791 3.6-7.644 7.26-11.527 10.889a754.085 754.085 0 0 0 36.498 34.612c10.706-11.832 21.453-23.683 32.047-35.545a639.728 639.728 0 0 1-55.395-55.477q-32.27 27.708-64.53 55.588a721.615 721.615 0 0 0 97.682 91.712c14.285-17.905 28.63-35.83 42.834-53.663a648.994 648.994 0 0 0 72.814 49.07c-8.851 14.883-17.651 29.725-26.613 44.477q-22.437-13.14-43.92-27.718c3.194-4.451 6.266-8.922 9.429-13.322 9.317 6.306 18.563 12.287 27.951 18.157 2.829-4.39 5.658-8.921 8.496-13.321-14.01-8.699-27.708-17.803-41.07-27.485-9.621 12.855-19.04 25.69-28.63 38.525a731.743 731.743 0 0 0 75.459 47.58q20.54-36.498 41.172-72.996a642.769 642.769 0 0 1-98.13-65.595c-14.609 17.66-29.086 35.25-43.726 52.972z m268.179 45.238q-3.69 33.922-7.573 67.926a740.624 740.624 0 0 1-94.773-17.519c4.582-17.093 8.992-34.298 13.453-51.37 15.573 3.913 31.277 7.42 47.052 10.138-1.014 5.282-1.896 10.665-2.849 15.927-10.787-1.794-21.371-3.974-31.946-6.316-1.216 4.958-2.331 10.138-3.568 15.207 16.393 3.752 32.96 6.783 49.627 9.419 2.484-15.593 4.907-31.307 7.36-47.062a628.85 628.85 0 0 1-77.163-16.657q-11.669 40.634-23.409 81.299a718.158 718.158 0 0 0 132.467 24.332q3.316-34.025 6.296-67.988a663.725 663.725 0 0 0 88.153 2.028q1.105 25.761 2.27 51.533a712.85 712.85 0 0 1-52.04 0.324c0.133-5.343 0.224-10.777 0.467-16.221 11.233 0.304 22.244 0.365 33.538 0.233-0.092-5.19-0.193-10.584-0.284-15.694-16.597 0.223-33.122 0-49.749-1.014-1.014 15.938-1.733 31.774-2.626 47.65a716.363 716.363 0 0 0 89.542-0.618c-1.926-27.708-3.913-55.507-5.769-83.357a647.777 647.777 0 0 1-118.476-2.2zM519.163 98.32c-228.467 0-413.643 185.207-413.643 413.644s185.206 413.643 413.643 413.643S932.806 740.4 932.806 511.965 747.599 98.32 519.163 98.32z m-28.844 529.007a88.71 88.71 0 1 1-88.71-88.71h88.71z m0-145.991h-88.71a88.71 88.71 0 1 1 88.71-88.71z m146.448 234.702a88.74 88.74 0 0 1-88.71-88.71v-88.71h88.71a88.71 88.71 0 1 1 0 177.42z m0-234.712h-88.71v-88.7a88.71 88.71 0 1 1 88.71 88.71z" /></svg>