<?xml version="1.0" standalone="no"?><!DOCTYPE svg PUBLIC "-//W3C//DTD SVG 1.1//EN" "http://www.w3.org/Graphics/SVG/1.1/DTD/svg11.dtd"><svg class="icon" width="600px" height="600.00px" viewBox="0 0 1024 1024" version="1.1" xmlns="http://www.w3.org/2000/svg"><path d="M1021.85 455.4S851.39 770.02 571.22 807c0 0 473.76-26.15 450.63-351.6z"  /><path d="M923.4 356.83S834.12 703.34 571.22 807c0 0 453.36-139.98 352.18-450.17z"  /><path d="M804.04 285s-2.8 357.82-232.81 522c-0.01 0 406.02-245.5 232.81-522z"  /><path d="M670.84 244.19s83.85 347.87-99.62 562.82c0-0.01 334.57-336.45 99.62-562.82z"  /><path d="M531.72 236.8s165.52 317.25 39.5 570.2c0 0 243.24-407.38-39.5-570.2z"  /><path d="M394.95 263.3S632.3 531.09 571.22 807c0 0 137.46-454.13-176.27-543.7z"  /><path d="M268.65 322.09S563.73 524.5 571.22 807c0 0 23.52-473.89-302.57-484.91z"  /><path d="M160.33 409.69S495.61 534.7 571.22 807c0 0-91.83-465.51-410.89-397.31z"  /><path d="M76.42 520.9s355.57 40.19 494.8 286.1c0 0-201.72-429.46-494.8-286.1z"  /><path d="M21.9 649.1S376.63 602.07 571.22 807c0 0-299.62-367.91-549.32-157.9z"  /><path d="M571.22 807S191.49 522.51 0.02 786.68c0 0 332.81-131.44 571.2 20.32z"  /></svg>