<?xml version="1.0" standalone="no"?><!DOCTYPE svg PUBLIC "-//W3C//DTD SVG 1.1//EN" "http://www.w3.org/Graphics/SVG/1.1/DTD/svg11.dtd"><svg class="icon" width="600px" height="600.00px" viewBox="0 0 1024 1024" version="1.1" xmlns="http://www.w3.org/2000/svg"><path d="M365.312 406.016c11.776 6.656 21.76 12.544 27.136 15.616 29.44 16.896 106.752-64 106.752-64l-234.752-135.424S225.536 325.12 252.16 340.48c1.536 0.768 3.072 1.792 4.608 2.56-27.904 16.128-55.04 31.744-72.192 41.728-26.624 15.36 12.288 118.272 12.288 118.272s142.336-81.92 168.448-97.024zM530.176 362.496c0 34.048 108.8 60.416 108.8 60.416V152.064s-108.8 17.664-108.8 48.384v5.12C502.272 189.44 475.136 173.824 457.984 163.84c-26.624-15.36-96.256 69.888-96.256 69.888s142.592 82.176 168.448 97.28v31.488zM652.288 576.512l234.752-135.424S817.408 355.84 790.784 371.2c-1.536 0.768-3.072 1.792-4.608 2.56v-83.456c0-30.72-108.8-48.384-108.8-48.384v194.56c-11.776 6.656-21.76 12.544-27.136 15.616-29.44 17.152 2.048 124.416 2.048 124.416zM495.104 660.224c0-34.048-108.8-60.416-108.8-60.416v271.104s108.8-17.664 108.8-48.384v-5.12c27.904 16.128 55.04 31.744 72.192 41.728 26.624 15.36 96.256-69.888 96.256-69.888s-142.336-82.176-168.448-97.28v-31.744zM659.968 616.704c-11.776-6.656-21.76-12.544-27.136-15.616-29.44-17.152-106.752 64-106.752 64l133.888 77.312 100.864 58.112s38.912-102.912 12.288-118.272c-1.536-0.768-3.072-1.792-4.608-2.56 27.904-16.128 55.04-31.744 72.192-41.728 26.624-15.36-12.288-118.272-12.288-118.272s-142.592 82.176-168.448 97.024zM372.992 446.208l-133.888 77.312L138.24 581.888s69.632 85.248 96.256 69.888c1.536-0.768 3.072-1.792 4.608-2.56v83.456c0 30.72 108.8 48.384 108.8 48.384v-194.56c11.776-6.656 21.76-12.544 27.136-15.616 29.44-17.152-2.048-124.672-2.048-124.672z" fill="#d4237a" /></svg>