<?xml version="1.0" standalone="no"?><!DOCTYPE svg PUBLIC "-//W3C//DTD SVG 1.1//EN" "http://www.w3.org/Graphics/SVG/1.1/DTD/svg11.dtd"><svg class="icon" width="600px" height="600.00px" viewBox="0 0 1024 1024" version="1.1" xmlns="http://www.w3.org/2000/svg"><path d="M351.596452 124.756211l99.566037-99.548971a86.049359 86.049359 0 0 1 121.684238 0L672.429831 124.756211h140.781666a86.049359 86.049359 0 0 1 86.049359 86.049358v140.798733l99.548971 99.548971a86.049359 86.049359 0 0 1 0 121.684238L899.24379 672.420615v140.781666a86.049359 86.049359 0 0 1-86.049359 86.049359h-140.798733l-99.548971 99.548971a86.049359 86.049359 0 0 1-121.684238 0L351.579385 899.234574h-140.781666a86.049359 86.049359 0 0 1-86.049359-86.049359v-140.798733l-99.548971-99.548971a86.049359 86.049359 0 0 1 0-121.684238L124.765427 351.570169v-140.781666a86.049359 86.049359 0 0 1 86.049358-86.049359h140.798733zM512.004608 204.798157c-28.432811 69.392442-67.105529 128.544976-116.052289 177.491736C346.971427 431.270785 283.2792 474.483196 204.807373 511.995392c71.696421 30.73679 133.152935 71.713488 184.36954 122.930094 51.216606 51.216606 92.159171 112.638986 122.827695 184.267141 33.194368-74.153999 76.628644-138.068091 130.251628-191.691075C695.896286 573.861502 754.878156 535.359448 819.201843 511.995392c-71.576956-30.617324-132.93107-71.491623-184.02821-122.588763-51.09714-51.09714-92.159171-112.638986-123.169025-184.608472z" fill="#d81e06" /></svg>