<?xml version="1.0" standalone="no"?><!DOCTYPE svg PUBLIC "-//W3C//DTD SVG 1.1//EN" "http://www.w3.org/Graphics/SVG/1.1/DTD/svg11.dtd"><svg class="icon" width="600px" height="600.00px" viewBox="0 0 1024 1024" version="1.1" xmlns="http://www.w3.org/2000/svg"><path d="M975.005261 211.141577c-46.403485-70.883665-122.249006-127.97033-198.170473-163.412163A514.083777 514.083777 0 0 0 516.261374 1.908188C359.000901 15.426716 214.119754 103.524985 129.109987 236.40654 42.226867 372.148758 24.784422 545.636527 82.757134 696.036473c56.251251 146.020349 179.740721 260.927832 329.634356 306.1668a515.222979 515.222979 0 0 0 292.217907 1.26578c99.313077-29.062302 184.120319-88.022322 251.409168-165.867775C935.031938 848.081934 916.551554 863.271291 895.286454 873.625369a389.455106 389.455106 0 0 1-76.807513 27.847154 373.177178 373.177178 0 0 1-167.260133 3.088502c-101.262378-21.113206-188.575863-92.40192-226.650518-189.006228-37.973392-96.199259-23.113138-216.929329 62.833306-282.522035 73.769642-56.301882 202.955121-44.504815 234.346458 53.947532 9.442717 29.644561 7.063051 66.149648-16.024771 89.110893-20.455 20.252476-56.555038 35.441832-79.490967-0.506312 34.732996 31.644493 76.88346-17.442445 62.630781-54.985471-15.569091-41.112525-79.440335-50.631189-112.299977-26.809215-38.986016 28.505359-38.32781 84.984451-16.682977 123.919835a120.603492 120.603492 0 0 0 100.832013 60.478955c48.909729 1.26578 93.136072-29.59393 120.299705-68.503998 29.695192-42.530199 36.251931-103.667359 30.935656-154.020077-10.835074-102.907892-80.04791-189.107491-175.361123-227.207461-103.793937-41.441628-225.587262-24.454864-313.483006 44.808603 52.783015-110.831673 166.272825-182.27228 286.192795-197.892003 134.932119-17.720916 275.053934 34.403893 365.709078 135.894112-0.253156-0.531627-2.404981-2.835347 0-0.126578z" fill="#00A0E9" /></svg>