<?xml version="1.0" standalone="no"?><!DOCTYPE svg PUBLIC "-//W3C//DTD SVG 1.1//EN" "http://www.w3.org/Graphics/SVG/1.1/DTD/svg11.dtd"><svg class="icon" width="600px" height="600.00px" viewBox="0 0 1024 1024" version="1.1" xmlns="http://www.w3.org/2000/svg"><path d="M945.8432 599.1424c-2.4832 0-280.0896-456.8576-280.0896-456.8576 16.1792-13.696 21.1456-28.6464 21.1456-51.0464 0-42.3296-33.6128-77.184-75.9424-78.4256-82.1504-1.2416-84.6336 84.6592-82.1504 88.384L217.5872 216.96c-13.696-19.9168-33.6128-27.3792-58.5088-27.3792a78.1056 78.1056 0 0 0-78.4256 78.4256c0 34.8544 18.6752 64.7424 49.8048 74.688L59.4944 641.4592c-34.8672 7.4752-57.28 38.592-57.28 75.9552A78.1056 78.1056 0 0 0 80.64 795.84c23.6672 0 44.8128-9.9584 61.0048-27.392l291.3024 161.8304v2.4832A78.1312 78.1312 0 0 0 511.3856 1011.2c47.2832 0 78.4128-42.3296 73.4336-83.4176l309.9776-181.7472c13.696 9.9456 31.1296 11.2 48.5504 11.2a78.1056 78.1056 0 0 0 78.4256-78.4256c-1.2416-39.8208-37.3504-80.9088-75.9296-79.6672zM605.9904 50.1504a38.784 38.784 0 0 1 38.592 38.592c0 21.1584-17.4208 38.592-38.592 38.592s-38.6048-17.4208-38.6048-38.592c0-19.9168 17.4336-38.592 38.6048-38.592z m-61.0048 405.8368L403.072 373.824l181.7472-209.1392c2.4832 0-3.7376 0 0 0l-39.8336 291.3024z m33.6128 62.2336L820.096 653.9136l-258.9312 9.9584 17.4336-145.6512z m-42.3296-21.1584l-17.4208 173.0432-125.7344 6.2208-87.1424-180.5184 73.4464-89.6256 156.8512 90.88z m7.4752-359.7696c2.4832 3.7376 6.208 6.2336 7.4752 9.9584L371.968 355.1488l-139.4304-79.68v-9.9584c0-3.7376 0-9.9712-2.496-13.696l313.7024-114.5216zM221.3248 309.0816l128.2304 72.2048-64.7424 74.7008-65.9712-144.4096 2.4832-2.496z m-104.576-43.5584a38.784 38.784 0 0 1 38.6048-38.592 38.784 38.784 0 0 1 38.592 38.592 38.784 38.784 0 0 1-38.592 38.592c-21.184-0.0128-38.6048-16.192-38.6048-38.592zM78.1568 754.752c-21.1584 0-38.6048-17.4208-38.6048-38.592s17.4336-38.6048 38.6048-38.6048 38.592 17.4336 38.592 38.6048-17.4208 38.592-38.592 38.592z m43.584-105.8176c-6.2208-3.7376-11.2-6.2208-19.9168-9.9456l70.9504-298.7776c6.208-2.4832 9.9584 0 16.192-2.4832l70.9504 150.6432L121.7408 648.9344z m24.896 27.392l128.2176-153.1264 70.9632 158.1184-195.456 8.7168c-3.7248-7.488 0-7.488-3.7248-13.7088z m293.7856 210.368l-278.8608-154.368 202.9312-11.2 74.688 160.6016c-1.2544 3.7376 2.496 0.0128 1.2416 4.9664z m-32.3712-166.7968l103.3344-6.2336-17.4336 139.4176c-7.4624 2.496-13.6832 3.7504-19.9296 6.2336l-65.9712-139.4176z m100.8384 250.2144a38.784 38.784 0 0 1-38.592-38.6048c0-21.1456 17.4208-38.5792 38.592-38.5792s38.592 17.4208 38.592 38.5792a38.784 38.784 0 0 1-38.592 38.6048z m63.488-82.1632c-9.9456-13.6832-23.6544-24.896-41.088-31.1168l19.9424-143.1808 311.2064-16.1792c2.496 6.2208 3.7376 11.2128 6.2208 17.4208l-296.2816 173.056z m297.5232-248.96L582.336 474.6624l41.0752-308.736c2.4832 0 3.7376 0 3.7376-2.4832l271.3856 444.416a69.888 69.888 0 0 0-28.6336 31.1296z m68.4672 77.1712a38.784 38.784 0 0 1-38.5792-38.6048 38.784 38.784 0 0 1 38.5792-38.5792 38.784 38.784 0 0 1 38.6048 38.5792c1.2416 19.9296-16.192 38.6048-38.6048 38.6048z m0 0"  /></svg>