<?xml version="1.0" standalone="no"?><!DOCTYPE svg PUBLIC "-//W3C//DTD SVG 1.1//EN" "http://www.w3.org/Graphics/SVG/1.1/DTD/svg11.dtd"><svg class="icon" width="600px" height="600.00px" viewBox="0 0 1024 1024" version="1.1" xmlns="http://www.w3.org/2000/svg"><path d="M17.409172 379.127533c-25.599371 95.101662-21.994126 190.92864 4.437224 278.777147l215.504036-63.955761a285.048993 285.048993 0 0 1-2.495939-156.838811c37.503078-139.260577 171.387787-226.895755 311.07502-211.514801L570.419577 3.094111C322.084349-24.211885 84.052867 131.538953 17.409172 379.127533z" fill="#FFDE0F" /><path d="M794.03008 586.247775c-41.364316 153.681555-200.101747 244.900646-354.487285 203.728325-100.669525-26.858006-174.331714-103.464123-202.192363-196.005848L21.846396 657.926013c49.492117 164.603953 180.454231 300.771273 359.415165 348.492766 274.489252 73.2142 556.636983-88.915148 630.192507-362.18843L794.03008 586.247775z" fill="#06CA56" /><path d="M647.60168 16.960436a518.10993 518.10993 0 0 0-86.269879-15.252958l-20.543495 223.354509c16.148936 1.493297 32.361871 4.031901 48.553473 8.362461 154.385538 41.172321 230.11701 216.997332 188.752693 370.657555l227.813066 60.798505C1079.463063 391.649892 922.112265 90.174637 647.60168 16.960436z" fill="#278DF6" /><path d="M524.639369 156.114349c-201.296385 0-364.47104 162.428007-364.47104 362.785748 0 200.379074 163.174655 362.807081 364.47104 362.807081s364.492373-162.428007 364.492373-362.807081c0-200.357741-163.217321-362.785748-364.492373-362.785748z m0 644.976144c-156.540152 0-283.470365-126.332894-283.470364-282.190396 0-155.836169 126.930213-282.169063 283.470364-282.169063 156.582817 0 283.491697 126.311562 283.491698 282.169063s-126.90888 282.190396-283.491698 282.190396z" fill="#FFFFFF" /><path d="M625.650219 682.309413a192.400603 192.400603 0 0 1-101.01085 28.671295 192.549933 192.549933 0 0 1-190.48065-162.897328l-148.177691 22.676775c25.172715 163.899971 166.993228 289.571548 338.658341 289.571549 65.939712 0 127.335536-18.858203 179.600918-50.921415l-78.590068-127.100876z" fill="#FFDE0F" /><path d="M524.639369 177.468491v149.39366c106.578713 0 192.955257 85.97122 192.955257 192.037946 0 69.139634-36.841761 129.596814-91.944407 163.409316l78.590068 127.122208c97.960258-60.137188 163.430649-167.590547 163.430649-290.531524 0-188.582031-153.553558-341.431606-343.031567-341.431606z" fill="#06CA56" /><path d="M181.607802 518.900097c0 19.754181 1.770623 39.103039 5.01321 57.961242l148.028361-25.386043a192.421936 192.421936 0 0 1-2.986593-32.553866c0-106.066726 107.837349-192.037946 214.394729-192.037946V177.468491c-189.435343 0-364.449707 152.849576-364.449707 341.431606z" fill="#278DF6" /></svg>