<?xml version="1.0" standalone="no"?><!DOCTYPE svg PUBLIC "-//W3C//DTD SVG 1.1//EN" "http://www.w3.org/Graphics/SVG/1.1/DTD/svg11.dtd"><svg class="icon" width="600px" height="600.00px" viewBox="0 0 1024 1024" version="1.1" xmlns="http://www.w3.org/2000/svg"><path d="M512.049302 0l511.980279 511.980279-511.980279 511.980279L0.069023 511.980279z" fill="#EB3D72" /><path d="M686.08493 849.964372H337.91507l40.230332 40.131728H645.854598l40.230332-40.131728zM686.08493 174.232836H337.91507l40.230332-40.230332H645.854598l40.230332 40.230332z" fill="#EB3D72" /><path d="M149.976312 149.976312h724.047376v724.047376H149.976312z" fill="#612273" /><path d="M523.881753 529.699374m-157.568802 0a157.568801 157.568801 0 1 0 315.137603 0 157.568801 157.568801 0 1 0-315.137603 0Z" fill="#612273" /><path d="M504.161001 498.540587m-157.568801 0a157.568801 157.568801 0 1 0 315.137603 0 157.568801 157.568801 0 1 0-315.137603 0Z" fill="#612273" /><path d="M149.976312 842.766298h724.047376v31.25739H149.976312zM149.976312 150.173519h724.047376v31.257391H149.976312z" fill="#612273" /><path d="M514.021377 512.443717m-157.568801 0a157.568801 157.568801 0 1 0 315.137602 0 157.568801 157.568801 0 1 0-315.137602 0Z" fill="#FED150" /><path d="M562.041406 562.041406c8.775734-3.746943 51.47116-29.581127 33.130862-72.966779s-55.513914-26.425806-55.513915-26.425807a29.581127 29.581127 0 1 0 23.171883 55.020896s-1.774868 7.296678-18.537506 13.607318-32.736447-5.028792-42.399615-28.003466-1.676264-95.05402 91.800096-135.087145c3.253924-1.380453 6.409244-2.267886 9.860376-3.451132A40.131728 40.131728 0 0 0 562.041406 341.85922c-80.657872 40.920558-117.141261 115.464998-92.293115 174.725855 26.031391 63.106403 83.22157 48.808859 92.293115 45.456331z" fill="#612273" /></svg>