<?xml version="1.0" standalone="no"?><!DOCTYPE svg PUBLIC "-//W3C//DTD SVG 1.1//EN" "http://www.w3.org/Graphics/SVG/1.1/DTD/svg11.dtd"><svg class="icon" width="600px" height="585.14px" viewBox="0 0 1050 1024" version="1.1" xmlns="http://www.w3.org/2000/svg"><path d="M13.234062 0h1024v1024H13.234062z" fill="#D7D9D9" /><path d="M569.607396 343.608889l47.217777-50.688a206.222222 206.222222 0 0 1 301.226667 0c83.057778 87.04 83.057778 228.295111 0.113778 315.164444l-56.888889 59.733334-291.612445-324.266667z m247.751111 370.460444l-136.192 143.075556-0.170667 0.170667c-43.690667 45.795556-96.711111 76.856889-168.220444 69.290666a195.413333 195.413333 0 0 1-91.591112-27.989333 232.220444 232.220444 0 0 1-42.097777-31.345778 185.685333 185.685333 0 0 1-10.524445-10.24l-236.145778-248.718222c-83.057778-87.04-83.057778-228.352 0-315.392 83.114667-87.153778 218.112-87.153778 302.933334 1.820444l82.944 89.315556-0.113778 0.170667 299.235556 329.841777z" fill="#22BD7A" /><path d="M569.607396 343.608889l291.726222 324.266667 56.888889-59.733334c82.887111-86.926222 82.887111-228.181333-0.170667-315.221333a206.222222 206.222222 0 0 0-301.226667 0l-47.217777 50.631111z m-51.2-47.786667l47.786666-51.256889a276.252444 276.252444 0 0 1 402.488889 0c108.828444 114.062222 108.885333 297.927111 0.227556 411.875556l-109.056 114.517333-385.137778-428.202666 43.690667-46.933334z m298.951111 418.247111l-299.235556-329.841777L435.349618 294.684444c-84.821333-88.974222-219.818667-88.974222-302.933334-1.820444-83.057778 87.04-83.057778 228.295111 0 315.392l236.145778 248.661333c3.413333 3.584 6.940444 6.997333 10.581334 10.24 14.222222 12.856889 24.576 21.162667 41.984 31.402667a195.413333 195.413333 0 0 0 91.648 27.989333c71.452444 7.566222 124.586667-23.495111 168.220444-69.290666l0.170667-0.170667 136.192-143.075556z m95.573333 1.137778l-44.828444 47.104-136.248889 143.132445c-63.715556 66.730667-137.500444 100.238222-221.980445 91.079111a264.760889 264.760889 0 0 1-124.188444-37.546667 297.984 297.984 0 0 1-53.361778-39.651556 255.658667 255.658667 0 0 1-14.506667-14.108444l-236.088889-248.604444c-108.828444-114.119111-108.828444-297.927111 0-412.046223 111.104-116.394667 292.238222-115.655111 404.935112 2.503111l127.203555 137.045334-0.625778 0.682666 299.690667 330.410667z" fill="#FFFFFF" /><path d="M601.522062 714.695111a34.986667 34.986667 0 0 1 49.322667-49.664l115.029333 114.119111a34.986667 34.986667 0 0 1-49.322666 49.720889l-115.029334-114.176zM490.53184 816.412444a34.986667 34.986667 0 1 1 50.574222-48.355555l115.882667 121.059555a34.986667 34.986667 0 0 1-50.631111 48.412445L490.53184 816.412444z" fill="#FFFFFF" /></svg>