<?xml version="1.0" standalone="no"?><!DOCTYPE svg PUBLIC "-//W3C//DTD SVG 1.1//EN" "http://www.w3.org/Graphics/SVG/1.1/DTD/svg11.dtd"><svg class="icon" width="600px" height="520.24px" viewBox="0 0 1181 1024" version="1.1" xmlns="http://www.w3.org/2000/svg"><path d="M3.487825 335.193023l565.544573 687.448383-226.765262-687.438393z m0 0M403.723519 335.193023l200.272686 688.806977 172.311631-688.806977z m0 0M634.484645 1022.641406l544.436423-687.438393H842.729079z m0 0M1180.199745 290.229567L1016.928756 16.982421 853.55787 290.229567z m0 0M965.631856 1.328625H639.089878l163.221041 282.707353z m0 0M752.192799 290.229567L588.871861 16.982421 425.560914 290.229567z m0 0M541.081332 1.328625H214.64924l163.221041 282.707353z m0 0M163.302392 16.982421L0.081352 290.229567H326.61334z m0 0" /></svg>