<?xml version="1.0" standalone="no"?><!DOCTYPE svg PUBLIC "-//W3C//DTD SVG 1.1//EN" "http://www.w3.org/Graphics/SVG/1.1/DTD/svg11.dtd"><svg class="icon" width="600px" height="600.00px" viewBox="0 0 1024 1024" version="1.1" xmlns="http://www.w3.org/2000/svg"><path d="M690.4 262.8l-31.6-47.6c-46.8 39.2-88.8 86.8-125.6 139.6-0.8-1.2-2-2.4-3.2-3.2-6.8-7.2-15.6-12.4-24.8-15.6 39.2-56.4 84.4-107.6 134.8-149.2l-30-44.8 133.2-4.4-52.8 125.2z m195.6 502.4c-8 11.6-16.4 22.8-25.2 33.6-6.4-24-14.8-47.6-24.8-70.4-6-14-13.2-27.6-20.4-41.2 10.8-2.8 20.4-8.8 28-16.8l0.8-0.8c8 14.4 15.6 29.2 22 44.4 7.6 17.2 14 34 19.6 51.2z m-385.2 198.4c-21.6-0.4-42.4-2.4-63.2-6-7.2-6-14-12-20.8-18.4-14-12.8-27.2-26.8-40-40.8 4-2.4 8-5.6 11.2-9.2l1.6-1.6c4-4.4 7.2-9.2 10-14.4 12.8 14.4 26 28 40 40.8 19.6 17.6 40 34.4 61.2 49.6z m-253.2-85.2c-14.8-10.8-29.2-22.4-42.8-35.2 25.2 1.2 50.8 1.2 76.4-0.8v1.2c0 12 3.2 23.2 8.8 32.8-14.4 1.2-28.4 1.6-42.4 2zM150.8 240.8c11.6-15.2 24-29.6 37.2-43.6-3.6 32-5.2 64.8-4.4 98-4.4-0.8-8.8-1.6-13.6-1.6-6.8 0-13.6 1.2-20 3.2-0.4-18.4 0-37.2 0.8-56z m178.4 540.8c-12.4 2.8-20 8-29.2 16.4-53.6-83.2-93.6-178-119.2-275.6l-54 10.8 46-121.6 6-1.2 88 94.4-53.2 10.8c24.8 92.8 64.8 186.8 115.6 266z m10.4-1.6l-46.4-116 57.2 10.8c21.2-77.6 51.6-158 90.8-233.2l0.4 0.4c8 8 17.6 14 28.8 16.8-37.6 71.6-66.8 148-86.8 222l50.4 9.2L352 780h-12.4z m63.6 44c54.4-12.8 108.4-31.6 160-56 64.4-30 125.2-68.8 179.6-114.4 3.2 6.4 7.2 12 12 17.2 3.2 3.2 6.8 6 10.4 8.8-56.8 48-120.8 88.4-188 120-55.6 26-114 46-172.8 59.6 1.2-4.8 1.6-10 1.6-15.2 0.4-7.2-0.8-13.6-2.8-20z m343.6-233.6c-37.2-42-80.8-79.6-130-110.8l-26.8 50.4-55.6-102.8 8.4-17.6 115.6-8.4-25.6 48c52.8 33.6 99.6 73.6 139.2 118.4-10.4 5.2-18.8 13.2-25.2 22.8z m82-21.6c11.6-13.2 22.4-27.2 32.8-41.2l-44.8-34.8 124.8-47.6-10.8 136-42.4-32.8c-11.2 15.2-22.8 30-35.2 44.4-2.8-4.4-6-8.8-9.6-12.4-4.4-4.8-9.6-8.4-14.8-11.6zM423.2 395.6c-60.8-16-125.6-24-192.4-23.2 0.8-4.4 1.6-9.2 1.6-14 0-7.2-1.2-14-3.2-20.4 70.8-0.8 139.6 8 204 24.8-6 9.2-9.6 20.8-10 32.8z" fill="#2B78C2" /><path d="M512 49.6C260.8 49.6 48.4 252 48.4 512S260.8 974.4 512 974.4c251.2 0 463.6-202 463.6-462.4 0-260-212.4-462.4-463.6-462.4zM512 0c282.8 0 512 229.2 512 512s-229.2 512-512 512S0 794.8 0 512 229.2 0 512 0zM343.6 876.8c8.8 0 17.2-3.6 22.8-9.6 6-6 9.6-14.4 9.6-23.6 0-9.2-3.6-17.6-9.6-23.6l-0.8-0.8c-5.6-5.6-13.6-8.8-22-8.8-8.8 0-17.2 3.6-22.8 9.6-6 6-9.6 14.4-9.6 23.6 0 9.2 3.6 17.6 9.6 23.6s14 9.6 22.8 9.6z m455.6-218c8.8 0 17.2-3.6 22.8-9.6 6-6 9.6-14.4 9.6-23.6 0-9.2-3.6-17.6-9.6-23.6s-14-9.6-22.8-9.6-17.2 3.6-22.8 9.6c-6 6-9.6 14.4-9.6 23.6 0 9.2 3.6 17.6 9.6 23.6 6 5.6 14 9.6 22.8 9.6z m-313.6-228.8c8.8 0 17.2-3.6 22.8-9.6 6-6 9.6-14.4 9.6-23.6 0-9.2-3.6-17.6-9.6-23.6s-14-9.6-22.8-9.6-17.2 3.6-22.8 9.6l-0.8 0.8c-5.2 6-8.4 14-8.4 22.4 0 9.2 3.6 17.6 9.6 23.6 5.6 6.4 13.6 10 22.4 10z m-316-38.8c8.8 0 17.2-3.6 22.8-9.6l0.8-0.8c5.2-6 8.4-14 8.4-22.4 0-9.2-3.6-17.6-9.6-23.6s-14-9.6-22.8-9.6-17.2 3.6-22.8 9.6c-6 6-9.6 14.4-9.6 23.6 0 9.2 3.6 17.6 9.6 23.6 6.4 5.2 14.4 9.2 23.2 9.2z" fill="#356396" /></svg>