<?xml version="1.0" standalone="no"?><!DOCTYPE svg PUBLIC "-//W3C//DTD SVG 1.1//EN" "http://www.w3.org/Graphics/SVG/1.1/DTD/svg11.dtd"><svg class="icon" width="600px" height="600.00px" viewBox="0 0 1024 1024" version="1.1" xmlns="http://www.w3.org/2000/svg"><path d="M117.76 621.568A409.6 409.6 0 0 1 310.272 153.6l-27.136-102.4a512 512 0 0 0-256 619.52zM508.416 102.4H512a409.6 409.6 0 0 1 409.6 409.6v3.584l102.4 27.136V512A512 512 0 0 0 512 0h-30.72zM870.4 713.728A409.6 409.6 0 0 1 220.16 798.72l-91.136 51.2a512 512 0 0 0 840.704-110.592z" fill="#515151" /><path d="M499.712 665.6A153.6 153.6 0 0 1 358.4 524.288L256 496.64v15.36a256 256 0 0 0 256 256h15.36zM385.536 424.96a153.6 153.6 0 0 1 225.792-29.184l91.648-51.2a256 256 0 0 0-418.816 53.248zM662.528 483.84A128.512 128.512 0 0 1 665.6 512a153.6 153.6 0 0 1-66.56 126.464l27.136 102.4A256 256 0 0 0 768 512a262.144 262.144 0 0 0-13.824-80.384z" fill="#515151" /><path d="M512 512m-76.8 0a76.8 76.8 0 1 0 153.6 0 76.8 76.8 0 1 0-153.6 0Z" fill="#515151" /></svg>