<?xml version="1.0" standalone="no"?><!DOCTYPE svg PUBLIC "-//W3C//DTD SVG 1.1//EN" "http://www.w3.org/Graphics/SVG/1.1/DTD/svg11.dtd"><svg class="icon" width="600px" height="600.00px" viewBox="0 0 1024 1024" version="1.1" xmlns="http://www.w3.org/2000/svg"><path d="M928.256 868.352c-52.224 40.96-109.568 76.288-173.056 100.352V80.384l-399.36 133.632v-40.96l440.32-163.328 132.096 115.2v743.424z" fill="#7FBCE5" /><path d="M422.912 1005.568c-74.24-11.264-144.896-35.328-209.92-68.608v-12.8l209.92-14.848v96.256z" fill="#477FE5" /><path d="M655.36 998.4c-44.544 9.216-89.088 14.848-135.68 14.848-12.8 0-24.064 0-35.328-2.048V276.992L150.016 387.072v510.976c-18.432-12.8-38.912-27.648-57.856-44.544V355.328l443.904-159.744L655.36 267.776V998.4z" fill="#477FE5" /><path d="M215.04 702.976v-93.184l209.92-55.808v105.984zM215.04 860.672v-91.136l207.872-35.328v105.984zM215.04 541.184V444.416L424.96 373.76v109.568z" fill="#477FE5" /></svg>