<?xml version="1.0" standalone="no"?><!DOCTYPE svg PUBLIC "-//W3C//DTD SVG 1.1//EN" "http://www.w3.org/Graphics/SVG/1.1/DTD/svg11.dtd"><svg class="icon" width="600px" height="450.11px" viewBox="0 0 1365 1024" version="1.1" xmlns="http://www.w3.org/2000/svg"><path d="M758.039893 649.335467a10.73152 10.73152 0 0 0 3.186347 7.58272 10.760533 10.760533 0 0 0 14.8992-0.366934l60.327253-63.397546a10.753707 10.753707 0 0 0-0.684373-14.890667 10.760533 10.760533 0 0 0-7.789227-2.6624 10.76736 10.76736 0 0 0-7.38816 3.648853l-59.436373 62.465707a10.722987 10.722987 0 0 0-3.114667 7.620267z" fill="#607D8B" /><path d="M1030.656 174.127787c-1.670827-6.464853-6.96832-11.659947-13.853013-13.637974C825.5488-20.16256 525.43488-14.57152 341.003947 171.66848c-10.59328 0.667307-18.998613 8.669867-19.101014 18.551467-0.006827 0.60416 0.0256 1.201493 0.080214 1.792-166.818133 188.69248-160.523947 474.320213 13.89056 655.476053 0.87552 8.451413 7.87456 15.286613 16.919893 16.749227 191.141547 179.725653 490.180267 174.313813 674.70336-10.73664a63.634773 63.634773 0 0 0 2.940587-2.28864c6.464853-2.348373 11.306667-7.610027 12.602026-14.03904 172.049067-189.58336 166.171307-480.523947-12.383573-663.04512zM329.268907 807.92064c-136.95488-164.16768-142.93504-402.348373-14.43328-573.175467-0.022187 52.855467 32.30208 128.19968 94.01856 215.109974l1.558186 1.4848 0.01024 0.303786a10.791253 10.791253 0 0 0 15.235414 0.984747c4.48-3.925333 4.922027-10.745173 0.989866-15.233707-70.381227-98.996907-102.258347-184.896853-86.39488-228.25472 0.67072 0.06656 1.348267 0.109227 2.034347 0.116054 11.3664 0.114347 20.66432-8.2176 20.768427-18.612907a17.28 17.28 0 0 0-1.027414-6.017707c41.376427-20.524373 130.33984 6.801067 234.77248 73.946454a10.922667 10.922667 0 0 0 10.929494 0.5376 10.944853 10.944853 0 0 0 0.935253-18.932054c-89.8816-57.541973-166.744747-86.150827-219.531947-83.520853 164.232533-136.83712 402.42688-142.692693 573.197654-14.056107-91.79648 0.124587-249.04704 97.744213-398.42816 254.733654-149.382827 156.992853-239.071573 318.895787-234.63424 410.586453z m78.035626 74.176853c66.94912 0.058027 169.214293-51.930453 282.850987-146.653866 114.413227 86.29248 221.119147 135.246507 289.496747 132.7104-164.102827 136.35072-401.77152 142.165333-572.347734 13.943466z m621.412694-66.40128a22.36928 22.36928 0 0 0-5.700267-0.80896c-11.362987-0.11264-20.66432 8.219307-20.77184 18.614614a17.355093 17.355093 0 0 0 1.747627 7.739733c-51.324587 21.13024-168.692053-22.00064-305.769814-126.5664-0.02048-0.023893-0.03072-0.049493-0.049493-0.073387a10.707627 10.707627 0 0 0-3.723947-2.80576c-35.59936-27.378347-72.492373-58.873173-109.873493-94.441813a1482.35776 1482.35776 0 0 0-39.76192-39.3216 10.100053 10.100053 0 0 0-15.208107-0.228693 10.765653 10.765653 0 0 0-3.273386 7.558826 10.765653 10.765653 0 0 0 3.04128 7.656107 1481.058987 1481.058987 0 0 0 40.384853 39.9104c34.285227 32.62464 68.82304 62.409387 102.826667 89.0112-130.312533 107.835733-247.947947 159.455573-297.598294 131.781973a17.45408 17.45408 0 0 0 1.95072-7.790933c0.10752-10.3936-9.019733-18.920107-20.384426-19.032747a22.022827 22.022827 0 0 0-2.612907 0.141654c-21.67296-68.237653 55.297707-235.96544 225.54112-414.88384C758.272 224.259413 929.85344 139.70944 992.360107 169.82016a17.481387 17.481387 0 0 0-2.28864 8.408747c-0.104107 10.397013 9.023147 18.914987 20.389546 19.034453 1.69472 0.017067 3.33824-0.17408 4.918614-0.512 18.44736 53.819733-27.8784 167.120213-121.920854 292.840107-28.064427-32.377173-59.301547-65.13152-93.335893-97.513814a1570.812587 1570.812587 0 0 0-43.113813-39.538346 10.74688 10.74688 0 0 0-10.448214-2.525867 10.752 10.752 0 1 0-4.37248 18.10432 1530.16832 1530.16832 0 0 1 42.484054 38.944427c183.86944 174.953813 268.6976 342.9376 244.0448 408.634026z m-120.886614-309.23776c88.901973-118.099627 135.722667-222.76608 132.40832-289.59232 136.326827 164.00896 142.35648 401.4592 14.605654 572.16512-0.856747-68.456107-55.00928-172.552533-147.013974-282.5728z" fill="#607D8B" /><path d="M1020.404053 310.831787l-16.346453 45.523626-423.05024 305.614507 256.754347 92.219733-18.06336 50.295467-442.026667-158.762667 18.06336-50.29376 417.95072-302.062933-234.758827-84.317867 18.06336-50.292053 423.41376 152.075947z" fill="#607D8B" /></svg>