<?xml version="1.0" standalone="no"?><!DOCTYPE svg PUBLIC "-//W3C//DTD SVG 1.1//EN" "http://www.w3.org/Graphics/SVG/1.1/DTD/svg11.dtd"><svg class="icon" width="600px" height="600.00px" viewBox="0 0 1024 1024" version="1.1" xmlns="http://www.w3.org/2000/svg"><path d="M206.971429 454.514286c-35.428571-35.428571-92.8-35.428571-128.114286 0-35.428571 35.428571-35.428571 92.8 0 128.114285 35.428571 35.428571 92.8 35.428571 128.114286 0 35.428571-35.314286 35.428571-92.685714 0-128.114285zM665.828571 269.828571c-35.428571 35.428571-35.428571 92.8 0 128.114286 19.885714 19.885714 46.742857 28.571429 72.685715 26.171429 42.514286 4.457143 76.228571 38.285714 80.685714 80.8-2.4 25.942857 6.285714 52.685714 26.171429 72.571428 35.428571 35.428571 92.8 35.428571 128.114285 0 35.428571-35.428571 35.428571-92.8 0-128.114285-19.885714-19.885714-46.628571-28.571429-72.571428-26.171429-42.514286-4.342857-76.342857-38.171429-80.8-80.685714 2.4-25.942857-6.285714-52.8-26.171429-72.685715-35.314286-35.428571-92.685714-35.428571-128.114286 0zM277.371429 383.085714c35.428571 35.428571 92.8 35.428571 128.114285 0 19.885714-19.885714 28.571429-46.742857 26.171429-72.685714 4.457143-42.514286 38.285714-76.228571 80.8-80.685714 25.942857 2.4 52.685714-6.285714 72.571428-26.171429 35.428571-35.428571 35.428571-92.8 0-128.114286-35.428571-35.428571-92.8-35.428571-128.114285 0-19.885714 19.885714-28.571429 46.628571-26.171429 72.571429-4.342857 42.514286-38.171429 76.342857-80.685714 80.8-25.942857-2.4-52.8 6.285714-72.685714 26.171429-35.428571 35.314286-35.428571 92.685714 0 128.114285z" fill="#8a8a8a" /><path d="M563.657143 223.2c28.571429-10.285714 51.2-33.028571 61.6-61.6 0 0 6.057143 24.114286 27.885714 45.942857 21.714286 21.714286 45.942857 27.885714 45.942857 27.885714-28.571429 10.285714-51.2 33.028571-61.6 61.6 0 0-7.314286-23.885714-28.571428-45.142857-21.371429-21.485714-45.257143-28.685714-45.257143-28.685714zM477.6 460.114286c-35.428571 35.428571-35.428571 92.8 0 128.114285 19.885714 19.885714 46.742857 28.571429 72.685714 26.171429 42.514286 4.457143 76.228571 38.285714 80.685715 80.8-2.4 25.942857 6.285714 52.685714 26.171428 72.571429 35.428571 35.428571 92.8 35.428571 128.114286 0 35.428571-35.428571 35.428571-92.8 0-128.114286-19.885714-19.885714-46.628571-28.571429-72.571429-26.171429-42.514286-4.342857-76.342857-38.171429-80.8-80.685714 2.4-25.942857-6.285714-52.8-26.171428-72.685714-35.314286-35.428571-92.685714-35.428571-128.114286 0zM368.685714 417.6c28.571429-10.285714 51.2-33.028571 61.6-61.6 0 0 6.057143 24.114286 27.885715 45.942857s45.942857 27.885714 45.942857 27.885714c-28.571429 10.285714-51.2 33.028571-61.6 61.6 0 0-7.314286-23.885714-28.571429-45.142857-21.371429-21.485714-45.257143-28.685714-45.257143-28.685714z" fill="#8a8a8a" /><path d="M115.657143 506.514286m-28.8 0a28.8 28.8 0 1 0 57.6 0 28.8 28.8 0 1 0-57.6 0Z" fill="#8a8a8a" /><path d="M314.628571 308.228571m-28.8 0a28.8 28.8 0 1 0 57.6 0 28.8 28.8 0 1 0-57.6 0Z" fill="#8a8a8a" /><path d="M507.314286 116m-28.8 0a28.8 28.8 0 1 0 57.6 0 28.8 28.8 0 1 0-57.6 0Z" fill="#8a8a8a" /><path d="M588.342857 960.685714c35.428571-35.428571 35.428571-92.8 0-128.114285-19.885714-19.885714-46.742857-28.571429-72.685714-26.171429-42.514286-4.457143-76.228571-38.285714-80.685714-80.8 2.4-25.942857-6.285714-52.685714-26.171429-72.571429-35.428571-35.428571-92.8-35.428571-128.114286 0-35.428571 35.428571-35.428571 92.8 0 128.114286 19.885714 19.885714 46.628571 28.571429 72.571429 26.171429 42.514286 4.342857 76.342857 38.171429 80.8 80.685714-2.4 25.942857 6.285714 52.8 26.171428 72.685714 35.314286 35.428571 92.685714 35.428571 128.114286 0z" fill="#8a8a8a" /><path d="M620.8 878.971429c-9.828571-27.2-31.428571-48.8-58.628571-58.628572 0 0 22.971429-5.828571 43.771428-26.514286 20.685714-20.685714 26.514286-43.771429 26.514286-43.771428 9.828571 27.2 31.428571 48.8 58.628571 58.628571 0 0-22.742857 6.971429-42.971428 27.2-20.457143 20.342857-27.314286 43.085714-27.314286 43.085715z" fill="#8a8a8a" /><path d="M902.971429 624.457143c-28.8 0-57.6-10.971429-79.542858-32.914286-23.314286-23.314286-35.2-55.542857-32.571428-88.457143-4.457143-37.028571-33.942857-66.514286-70.857143-71.085714-32.914286 2.742857-65.142857-9.142857-88.571429-32.571429-43.885714-43.885714-43.885714-115.2 0-159.085714 43.885714-43.885714 115.2-43.885714 159.085715 0 23.428571 23.428571 35.2 55.542857 32.571428 88.571429 4.457143 36.914286 34.057143 66.4 71.085715 70.857143 32.914286-2.742857 65.028571 9.257143 88.457142 32.571428 43.885714 43.885714 43.885714 115.2 0 159.085714-22.057143 22.057143-50.857143 33.028571-79.657142 33.028572zM718.628571 401.028571h3.085715c52.571429 5.485714 94.742857 47.657143 100.114285 100.342858v3.085714c-2.285714 24.228571 6.285714 48 23.542858 65.257143 15.428571 15.428571 35.885714 23.885714 57.6 23.885714s42.171429-8.457143 57.6-23.885714c15.428571-15.428571 23.885714-35.885714 23.885714-57.6s-8.457143-42.171429-23.885714-57.6c-17.142857-17.142857-40.914286-25.714286-65.257143-23.542857h-2.971429c-52.685714-5.371429-94.857143-47.542857-100.342857-100.114286v-3.085714c2.285714-24.342857-6.285714-48.114286-23.542857-65.371429-31.771429-31.771429-83.428571-31.771429-115.2 0-15.428571 15.428571-23.885714 35.885714-23.885714 57.6s8.457143 42.171429 23.885714 57.6c17.257143 17.142857 41.028571 25.714286 65.371428 23.428571zM320 425.6c-28.8 0-57.6-10.971429-79.542857-32.914286-43.885714-43.885714-43.885714-115.314286 0-159.085714 23.428571-23.428571 55.542857-35.085714 88.571428-32.571429 36.914286-4.457143 66.514286-34.057143 70.857143-71.085714-2.628571-32.914286 9.257143-65.028571 32.571429-88.457143 43.885714-43.885714 115.2-43.885714 159.085714 0s43.885714 115.314286 0 159.085715C568.228571 224 536 235.771429 503.2 233.142857c-37.028571 4.457143-66.514286 33.942857-71.085714 70.857143 2.628571 32.914286-9.257143 65.142857-32.571429 88.571429-21.942857 22.057143-50.742857 33.028571-79.542857 33.028571z m-0.114286-193.942857c-21.485714 0-42.171429 8.457143-57.6 23.885714-15.428571 15.428571-23.885714 35.885714-23.885714 57.6 0 21.828571 8.457143 42.285714 23.885714 57.6 15.428571 15.428571 35.885714 23.885714 57.6 23.885714s42.285714-8.457143 57.6-23.885714c17.257143-17.257143 25.828571-41.028571 23.542857-65.371428v-3.085715c5.485714-52.571429 47.657143-94.742857 100.342858-100.114285h2.971428c24.228571 2.171429 48-6.285714 65.257143-23.542858 15.428571-15.428571 23.885714-35.885714 23.885714-57.6 0-21.828571-8.457143-42.285714-23.885714-57.6C554.285714 48 533.828571 39.542857 512 39.542857c-21.714286 0-42.285714 8.457143-57.6 23.885714-17.142857 17.142857-25.714286 40.914286-23.542857 65.257143v2.971429c-5.371429 52.685714-47.542857 94.857143-100.114286 100.342857h-3.085714c-2.628571-0.228571-5.142857-0.342857-7.771429-0.342857z" fill="#8a8a8a" /><path d="M632.571429 298.171429l-29.485715-0.8c0-0.114286-7.2-22.285714-26.742857-41.942858-19.542857-19.542857-41.714286-26.628571-41.942857-26.742857l-0.685714-29.371428c26.4-9.6 47.085714-30.171429 56.571428-56.571429l29.6 1.485714c0 0.114286 6.057143 22.285714 25.714286 41.942858 19.657143 19.657143 41.714286 25.714286 41.942857 25.714285l1.485714 29.6c-26.285714 9.714286-46.857143 30.285714-56.457142 56.685715z m-59.314286-84.571429c8 5.028571 16.685714 11.657143 25.028571 20 8.342857 8.342857 14.971429 17.142857 20 25.028571 8.342857-11.885714 18.628571-22.285714 30.514286-30.742857-8-4.914286-16.685714-11.428571-25.028571-19.771428-8.342857-8.342857-14.857143-17.142857-19.771429-25.028572-8.342857 11.885714-18.742857 22.171429-30.742857 30.514286zM710.971429 816.571429c-28.8 0-57.6-10.971429-79.542858-32.914286-23.314286-23.314286-35.2-55.542857-32.571428-88.457143-4.457143-37.028571-33.942857-66.514286-70.857143-71.085714-32.914286 2.628571-65.142857-9.142857-88.571429-32.571429-43.885714-43.885714-43.885714-115.2 0-159.085714 43.885714-43.885714 115.2-43.885714 159.085715 0 23.428571 23.428571 35.2 55.542857 32.571428 88.571428 4.457143 36.914286 34.057143 66.4 71.085715 70.857143 32.8-2.742857 65.028571 9.257143 88.457142 32.571429 43.885714 43.885714 43.885714 115.2 0 159.085714-22.057143 22.057143-50.857143 33.028571-79.657142 33.028572zM526.628571 593.142857h3.085715c52.571429 5.485714 94.742857 47.657143 100.114285 100.342857v2.971429c-2.285714 24.228571 6.285714 48 23.542858 65.257143 15.428571 15.428571 35.885714 23.885714 57.6 23.885714s42.171429-8.457143 57.6-23.885714c15.428571-15.428571 23.885714-35.885714 23.885714-57.6s-8.457143-42.171429-23.885714-57.6c-17.142857-17.142857-40.914286-25.714286-65.257143-23.542857h-2.971429c-52.685714-5.371429-94.857143-47.542857-100.342857-100.114286v-3.085714c2.285714-24.342857-6.285714-48.114286-23.542857-65.371429-15.428571-15.428571-35.885714-23.885714-57.6-23.885714s-42.171429 8.457143-57.6 23.885714C445.828571 469.714286 437.371429 490.285714 437.371429 512s8.457143 42.171429 23.885714 57.6c17.257143 17.257143 41.028571 25.828571 65.371428 23.542857z" fill="#8a8a8a" /><path d="M440.571429 490.285714l-29.485715-0.8c0-0.114286-7.2-22.285714-26.742857-41.942857-19.542857-19.542857-41.714286-26.628571-41.942857-26.742857l-0.685714-29.371429c26.4-9.6 47.085714-30.171429 56.571428-56.571428l29.6 1.485714c0 0.114286 6.057143 22.285714 25.714286 41.942857 19.657143 19.657143 41.714286 25.714286 41.942857 25.714286l1.485714 29.6c-26.285714 9.6-46.971429 30.285714-56.457142 56.685714z m-59.314286-84.685714c8 5.028571 16.685714 11.657143 25.028571 20 8.342857 8.342857 14.971429 17.142857 20 25.028571 8.342857-11.885714 18.628571-22.285714 30.514286-30.742857-8-4.914286-16.685714-11.428571-25.028571-19.771428-8.342857-8.342857-14.857143-17.142857-19.771429-25.028572-8.457143 11.885714-18.857143 22.285714-30.742857 30.514286zM512 1015.428571c-28.8 0-57.6-10.971429-79.542857-32.914285-23.428571-23.428571-35.2-55.542857-32.571429-88.571429-4.457143-36.914286-34.057143-66.514286-71.085714-70.971428-32.914286 2.628571-65.028571-9.257143-88.457143-32.571429-43.885714-43.885714-43.885714-115.2 0-159.085714 43.885714-43.885714 115.2-43.885714 159.085714 0 23.314286 23.314286 35.2 55.542857 32.571429 88.457143 4.457143 37.028571 33.942857 66.514286 70.857143 71.085714 33.028571-2.628571 65.142857 9.257143 88.571428 32.571428 43.885714 43.885714 43.885714 115.2 0 159.085715-21.828571 21.942857-50.628571 32.914286-79.428571 32.914285zM327.542857 792h2.971429c52.685714 5.371429 94.857143 47.542857 100.342857 100.114286v3.085714c-2.285714 24.342857 6.285714 48.114286 23.542857 65.371429 15.428571 15.428571 35.885714 23.885714 57.6 23.885714s42.171429-8.457143 57.6-23.885714c15.428571-15.428571 23.885714-35.885714 23.885714-57.6s-8.457143-42.171429-23.885714-57.6c-17.257143-17.257143-41.028571-25.828571-65.371429-23.542858h-3.085714c-52.571429-5.485714-94.742857-47.657143-100.114286-100.342857v-2.971428c2.285714-24.228571-6.285714-48-23.542857-65.257143-15.428571-15.428571-35.885714-23.885714-57.6-23.885714s-42.171429 8.457143-57.6 23.885714C246.857143 668.685714 238.4 689.142857 238.4 710.857143s8.457143 42.171429 23.885714 57.6c17.257143 17.257143 41.028571 25.828571 65.257143 23.542857z" fill="#8a8a8a" /><path d="M590.4 881.257143c-9.6-26.4-30.171429-47.085714-56.571429-56.571429l1.485715-29.6c0.114286 0 22.285714-6.057143 41.942857-25.714285 19.657143-19.657143 25.714286-41.714286 25.714286-41.942858l29.6-1.485714c9.6 26.4 30.171429 47.085714 56.571428 56.571429l-0.8 29.485714c-0.114286 0-22.285714 7.2-41.942857 26.742857-19.542857 19.542857-26.628571 41.714286-26.742857 41.942857l-29.257143 0.571429z m-16.342857-70.285714c11.885714 8.342857 22.171429 18.742857 30.514286 30.742857 5.028571-8 11.657143-16.685714 20-25.028572 8.342857-8.342857 17.142857-14.971429 25.028571-20-11.885714-8.342857-22.285714-18.628571-30.742857-30.514285-4.914286 8-11.428571 16.685714-19.771429 25.028571-8.342857 8.342857-17.028571 14.857143-25.028571 19.771429zM121.028571 624.457143c-30.057143 0-58.285714-11.657143-79.542857-32.914286-43.885714-43.885714-43.885714-115.2 0-159.085714 21.257143-21.257143 49.485714-32.914286 79.542857-32.914286 30.057143 0 58.285714 11.657143 79.542858 32.914286 43.885714 43.885714 43.885714 115.2 0 159.085714-21.257143 21.257143-49.485714 32.914286-79.542858 32.914286z m0-193.942857c-21.714286 0-42.171429 8.457143-57.6 23.885714-31.771429 31.771429-31.771429 83.428571 0 115.2 15.428571 15.428571 35.885714 23.885714 57.6 23.885714s42.171429-8.457143 57.6-23.885714c15.428571-15.428571 23.885714-35.885714 23.885715-57.6s-8.457143-42.171429-23.885715-57.6c-15.428571-15.428571-35.885714-23.885714-57.6-23.885714z" fill="#8a8a8a" /><path d="M316 704.228571m-28.8 0a28.8 28.8 0 1 0 57.6 0 28.8 28.8 0 1 0-57.6 0Z" fill="#8a8a8a" /><path d="M514.971429 506.057143m-28.8 0a28.8 28.8 0 1 0 57.6 0 28.8 28.8 0 1 0-57.6 0Z" fill="#8a8a8a" /><path d="M707.657143 313.828571m-28.8 0a28.8 28.8 0 1 0 57.6 0 28.8 28.8 0 1 0-57.6 0Z" fill="#8a8a8a" /><path d="M506.4 896m-28.8 0a28.8 28.8 0 1 0 57.6 0 28.8 28.8 0 1 0-57.6 0Z" fill="#8a8a8a" /><path d="M705.257143 697.828571m-28.8 0a28.8 28.8 0 1 0 57.6 0 28.8 28.8 0 1 0-57.6 0Z" fill="#8a8a8a" /><path d="M898.057143 505.485714m-28.8 0a28.8 28.8 0 1 0 57.6 0 28.8 28.8 0 1 0-57.6 0Z" fill="#8a8a8a" /><path d="M121.028571 553.371429c-22.857143 0-41.371429-18.514286-41.371428-41.371429 0-22.857143 18.514286-41.371429 41.371428-41.371429s41.371429 18.514286 41.371429 41.371429c0 22.857143-18.628571 41.371429-41.371429 41.371429z m0-72.342858c-17.142857 0-31.085714 13.942857-31.085714 31.085715s13.942857 31.085714 31.085714 31.085714S152 529.142857 152 512s-13.942857-30.971429-30.971429-30.971429zM319.657143 752.342857c-22.857143 0-41.371429-18.514286-41.371429-41.371428s18.514286-41.371429 41.371429-41.371429c22.857143 0 41.371429 18.514286 41.371428 41.371429s-18.514286 41.371429-41.371428 41.371428z m0-72.457143c-17.142857 0-31.085714 13.942857-31.085714 31.085715s13.942857 31.085714 31.085714 31.085714 31.085714-13.942857 31.085714-31.085714-13.942857-31.085714-31.085714-31.085715zM511.771429 944.342857c-22.857143 0-41.371429-18.514286-41.371429-41.371428 0-22.857143 18.514286-41.371429 41.371429-41.371429 22.857143 0 41.371429 18.514286 41.371428 41.371429 0 22.857143-18.514286 41.371429-41.371428 41.371428z m0-72.457143c-17.142857 0-31.085714 13.942857-31.085715 31.085715s13.942857 31.085714 31.085715 31.085714 31.085714-13.942857 31.085714-31.085714-13.942857-31.085714-31.085714-31.085715z" fill="#8a8a8a" /><path d="M320.114286 354.514286c-22.857143 0-41.371429-18.514286-41.371429-41.371429s18.514286-41.371429 41.371429-41.371428c22.857143 0 41.371429 18.514286 41.371428 41.371428s-18.514286 41.371429-41.371428 41.371429z m0-72.457143c-17.142857 0-31.085714 13.942857-31.085715 31.085714s13.942857 31.085714 31.085715 31.085714 31.085714-13.942857 31.085714-31.085714-13.942857-31.085714-31.085714-31.085714zM518.857143 553.371429c-22.857143 0-41.371429-18.514286-41.371429-41.371429 0-22.857143 18.514286-41.371429 41.371429-41.371429 22.857143 0 41.371429 18.514286 41.371428 41.371429 0 22.857143-18.514286 41.371429-41.371428 41.371429z m0-72.457143c-17.142857 0-31.085714 13.942857-31.085714 31.085714s13.942857 31.085714 31.085714 31.085714 31.085714-13.942857 31.085714-31.085714-13.942857-31.085714-31.085714-31.085714zM710.971429 745.485714c-22.857143 0-41.371429-18.514286-41.371429-41.371428s18.514286-41.371429 41.371429-41.371429c22.857143 0 41.371429 18.514286 41.371428 41.371429s-18.628571 41.371429-41.371428 41.371428z m0-72.457143c-17.142857 0-31.085714 13.942857-31.085715 31.085715s13.942857 31.085714 31.085715 31.085714 31.085714-13.942857 31.085714-31.085714-14.057143-31.085714-31.085714-31.085715z" fill="#8a8a8a" /><path d="M512.342857 162.285714c-22.857143 0-41.371429-18.514286-41.371428-41.371428s18.514286-41.371429 41.371428-41.371429c22.857143 0 41.371429 18.514286 41.371429 41.371429S535.2 162.285714 512.342857 162.285714z m0-72.457143c-17.142857 0-31.085714 13.942857-31.085714 31.085715s13.942857 31.085714 31.085714 31.085714 31.085714-13.942857 31.085714-31.085714-13.942857-31.085714-31.085714-31.085715zM711.085714 361.142857c-22.857143 0-41.371429-18.514286-41.371428-41.371428s18.514286-41.371429 41.371428-41.371429c22.857143 0 41.371429 18.514286 41.371429 41.371429S733.828571 361.142857 711.085714 361.142857z m0-72.457143c-17.142857 0-31.085714 13.942857-31.085714 31.085715s13.942857 31.085714 31.085714 31.085714 31.085714-13.942857 31.085715-31.085714c-0.114286-17.142857-14.057143-31.085714-31.085715-31.085715zM903.085714 553.257143c-22.857143 0-41.371429-18.514286-41.371428-41.371429s18.514286-41.371429 41.371428-41.371428 41.371429 18.514286 41.371429 41.371428-18.514286 41.371429-41.371429 41.371429z m0-72.457143c-17.142857 0-31.085714 13.942857-31.085714 31.085714s13.942857 31.085714 31.085714 31.085715 31.085714-13.942857 31.085715-31.085715-13.942857-31.085714-31.085715-31.085714z" fill="#8a8a8a" /></svg>