<?xml version="1.0" standalone="no"?><!DOCTYPE svg PUBLIC "-//W3C//DTD SVG 1.1//EN" "http://www.w3.org/Graphics/SVG/1.1/DTD/svg11.dtd"><svg class="icon" width="600px" height="600.00px" viewBox="0 0 1024 1024" version="1.1" xmlns="http://www.w3.org/2000/svg"><path d="M603.8528 659.899733v258.167467c0 18.210133 14.813867 33.006933 33.0752 33.006933 18.261333 0 33.0752-14.779733 33.0752-33.006933V731.767467L880.298667 941.636267a31.7952 31.7952 0 0 0 44.8512 0 31.607467 31.607467 0 0 0 0-44.7488L714.8032 687.086933h186.743467c18.261333 0 33.0752-14.779733 33.0752-33.006933a33.041067 33.041067 0 0 0-33.0752-32.989867H642.7648c-24.149333 0-38.912 12.407467-38.912 38.8096z m0 0M373.162667 621.090133H114.3808c-18.261333 0-33.0752 14.779733-33.0752 32.989867 0 18.210133 14.813867 33.006933 33.0752 33.006933h186.743467L90.760533 896.887467a31.607467 31.607467 0 0 0 0 44.7488 31.7952 31.7952 0 0 0 44.8512 0l210.295467-209.8688v186.299733c0 18.210133 14.813867 33.006933 33.0752 33.006933 18.261333 0 33.0752-14.779733 33.0752-33.006933V659.899733c0-26.402133-14.677333-38.8096-38.894933-38.8096z m0 0M642.7648 427.707733h258.798933c18.261333 0 33.0752-14.779733 33.0752-32.989866a33.058133 33.058133 0 0 0-33.0752-33.006934H714.8032L925.166933 151.9104a31.607467 31.607467 0 0 0 0-44.7488 31.7952 31.7952 0 0 0-44.8512 0L670.020267 317.0304V130.730667a33.058133 33.058133 0 0 0-33.0752-33.006934c-18.261333 0-33.0752 14.779733-33.0752 33.006934v258.167466c-0.017067 26.402133 14.7456 38.8096 38.894933 38.8096z m0 0M412.0576 388.898133V130.730667a33.058133 33.058133 0 0 0-33.0752-33.006934c-18.261333 0-33.0752 14.779733-33.0752 33.006934v186.299733L135.611733 107.178667a31.7952 31.7952 0 0 0-44.8512 0 31.607467 31.607467 0 0 0 0 44.7488l210.363734 209.800533H114.3808c-18.261333 0-33.0752 14.779733-33.0752 33.006933 0 18.210133 14.813867 32.989867 33.0752 32.989867h258.798933c24.200533-0.017067 38.877867-12.424533 38.877867-38.826667z m0 0" /></svg>