<?xml version="1.0" standalone="no"?><!DOCTYPE svg PUBLIC "-//W3C//DTD SVG 1.1//EN" "http://www.w3.org/Graphics/SVG/1.1/DTD/svg11.dtd"><svg class="icon" width="600px" height="434.82px" viewBox="0 0 1413 1024" version="1.1" xmlns="http://www.w3.org/2000/svg"><path d="M265.056083 895.88956a2297.152718 2297.152718 0 0 1-259.754961 98.954271 1646.881795 1646.881795 0 0 0 332.203623-60.079379 530.112166 530.112166 0 0 0 257.987921-153.732528A213.811907 213.811907 0 0 0 505.373598 441.760138c-116.624676-52.127696-279.192407-53.894737-347.223469 10.602243a96.30371 96.30371 0 0 0-17.670405 141.363245 127.22692 127.22692 0 0 1 102.488352-70.681623 277.425367 277.425367 0 0 1 144.013805 29.15617A121.925798 121.925798 0 0 1 441.760138 706.816221a343.689387 343.689387 0 0 1-176.704055 189.956859zM1069.943054 24.738568c400.234685 375.496117 66.264021 624.648835-49.477135 734.205349-220.880069 209.394305-706.816221 236.783434-706.816221 236.783434 492.120794-88.352028 712.117343-297.746333 756.293356-568.987058 28.272649-359.592752-430.274374-441.760138-501.839516-221.763589a231.482312 231.482312 0 0 1 203.209663-11.485764 223.53063 223.53063 0 0 1 121.925798 280.075928A618.464193 618.464193 0 0 1 542.48145 883.520276 2571.044003 2571.044003 0 0 1 0 1015.164797h530.112166a1892.500431 1892.500431 0 0 0 333.970664-38.874892C1139.741156 900.307161 1413.632442 718.301984 1413.632442 424.089733S1013.397757-72.448663 1065.525453 24.738568z m-530.112165 990.426229H530.112166c-15.019845 12.369284-14.136324 10.602243 8.835202 0z" fill="#D49400" /></svg>