<?xml version="1.0" standalone="no"?><!DOCTYPE svg PUBLIC "-//W3C//DTD SVG 1.1//EN" "http://www.w3.org/Graphics/SVG/1.1/DTD/svg11.dtd"><svg class="icon" width="600px" height="600.00px" viewBox="0 0 1024 1024" version="1.1" xmlns="http://www.w3.org/2000/svg"><path d="M364.8 512v-51.2H960V512H364.8z m96-198.4H960v51.2H460.8v-51.2z m102.4-147.2h345.6v51.2H563.2v-51.2zM172.8 416c-70.4 217.6 64 435.2 294.4 486.4 83.2 19.2 172.8 12.8 249.6-12.8-102.4 64-224 83.2-339.2 57.6-236.8-57.6-364.8-300.8-294.4-537.6s320-390.4 550.4-332.8c44.8 12.8 83.2 25.6 121.6 51.2-12.8-6.4-25.6-6.4-38.4-6.4-224-51.2-473.6 83.2-544 294.4zM512 761.6h300.8v51.2H512v-51.2z m-51.2-147.2h448v51.2h-448v-51.2z" /></svg>