<?xml version="1.0" standalone="no"?><!DOCTYPE svg PUBLIC "-//W3C//DTD SVG 1.1//EN" "http://www.w3.org/Graphics/SVG/1.1/DTD/svg11.dtd"><svg class="icon" width="600px" height="400.00px" viewBox="0 0 1536 1024" version="1.1" xmlns="http://www.w3.org/2000/svg"><path d="M0.512 0.426521v283.380748a523.256323 523.256323 0 0 1 266.831722 65.001845 3190.379279 3190.379279 0 0 1 330.127481 289.352046 3926.555032 3926.555032 0 0 0 324.753313 245.249744 996.950873 996.950873 0 0 0 323.047228 113.539969c167.708173 22.520324 290.63161 25.591278 290.63161 25.591277V739.587924a1242.797746 1242.797746 0 0 1-273.911975-29.42997 803.480814 803.480814 0 0 1-405.536446-225.373851 2755.839385 2755.839385 0 0 0-474.035766-396.835412C267.343722 15.184158 190.99641 2.132606 0.512 0.426521z m1534.538312 549.61534a2460.345432 2460.345432 0 0 0-486.234276 42.652129 767.738329 767.738329 0 0 0 108.76293 54.765334h0.853043l10.492424 4.265213a772.003542 772.003542 0 0 0 92.981642 29.088752c79.759482-7.677383 170.096692-11.942596 272.973628-11.942596v-119.425962h0.853043z m-904.225144 204.730221l-9.639381-9.468773c-6.141907 2.559128-11.430771 5.971298-17.572677 8.530426A1162.014613 1162.014613 0 0 1 0.512 904.225143V1023.651106a1287.411874 1287.411874 0 0 0 658.548878-163.528265c20.217109-9.383468 40.348914-19.705284 61.419066-29.941794-29.003448-22.264412-57.921592-47.087951-89.484167-75.323661z m-398.114976-349.747461a301.635859 301.635859 0 0 0-51.182555-30.880142 1118.509441 1118.509441 0 0 1-181.527463 12.880943v445.202927a1323.410271 1323.410271 0 0 0 583.139914-119.425962 4099.210852 4099.210852 0 0 0-350.771113-307.095332z m550.724295-40.26361a2457.701 2457.701 0 0 0 186.731023 160.969136 1561.75037 1561.75037 0 0 1 565.567236-79.674178V0c-475.230026 0-733.616626 98.441115-924.18634 194.408406 55.27716 48.794036 171.888081 169.499562 171.888081 169.499562z" fill="#1296db" /></svg>