<?xml version="1.0" standalone="no"?><!DOCTYPE svg PUBLIC "-//W3C//DTD SVG 1.1//EN" "http://www.w3.org/Graphics/SVG/1.1/DTD/svg11.dtd"><svg class="icon" width="600px" height="600.00px" viewBox="0 0 1024 1024" version="1.1" xmlns="http://www.w3.org/2000/svg"><path d="M512 512m-512 0a512 512 0 1 0 1024 0 512 512 0 1 0-1024 0Z" fill="#2AC6C3" /><path d="M578.98 543.355c-55.498-23.842-82.461-38.877-140.348-77.189-40.162-26.547-153.861-85.177-41.294-115.688 21.998-5.976 72.029-16.86 164.295-26.233 29.038-2.956 85.793-34.222 25.644-57.686-11.942-4.656-30.798-26.925 47.641-33.593 19.107-1.636 52.105-38.689-10.999-25.227-63.103 13.463-27.906 13.463-62.349 16.797-34.505 3.397-118.036 23.59-80.702 33.656 37.334 10.065 105.592 18.495 51.35 33.593-13.136 3.649-108.168 10.883-172.277 26.358-49.464 11.89-140.788 67.25-88.055 158.53 22.815 39.505 121.241 100.4 139.783 115.247C499.033 662.063 538.064 767.937 537.624 768l281.576-0.566s-28.409-56.051-42.55-77.314c-22.627-33.97-48.774-58.19-78.754-78.007-74.228-49.068-91.072-56.806-118.916-68.758z" fill="#FFFFFF" /></svg>