<?xml version="1.0" standalone="no"?><!DOCTYPE svg PUBLIC "-//W3C//DTD SVG 1.1//EN" "http://www.w3.org/Graphics/SVG/1.1/DTD/svg11.dtd"><svg class="icon" width="600px" height="600.00px" viewBox="0 0 1024 1024" version="1.1" xmlns="http://www.w3.org/2000/svg"><path d="M115.045 111.441l-9.517 4.758-4.759 4.759-4.758 4.758-4.759 4.759-4.757 4.758-4.759 4.759-4.758 9.517-4.759 23.793v185.57l4.759 9.517 4.758 9.517 4.759 9.517 4.757 9.517 4.759 9.517 4.758 4.759 4.759 9.517 4.758 4.758 4.759 9.518 4.757 4.758 4.759 9.517 4.758 4.759 4.759 4.745 4.758 9.53 4.757 4.746 4.759 4.772 4.759 4.745 4.758 4.758 4.759 4.759 4.757 4.758 4.758 9.518 4.759 4.758 4.759 4.759 9.515 4.758 4.759 4.759 4.758 4.758 4.759 4.759 4.758 4.758 4.758 4.759 9.517 4.758 4.758 4.759 4.759 4.759 9.516 4.758 4.758 4.759 9.517 4.758 9.516 4.759 9.517 4.758 9.516 4.759 9.517 4.758 14.274 4.759 14.276 4.758 14.274 4.759 28.55 4.759h80.892l23.791-4.759 19.033-4.759 19.033-4.758 14.274-4.759 9.517-4.758 14.275-4.759 9.517-4.758 9.517-4.759 9.515-4.758 9.518-4.759 9.515-4.758 9.517-4.759 9.518-4.759 4.757-4.758 9.517-4.759 9.517-4.758 4.757-4.759 9.517-4.758 9.517-4.759 4.758-4.758 9.517-4.759 4.758-4.758 9.516-4.759 4.759-4.759 9.517-4.758 4.758-4.759 9.516-4.758 4.759-4.745 9.517-4.772 4.757-4.746 4.758-4.758 9.517-4.772 4.759-4.745 9.516-4.759 4.758-4.758 9.517-4.759 4.758-4.758 9.517-4.759 4.758-4.759 9.516-4.758 4.759-4.759 9.517-4.758 9.515-4.759 4.759-4.758 9.517-4.759 9.516-4.758 9.517-4.759 9.517-4.758 9.516-4.759 14.276-4.759 14.274-4.758 23.791-4.759 19.033-4.758V159.026l-4.757-14.276-4.759-4.758-4.758-9.517-4.759-4.759-4.758-4.758-9.516-4.759-4.759-4.758-9.517-4.759H124.561z" fill="#8a8a8a" /><path d="M62.703 872.769l4.758 9.517 4.758 9.517 4.759 4.758 4.758 4.759 4.759 4.758 4.757 4.759 9.517 4.758 14.276 4.759h775.599l9.518-4.759 9.515-4.758 4.759-4.759 9.517-4.758 4.757-9.517 4.759-4.759 4.758-9.517 4.759-9.517V520.649h-33.309l-19.033 4.759-14.274 4.758-9.517 4.759-14.274 4.758-9.517 4.759-9.518 4.758-4.757 4.759-9.517 4.759-9.517 4.758-4.757 4.759-9.517 4.758-9.517 4.759-4.758 4.758-9.517 4.759-4.758 4.758-9.516 4.759-4.759 4.758-9.517 4.759-4.758 4.759-9.516 4.758-4.758 4.759-4.759 4.758-9.516 4.759-4.758 4.758-9.517 4.759-4.759 4.758-9.516 4.759-4.758 4.759-9.517 4.758-4.758 4.759-9.517 4.758-4.758 4.759-9.516 4.758-4.759 4.759-9.517 4.758-9.515 4.759-4.759 4.759-9.517 4.745-9.516 4.758-9.517 4.772-9.517 4.759-4.757 4.745-9.517 4.759-9.517 4.758-14.275 4.759-9.517 4.758-9.516 4.759-14.275 4.758-14.275 4.759-19.032 4.758-23.792 4.759-38.067 4.758H376.75l-38.067-4.758-19.033-4.759-14.274-4.758-14.276-4.759-9.515-4.758-9.517-4.759-9.517-4.758-9.516-4.759-9.517-4.758-9.516-4.759-4.759-4.745-9.517-4.759-4.758-4.772-4.758-4.758-4.758-4.745-9.517-4.759-4.759-4.759-4.757-4.758-4.758-4.759-4.759-4.758-4.759-4.759-4.758-4.758-4.757-4.759-4.759-4.758-4.758-4.759-4.759-4.759-4.759-4.758-4.757-9.517-4.758-4.759-4.759-4.758-4.758-4.759-4.759-9.517-4.757-4.759-4.759-9.517-4.758-4.758-4.759-9.517-4.758-4.759-4.759-9.517-4.757-9.517-4.759-4.759-4.758-9.517-4.759-9.517-4.758-9.517h-4.758z" fill="#8a8a8a" /></svg>