<?xml version="1.0" standalone="no"?><!DOCTYPE svg PUBLIC "-//W3C//DTD SVG 1.1//EN" "http://www.w3.org/Graphics/SVG/1.1/DTD/svg11.dtd"><svg class="icon" width="600px" height="600.00px" viewBox="0 0 1024 1024" version="1.1" xmlns="http://www.w3.org/2000/svg"><path d="M430.397 374.614V230.221h161.055v144.393l90.296-90.267c31.47-31.474 31.47-82.458 0-113.91L567.862 56.53c-31.446-31.396-82.405-31.396-113.829 0L340.13 170.437c-31.423 31.452-31.423 82.436 0 113.91l90.268 90.267zM229.099 592.622V431.596h144.369l-90.245-90.326c-31.498-31.446-82.457-31.446-113.904 0L55.41 455.13c-31.447 31.446-31.447 82.515 0 113.905L169.32 682.89c31.446 31.445 82.405 31.445 113.903 0l90.245-90.27h-144.37z m362.353 56.982V793.94H430.397V649.604l-90.268 90.243c-31.423 31.447-31.423 82.436 0 113.852l113.904 113.91c31.424 31.45 82.382 31.45 113.83 0l113.886-113.91c31.47-31.416 31.47-82.405 0-113.852l-90.297-90.243z m375.01-194.475L852.558 341.27c-31.423-31.446-82.41-31.446-113.856 0l-90.297 90.326H792.77v161.026H648.404l90.297 90.269c31.445 31.445 82.433 31.445 113.856 0l113.905-113.857c31.446-31.39 31.446-82.46 0-113.905z" /></svg>