<?xml version="1.0" standalone="no"?><!DOCTYPE svg PUBLIC "-//W3C//DTD SVG 1.1//EN" "http://www.w3.org/Graphics/SVG/1.1/DTD/svg11.dtd"><svg class="icon" width="600px" height="585.70px" viewBox="0 0 1049 1024" version="1.1" xmlns="http://www.w3.org/2000/svg"><path d="M677.331613 1024a108.412584 108.412584 0 0 0-17.413086-5.868855l-144.399628-44.564602L296.823437 906.042465c-27.47398-8.448571-55.012453-16.768157-82.357448-25.797164A64.815376 64.815376 0 0 1 167.837614 829.618365c-7.223206-33.407328-16.058735-66.363206-25.797164-99.061111a1531.255192 1531.255192 0 0 0-66.427699-178.77435A1430.452772 1430.452772 0 0 0 9.894474 421.571716a92.16037 92.16037 0 0 1-9.157993-24.184842 13.73699 13.73699 0 0 1 14.188441-18.122508 173.034481 173.034481 0 0 1 27.538473 3.54711c19.347873 2.837688 39.018211 5.933348 58.49507 8.964515l68.749444 10.576837 63.396531 9.609444 63.009575 9.802923 63.461024 9.609443 57.656663 8.964515c19.347873 3.031167 38.695747 5.868855 58.49507 8.900022s38.695747 5.997841 57.656663 8.900022a60.945801 60.945801 0 0 1 23.668899 6.449291 46.950839 46.950839 0 0 1 22.572519 30.505147c9.996401 44.371123 20.250774 88.61326 30.311668 132.984383l41.017491 179.677251 29.795725 130.340173q7.481178 32.246456 14.704384 64.492911a27.47398 27.47398 0 0 1 0 9.996402 12.447132 12.447132 0 0 1-10.64133 10.770316c-2.321745 0.838408-4.836968-0.386957-7.158713 0.644929z" fill="#35A5DE" /><path d="M1048.810782 570.163383h-0.644929a8.384078 8.384078 0 0 1 0-9.415965h0.644929z" fill="#FAD7DE" /><path d="M677.976542 1024c2.257252-1.54783 4.772475-0.45145 7.158713-0.644929a1.934787 1.934787 0 0 0 0 0.644929z" fill="#86C4EC" /><path d="M563.308146 409.511542l-28.441374-4.19204-65.008854-9.738429-64.492912-9.802923-64.492911-9.609444-63.461025-9.54495-64.492911-9.802923c-25.087742-3.805082-50.175485-7.674656-75.32772-11.415245l-74.166848-11.157274c-9.286979-1.418844-18.573958-2.966674-27.860938-4.514504a16.381199 16.381199 0 0 1-6.449291-2.644209A8.900022 8.900022 0 0 1 25.953209 315.287398a27.02253 27.02253 0 0 1 7.674657-9.157993l46.370403-39.921112L154.939032 201.521903l80.616139-69.265387 80.229182-69.007415c17.993522-15.478299 35.600087-31.601527 54.238538-46.241417A77.907437 77.907437 0 0 1 424.71288 0.239527c6.449291 0.386957 12.382639 0.773915 18.573958 0.773915a241.91291 241.91291 0 0 1 40.824013 6.449291c19.992802 3.289138 39.985605 6.449291 60.0429 8.964514 21.218168 2.708702 42.565321 4.965954 63.912475 6.449292 18.38048 1.418844 36.825452 2.386238 55.270425 3.289138 27.280501 1.289858 54.49651 1.870294 81.777012 1.483337s56.366804-1.289858 84.421221-3.160153q28.441374-1.934787 56.753762-4.836968a103.704601 103.704601 0 0 1 15.478298 0.45145c9.157993 0.386957 18.315987 0.902901 27.47398 1.418844a16.187721 16.187721 0 0 1 5.933348 1.54783 9.0935 9.0935 0 0 1 5.223926 12.898583 29.408768 29.408768 0 0 1-6.449291 8.771035q-45.660981 48.95012-91.515441 97.384296-65.008855 69.007415-129.953216 138.143816-46.241417 49.143598-92.547328 98.158211a132.726411 132.726411 0 0 1-17.993522 18.122508 69.136401 69.136401 0 0 1-38.631254 12.963076z" fill="#F5B118" /><path d="M1048.165853 560.811911v9.415965a102.35025 102.35025 0 0 1-17.671058 50.368964q-125.632191 181.483052-251.00641 363.09509a37.534874 37.534874 0 0 1-7.029728 8.255093 9.286979 9.286979 0 0 1-15.28482-2.450731 52.819694 52.819694 0 0 1-5.352911-17.2841q-23.217448-101.834307-46.305911-203.733106-22.765998-99.964012-45.145038-199.928025c-6.449291-27.602966-12.898582-55.141439-18.767437-82.873391a59.462464 59.462464 0 0 1 12.898582-52.561723c19.347873-22.894983 40.30807-44.75808 60.623337-67.008135l108.606063-119.247393 90.935005-99.770533 58.559563-64.492912a30.376161 30.376161 0 0 1 7.610163-6.449291 9.673937 9.673937 0 0 1 14.317427 4.385518 23.862377 23.862377 0 0 1 1.676815 14.317426c-1.870294 19.863817-2.644209 39.727633-3.289138 59.59145-0.967394 34.181243 0 68.2335 2.450731 102.285758 1.418844 23.346434 3.676096 46.563882 6.449291 69.78133 3.805082 31.859498 8.835529 63.590011 14.897862 95.127044 7.674656 39.792126 17.155114 79.197295 28.183402 118.279999a128.147415 128.147415 0 0 1 2.64421 20.895703z" fill="#E61E43" /></svg>