<?xml version="1.0" standalone="no"?><!DOCTYPE svg PUBLIC "-//W3C//DTD SVG 1.1//EN" "http://www.w3.org/Graphics/SVG/1.1/DTD/svg11.dtd"><svg class="icon" width="600px" height="600.00px" viewBox="0 0 1024 1024" version="1.1" xmlns="http://www.w3.org/2000/svg"><path d="M210.292364 210.292364c166.632727-166.632727 436.782545-166.632727 603.415272 0s166.632727 436.782545 0 603.415272-436.782545 166.632727-603.415272 0-166.632727-436.782545 0-603.415272z m272.989091 71.307636c-88.599273 0-160.744727 70.656-163.653819 158.952727l-0.093091 5.515637a28.276364 28.276364 0 0 0 56.343273 2.978909l0.139637-2.885818c0-59.578182 48.034909-107.822545 107.264-107.822546 54.248727 0 92.346182 40.354909 98.048 100.491636l0.442181 5.678546v10.170182c0 10.426182 8.029091 19.083636 18.432 19.851636 67.584 4.980364 102.283636 39.261091 104.913455 103.517091 2.327273 56.692364-44.776727 104.494545-102.865455 107.031273l-4.887272 0.116363h-25.693091a28.253091 28.253091 0 0 0-2.885818 56.343273l2.885818 0.139636h25.693091c90.833455 0 164.468364-73.309091 164.468363-163.746909 0-83.898182-44.032-139.636364-124.811636-155.694545-6.865455-80.453818-72.564364-140.637091-153.739636-140.637091z m-135.493819 238.196364c-14.638545 0-26.670545 11.101091-28.113454 25.367272l-0.139637 2.885819v127.697454a62.277818 62.277818 0 0 0 58.181819 62.277818l3.956363 0.116364h71.563637a28.369455 28.369455 0 0 0 2.909091-56.576l-2.909091-0.139636H381.672727a5.632 5.632 0 0 1-5.422545-4.165819l-0.209455-1.512727V548.072727c0-15.592727-12.637091-28.253091-28.229818-28.253091z" fill="#00B578" /></svg>