<?xml version="1.0" standalone="no"?><!DOCTYPE svg PUBLIC "-//W3C//DTD SVG 1.1//EN" "http://www.w3.org/Graphics/SVG/1.1/DTD/svg11.dtd"><svg class="icon" width="600px" height="600.00px" viewBox="0 0 1024 1024" version="1.1" xmlns="http://www.w3.org/2000/svg"><path d="M157.610667 866.389333c-81.493333-81.578667 11.008-306.346667 206.72-502.058666S784.810667 76.074667 866.389333 157.610667c81.493333 81.578667-11.008 306.346667-206.72 502.058666S239.189333 947.925333 157.610667 866.389333zM216.746667 807.253333c34.773333 34.816 217.685333-40.533333 383.872-206.72 166.186667-166.186667 241.493333-349.098667 206.72-383.872-34.773333-34.816-217.685333 40.533333-383.872 206.72-166.186667 166.186667-241.493333 349.098667-206.72 383.872z m147.626666-147.626666C168.618667 463.957333 76.074667 239.189333 157.610667 157.610667c81.578667-81.493333 306.346667 11.008 502.058666 206.72s288.256 420.48 206.72 502.058666c-81.578667 81.493333-306.346667-11.008-502.058666-206.72z m59.093334-59.093334c166.186667 166.186667 349.098667 241.493333 383.872 206.72 34.816-34.773333-40.533333-217.685333-206.72-383.872-166.186667-166.186667-349.098667-241.493333-383.872-206.72-34.816 34.773333 40.533333 217.685333 206.72 383.872zM512 597.333333a85.333333 85.333333 0 1 1 0-170.666666 85.333333 85.333333 0 0 1 0 170.666666z" /></svg>