<?xml version="1.0" standalone="no"?><!DOCTYPE svg PUBLIC "-//W3C//DTD SVG 1.1//EN" "http://www.w3.org/Graphics/SVG/1.1/DTD/svg11.dtd"><svg class="icon" width="600px" height="600.00px" viewBox="0 0 1024 1024" version="1.1" xmlns="http://www.w3.org/2000/svg"><path d="M654.4 232.16c4.96-8.576-1.968-43.664-30-40.24C596.368 195.328 352.08 400.64 352.08 400.64l153.92 89.008C506 489.648 649.472 240.736 654.4 232.16zM369.712 792c-4.944 8.56 2.016 43.6 30.032 40.208 28-3.376 271.984-208.128 271.984-208.128l-153.904-89.008C517.808 535.056 374.656 783.44 369.712 792zM512 0C229.232 0 0 229.232 0 512s229.232 512 512 512c282.784 0 512-229.232 512-512S794.784 0 512 0zM512 976C255.744 976 48 768.272 48 512S255.744 48 512 48c256.256 0 464 207.728 464 464S768.256 976 512 976zM534.288 506.512c0 0 248.848 143.904 257.408 148.864 8.592 4.976 43.632-1.952 40.224-30.032-3.44-28.096-208.784-273.008-208.784-273.008L534.288 506.512zM489.504 518.256c0 0-248.848-143.904-257.424-148.864-8.576-4.976-43.648 2-40.24 30.128 3.392 28.128 208.624 273.232 208.624 273.232L489.504 518.256z" /></svg>