<?xml version="1.0" standalone="no"?><!DOCTYPE svg PUBLIC "-//W3C//DTD SVG 1.1//EN" "http://www.w3.org/Graphics/SVG/1.1/DTD/svg11.dtd"><svg class="icon" width="600px" height="600.00px" viewBox="0 0 1024 1024" version="1.1" xmlns="http://www.w3.org/2000/svg"><path d="M457 197.3L438.4 86.1C259.6 115.7 118.1 252.9 84.6 430.9l111.7 22.2C222.4 319.6 326.7 219.5 457 197.3zM829.4 453.1l108-22.2C903.9 260.3 769.8 123.1 598.5 86.1l-22.3 107.5C706.5 227 807.1 327.1 829.4 453.1zM576.2 827.6l22.3 107.5C769.8 898 907.6 764.5 937.4 590.3l-108-18.5c-22.3 129.7-122.9 229.9-253.2 255.8z"  /><path d="M363.9 512.4a149 148.3 0 1 0 298 0 149 148.3 0 1 0-298 0Z"  /><path d="M196.3 571.8L84.6 590.3c33.5 178 175 318.9 353.8 348.5L457 827.6c-130.3-18.5-238.3-122.3-260.7-255.8z"  /></svg>