<?xml version="1.0" standalone="no"?><!DOCTYPE svg PUBLIC "-//W3C//DTD SVG 1.1//EN" "http://www.w3.org/Graphics/SVG/1.1/DTD/svg11.dtd"><svg class="icon" width="600px" height="600.00px" viewBox="0 0 1024 1024" version="1.1" xmlns="http://www.w3.org/2000/svg"><path d="M817.152 432.64v-0.512-0.512c0.512-2.56 0-5.12-1.536-6.656l-1.024-1.024c-0.512-0.512-1.024-1.024-2.048-1.536l-195.072-169.984c-2.56-2.56-7.168-1.536-9.728 1.536s-3.072 7.68 0 10.24l187.392 163.328-279.04 96.256L292.352 327.68l237.056-81.92c3.584-1.024 5.12-5.12 3.584-9.216-1.536-4.096-5.12-6.144-8.704-5.12L276.992 316.928c-3.072 0-5.632 2.048-6.144 5.12l-51.712 258.56c-0.512 3.584 1.536 6.656 5.12 7.68 3.584 0.512 7.168-1.536 7.68-5.12l49.152-244.736 225.28 196.608L450.56 826.368l-186.88-162.816c-3.072-2.56-8.192-2.56-10.752 0.512s-2.56 8.192 0.512 10.752L450.56 846.336c2.048 2.048 5.12 2.56 7.68 1.536 1.024 0 1.536 0 2.56-0.512l248.32-85.504c3.584-1.024 5.12-5.12 3.584-9.216-1.536-4.096-5.12-6.144-8.704-5.12l-238.592 82.432 56.32-292.352 278.016-95.744-48.64 243.712c-0.512 3.584 1.536 6.656 5.12 7.68 3.584 0.512 7.168-1.536 7.68-5.12l50.688-251.392c1.024-1.536 2.048-2.56 2.56-4.096z" /></svg>