<?xml version="1.0" standalone="no"?><!DOCTYPE svg PUBLIC "-//W3C//DTD SVG 1.1//EN" "http://www.w3.org/Graphics/SVG/1.1/DTD/svg11.dtd"><svg class="icon" width="600px" height="600.00px" viewBox="0 0 1024 1024" version="1.1" xmlns="http://www.w3.org/2000/svg"><path d="M844.706909 132.747636a46.545455 46.545455 0 0 1 46.545455 46.545455v665.413818a46.545455 46.545455 0 0 1-46.545455 46.545455H179.293091a46.545455 46.545455 0 0 1-46.545455-46.545455V179.293091a46.545455 46.545455 0 0 1 46.545455-46.545455h665.413818z m-381.533091 479.650909l-64.256 136.634182 115.037091-3.304727a229.096727 229.096727 0 0 0 55.133091-8.378182l8.843636-2.653091-114.734545-122.298182z m13.265455 1.722182l110.312727 117.527273a229.12 229.12 0 0 0 57.320727-31.069091l7.447273-5.771636-175.080727-80.686546z m-117.178182-221.090909l145.687273 161.117091 162.350545 77.451636-142.173091-157.137454-165.864727-81.408z m186.484364 91.554909l127.138909 140.450909a140.101818 140.101818 0 0 0-72.936728-113.733818l-5.12-2.653091-49.082181-24.064z m-194.72291-87.970909a145.361455 145.361455 0 0 0 77.265455 120.832l5.306182 2.653091 51.246545 24.436364-133.818182-147.921455z m90.228364-105.076363a229.12 229.12 0 0 0-59.345454 31.697454l-7.703273 5.957818 180.48 83.176728-113.431273-120.832z m185.553455-16.570182l-115.037091 3.304727a229.096727 229.096727 0 0 0-53.061818 7.796364l-8.564364 2.490181 113.408 120.855273 63.255273-134.446545z" fill="#00B578" /></svg>