<?xml version="1.0" standalone="no"?><!DOCTYPE svg PUBLIC "-//W3C//DTD SVG 1.1//EN" "http://www.w3.org/Graphics/SVG/1.1/DTD/svg11.dtd"><svg class="icon" width="600px" height="600.00px" viewBox="0 0 1024 1024" version="1.1" xmlns="http://www.w3.org/2000/svg"><path d="M723.88094187 218.33974156c-71.36753906 8.58217219-129.18427969-7.40776969-159.80908406-21.22958531-30.62480438-13.82181469-121.77651-43.45289437-191.15659875 0.27101625-135.32730844 99.37252313-136.05001781 225.12393375-136.05001781 225.12393375 70.01245875-174.71496281 156.9182475-155.83418344 221.78140312-146.980995 11.20199344 1.62609563 21.22958438 2.89083656 30.71514376 3.88456219h-1.08406407c-130.26834375-4.24591688-155.38249031 30.26344969-174.17293031 54.02251687-13.37012156 16.89332906-7.13675344 21.31992281 3.79422281 22.76534156 4.87828781 1.35508031 96.48168562 27.10159688 131.89443938 30.26344969h0.09033937c19.60348875 3.16185281 43.54323281 4.78794844 69.01873313 1.53575719 111.74891906-16.89332906 204.9784125-169.65599812 204.97841343-169.65599719z m1e-8 0"  /><path d="M156.64451375 504.71328406c38.75528344 60.52690031 49.59592312 119.51804344 50.40897094 153.12402375 0.90338625 33.60598031 13.82181469 128.55190875 83.47291875 172.00480313 148.33607531 78.59463187 261.89176688 24.48177562 261.89176687 24.48177562-187.81406813 13.00876688-208.59195937-73.53566719-228.82781812-135.68866312-3.34253063-10.75030031-6.68506031-20.32619812-9.84691313-29.36006344 0.18067688 0.36135469 0.27101625 0.63237094 0.45169313 0.99372562 52.84811438 119.06635031 94.85559 126.74513625 124.48666968 133.33985719 20.95856812 4.69761 22.31364844-2.80049812 18.88077844-13.27978218-0.90338625-4.96862625-17.61603844-98.64981375-30.17311125-131.89443938v-0.09033844c-5.78167406-19.06145625-14.6348625-41.28476625-28.63735406-62.78536687-63.95976938-93.41017125-242.10760125-110.84553188-242.10760125-110.84553188z m0 0"  /><path d="M649.08053375 861.73165625c33.967335-63.32739844 80.2207275-101.45031187 109.21943625-118.61465625 28.99870875-17.16434438 105.60589031-74.61973031 109.67112938-156.64723125-3.61354594-167.84922469-106.05758344-240.75252094-106.05758344-240.75252094 102.80539125 157.73129531 37.30986563 217.98717937-7.13675344 265.95700594-7.76912437 8.2208175-14.54452406 15.71892656-20.86822969 22.94601938 0.27101625-0.27101625 0.45169313-0.54203156 0.63237-0.90338719 78.32361563-104.16047156 64.50180094-144.54185156 55.91962875-173.63089875-6.14302875-20.59721344-13.37012156-18.15807-20.77789031-10.02759094-3.88456219 3.16185281-77.60090625 63.41773687-100.54692562 90.51933469-13.82181469 14.27350781-28.90837031 32.88327094-40.92341157 55.55827406-50.67998625 101.45031187 20.86822969 265.59565125 20.86822969 265.59565125z m0 0"  /></svg>