<?xml version="1.0" standalone="no"?><!DOCTYPE svg PUBLIC "-//W3C//DTD SVG 1.1//EN" "http://www.w3.org/Graphics/SVG/1.1/DTD/svg11.dtd"><svg class="icon" width="600px" height="600.00px" viewBox="0 0 1024 1024" version="1.1" xmlns="http://www.w3.org/2000/svg"><path d="M619.52 842.24c-25.6-30.72-51.2-61.44-71.68-97.28-12.8-17.92-23.04-35.84-33.28-53.76-12.8-25.6-23.04-53.76-35.84-79.36-7.68-30.72-15.36-61.44-12.8-92.16v-15.36c-2.56-5.12 2.56-10.24 2.56-15.36 2.56-25.6 10.24-48.64 23.04-69.12v-2.56c0-2.56 0-2.56 2.56-5.12 15.36-25.6 30.72-51.2 53.76-71.68 10.24-7.68 20.48-12.8 30.72-20.48 2.56 0 2.56 0 5.12-2.56l2.56-2.56c-12.8-28.16-25.6-53.76-46.08-76.8l-2.56-2.56-7.68-7.68c-35.84-38.4-81.92-58.88-133.12-58.88-76.8 0-138.24 33.28-181.76 97.28v2.56c-10.24 12.8-15.36 30.72-17.92 51.2-2.56 33.28 2.56 61.44 17.92 89.6 2.56 7.68 7.68 15.36 12.8 23.04 0 2.56 5.12 5.12 0 5.12-58.88-2.56-115.2 12.8-161.28 51.2 0 0 0 2.56-2.56 2.56v2.56c-66.56 71.68-66.56 174.08 2.56 248.32 20.48 23.04 48.64 38.4 76.8 48.64 2.56 0 2.56 0 5.12 2.56 38.4 12.8 79.36 12.8 120.32 10.24 43.52-2.56 89.6-7.68 133.12-5.12 10.24-2.56 20.48-2.56 30.72 0 12.8-2.56 25.6 2.56 40.96 2.56 12.8 5.12 28.16 7.68 43.52 10.24 25.6 7.68 48.64 15.36 71.68 28.16 10.24 5.12 23.04 10.24 33.28 15.36 2.56 0 2.56 2.56 5.12 2.56 2.56-10.24-2.56-12.8-7.68-15.36z" fill="#0378DE" /><path d="M896 770.56c-33.28 2.56-69.12 2.56-102.4 10.24-51.2 10.24-94.72 35.84-133.12 74.24 12.8-5.12 23.04-10.24 33.28-12.8 23.04-5.12 43.52-7.68 66.56-5.12 17.92 2.56 35.84 2.56 53.76 2.56 38.4-5.12 66.56-23.04 81.92-58.88 2.56-2.56 5.12-5.12 5.12-7.68 0-2.56-2.56-2.56-5.12-2.56z" fill="#CA2E2A" /><path d="M1008.64 583.68c-2.56-25.6-12.8-48.64-30.72-66.56v-2.56c-33.28-43.52-102.4-61.44-153.6-38.4-2.56-2.56-2.56-5.12 0-5.12 2.56-23.04 5.12-43.52 0-66.56-5.12-23.04-12.8-46.08-33.28-61.44 0-5.12-5.12-7.68-7.68-7.68-66.56-46.08-143.36-28.16-199.68 20.48-33.28 28.16-53.76 64-66.56 104.96v2.56c-2.56 10.24-5.12 23.04-7.68 35.84 0 7.68-2.56 15.36-2.56 23.04v25.6c0 2.56 0 5.12 2.56 10.24 0 17.92 5.12 35.84 10.24 53.76 5.12 25.6 15.36 51.2 28.16 74.24 7.68 23.04 20.48 43.52 30.72 66.56v2.56c23.04 38.4 43.52 76.8 71.68 112.64 35.84-71.68 94.72-107.52 171.52-117.76h5.12c20.48-2.56 40.96-5.12 58.88-7.68 5.12-2.56 10.24-2.56 15.36-5.12 35.84-12.8 64-33.28 84.48-64 10.24-15.36 17.92-33.28 20.48-53.76 2.56-17.92 5.12-25.6 2.56-35.84z m-220.16-243.2z m-217.6 40.96s-2.56 0 0 0z" fill="#CA2E2A" /></svg>