<?xml version="1.0" standalone="no"?><!DOCTYPE svg PUBLIC "-//W3C//DTD SVG 1.1//EN" "http://www.w3.org/Graphics/SVG/1.1/DTD/svg11.dtd"><svg class="icon" width="600px" height="300.00px" viewBox="0 0 2048 1024" version="1.1" xmlns="http://www.w3.org/2000/svg"><path d="M1991.40864 774.58432a4632.43776 4632.43776 0 0 1-124.12928 46.81216c-430.65344 155.06432-556.42112 101.17632-556.42112 101.17632 78.64832 39.98208 277.90848 129.37216 624.9984-13.7984 19.7376-8.1408 38.0928-15.99488 55.552-23.68512v-110.50496z" fill="#0068B7" /><path d="M1991.40864 590.67392c-133.3504 39.52128-267.1872 80.31744-396.26752 117.15584-512.1024 146.14016-713.90208 78.61248-713.90208 78.61248 60.69248 74.04032 251.42784 148.08576 671.9744 53.57056 146.83648-32.9984 272.3072-78.60736 438.1952-139.06944v-110.26944z" fill="#00ADA9" /><path d="M1991.40864 402.21184a6192.0256 6192.0256 0 0 0-109.80864 23.68c-473.20064 106.60864-705.00864 154.83392-1073.536 114.1248-315.06432-34.7904-424.192-123.32544-424.192-123.32544s85.02272 200.02304 418.7392 251.05408c215.0144 32.88064 440.3712 94.10048 1188.79744-143.4112V402.21184z" fill="#6FBA2C" /><path d="M1991.40864 216.36096c-116.37248 6.80448-246.99392 20.20352-394.58816 42.0608-500.03456 74.04032-799.83104 35.584-1076.7872-24.73472C208.07168 165.74976 59.392 7.96672 59.392 7.96672S112.512 257.46944 476.40064 382.0544c242.18624 82.91328 617.87648 143.0528 1304.01792-7.2704 75.29472-16.49664 145.5616-30.42816 210.99008-42.15808V216.36096z" fill="#ABCD03" /></svg>