<?xml version="1.0" standalone="no"?><!DOCTYPE svg PUBLIC "-//W3C//DTD SVG 1.1//EN" "http://www.w3.org/Graphics/SVG/1.1/DTD/svg11.dtd"><svg class="icon" width="600px" height="600.00px" viewBox="0 0 1024 1024" version="1.1" xmlns="http://www.w3.org/2000/svg"><path d="M200.192 85.930667H372.906667c58.88 0 106.666667 47.786667 106.666666 106.666666v279.893334H200.192c-58.88 0-106.666667-47.786667-106.666667-106.666667v-173.226667c0-58.88 47.786667-106.666667 106.666667-106.666666z m632.234667 386.56H553.130667v-279.893334c0-58.88 47.786667-106.666667 106.666666-106.666666h172.629334c58.88 0 106.666667 47.786667 106.666666 106.666666v173.226667c0 58.88-47.786667 106.666667-106.666666 106.666667z m0 461.568H659.797333a106.666667 106.666667 0 0 1-106.666666-106.666667v-279.893333h279.296c58.88 0 106.666667 47.786667 106.666666 106.666666v173.226667a106.666667 106.666667 0 0 1-106.666666 106.666667z m-632.234667-386.56H479.573333v279.893333c0 58.88-47.786667 106.666667-106.666666 106.666667H200.192c-58.88 0-106.666667-47.786667-106.666667-106.666667v-173.226667c0-58.88 47.786667-106.666667 106.666667-106.666666z" /></svg>