<?xml version="1.0" standalone="no"?><!DOCTYPE svg PUBLIC "-//W3C//DTD SVG 1.1//EN" "http://www.w3.org/Graphics/SVG/1.1/DTD/svg11.dtd"><svg class="icon" width="600px" height="600.00px" viewBox="0 0 1024 1024" version="1.1" xmlns="http://www.w3.org/2000/svg"><path d="M812.143894 358.192985c-47.511083 56.470129-257.137405 164.770717-257.137405 164.770717s70.538543-224.698598 118.049626-281.169751 117.161397-76.19231 155.570171-44.050262S859.654978 301.722856 812.143894 358.192985z" fill="#008df2" /><path d="M843.241147 591.796394c-72.79084 12.800537-303.173904-38.622646-303.173904-38.622646s198.853977-126.908388 271.644817-139.708925c72.79084-12.800537 138.857535 16.743336 147.563824 65.9879C967.982172 528.697287 916.031986 578.994834 843.241147 591.796394z" fill="#008df2" /><path d="M716.505697 790.682094c-64.010873-36.858466-207.352535-223.944422-207.352535-223.944422s234.124272 30.263258 298.135144 67.121723c64.010873 36.858466 95.579869 101.844549 70.510914 145.149844C852.730265 822.314535 780.51657 827.54056 716.505697 790.682094z" fill="#ffcb29" /><path d="M491.238141 861.789595c-25.279756-69.27169-14.508435-304.480666-14.508435-304.480666s159.844521 173.275415 185.124278 242.546082 7.579629 139.291416-39.534412 156.393933S516.517897 931.061284 491.238141 861.789595z" fill="#008df2" /><path d="M272.844132 771.84712c25.279756-69.27169 185.124278-242.546082 185.124278-242.546082s10.772344 235.208976-14.508435 304.480666c-25.279756 69.27169-83.96739 111.562888-131.081431 94.460372S247.563352 841.118809 272.844132 771.84712z" fill="#008df2" /><path d="M163.512051 562.940183c64.010873-36.858466 298.135144-67.121723 298.135144-67.121723S318.306556 682.904415 254.295684 719.762881c-64.010873 36.858466-136.224568 31.632441-161.294546-11.672854C67.932182 664.784732 99.501178 599.798649 163.512051 562.940183z" fill="#ffcb29" /><path d="M214.400045 332.818061c72.79084 12.800537 271.644817 139.708925 271.644817 139.708925s-230.383064 51.424206-303.173904 38.622646S58.129932 448.051549 66.836221 398.805962 141.609205 320.016501 214.400045 332.818061z" fill="#008df2" /><path d="M401.697825 189.157127c47.511083 56.470129 118.049626 281.169751 118.049626 281.169751S310.120107 362.02629 262.609023 305.555138s-54.890144-128.306224-16.482393-160.448272S354.186741 132.686998 401.697825 189.157127z" fill="#008df2" /><path d="M637.764332 199.178365c0 73.716932-90.783633 291.067168-90.783633 291.067168s-90.783633-217.350237-90.783633-291.067168S496.843812 65.702398 546.981722 65.702398 637.764332 125.461433 637.764332 199.178365z" fill="#ffcb29" /></svg>