<?xml version="1.0" standalone="no"?><!DOCTYPE svg PUBLIC "-//W3C//DTD SVG 1.1//EN" "http://www.w3.org/Graphics/SVG/1.1/DTD/svg11.dtd"><svg class="icon" width="600px" height="577.99px" viewBox="0 0 1063 1024" version="1.1" xmlns="http://www.w3.org/2000/svg"><path d="M618.495936 243.816357c-17.750651 1.546539-45.67604 7.16935-59.379649 11.957774-2.527076 0.882218-7.134805 2.171-10.238512 2.859237-3.106364 0.688236-8.179117 2.279949-11.277509 3.536843l-10.751368 4.365917c-42.94701 17.45835-83.704419 43.528955-114.074508 72.966337-11.33597 10.985208-11.349256 11.096814-2.500503 20.434508 14.628344 15.438815 50.554812 52.813502 65.948453 68.608393a3582.389686 3582.389686 0 0 1 28.597681 29.695139c6.396081 6.757471 12.818734 13.467111 14.26961 14.907358 1.450877 1.440247 6.06392 6.27916 10.249141 10.751368 9.473214 10.124249 50.0579 52.383022 56.687822 59.02623 6.653837 6.667123 8.389043 6.499715 15.197002-1.485421 52.675324-61.78449 126.630171-83.087929 204.942962-59.03686 25.504604 7.833671 50.427262 25.64544 70.784708 50.589357 2.75826 3.380064 8.559109 9.600764 12.893138 13.823187 7.985136 7.783182 16.48047 19.589491 20.455765 28.430272a196.128754 196.128754 0 0 0 4.055014 8.434217c1.031026 1.971704 2.21086 5.657356 2.625396 8.192403 0.411879 2.535048 1.618285 7.148092 2.681199 10.254456 3.916835 11.447576 4.203822 60.506337 0.446423 76.274655-0.805157 3.377407-1.764436 8.442189-2.133798 11.24828-0.366705 2.808748-1.315355 6.358879-2.104568 7.886816-0.789213 1.527938-1.450877 4.0683-1.464163 5.644069-0.015944 1.578426-1.424304 6.784044-3.13028 11.572469-1.703318 4.785767-3.552788 10.509555-4.110817 12.715099-1.915901 7.59983 1.129345 9.303148 4.203822 2.351696 1.068228-2.412813 2.24009-4.68479 2.604137-5.051495 0.935364-0.935364 10.193338-22.233488 13.924164-32.030891a494.958843 494.958843 0 0 1 5.064782-12.800133c7.767239-18.391057 19.645294-67.928129 22.467329-93.695803 0.555372-5.070096 1.562482-11.750506 2.234775-14.848899 3.40398-15.638111 0.297616-66.934305-5.269393-87.020708-1.166547-4.211794-2.120512-8.657428-2.120512-9.879778 0-2.20023-7.339416-25.350481-11.479463-36.21877-22.990814-60.322984-64.05381-112.413706-114.985956-145.860928-5.806164-3.813201-30.840428-17.979178-31.773134-17.979178-0.334818 0-3.000073-1.126688-5.923084-2.505818-16.45124-7.753952-39.79813-16.036704-50.621244-17.955262-3.518243-0.621804-8.357155-1.828211-10.751367-2.678541-2.394212-0.850331-8.625541-2.192259-13.847103-2.981472-5.221561-0.789213-9.887751-1.676746-10.371376-1.974361-4.161305-2.57225-61.271635-4.328714-82.025016-2.521762M220.743167 370.956726c-0.446424 1.557168-1.400388 3.170139-2.123169 3.584675-2.511133 1.445562-4.618358 5.452745-14.314784 27.205264-9.117138 20.463737-10.467038 24.112187-19.166983 51.886111a248.979458 248.979458 0 0 0-3.576703 12.800133 1817.823478 1817.823478 0 0 1-3.427896 13.823187c-3.977953 15.760346-5.933713 25.345167-7.001941 34.305525a1265.6613 1265.6613 0 0 1-2.901753 22.015591c-6.425311 45.537861 4.573184 107.694371 27.537425 155.647702 7.275641 15.191688 11.256251 22.993471 12.537062 24.577212 0.685579 0.842359 3.249857 4.990378 5.697215 9.215458 10.623818 18.321967 30.29037 43.228682 44.009923 55.736514 2.51379 2.290578 7.602487 7.044458 11.304083 10.560043 8.662743 8.224291 26.392136 21.577139 38.397741 28.916555 8.766377 5.362397 29.182283 16.004816 35.549134 18.531892a2162.390724 2162.390724 0 0 1 10.530813 4.219766c28.850123 11.681417 45.49003 15.757689 87.039309 21.32204 49.746998 6.664466 126.747091-5.022265 164.86316-25.023635 1.690032-0.884875 3.680337-1.612971 4.424377-1.618286 2.099254-0.007972 39.171011-19.257331 43.19148-22.42747 1.971704-1.551853 5.872596-4.155991 8.668057-5.787562 11.080871-6.457198 37.310913-27.048485 51.492833-40.422591 10.437808-9.842577 10.506898-10.517527 2.02485-19.605435-12.194272-13.055232-46.133093-48.58045-86.847985-90.905656-13.847102-14.391845-29.506472-30.776653-34.79978-36.410094a2009.060173 2009.060173 0 0 0-22.121882-23.038645 4825.527855 4825.527855 0 0 1-25.24419-26.09452c-15.18903-15.850694-14.115488-15.763004-25.51789-2.064709-9.220772 11.070242-20.740095 22.161741-28.4223 27.362044-3.098392 2.096596-9.087908 6.175526-13.310331 9.061336-13.217326 9.034763-28.778376 16.180197-49.664622 22.804804-22.60285 7.16935-67.526879 7.187951-96.254767 0.039859-32.44277-8.070169-59.135179-24.101558-78.185242-46.959508-1.886671-2.264005-8.476733-9.494473-14.644287-16.068591-6.167554-6.574118-12.542376-13.783328-14.165977-16.026074-1.6236-2.24009-3.409294-4.357944-3.969981-4.706049-1.357872-0.837044-6.736213-11.572468-10.509554-20.973935-13.302359-33.136321-12.167699-86.308556 2.822034-132.024456 2.460644-7.509482 4.474865-14.434362 4.474865-15.388326 0-0.956622 0.722781-2.768889 1.604999-4.031099 0.884875-1.259552 1.426961-3.321604 1.209064-4.578499-0.369362-2.133798-0.451738-2.096596-1.206407 0.539429" fill="#2E4476" /><path d="M522.241169 164.44331c-19.4832 1.434933-47.769979 5.686586-53.562856 8.054225-1.798981 0.73341-6.03469 1.666117-9.414754 2.070023-3.377407 0.406564-9.470557 1.820239-13.538858 3.146224-4.070958 1.323327-9.109167 2.72903-11.200448 3.11965-2.091282 0.393278-9.821318 3.454468-17.179336 6.805302-7.35536 3.348177-16.095164 7.230467-19.419425 8.625541-12.80279 5.370369-36.232056 17.803797-42.45807 22.531104-3.584675 2.723715-7.995765 5.869938-9.80006 6.996626-1.806953 1.126688-4.634302 3.109021-6.281817 4.405776-1.650173 1.296754-6.130352 4.605072-9.95684 7.352702-19.546975 14.038427-50.783338 44.700817-65.749157 64.545408a233.070304 233.070304 0 0 1-7.241096 9.106509c-1.729891 2.022192-6.776072 8.976302-11.216392 15.454759-4.44032 6.475799-10.456409 14.158005-13.368792 17.067729-5.194989 5.194989-9.645938 12.576921-19.350336 32.084037a1574.998287 1574.998287 0 0 1-5.787562 11.55121c-0.520827 1.001796-2.030164 4.690105-3.350834 8.192403a970.104983 970.104983 0 0 1-7.211867 18.14393c-6.536917 16.023417-15.138542 42.024933-16.448582 49.728396-0.377334 2.216174-1.527938 7.488224-2.558964 11.710647-1.028369 4.22508-2.81672 11.599041-3.972638 16.384808-2.038136 8.442189-4.865485 26.121093-7.365989 46.079947-1.658145 13.227955-0.635091 56.746281 1.612971 68.608393 0.906134 4.788424 2.250719 12.390911 2.989443 16.895006 1.275496 7.809755 2.072681 10.791227 6.975368 26.113122 1.171862 3.661736 2.492532 8.038281 2.933641 9.728313 3.489013 13.342219 21.696717 53.926904 26.676465 59.45671 1.044312 1.16389 1.902615 2.48456 1.902615 2.933641 0 1.190463 9.180913 16.010131 11.782394 19.018175 1.219693 1.40836 4.16662 5.553722 6.555517 9.215458 6.940824 10.645076 33.027372 38.514662 46.191553 49.345748 11.893999 9.786774 29.246058 22.089995 37.868942 26.851846 17.391918 9.600764 41.26495 20.593944 51.713387 23.811914 2.81672 0.866274 5.580295 1.92653 6.143638 2.35701 3.111679 2.370297 37.770622 10.977237 50.174821 12.457344 5.070096 0.603203 10.012643 1.522623 10.987865 2.040793 6.526287 3.475726 79.117948 3.026645 95.773799-0.592574 4.086901-0.887533 10.079075-2.043451 13.312989-2.569593 3.233914-0.526142 9.103852-1.854784 13.04726-2.952241a2056.471419 2056.471419 0 0 1 17.407862-4.740593c9.659224-2.588194 19.496486-6.008117 26.777442-9.313778 1.775065-0.805157 3.574046-1.464163 3.993896-1.464163 1.745835 0 41.700744-19.602778 49.101278-24.088271 34.698803-21.043025 75.068249-54.402558 75.227686-62.167139 0.018601-0.975223-5.147157-7.0418-11.484778-13.480398-9.7416-9.89838-29.161025-30.14422-42.683939-44.498863-16.092507-17.083673-42.511216-44.679559-56.980122-59.523142-9.619365-9.866492-21.112115-21.856154-25.536491-26.641921-4.427034-4.788424-10.379348-11.014439-13.230613-13.839131-9.024134-8.9391-37.916773-39.5138-38.772418-41.028451-0.855645-1.517309-3.528872-1.881356-6.226015-0.845016-0.868932 0.33216-4.238367 3.903549-7.485566 7.934647-12.026863 14.928617-23.750797 26.30976-35.299349 34.257694-3.775999 2.60148-15.842722 10.568015-17.636388 11.644215-45.628209 27.393932-114.558133 29.612763-167.541702 5.394285-5.912455-2.702457-11.673445-5.652041-12.800133-6.550203-1.126688-0.900819-4.35263-3.18874-7.166693-5.083383-7.929333-5.335825-24.614414-22.230831-30.922803-31.30811-8.891269-12.794818-8.85141-13.671722 2.391554-53.762152a1396.891228 1396.891228 0 0 0 4.347316-15.871952c1.049627-3.940751 3.380064-11.314712 5.181702-16.382151 1.804295-5.070096 3.871662-11.325341 4.599757-13.905562 0.728096-2.577565 2.030164-5.803506 2.891124-7.166693 0.863617-1.363186 1.902615-3.632506 2.309179-5.040866 3.906206-13.512285 23.631219-54.391929 32.979541-68.353294 2.35701-3.5209 5.165758-8.357155 6.239301-10.751368 1.073542-2.394212 5.131214-8.269465 9.016161-13.060546 3.884948-4.791081 9.810689-12.624752 13.164181-17.407862 5.936371-8.46079 42.309262-46.074632 44.557324-46.074633 0.579288 0 3.773342-2.418128 7.094946-5.375683 10.084389-8.973645 14.763865-12.659297 18.518606-14.580513a45.14724 45.14724 0 0 0 6.656494-4.349972c4.291512-3.510271 14.02514-9.486501 15.454759-9.486501 0.653692 0 1.793666-0.728096 2.535048-1.620943 1.434933-1.727234 31.759848-16.809973 33.800641-16.809973 0.666978 0 2.883152-1.031026 4.918631-2.290578 2.038136-1.262209 5.779591-3.050561 8.314639-3.977953a1218.018871 1218.018871 0 0 0 13.953394-5.290651c5.139186-1.982333 11.979032-4.150676 15.19966-4.820311 3.220627-0.666978 7.3155-1.825554 9.101194-2.57225 3.651107-1.522623 19.241387-5.147157 26.256615-6.10378 2.535048-0.34279 5.992173-1.044312 7.679548-1.557168 22.161741-6.725584 117.215416-8.883298 136.703931-3.101049 1.971704 0.584602 6.119723 1.49605 9.218115 2.02485 3.095735 0.528799 12.542376 2.125827 20.98988 3.55013 21.797694 3.67768 29.155711 5.24282 33.505683 7.126833 2.093939 0.908791 4.857514 1.660802 6.143639 1.674089 1.283468 0.013286 4.408433 0.993824 6.94348 2.184286 5.891197 2.760917 17.049129 6.15161 20.894218 6.345593 4.118789 0.209925 4.594443-2.197573 0.701522-3.552788-1.74052-0.608518-3.162167-1.490736-3.162166-1.963732 0-0.470339-4.033756-3.574046-8.960359-6.89565-4.92926-3.321604-14.920645-10.076418-22.204258-15.010992-7.280956-4.937232-15.885239-10.254456-19.119152-11.822253-3.231256-1.56514-7.265012-3.83446-8.963016-5.043523-1.695347-1.206407-5.032894-2.883152-7.41382-3.722854-2.383583-0.839701-4.844227-1.953103-5.468689-2.471273-1.102773-0.916763-7.047115-3.295031-23.352204-9.343008-4.363259-1.618285-9.954183-3.86369-12.430771-4.990378-2.473931-1.129345-6.73887-2.593508-9.478529-3.255171-2.737002-0.664321-9.82929-2.529734-15.757689-4.148019-5.925741-1.620943-13.068518-3.353491-15.871952-3.853061-2.800776-0.499569-8.08877-1.434933-11.747848-2.075338a221.457977 221.457977 0 0 1-12.289935-2.556307c-4.862828-1.203749-14.52471-1.870727-58.367224-4.036413-4.22508-0.207268-16.204113 0.249785-26.62332 1.015083m102.369176 76.566956c-0.289644 0.292301-6.047976 1.017739-12.792161 1.615628-18.529235 1.644858-45.79296 7.613116-57.83311 12.664611-1.971704 0.829072-5.657356 1.830868-8.192404 2.229461-2.535048 0.395935-6.085178 1.573112-7.892131 2.612109-1.806953 1.041655-4.801711 2.341066-6.656495 2.891124-10.926748 3.236571-42.816803 18.569095-56.618731 27.218551-1.690032 1.060256-4.68479 2.928326-6.656495 4.153334-10.974579 6.821246-22.520475 14.766522-26.113121 17.971206-2.250719 2.011563-7.089631 5.784905-10.751367 8.389043-6.555517 4.660875-28.366497 24.372601-30.043244 27.152119-1.674088 2.774204 0.451738 6.010774 11.346599 17.27234 6.058606 6.263216 19.772844 20.484996 30.473723 31.603069 10.700879 11.118073 22.911095 23.777369 27.136176 28.129999a2184.541837 2184.541837 0 0 1 15.359096 16.042018c4.22508 4.46955 17.357373 18.22099 29.184941 30.558756 11.82491 12.337766 22.884522 23.891633 24.574554 25.672013 2.651969 2.792805 37.845026 39.503171 48.854151 50.956061 5.218904 5.431487 7.145434 4.892058 13.868361-3.884948 23.442552-30.60393 61.909382-55.531903 99.581685-64.532121 17.373317-4.150676 25.339852-5.099326 41.985074-5.001007 31.791735 0.188667 56.289229 5.471346 80.526308 17.373317 18.215676 8.944415 40.124975 26.923593 49.101277 40.295042l4.865486 7.25704c4.379203 6.528945 4.450949 15.361754 0.236498 28.943128-1.961075 6.326991-6.127695 20.49031-9.255317 31.472861-3.127622 10.982551-6.528945 22.042164-7.559971 24.574555-1.031026 2.535048-3.597961 9.909009-5.702529 16.384808-2.107226 6.478456-5.601553 15.462731-7.769896 19.969482-6.212728 12.917053-14.330728 31.087555-14.330728 32.076065 0 0.494255-1.958418 3.959352-4.35263 7.695492-7.947934 12.417484-9.903694 15.65937-10.639761 17.647017-1.333956 3.600619-14.381216 22.446071-19.472571 28.124685-4.365916 4.873457-12.975514 15.308608-24.75525 30.006041-5.508548 6.874391-14.787781 16.036704-17.939318 17.71345-1.604999 0.852988-5.521834 4.116132-8.702603 7.254383-3.183425 3.135594-8.20569 7.490881-11.160589 9.680482-2.957556 2.186944-5.375684 4.416405-5.375684 4.953176 0 0.534114-2.189601 2.133798-4.865485 3.55013-2.675884 1.416332-9.701741 6.029375-15.616853 10.249141-5.912455 4.219766-11.901971 8.165831-13.310331 8.769035-1.40836 0.603203-10.395292 4.974434-19.969483 9.715027-9.574191 4.740593-19.480543 9.276575-22.015591 10.079075-2.535048 0.799842-10.137535 3.629849-16.895006 6.287131-18.654128 7.334101-19.299847 7.562628-21.582454 7.610459-1.166547 0.023916-5.484632 1.187806-9.595449 2.585537-4.10816 1.397731-9.834605 2.81672-12.723072 3.156852-2.888467 0.337475-9.39881 1.456191-14.468906 2.487217-5.067439 1.028369-12.210216 2.168343-15.871953 2.535048-3.659079 0.364048-10.110962 1.310041-14.336042 2.101911-26.126408 4.905345-102.116734 3.042589-126.975617-3.114335-3.095735-0.765298-7.934647-1.695347-10.751368-2.064709-5.965601-0.783899-21.725947-4.785767-30.537498-7.753953-3.369435-1.13466-8.691973-2.537705-11.827567-3.116993-3.132937-0.579288-7.405848-1.92653-9.494473-2.992101-5.083383-2.593508-15.226232-3.83446-15.178401-1.857441 0.074404 3.085106 12.991457 14.080943 24.542667 20.89156 11.192477 6.598034 19.863191 12.056094 22.015591 13.855075 11.771764 9.839919 78.411111 35.166485 102.334631 38.891996 6.794673 1.057599 16.499071 2.63071 21.569167 3.494327 5.067439 0.866274 12.672583 2.155057 16.895006 2.867209 12.454686 2.096596 87.60531 1.796323 91.649695-0.369363 1.690032-0.903476 5.606867-1.942474 8.702603-2.306522 6.372165-0.752011 21.516022-3.263144 29.18494-4.841569 7.222496-1.485421 36.247999-9.943553 39.936309-11.638901 9.637966-4.427034 19.841933-8.73449 20.692263-8.734489 0.938021 0 13.132293-6.156925 22.826063-11.524637l12.800132-7.084317c17.147448-9.491815 33.380791-20.902189 47.105659-33.109748 3.940751-3.507614 8.551137-7.094946 10.238512-7.974507 3.40398-1.767093 34.371957-33.598688 40.244553-41.365926 2.048765-2.707772 6.244615-7.857586 9.324406-11.444919 8.112685-9.446642 15.483989-19.568233 17.235139-23.673735 0.837044-1.963732 5.165758-7.679548 9.619364-12.704471 4.453607-5.022265 9.433355-11.479463 11.064927-14.349329 4.41109-7.759267 17.37066-33.875045 18.983631-38.26222 0.773269-2.099254 3.098392-7.735351 5.168416-12.521118 2.067366-4.788424 4.389832-10.549414 5.163101-12.800133 0.770612-2.253376 2.811406-8.014366 4.533325-12.800132 4.658217-12.951598 10.581301-34.730691 13.924164-51.200532 0.858302-4.22508 2.434071-11.827567 3.502299-16.897663 1.068228-5.067439 2.229461-12.4414 2.580222-16.382151 0.348104-3.943408 1.365844-10.623818 2.256033-14.848898 1.977019-9.377552 2.213517-53.98005 0.340132-64.510863a689.626091 689.626091 0 0 1-2.675884-16.897663c-0.818443-5.630783-2.157714-11.923229-2.976157-13.977309-0.815786-2.056737-1.788352-6.204756-2.160371-9.218116-5.466031-44.272994-54.442417-124.783359-97.469145-160.226201-14.482193-11.928544-28.472789-21.84021-40.194065-28.472789a3194.726622 3194.726622 0 0 1-11.891342-6.754813c-5.779591-3.318947-6.988655-3.946065-13.69298-7.094946-3.651107-1.716605-7.230467-3.11965-7.953249-3.119651-0.722781 0-3.611248-1.201092-6.417338-2.667912-16.249286-8.497991-57.160818-18.962372-84.459088-21.606369-16.087192-1.557168-64.016608-3.016016-65.055605-1.979676m55.882664 3.231256c10.53347 0.852988 19.546975 1.796323 20.027943 2.096597 0.483626 0.297616 5.149815 1.185148 10.371376 1.974361s11.45289 2.131141 13.847103 2.981472c2.394212 0.850331 7.233125 2.056737 10.751367 2.678541 10.823114 1.918558 34.170004 10.20131 50.621244 17.955262 2.923011 1.37913 5.588266 2.505818 5.923084 2.505818 0.932706 0 25.966971 14.165976 31.773134 17.979178 50.932146 33.447223 91.995142 85.537944 114.985956 145.860928 4.140047 10.868288 11.479463 34.018539 11.479463 36.21877 0 1.22235 0.953965 5.667985 2.120512 9.879778 5.567008 20.086403 8.673372 71.382597 5.269393 87.020708-0.672293 3.098392-1.679403 9.778802-2.234775 14.848899-2.822035 25.767675-14.70009 75.304747-22.467329 93.695803-1.070885 2.532391-3.348177 8.293381-5.064782 12.800133-3.730826 9.797403-12.9888 31.095527-13.924164 32.030891-0.364048 0.366705-1.53591 2.638682-2.604137 5.051495-3.074477 6.951453-6.119723 5.248134-4.203822-2.351696 0.558029-2.205545 2.407499-7.929333 4.110817-12.715099 1.705976-4.788424 3.114336-9.994042 3.13028-11.572469 0.013286-1.575769 0.67495-4.116132 1.464163-5.644069 0.789213-1.527938 1.737863-5.078068 2.104568-7.886816 0.369362-2.806091 1.328642-7.870873 2.133798-11.24828 3.757398-15.768318 3.470412-64.827079-0.446423-76.274655-1.062913-3.106364-2.26932-7.719408-2.681199-10.254456-0.414536-2.535048-1.59437-6.2207-2.625396-8.192403a196.128754 196.128754 0 0 1-4.055014-8.434217c-3.975296-8.840781-12.47063-20.64709-20.455765-28.430272-4.334029-4.222423-10.134878-10.443123-12.893138-13.823187-34.159375-41.854867-73.115145-59.31056-132.502766-59.366363-58.50806-0.055803-103.53838 21.26358-143.224904 67.813866-6.807959 7.985136-8.543165 8.152545-15.197002 1.485421-6.629921-6.643208-47.214607-48.901982-56.687822-59.02623-4.185221-4.472208-8.798264-9.31112-10.249141-10.751368-1.450877-1.440247-7.87353-8.149887-14.26961-14.907358a3582.389686 3582.389686 0 0 0-28.597681-29.695139c-15.393641-15.794891-51.320109-53.169578-65.948453-68.608393-8.848753-9.337693-8.835466-9.449299 2.500503-20.434508 15.964957-15.476017 38.432286-32.769616 57.609899-44.342083 13.366134-8.067512 17.035842-10.095019 29.841289-16.488442 13.977309-6.978026 14.907358-7.387247 37.374688-16.501729 3.098392-1.256895 8.171146-2.848608 11.277509-3.536843 3.103707-0.688236 7.711436-1.977019 10.238512-2.859237 31.717332-11.083528 75.554531-15.250148 121.376722-11.532609M220.74051 374.995796c-0.882218 1.262209-1.604999 3.074477-1.604999 4.031099 0 0.953965-2.014221 7.878844-4.474865 15.388326-14.989734 45.715899-16.124394 98.888135-2.822034 132.024456 3.773342 9.401468 9.151683 20.136892 10.509554 20.973935 0.560687 0.348104 2.346381 2.465959 3.969981 4.706049 1.6236 2.242747 7.998422 9.451956 14.165977 16.026074 6.167554 6.574118 12.757616 13.804586 14.644287 16.068591 19.050063 22.85795 45.742472 38.889339 78.185242 46.959508 28.727888 7.148092 73.651917 7.129491 96.254767-0.039859 20.886245-6.624607 36.447295-13.770041 49.664622-22.804804 4.222423-2.885809 10.211939-6.964739 13.310331-9.061336 7.682206-5.200303 19.201528-16.291803 28.4223-27.362044 11.402402-13.698295 10.32886-13.785985 25.51789 2.064709 7.009913 7.310186 18.369798 19.055377 25.24419 26.09452a2009.060173 2009.060173 0 0 1 22.121882 23.038645c5.293308 5.63344 20.952678 22.018248 34.79978 36.410094 40.714892 42.325206 74.653712 77.850424 86.847985 90.905656 8.482048 9.087908 8.412958 9.762858-2.02485 19.605435-14.18192 13.374106-40.411962 33.965393-51.492833 40.422591-2.795462 1.631572-6.696354 4.235709-8.668057 5.787562-4.020469 3.170139-41.092226 22.419498-43.19148 22.42747-0.744039 0.005315-2.734344 0.73341-4.424377 1.618286-38.116069 20.00137-115.116163 31.688101-164.86316 25.023635-41.549279-5.564351-58.189186-9.640623-87.039309-21.32204a2162.390724 2162.390724 0 0 0-10.530813-4.219766c-22.031534-8.745119-56.422093-30.813855-73.946875-47.448447a939.586087 939.586087 0 0 0-11.304083-10.560043c-13.719553-12.507832-33.386105-37.414547-44.009923-55.736514-2.447358-4.22508-5.011636-8.373099-5.697215-9.215458-1.28081-1.583741-5.261421-9.385524-12.537062-24.577212-22.964241-47.953331-33.962736-110.109841-27.537425-155.647702 0.993824-7.0418 2.29855-16.948152 2.901753-22.015591 1.068228-8.960359 3.023988-18.545179 7.001941-34.305525 1.065571-4.222423 2.609452-10.443123 3.427896-13.823187 4.647588-19.14041 12.866565-42.519187 22.743686-64.686244 9.696426-21.75252 11.803652-25.759703 14.314784-27.205264 0.722781-0.414536 1.676746-2.027507 2.123169-3.584675 0.754668-2.636025 0.837044-2.673227 1.206407-0.539429 0.217897 1.256895-0.324189 3.318947-1.209064 4.578499" fill="#DFA569" /><path d="M0 512v512h1062.913254V0H0v512M579.072484 164.940222c12.390911 0.621804 25.063495 1.759121 28.159229 2.524418a221.457977 221.457977 0 0 0 12.289935 2.556307c3.659079 0.640405 8.947072 1.575769 11.747848 2.075338 2.803434 0.499569 9.946211 2.232118 15.871952 3.853061 5.928399 1.618285 13.020687 3.483698 15.757689 4.148019 2.739659 0.661664 7.004598 2.125827 9.478529 3.255171 2.476588 1.126688 8.067512 3.372092 12.430771 4.990378 16.305089 6.047976 22.249432 8.426245 23.352204 9.343008 0.624462 0.51817 3.085106 1.631572 5.468689 2.471273 2.380926 0.839701 5.718473 2.516447 7.41382 3.722854 1.698004 1.209064 5.73176 3.478384 8.963016 5.043523 3.233914 1.567797 11.838196 6.885021 19.119152 11.822253 7.283613 4.934575 17.274998 11.689389 22.204258 15.010992 4.926603 3.321604 8.960359 6.425311 8.960359 6.89565 0 0.472996 1.421646 1.355214 3.162166 1.963732 3.89292 1.355214 3.417266 3.762713-0.701522 3.552788-3.845089-0.193982-15.003021-3.584675-20.894218-6.345593-2.535048-1.190463-5.660013-2.171-6.94348-2.184286-1.286125-0.013286-4.049699-0.765298-6.143639-1.674089-4.349972-1.884014-11.707989-3.449154-33.505683-7.126833a15266.383915 15266.383915 0 0 1-20.98988-3.55013c-3.098392-0.528799-7.246411-1.440247-9.218115-2.02485-19.488515-5.782248-114.54219-3.624534-136.703931 3.101049-1.687375 0.512856-5.1445 1.214378-7.679548 1.557168-7.015227 0.956622-22.605508 4.581156-26.256615 6.10378-1.785694 0.746697-5.880568 1.905272-9.101194 2.57225-3.220627 0.669635-10.060474 2.837978-15.19966 4.820311a1218.018871 1218.018871 0 0 1-13.953394 5.290651c-2.535048 0.927392-6.276503 2.715743-8.314639 3.977953-2.035479 1.259552-4.251653 2.290578-4.918631 2.290578-2.040793 0-32.365709 15.082739-33.800641 16.809973-0.741382 0.892847-1.881356 1.620943-2.535048 1.620943-1.429618 0-11.163246 5.97623-15.454759 9.486501a45.14724 45.14724 0 0 1-6.656494 4.349972c-3.754741 1.921216-8.434217 5.606867-18.518606 14.580513-3.321604 2.957556-6.515658 5.375684-7.094946 5.375683-2.248062 0-38.620953 37.613843-44.557324 46.074633-3.353491 4.78311-9.279233 12.61678-13.164181 17.407862-3.884948 4.791081-7.942619 10.666335-9.016161 13.060546-1.073542 2.394212-3.882291 7.230467-6.239301 10.751368-9.348322 13.961366-29.073335 54.841009-32.979541 68.353294-0.406564 1.40836-1.445562 3.67768-2.309179 5.040866-0.86096 1.363186-2.163028 4.589128-2.891124 7.166693-0.728096 2.580222-2.795462 8.835466-4.599757 13.905562-1.801638 5.067439-4.132075 12.4414-5.181702 16.382151a1396.891228 1396.891228 0 0 1-4.347316 15.871952c-11.242965 40.090431-11.282824 40.967334-2.391554 53.762152 6.30839 9.077279 22.993471 25.972285 30.922803 31.30811 2.814063 1.894643 6.040005 4.182564 7.166693 5.083383 24.332742 19.440683 91.423826 28.844808 134.657823 18.874682 13.650463-3.146223 35.578364-11.652187 45.684012-17.718764 1.793666-1.0762 13.860389-9.042735 17.636388-11.644215 11.548553-7.947934 23.272486-19.329078 35.299349-34.257694 3.2472-4.031099 6.616635-7.602487 7.485566-7.934647 2.697142-1.03634 5.370369-0.672293 6.226015 0.845016 0.855645 1.514651 29.748285 32.089351 38.772418 41.028451 2.851265 2.824692 8.803579 9.050706 13.230613 13.839131 4.424376 4.785767 15.917126 16.775428 25.536491 26.641921 14.468907 14.843584 40.887616 42.439469 56.980122 59.523142 13.522914 14.354643 32.942339 34.600484 42.683939 44.498863 14.633658 14.870156 14.631001 14.418418 0.239156 27.691548-18.502662 17.065072-41.634312 34.403845-63.982064 47.955989-7.400534 4.485494-47.355443 24.088272-49.101278 24.088271-0.419851 0-2.218831 0.659006-3.993896 1.464163-7.280956 3.30566-17.118218 6.725584-26.777442 9.313778a2056.471419 2056.471419 0 0 0-17.407862 4.740593c-3.943408 1.097458-9.813347 2.4261-13.04726 2.952241-3.233914 0.526142-9.226087 1.68206-13.312989 2.569593-16.655851 3.61922-89.247511 4.0683-95.773799 0.592574-0.975223-0.51817-5.91777-1.43759-10.987865-2.040793-12.404198-1.480107-47.063142-10.087047-50.174821-12.457344-0.563344-0.43048-3.326918-1.490736-6.143638-2.35701-10.448437-3.21797-34.321469-14.21115-51.713387-23.811914-8.622884-4.761851-25.974943-17.065072-37.868942-26.851846-13.164181-10.831086-39.250729-38.700672-46.191553-49.345748-2.388898-3.661736-5.335825-7.807098-6.555517-9.215458-2.60148-3.008045-11.782393-17.827713-11.782394-19.018175 0-0.449081-0.858302-1.769751-1.902615-2.933641-4.979749-5.529806-23.187453-46.114492-26.676465-59.45671-0.441109-1.690032-1.761779-6.066577-2.933641-9.728313-4.902687-15.321895-5.699872-18.303366-6.975368-26.113122a850.859403 850.859403 0 0 0-2.989443-16.895006c-2.248062-11.862112-3.271116-55.380438-1.612971-68.608393 2.500503-19.958854 5.327853-37.637758 7.365989-46.079947a11607.358183 11607.358183 0 0 1 3.972638-16.384808c1.031026-4.222423 2.181629-9.494473 2.558964-11.710647 1.310041-7.703464 9.911666-33.704979 16.448582-49.728396 2.643997-6.475799 5.888539-14.64163 7.211867-18.14393 1.32067-3.502299 2.830007-7.190608 3.350834-8.192403a1574.998287 1574.998287 0 0 0 5.787562-11.55121c9.704398-19.507115 14.155347-26.889048 19.350336-32.084037 2.912382-2.909725 8.928471-10.591931 13.368792-17.067729 4.44032-6.478456 9.486501-13.432566 11.216392-15.454759a233.070304 233.070304 0 0 0 7.241096-9.106509c14.965819-19.84459 46.202182-50.506981 65.749157-64.545408 3.826488-2.747631 8.306667-6.055948 9.95684-7.352702a85.07292 85.07292 0 0 1 6.281817-4.405776c1.804295-1.126688 6.215385-4.272911 9.80006-6.996626 6.226014-4.727307 29.65528-17.160734 42.45807-22.531104 3.324261-1.395074 12.064065-5.277364 19.419425-8.625541 7.358017-3.350834 15.088054-6.412024 17.179336-6.805302 2.091282-0.390621 7.129491-1.796323 11.200448-3.11965 4.0683-1.325984 10.161451-2.739659 13.538858-3.146224 3.380064-0.403907 7.615773-1.336613 9.414754-2.070023 9.816004-4.00984 62.337205-9.951525 80.186176-9.069308l30.207995 1.511995m110.593466 78.04972c27.29827 2.643997 68.209801 13.108378 84.459088 21.606369 2.806091 1.46682 5.694558 2.667912 6.417338 2.667912 0.722781 0 4.302141 1.403045 7.953249 3.119651 6.704325 3.148881 7.913389 3.775999 13.69298 7.094946 1.753807 1.00711 7.105575 4.047042 11.891342 6.754813 8.85141 5.008979 13.621233 8.192404 25.972285 17.333458 39.968196 29.588848 73.596114 72.780328 94.928783 121.932094 7.262355 16.727597 15.850694 42.062135 16.762142 49.433438 0.37202 3.013359 1.344585 7.161378 2.160371 9.218116 0.818443 2.05408 2.157714 8.346526 2.976157 13.977309 0.8211 5.63344 2.02485 13.235927 2.675884 16.897663 1.873385 10.530813 1.636886 55.13331-0.340132 64.510863-0.89019 4.22508-1.907929 10.90549-2.256033 14.848898-0.350761 3.940751-1.511994 11.314712-2.580222 16.382151a2910.362781 2910.362781 0 0 0-3.502299 16.897663c-1.405703 6.932852-2.349038 10.894861-5.729103 24.064356-2.633368 10.249141-5.306594 19.105866-8.195061 27.136176a1171.253345 1171.253345 0 0 0-4.533325 12.800132c-0.773269 2.250719-3.095735 8.011709-5.163101 12.800133-2.070024 4.785767-4.395146 10.421864-5.168416 12.521118-1.612971 4.387174-14.572541 30.502953-18.983631 38.26222-1.631572 2.869866-6.61132 9.327064-11.064927 14.349329-4.453607 5.024922-8.782321 10.740738-9.619364 12.704471-1.75115 4.105502-9.122453 14.227094-17.235139 23.673735-3.079791 3.587332-7.275641 8.737147-9.324406 11.444919-5.872596 7.767239-36.840573 39.598833-40.244553 41.365926-1.687375 0.879561-6.297761 4.466893-10.238512 7.974507-13.724867 12.207559-29.95821 23.617933-47.105659 33.109748l-12.800132 7.084317c-9.693769 5.367712-21.888041 11.524637-22.826063 11.524637-0.850331 0-11.054298 4.307456-20.692263 8.734489-3.688309 1.695347-32.713813 10.153479-39.936309 11.638901-7.668919 1.578426-22.812776 4.089559-29.18494 4.841569-3.095735 0.364048-7.01257 1.403045-8.702603 2.306522-4.044385 2.165686-79.195009 2.465959-91.649695 0.369363-4.222423-0.712152-11.827567-2.000934-16.895006-2.867209-5.070096-0.863617-14.774494-2.436729-21.569167-3.494327-23.92352-3.725511-90.562867-29.052077-102.334631-38.891996-2.152399-1.798981-10.823114-7.25704-22.015591-13.855075-11.55121-6.810617-24.468263-17.806454-24.542667-20.89156-0.047831-1.977019 10.095019-0.736067 15.178401 1.857441 2.088625 1.065571 6.361536 2.412813 9.494473 2.992101 3.135594 0.579288 8.458132 1.982333 11.827567 3.116993 8.811551 2.968185 24.571897 6.970054 30.537498 7.753953 2.81672 0.369362 7.655633 1.299411 10.751368 2.064709 24.858884 6.156925 100.84921 8.019681 126.975617 3.114335 4.22508-0.79187 10.676964-1.737863 14.336042-2.101911 3.661736-0.366705 10.804513-1.50668 15.871953-2.535048 5.070096-1.031026 11.58044-2.149742 14.468906-2.487217 2.888467-0.340132 8.614912-1.759121 12.723072-3.156852 4.110817-1.397731 8.428902-2.561621 9.595449-2.585537 2.282606-0.047831 2.928326-0.276357 21.582454-7.610459 6.757471-2.657283 14.359958-5.48729 16.895006-6.287131 2.535048-0.8025 12.4414-5.338482 22.015591-10.079075 9.574191-4.740593 18.561123-9.111824 19.969483-9.715027 1.40836-0.603203 7.397876-4.549269 13.310331-8.769035 5.915112-4.219766 12.940969-8.832809 15.616853-10.249141 2.675884-1.416332 4.865485-3.016016 4.865485-3.55013 0-0.536771 2.418128-2.766232 5.375684-4.953176 2.954899-2.189601 7.977164-6.544888 11.160589-9.680482 3.180768-3.138251 7.097603-6.401395 8.702603-7.254383 3.151538-1.676746 12.430771-10.839058 17.939318-17.71345 11.779736-14.697433 20.389333-25.132584 24.75525-30.006041 5.091354-5.678614 18.138615-24.524066 19.472571-28.124685 0.736067-1.987648 2.691828-5.229533 10.639761-17.647017 2.394212-3.73614 4.35263-7.201237 4.35263-7.695492 0-0.988509 8.118-19.159011 14.330728-32.076065 2.168343-4.506752 5.66267-13.491026 7.769896-19.969482 2.104568-6.475799 4.671504-13.84976 5.702529-16.384808 1.031026-2.532391 4.432348-13.592003 7.559971-24.574555 3.127622-10.982551 7.294242-25.14587 9.255317-31.472861 4.214451-13.581374 4.142704-22.414183-0.236498-28.943128l-4.865486-7.25704c-4.557241-6.789358-23.572759-25.018321-31.693415-30.383376-19.871163-13.126979-41.45096-21.266237-66.190266-24.965175-53.416706-7.987793-103.556981 4.894716-142.786452 36.683794-9.627337 7.801783-24.537352 22.711799-30.524211 30.529526-6.722926 8.777006-8.649457 9.316435-13.868361 3.884948-11.009124-11.45289-46.202182-48.163257-48.854151-50.956061-1.690032-1.78038-12.749644-13.334247-24.574554-25.672013a9000.087773 9000.087773 0 0 1-29.184941-30.558756 2184.541837 2184.541837 0 0 0-15.359096-16.042018c-4.22508-4.35263-16.435296-17.011927-27.136176-28.129999a22529.610314 22529.610314 0 0 0-30.473723-31.603069c-10.894861-11.261566-13.020687-14.498137-11.346599-17.27234 1.676746-2.779518 23.487726-22.491244 30.043244-27.152119 3.661736-2.604137 8.500649-6.37748 10.751367-8.389043 3.592647-3.204683 15.138542-11.14996 26.113121-17.971206 1.971704-1.225008 4.966462-3.093078 6.656495-4.153334 13.801929-8.649457 45.691984-23.98198 56.618731-27.218551 1.854784-0.550058 4.849542-1.849469 6.656495-2.891124 1.806953-1.038998 5.357083-2.216174 7.892131-2.612109 2.535048-0.398592 6.2207-1.400388 8.192404-2.229461 12.04015-5.051495 39.303875-11.019753 57.83311-12.664611 6.744185-0.597889 12.502517-1.323327 12.792161-1.615628 1.038998-1.03634 48.968414 0.422508 65.055605 1.979676" fill="#FBFBFA" /></svg>