<?xml version="1.0" standalone="no"?><!DOCTYPE svg PUBLIC "-//W3C//DTD SVG 1.1//EN" "http://www.w3.org/Graphics/SVG/1.1/DTD/svg11.dtd"><svg class="icon" width="600px" height="600.00px" viewBox="0 0 1024 1024" version="1.1" xmlns="http://www.w3.org/2000/svg"><path d="M806.4 819.2h-128a25.6 25.6 0 0 1-25.6-25.6V409.6l179.2 128v256a25.6 25.6 0 0 1-25.6 25.6z m-230.4 0h-128a25.6 25.6 0 0 1-25.6-25.6V204.8l179.2 128v460.8a25.6 25.6 0 0 1-25.6 25.6z m-230.4 0h-128a25.6 25.6 0 0 1-25.6-25.6V486.4l179.2-128v435.2a25.6 25.6 0 0 1-25.6 25.6z" /></svg>