<?xml version="1.0" standalone="no"?><!DOCTYPE svg PUBLIC "-//W3C//DTD SVG 1.1//EN" "http://www.w3.org/Graphics/SVG/1.1/DTD/svg11.dtd"><svg class="icon" width="600px" height="600.00px" viewBox="0 0 1024 1024" version="1.1" xmlns="http://www.w3.org/2000/svg"><path d="M297.6 462.4l204 120.8v241.6l-204 120.8-204-120.8V582.4l204-120m0-14.4l-216 128v255.2l216 128 216-128V576l-216-128z" fill="#707070" /><path d="M297.6 972.8L69.6 838.4V568.8l228-135.2 228 135.2v268.8l-228 135.2z m-192-155.2l192 113.6 192-113.6V590.4l-192-113.6-192 112.8v228z" fill="#707070" /><path d="M297.6 462.4L490.4 576 297.6 693.6 104 576l193.6-113.6m0-14.4l-216 128 216 132 216-132-216-128z" fill="#707070" /><path d="M297.6 722.4L58.4 576l239.2-141.6L536.8 576 297.6 722.4zM127.2 576l170.4 103.2L467.2 576 297.6 476 127.2 576z" fill="#707070" /><path d="M291.2 696h12v255.2h-12V696z m217.6-606.4l204 120.8v241.6L508.8 572.8 304 452V210.4l204.8-120.8m0-14.4l-216 128v255.2l216 128 216-128V203.2l-216-128z" fill="#707070" /><path d="M315.2 963.2h-36V684h36v279.2zM508.8 600L280.8 465.6V196L508.8 61.6l228 135.2v268.8L508.8 600zM316 444.8l192.8 113.6 192-113.6V217.6L508.8 104 316 217.6v227.2z" fill="#707070" /><path d="M508.8 89.6l192.8 114.4-192.8 117.6-192.8-118.4 192.8-113.6m0-14.4l-216 128 216 132 216-132-216-128z" fill="#707070" /><path d="M508.8 349.6L269.6 203.2 508.8 61.6l239.2 141.6-239.2 146.4zM339.2 203.2l169.6 104 169.6-103.2-169.6-100.8-169.6 100z" fill="#707070" /><path d="M502.4 324h12v255.2h-12V324z" fill="#707070" /><path d="M490.4 312h36v279.2h-36z" fill="#707070" /><path d="M719.2 463.2L923.2 584v241.6l-204 120.8-204-120.8V583.2l204-120m0-14.4l-216 128V832l216 128 216-128V576.8l-216-128z" fill="#707070" /><path d="M719.2 973.6l-228-135.2V569.6l228-135.2 228 135.2v268.8l-228 135.2z m-192-155.2l192 113.6 192-113.6V591.2l-192-113.6-192 112.8v228z" fill="#707070" /><path d="M720 461.6L913.6 576 720 693.6 527.2 576 720 461.6m0-13.6L504 576l216 132L936 576c0.8 0-216-128-216-128z" fill="#707070" /><path d="M720 722.4L480.8 576 720 434.4l6.4 4s54.4 32 108 64c27.2 16 54.4 32 74.4 44 41.6 24.8 41.6 24.8 39.2 33.6l-1.6 4.8L720 722.4zM550.4 576L720 679.2 890.4 576 720 475.2 550.4 576z" fill="#707070" /><path d="M714.4 696h12v255.2h-12V696z" fill="#707070" /><path d="M702.4 684h36v279.2h-36z" fill="#707070" /></svg>