<?xml version="1.0" standalone="no"?><!DOCTYPE svg PUBLIC "-//W3C//DTD SVG 1.1//EN" "http://www.w3.org/Graphics/SVG/1.1/DTD/svg11.dtd"><svg class="icon" width="600px" height="600.00px" viewBox="0 0 1024 1024" version="1.1" xmlns="http://www.w3.org/2000/svg"><path d="M38.727525 25.6s121.250909 73.75903 129.536 115.2v691.2s34.505697 161.109333 207.251394 153.6c0 0 226.521212-16.740848 246.116848-307.2 0 0 32.488727-566.116848-142.491151-614.4 0 0 343.396848-17.252848 297.890909 588.8 0 0-67.863273 322.715152-297.890909 371.2H38.727525V25.6z" fill="#0F3667" /><path d="M51.682676 0h518.206061s437.387636 51.618909 414.518303 588.8c0 0-61.191758 398.398061-401.563152 435.2 0 0 241.012364-178.424242 233.161697-486.4 0 0 3.568485-463.90303-284.982303-499.2 0 0-141.761939-18.618182-181.356606 89.6L336.618434 857.6s35.250424 62.991515 77.715394 64c0 0-106.030545 84.805818-220.206546-89.6V128S126.450192 4.871758 51.682676 0z" fill="#037A8E" /></svg>