<?xml version="1.0" standalone="no"?><!DOCTYPE svg PUBLIC "-//W3C//DTD SVG 1.1//EN" "http://www.w3.org/Graphics/SVG/1.1/DTD/svg11.dtd"><svg class="icon" width="600px" height="600.00px" viewBox="0 0 1024 1024" version="1.1" xmlns="http://www.w3.org/2000/svg"><path d="M808.59136 768c-60.12928 1.9456-115.67104 3.87072-175.80032 5.81632-38.05184 161.8944-352.84992 118.19008-317.76768-87.28576 17.6128-121.71264 182.0672-174.85824 284.11904-82.96448 22.44608 25.33376 33.40288 48.86528 40.63232 100.43392 50.42176-1.9456 118.41536-3.87072 168.81664-5.81632 2.56-261.81632-294.83008-394.69056-517.81632-267.63264-213.79072 121.79456-189.11232 492.8512 34.9184 587.63264V1024c-122.1632-2.41664-256.14336-97.01376-285.30688-209.46944l1.65888-603.62752C138.99776 144.97792 246.1696 65.9456 343.1424 0l11.63264 5.81632c-6.71744 90.99264-2.47808 241.02912 2.90816 350.55616 60.76416-58.96192 101.6832-120.60672 206.5408-141.1072 67.60448-13.18912 132.28032-5.24288 173.07648 8.72448 306.3808 104.96 325.44768 500.8384 65.45408 637.09184-5.81632 0-18.45248 11.44832-28.09856 13.35296 0-1.9456 6.06208-10.3424 10.67008-19.16928l23.26528-87.26528z" fill="#A3D06A" /></svg>