<?xml version="1.0" standalone="no"?><!DOCTYPE svg PUBLIC "-//W3C//DTD SVG 1.1//EN" "http://www.w3.org/Graphics/SVG/1.1/DTD/svg11.dtd"><svg class="icon" width="600px" height="600.00px" viewBox="0 0 1024 1024" version="1.1" xmlns="http://www.w3.org/2000/svg"><path d="M509.1 64.2s156.1 104.1 258.3 210.1c0 0-159 55.9-260.2 132 0 0-112.8-86.7-254.4-129.1-0.1 0 117.5-135.9 256.3-213zM792.5 307.1s-202.4 61.7-315.2 175.4-135.9 215.9-135.9 215.9-40.5 166.7 71.3 231.3c111.8 64.6 220.7 21.2 267-91.6 0 0 29.9-103.1-31.8-218.8 0 0-88.7 51.1-111.8 81.9 0 0 86.7 98.3 18.3 181.2 0 0-45.3 74.2-96.4-7.7-51.1-81.9 6.8-154.2 6.8-154.2s115.9-182.6 432.7-191.8c0 0-25.1-144.5-105-221.6z"  /><path d="M905.2 567.3s-168.7 6.7-223.6 41.4c0 0 115.7 208.2-28.9 344.1 0 0 239-99.3 252.5-385.5zM337.8 604.4S218.5 790.9 369.4 948c0 0-249.6-65.5-250.6-378.8 0 0 156.4 9.2 219 35.2zM353.7 576.9s-80.2-39-228.2-48.2c0 0 6.7-123.4 101.2-222.6 0 0 163.8 59.7 247.7 127.2 0 0-76.4 62.7-120.7 143.6z"  /></svg>