<?xml version="1.0" standalone="no"?><!DOCTYPE svg PUBLIC "-//W3C//DTD SVG 1.1//EN" "http://www.w3.org/Graphics/SVG/1.1/DTD/svg11.dtd"><svg class="icon" width="600px" height="600.00px" viewBox="0 0 1024 1024" version="1.1" xmlns="http://www.w3.org/2000/svg"><path d="M337.132308 337.132308m-297.747693 0a297.747692 297.747692 0 1 0 595.495385 0 297.747692 297.747692 0 1 0-595.495385 0Z" fill="#00C5FF" fill-opacity=".1" /><path d="M719.478154 866.461538H304.521846A78.769231 78.769231 0 1 1 196.923077 758.862769V343.906462A78.769231 78.769231 0 1 1 304.521846 236.307692h414.956308A78.769231 78.769231 0 1 1 827.076923 343.906462v414.956307A78.769231 78.769231 0 1 1 719.478154 866.461538z m0-78.76923a79.163077 79.163077 0 0 1 28.829538-28.829539V343.906462A79.163077 79.163077 0 0 1 719.478154 315.076923H304.521846A79.163077 79.163077 0 0 1 275.692308 343.906462v414.956307c11.972923 6.892308 21.937231 16.856615 28.829538 28.829539h414.956308z" fill="#3555DA" /></svg>