<?xml version="1.0" standalone="no"?><!DOCTYPE svg PUBLIC "-//W3C//DTD SVG 1.1//EN" "http://www.w3.org/Graphics/SVG/1.1/DTD/svg11.dtd"><svg class="icon" width="600px" height="600.00px" viewBox="0 0 1024 1024" version="1.1" xmlns="http://www.w3.org/2000/svg"><path d="M90.352941 90.352941m60.235294 0l271.058824 0q60.235294 0 60.235294 60.235294l0 271.058824q0 60.235294-60.235294 60.235294l-271.058824 0q-60.235294 0-60.235294-60.235294l0-271.058824q0-60.235294 60.235294-60.235294Z"  /><path d="M90.352941 542.117647m60.235294 0l271.058824 0q60.235294 0 60.235294 60.235294l0 271.058824q0 60.235294-60.235294 60.235294l-271.058824 0q-60.235294 0-60.235294-60.235294l0-271.058824q0-60.235294 60.235294-60.235294Z"  /><path d="M542.117647 542.117647m60.235294 0l271.058824 0q60.235294 0 60.235294 60.235294l0 271.058824q0 60.235294-60.235294 60.235294l-271.058824 0q-60.235294 0-60.235294-60.235294l0-271.058824q0-60.235294 60.235294-60.235294Z"  /><path d="M497.384467 271.058824m42.592785-42.592785l170.37114-170.37114q42.592785-42.592785 85.185569 0l170.37114 170.37114q42.592785 42.592785 0 85.185569l-170.37114 170.37114q-42.592785 42.592785-85.185569 0l-170.37114-170.37114q-42.592785-42.592785 0-85.185569Z"  /></svg>