<?xml version="1.0" standalone="no"?><!DOCTYPE svg PUBLIC "-//W3C//DTD SVG 1.1//EN" "http://www.w3.org/Graphics/SVG/1.1/DTD/svg11.dtd"><svg class="icon" width="600px" height="600.00px" viewBox="0 0 1024 1024" version="1.1" xmlns="http://www.w3.org/2000/svg"><path d="M512 1024C229.229714 1024 0 794.770286 0 512S229.229714 0 512 0 1024 229.229714 1024 512 794.770286 1024 512 1024zM510.716792 87.258145c-235.286456 0-426.025063 190.738607-426.025063 426.025063s190.738607 426.025063 426.025063 426.025063 426.025063-190.738607 426.025063-426.025063S746.003248 87.258145 510.716792 87.258145zM152.119178 467.087719a361.985283 361.985283 0 0 1 31.995509-107.789473H451.689223v-94.957394H249.553163C315.923248 194.76788 409.540972 151.418546 513.283208 151.418546s197.35996 43.349333 263.730045 112.922306H569.744361v94.957394h272.707368a361.985283 361.985283 0 0 1 31.995509 107.789473H152.119178z m688.538627 202.746867H568.373895v94.957394h206.945524c-66.264862 69.572972-159.738867 112.922306-263.319419 112.922306-103.580551 0-197.054556-43.349333-263.319419-112.922306h201.820391v-94.957394H183.342195a362.516531 362.516531 0 0 1-31.946746-107.789473h721.209102a362.516531 362.516531 0 0 1-31.946746 107.789473z" fill="#D0121B" /></svg>