<?xml version="1.0" standalone="no"?><!DOCTYPE svg PUBLIC "-//W3C//DTD SVG 1.1//EN" "http://www.w3.org/Graphics/SVG/1.1/DTD/svg11.dtd"><svg class="icon" width="600px" height="600.00px" viewBox="0 0 1024 1024" version="1.1" xmlns="http://www.w3.org/2000/svg"><path d="M126.59712 58.624c-27.357867 4.51584-52.708693 26.228053-63.49824 54.336853l-3.638613 9.41056-0.37888 160c-0.126293 87.968427-0.126293 177.821013 0 199.529813l0.37888 39.533227 19.950933-26.354347c11.042133-14.557867 22.08768-28.863147 24.59648-32 2.5088-3.140267 7.90528-9.915733 12.045653-15.059627 81.69472-103.154347 189.99296-207.059627 243.326293-233.78944 65.00352-32.375467 161.252693-8.533333 181.20704 45.052587 8.78592 23.340373 6.4 26.228053-58.22464 69.51936C364.526933 407.487147 264.635733 482.904747 184.32 553.30816c-41.035093 36.01408-66.5088 59.480747-101.393067 92.986027l-24.09472 23.220907 0.249173 114.193067 0.37888 114.193067 2.757973 7.406933c10.042027 26.354347 34.010453 50.193067 58.354347 57.849173l9.91232 3.136853 760.466773 0 9.540267-3.136853c28.859733-9.78944 54.71232-34.88768 62.368427-60.736853 1.757867-5.901653 2.010453-15.561387 2.010453-69.147307l0-62.365013-5.901653 0.498347c-3.894613 0.37888-11.165013-0.628053-19.954347-2.63168-182.586027-42.2912-468.578987-53.333333-700.1088-26.978987-18.571947 2.133333-37.39648 4.140373-41.536853 4.519253l-7.778987 0.750933-2.133333-6.775467c-5.2736-15.68768-2.761387-24.845653 7.90528-29.617493 119.466667-53.20704 317.866667-103.40352 467.70176-118.336853 176.81408-17.565013 253.238613-3.386027 298.287787 55.217493l3.392853 4.389547 0.126293-148.578987 0-148.456107-3.392853 0.754347c-11.4176 2.761387-80.687787 25.726293-105.161387 34.88768-121.6 45.677227-232.656213 102.649173-342.459733 175.68768-54.964907 36.63872-87.343787 45.9264-144.18944 41.28768-90.228053-7.406933-123.859627-47.059627-78.1824-92.3648 103.154347-102.024533 357.89824-184.971947 660.5824-214.964907 6.4-0.628053 11.922773-1.378987 12.171947-1.757867 1.88416-1.880747 0.628053-178.947413-1.378987-185.473707-7.656107-25.6-29.364907-46.431573-55.71584-53.333333C900.621653 57.869653 136.762027 56.866133 126.59712 58.624L126.59712 58.624z" /></svg>