<?xml version="1.0" standalone="no"?><!DOCTYPE svg PUBLIC "-//W3C//DTD SVG 1.1//EN" "http://www.w3.org/Graphics/SVG/1.1/DTD/svg11.dtd"><svg class="icon" width="600px" height="600.00px" viewBox="0 0 1024 1024" version="1.1" xmlns="http://www.w3.org/2000/svg"><path d="M512.444978 1024c-281.819311 0-510.665066-228.845756-510.665067-510.665066s228.845756-510.665066 510.665067-510.665067 510.665066 228.845756 510.665066 510.665067-228.845756 510.665066-510.665066 510.665066z m0-981.070231c-258.510946 0-468.286223 209.775276-468.286223 468.286222s209.775276 468.286223 468.286223 468.286223 468.286223-209.775276 468.286223-468.286223-209.775276-468.286223-468.286223-468.286222z" fill="#19619F" /><path d="M661.17353 837.06692c-86.87663 0-205.537392-112.303936-286.057195-241.559409-97.47134-150.444895-154.682779-341.149692-69.925092-396.242188 38.140959-25.427306 95.352398-12.713653 158.920664 36.022017 59.330381 42.378844 120.779705 112.303936 171.634317 192.823739 97.47134 150.444895 154.682779 341.149692 69.925092 396.242188-12.713653 8.475769-27.546248 12.713653-44.497786 12.713653z m-311.484501-608.136406c-8.475769 0-14.832595 2.118942-21.189422 6.356826-44.497786 29.665191-23.308364 175.872201 82.638745 339.03075 103.828167 161.039606 226.726814 243.678351 273.343542 214.01316 44.497786-29.665191 23.308364-175.872201-82.638745-339.030749-48.73567-76.281919-105.947109-139.850184-161.039606-182.229028-36.022017-23.308364-67.80615-38.140959-91.114514-38.140959z" fill="#19619F" /><path d="M349.689029 837.06692c-16.951537 0-31.784133-4.237884-44.497786-12.713653-38.140959-25.427306-50.854612-80.519803-33.903075-158.920663 14.832595-72.044034 50.854612-156.801722 103.828167-237.321525 50.854612-80.519803 112.303936-148.325953 171.634317-192.823739 65.687208-46.616728 120.779705-59.330381 158.920664-36.022017 38.140959 25.427306 50.854612 80.519803 33.903075 158.920664-14.832595 72.044034-50.854612 156.801722-103.828167 237.321524-52.973555 80.519803-112.303936 148.325953-171.634317 192.823739-42.378844 31.784133-80.519803 48.73567-114.422878 48.73567z m313.603443-608.136406c-23.308364 0-55.092497 12.713653-91.114514 40.259901-55.092497 40.259902-112.303936 103.828167-161.039606 182.229028-48.73567 76.281919-84.757687 154.682779-97.47134 222.488929-12.713653 59.330381-6.356827 101.709225 14.832595 116.54182 21.189422 14.832595 63.568266 2.118942 112.303936-33.903075 55.092497-40.259902 112.303936-103.828167 161.039606-182.229027 48.73567-76.281919 84.757687-154.682779 97.47134-222.48893 12.713653-59.330381 6.356827-103.828167-14.832595-116.54182-6.356827-4.237884-12.713653-6.356827-21.189422-6.356826z" fill="#19619F" /><path d="M512.847577 676.027314c-184.34797 0-379.290651-55.092497-379.290651-156.801721 0-101.709225 194.942681-156.801722 379.290651-156.801722s379.290651 55.092497 379.290651 156.801722c-2.118942 101.709225-197.061623 156.801722-379.290651 156.801721z m0-271.224599c-199.180565 0-336.911807 59.330381-336.911807 114.422878s137.731242 114.422878 336.911807 114.422878c197.061623 0 336.911807-61.449323 336.911807-114.422878s-139.850184-114.422878-336.911807-114.422878z" fill="#19619F" /></svg>