<?xml version="1.0" standalone="no"?><!DOCTYPE svg PUBLIC "-//W3C//DTD SVG 1.1//EN" "http://www.w3.org/Graphics/SVG/1.1/DTD/svg11.dtd"><svg class="icon" width="600px" height="600.00px" viewBox="0 0 1024 1024" version="1.1" xmlns="http://www.w3.org/2000/svg"><path d="M1018.631214 707.887289l-66.685035-39.75454a11.028679 11.028679 0 0 0-10.900438 0l-423.83469 251.351284a9.810394 9.810394 0 0 1-10.259236 0l-424.475893-251.351284a9.810394 9.810394 0 0 0-10.259236 0l-66.685034 39.75454a9.746274 9.746274 0 0 0 0 17.312461l500.77896 296.876643a11.028679 11.028679 0 0 0 10.900439 0l500.77896-296.876643a9.938635 9.938635 0 0 0 0.641203-17.312461z m0 0V502.061365l-66.685035-39.113337a11.028679 11.028679 0 0 0-10.900438 0l-423.83469 250.710081a9.810394 9.810394 0 0 1-10.259236 0L82.475922 462.948028a9.810394 9.810394 0 0 0-10.259236 0l-66.685034 39.113337a10.259236 10.259236 0 0 0 0 17.953663l500.77896 296.235442a11.028679 11.028679 0 0 0 10.900439 0l500.77896-296.235442a10.515717 10.515717 0 0 0 0.641203-17.953663z m0 0L5.531652 520.015028l500.77896 296.876644a11.028679 11.028679 0 0 0 10.900439 0l500.77896-296.876644a10.259236 10.259236 0 0 0 0-17.953663L517.211051 205.825924a9.810394 9.810394 0 0 0-10.259236 0L5.531652 502.061365a10.772198 10.772198 0 0 0 0 17.953663z m0 0" fill="#1296db" /></svg>