<?xml version="1.0" standalone="no"?><!DOCTYPE svg PUBLIC "-//W3C//DTD SVG 1.1//EN" "http://www.w3.org/Graphics/SVG/1.1/DTD/svg11.dtd"><svg class="icon" width="600px" height="464.40px" viewBox="0 0 1323 1024" version="1.1" xmlns="http://www.w3.org/2000/svg"><path d="M723.817863 844.983816c586.923133-189.43083 546.306016-665.148693-84.358629-656.701259 0 0 286.402751 43.625793 275.872388 187.926493S647.096641 622.110402 412.651399 614.704432 23.143657 533.123042 0 515.186708a359.536706 359.536706 0 0 0 198.109701 137.820475c-35.75695 7.637407-115.718283-9.836054-115.718283-9.836054a178.66903 178.66903 0 0 0 51.726072 26.152332 287.907089 287.907089 0 0 1-31.128218 10.877519 1464.762031 1464.762031 0 0 0 221.253358 70.356716 596.643469 596.643469 0 0 1-104.377892-5.554477s30.781063 25.110867 182.950606 60.867817c-92.574627 15.043377-227.617863-15.737687-305.843423-53.346129C232.362313 916.266278 551.281902 900.760028 723.817863 844.983816z" fill="#040000" /><path d="M245.669916 925.986614c0.810028 1.504338 62.140718 93.963246 62.140718 93.963246 383.490391 29.739599 754.136053-118.148367 853.653776-461.484514C1009.989177 848.571082 627.771687 985.58153 245.669916 925.986614zM1211.107554 131.927753a609.488199 609.488199 0 0 1 108.659468 42.46861S1146.305315 8.919218 744.647154 0.240347c-505.688898-10.646082-667.231622 335.583022-244.165578 391.937826 0 0-79.035588-16.894869-133.307463-62.71931 0 0 185.727845 75.795476 351.20499 51.494636 0 0-28.466698-4.281576-13.539039-7.058815s96.39333-7.984562 128.678731-19.209235c0 0-164.667117 9.373181-258.630363-29.392444 0 0 89.334515 17.704897 131.340252 4.628731 0 0-15.737687-6.595942 6.133069-8.447434a176.007509 176.007509 0 0 0 41.311427-7.405971s-158.41833-6.133069-171.147341-72.09249c-26.26805-137.126166 405.013992-135.158955 520.732275-107.039412A338.475979 338.475979 0 0 0 972.03358 97.79086s105.650793-11.571828 255.737407 52.5361a65.612267 65.612267 0 0 0-16.663433-18.399207z" fill="#040000" /></svg>