<?xml version="1.0" standalone="no"?><!DOCTYPE svg PUBLIC "-//W3C//DTD SVG 1.1//EN" "http://www.w3.org/Graphics/SVG/1.1/DTD/svg11.dtd"><svg class="icon" width="600px" height="600.00px" viewBox="0 0 1024 1024" version="1.1" xmlns="http://www.w3.org/2000/svg"><path d="M398.90528903 278.00522773c11.07355614 1.08328281 12.87902783 11.69945303 12.87902684 11.69945303l11.07355614 63.64887528s2.23878463 13.72158068-2.04620065 23.49519804c-4.57386022 10.59209722-18.63246187 17.26030409-18.63246187 17.26030409l-226.67088084 86.08486252s-3.94796334 0.96291784-6.5478419 0c-2.40729459-1.10735581-3.03319149-3.77945336-3.03319149-3.77945237l-6.90893683-25.32474173s-1.1314288-3.05726448 0.33702193-5.77750803c1.2036478-2.33507561 3.51465041-3.89981735 3.51465041-3.89981734l218.55829721-157.70188446s7.7033437-6.66820688 17.47696105-5.70528903M617.27100327 278.00522773c-11.07355614 1.08328281-12.87902783 11.69945303-12.87902782 11.69945303l-11.07355614 63.64887528s-2.23878463 13.72158068 2.04620065 23.49519804c4.54978724 10.59209722 18.63246187 17.26030409 18.63246187 17.26030409l226.67088184 86.08486252s3.92389035 0.96291784 6.54784189 0c2.40729459-1.10735581 3.03319149-3.77945336 3.03319149-3.77945237l6.90893585-25.32474173s1.1314288-3.05726448-0.36109395-5.77750803a11.892036 11.892036 0 0 0-3.49057742-3.89981734L634.77203634 283.71051676s-7.7033437-6.66820688-17.47696008-5.70528903" fill="#F08C00" /><path d="M67.1319149 608.45459009c0.89069885-2.59987856 5.72936204-4.7423712 5.72936202-4.7423712l341.52291752-180.23416465c35.0020671-18.29544092 34.85762913-60.47124583 34.85762913-60.47124582l5.34419509-118.75185401v-0.07221899c-2.31100262-22.24340426-27.44316137-12.75866285-33.1725234-10.20693028l-215.95841965 111.09665729s-2.88875352 1.85361669-6.74042487 0.74626088c-2.88875352-0.72218887-4.33313027-3.85167135-4.33313126-3.85167136l-9.46066842-23.83221898s-1.58881473-3.82759836-0.72218887-6.25896694c0.98699083-2.40729459 3.24984844-4.18869329 3.24984845-4.18869231l240.48875352-201.3220671c26.21544059-20.75088151 33.19659541-41.93507593 35.07428608-50.74577546 0 0 4.18869329-16.85106416 8.42553159-27.20243141l0.45738593-1.05920983c1.03513683-2.40729459 2.07027365-4.52571424 3.00911848-5.72936202h0.072219a39.47963535 39.47963535 0 0 1 33.12437741-18.07878396c13.86601866 0 26.04692962 7.22188478 33.12437644 18.07878396h0.02407299c0.96291784 1.1555018 1.94990868 3.22577545 2.9609725 5.53677806l0.6018239 1.39623176c4.18869329 10.37544026 8.3533126 27.05799345 8.35331359 27.05799344 1.87768968 8.81069951 8.85884451 29.99489394 35.0502121 50.74577546l240.48875451 201.3220671s2.28692962 1.8054707 3.24984745 4.2127653c0.89069885 2.40729459-0.72218887 6.23489395-0.72218789 6.23489395l-9.43659639 23.83221898s-1.44437675 3.12948347-4.35720326 3.85167136c-3.80352536 1.10735581-6.71635286-0.72218887-6.71635288-0.72218789l-215.95841964-111.12073028c-5.75343502-2.52765957-30.86151981-12.03647398-33.17252242 10.20693028v0.07221899l5.34419411 118.75185401s-0.14443797 42.17580589 34.85762913 60.47124582l341.52291849 180.23416465s4.8145892 2.16656563 5.75343404 4.7423712c1.05920983 2.86468052-0.07221898 8.04036465-0.072218 8.04036464l-12.56607986 51.87720328s-0.93884484 4.67015221-4.40534926 6.25896694c-4.21276628 2.07027365-9.19586645 0.19258396-9.19586646 0.19258298l-209.84389067-75.82978723c-2.67209754-0.67404289-8.90699051-1.51659574-7.1978108 3.94796333v0.14443797l171.30310016 164.97191523s3.85167135 3.22577545 4.28498428 7.6311247c0.36109394 4.18869329-3.65908837 8.9551365-3.65908739 8.9551365l-68.48753845 79.97033454s-6.95708184 8.2570216-16.53811523 8.06443763c-8.93106351-0.19258396-16.6344072-9.29215843-16.6344072-9.29215842L599.14407332 642.80668731c-3.77945336-6.37933093-20.1731306-9.29215843-19.69167167 8.01629165l15.57519736 344.09872308s0.14443797 6.93300884-3.20170245 10.6402432c-4.26091228 4.79051719-12.27720393 5.05531915-12.27720393 5.05531915h-142.94516694s-8.01629166-0.26480195-12.27720392-5.05531915c-3.32206645-3.70723437-3.17762947-10.64024321-3.17762848-10.6402432l15.57519738-344.09872308c0.48145892-17.33252309-15.91221932-14.39562357-19.71574468-8.01629165l-176.88802423 220.55635188s-7.7033437 9.09957447-16.65848019 9.29215842c-9.58103338 0.19258396-16.51404223-8.06443764-16.51404321-8.06443764l-68.48753748-79.97033453s-4.02018232-4.7664442-3.65908838-8.9551365c0.43331293-4.40534927 4.28498527-7.63112471 4.28498528-7.63112471l171.30310016-164.97191522v-0.12036498c1.7332527-5.48863209-4.52571424-4.64607922-7.19781179-3.94796333L93.37142847 674.82370793s-5.00717316 1.87768968-9.19586645-0.16850999c-3.46650441-1.61288773-4.40534927-6.25896694-4.40534925-6.25896694l-12.56607889-51.90127627s-1.1314288-5.17568412-0.07221898-8.04036464" fill="#2F60E2" /></svg>