<?xml version="1.0" standalone="no"?><!DOCTYPE svg PUBLIC "-//W3C//DTD SVG 1.1//EN" "http://www.w3.org/Graphics/SVG/1.1/DTD/svg11.dtd"><svg class="icon" width="600px" height="494.69px" viewBox="0 0 1242 1024" version="1.1" xmlns="http://www.w3.org/2000/svg"><path d="M796.995433 17.818353L609.521051 205.285456 434.418376 30.20826c-24.21443-24.22171-63.890765-23.826184-88.601422 0.861421L18.780197 358.117358c-24.692458 24.693671-25.091624 64.350594-0.861422 88.588076l217.430003 217.42515c0.502294 0.532625 0.860208 1.152606 1.381914 1.660966l32.18197 32.177117c7.647237 5.127276 24.823491 13.273167 43.022532 0l324.792209-324.780077c19.73504-19.7314 53.675037-17.756197 75.795364 4.372623 22.156725 22.134886 24.090677 56.07367 4.375049 75.778378L370.572502 799.632147l104.309621 104.062113 1.146539 1.141687c8.828961 5.265589 25.849917 11.44113 43.473868-3.336491L1066.090086 354.942232c19.715627-19.722907 53.653198-17.762264 75.789297 4.381116 22.134886 22.130033 24.083397 56.056685 4.37141 75.773525L576.28111 1005.024091c23.206203 11.848789 53.148478 35.450518 87.525252 1.067677l560.762182-560.712437c23.946297-23.96207 23.738828-63.025704-0.507147-87.246201L884.23678 18.320646C860.011431-5.908343 820.958716-6.135224 796.996646 17.818353z" fill="#3478F5" /></svg>