<?xml version="1.0" standalone="no"?><!DOCTYPE svg PUBLIC "-//W3C//DTD SVG 1.1//EN" "http://www.w3.org/Graphics/SVG/1.1/DTD/svg11.dtd"><svg class="icon" width="600px" height="600.00px" viewBox="0 0 1024 1024" version="1.1" xmlns="http://www.w3.org/2000/svg"><path d="M707.1 459.7L485.5 205.4c-33.4-38.3-92-42.3-130.2-8.9L96 422.4c-38.3 33.4-42.3 92-8.9 130.2l221.7 254.3c33.4 38.3 92 42.3 130.2 8.9l259.2-226c38.2-33.3 42.3-91.9 8.9-130.1zM618 572L425.4 739.9c-28.4 24.8-71.9 21.8-96.6-6.6L160.9 540.7c-24.8-28.4-21.8-71.9 6.6-96.6l192.6-167.9c28.4-24.8 71.9-21.8 96.6 6.6l167.9 192.6c24.8 28.4 21.8 71.9-6.6 96.6z" fill="#EF269A" /><path d="M945.1 465.3L723.4 211c-33.4-38.3-92-42.3-130.2-8.9L334 428c-38.3 33.4-42.3 92-8.9 130.2l221.7 254.3c33.4 38.3 92 42.3 130.2 8.9l259.2-226c38.2-33.3 42.2-91.9 8.9-130.1zM856 577.6L663.4 745.5c-28.4 24.8-71.9 21.8-96.6-6.6l-168-192.6c-24.8-28.4-21.8-71.9 6.6-96.6L598 281.8c28.4-24.8 71.9-21.8 96.6 6.6l168 192.6c24.7 28.4 21.8 71.9-6.6 96.6z" fill="#F5212D" /><path d="M756.9 480.1L580.4 277.8c-26.6-30.5-73.2-33.7-103.6-7.1L270.6 450.4c-30.5 26.6-33.7 73.2-7.1 103.6l176.4 202.4c26.6 30.5 73.2 33.7 103.6 7.1l206.3-179.8c30.4-26.5 33.6-73.2 7.1-103.6z m-71 89.4L532.7 703.1c-22.6 19.7-57.2 17.3-76.9-5.3L322.1 544.6c-19.7-22.6-17.3-57.2 5.3-76.9l153.3-133.6c22.6-19.7 57.2-17.3 76.9 5.3l133.7 153.3c19.6 22.5 17.2 57.1-5.4 76.8z" fill="#F25930" /></svg>