<?xml version="1.0" standalone="no"?><!DOCTYPE svg PUBLIC "-//W3C//DTD SVG 1.1//EN" "http://www.w3.org/Graphics/SVG/1.1/DTD/svg11.dtd"><svg class="icon" width="600px" height="600.00px" viewBox="0 0 1024 1024" version="1.1" xmlns="http://www.w3.org/2000/svg"><path d="M512 0C229.2 0 0 229.2 0 512s229.2 512 512 512 512-229.2 512-512S794.8 0 512 0zM309.6 870.4c-152-38.3-80-160.7-156-266.1 300.1-2.3 398.5-124.7 527.6-196.2-136.1-12.9-262.8 126.8-486.6 95.1-77.1-75.5 8.6-124.9 0.2-215 245 138.9 344.5 13 498.4 89l5 2.9 14 12.1c38.8-17.9 81.6-30.5 133.9-33.9h8.4l118.2 22.4c-287 0.1-299.9 346-663.1 489.7z" fill="#3F7FFF" /></svg>