<?xml version="1.0" standalone="no"?><!DOCTYPE svg PUBLIC "-//W3C//DTD SVG 1.1//EN" "http://www.w3.org/Graphics/SVG/1.1/DTD/svg11.dtd"><svg class="icon" width="600px" height="600.00px" viewBox="0 0 1024 1024" version="1.1" xmlns="http://www.w3.org/2000/svg"><path d="M189.866667 823.466667c-8.533333-10.666667-8.533333-25.6-8.533334-59.733334V245.333333c-2.133333-32 2.133333-42.666667 8.533334-51.2 4.266667-6.4 12.8-17.066667 34.133333-17.066666h172.8c10.666667 0 17.066667 4.266667 21.333333 12.8 4.266667 6.4 42.666667 72.533333 196.266667 362.666666h149.333333c-160-300.8-236.8-448-243.2-458.666666-17.066667-32-55.466667-51.2-87.466666-51.2h-209.066667c-59.733333 0-108.8 19.2-140.8 59.733333-29.866667 38.4-42.666667 87.466667-38.4 147.2v514.133333c0 59.733333 12.8 110.933333 40.533333 149.333334 32 42.666667 76.8 64 134.4 68.266666h179.2l-81.066666-136.533333h-91.733334c-17.066667 0-32-12.8-36.266666-21.333333z" fill="#00C1DE" /><path d="M836.266667 202.666667c8.533333 10.666667 8.533333 23.466667 8.533333 57.6v518.4c2.133333 32-2.133333 40.533333-8.533333 46.933333-4.266667 6.4-14.933333 19.2-36.266667 19.2h-172.8c-10.666667 0-17.066667-4.266667-21.333333-12.8-4.266667-6.4-40.533333-76.8-211.2-362.666667h-134.4c160 302.933333 236.8 450.133333 243.2 460.8 19.2 32 55.466667 51.2 87.466666 51.2h209.066667c59.733333 0 108.8-19.2 140.8-59.733333 29.866667-38.4 42.666667-87.466667 38.4-147.2V260.266667c0-59.733333-12.8-110.933333-40.533333-149.333334-32-42.666667-76.8-64-134.4-68.266666h-179.2l81.066666 136.533333h91.733334c17.066667 0 32 14.933333 38.4 23.466667z" fill="#00C1DE" /></svg>