<?xml version="1.0" standalone="no"?><!DOCTYPE svg PUBLIC "-//W3C//DTD SVG 1.1//EN" "http://www.w3.org/Graphics/SVG/1.1/DTD/svg11.dtd"><svg class="icon" width="600px" height="600.00px" viewBox="0 0 1024 1024" version="1.1" xmlns="http://www.w3.org/2000/svg"><path d="M510.208 213.781333l-101.802667 34.773334-65.706666-38.613334L511.509333 149.333333l170.133334 62.165334-64.448 37.056-106.965334-34.773334z m1.28 201.429334l101.824-34.816 65.728 38.698666-168.832 60.522667-170.069333-62.08 64.405333-37.141333 106.944 34.816z m-155.093333-51.904l-69.12 33.493333-221.653334-82.496 225.514667-83.370667 65.749333 38.848-122.410666 44.522667 121.898666 49.002667z m434.645333-49.002667l-122.410667-44.522667 65.706667-38.848 225.557333 83.370667L738.176 396.8l-69.098667-33.493333 121.962667-49.002667zM511.488 608.746667L64.96 433.642667 64 344.896l447.488 174.933333 447.573333-172.992v89.429334l-447.573333 172.48z m1.024 33.664L960 469.376v89.493333l-447.488 172.416-446.549333-175.061333-1.002667-88.746667 447.552 174.933334z m-447.573333-51.349334l447.573333 174.933334L960 593.002667v89.472l-447.488 172.48-446.549333-175.104-1.002667-88.768z" fill="#00C1DE" /></svg>