<?xml version="1.0" standalone="no"?><!DOCTYPE svg PUBLIC "-//W3C//DTD SVG 1.1//EN" "http://www.w3.org/Graphics/SVG/1.1/DTD/svg11.dtd"><svg class="icon" width="600px" height="600.00px" viewBox="0 0 1024 1024" version="1.1" xmlns="http://www.w3.org/2000/svg"><path d="M966.710369 1024H50.712154c-28.008927 0-50.712154-22.703227-50.712154-50.712154V57.299567C0 29.290641 22.703227 6.577478 50.712154 6.577478h915.998215c28.008927 0 50.712154 22.703227 50.712153 50.712153v915.998215c0 28.008927-22.703227 50.712154-50.712153 50.712154z" fill="#3982C5" /><path d="M634.150317 781.974656V440.025305h152.394792v189.564495L634.150317 781.974656zM230.877414 590.552172V400.997613l152.394791-152.394791v341.94935H230.877414z m0 0M583.974695 387.991694H431.589839V237.464827h191.422484l152.384855 150.526867H583.974695zM381.404281 640.737731h202.570414v152.394791H394.420135L242.025344 640.737731h139.378937z m0 0" fill="#FBFBFC" /></svg>