<?xml version="1.0" standalone="no"?><!DOCTYPE svg PUBLIC "-//W3C//DTD SVG 1.1//EN" "http://www.w3.org/Graphics/SVG/1.1/DTD/svg11.dtd"><svg class="icon" width="600px" height="600.00px" viewBox="0 0 1024 1024" version="1.1" xmlns="http://www.w3.org/2000/svg"><path d="M493.040485 818.885818c-46.913939 29.993374-108.732768 21.003636-145.166222-21.110949-36.429576-42.110707-36.429576-104.576 0-146.686707 36.433455-42.112 98.252283-51.106909 145.166222-21.11095v-99.015111H348.282828a19.135354 19.135354 0 0 1-16.98004-9.783596c-4.76703-8.811313-1.757091-19.81802 6.833131-24.972929 26.263273-15.71297 40.29802-45.838222 35.444364-76.055273-4.852364-30.213172-27.62602-54.424566-57.488808-61.121939a75.363556 75.363556 0 0 0-77.419313 29.085737c-17.70796 24.257939-19.329293 56.713051-4.116687 82.606545a64.378828 64.378828 0 0 0 25.731879 24.989738 19.527111 19.527111 0 0 1 9.813333 18.86901 18.713859 18.713859 0 0 1-18.565172 16.413737H81.454545v376.798384A34.753939 34.753939 0 0 0 116.207192 942.549333h376.833293v-123.663515z m0 0"  /><path d="M833.529535 616.189414c-10.53996 46.903596-49.767434 81.892848-97.565737 87.019313s-93.560242-20.747636-113.803636-64.347798a110.523475 110.523475 0 0 1-9.681455-60.22206 113.20501 113.20501 0 0 1 16.98004-47.662546h-99.015111v143.252687a19.387475 19.387475 0 0 1-9.929697 17.309737c-8.666505 4.569212-19.383596 1.682101-24.581171-6.615919a74.286545 74.286545 0 0 0-47.080728-33.398949c-37.15103-8.348444-74.651152 12.528485-87.121454 48.509414-12.463838 35.979636 4.071434 75.585939 38.424566 92.020364 34.34796 16.429253 75.561374 4.445091 95.747878-27.84194a18.70998 18.70998 0 0 1 22.888728-7.429172 19.320242 19.320242 0 0 1 11.681616 18.084202v167.682586h376.798384a34.743596 34.743596 0 0 0 24.576-10.181818 34.743596 34.743596 0 0 0 10.181818-24.576V530.962101h-123.560081a112.321939 112.321939 0 0 1 15.06004 85.227313zM655.176404 260.158061a74.339556 74.339556 0 0 0-46.818263-32.978748c-31.489293-7.121455-63.989657 6.796929-80.566303 34.504404-5.121293 8.535919-16.025859 11.570424-24.822949 6.914586a19.251717 19.251717 0 0 1-9.929697-17.192081V81.971717H116.207192c-19.192242 0-34.752646 15.560404-34.752647 34.752647v376.833293h124.267314c-30.580364-46.894545-21.913859-109.151677 20.313212-145.909657 42.227071-36.756687 105.090586-36.756687 147.318949 0 42.227071 36.75798 50.893576 99.015111 20.308041 145.909657h99.296969V349.032727a19.342222 19.342222 0 0 1 11.763071-18.20703 18.707394 18.707394 0 0 1 22.975354 7.762747 74.176646 74.176646 0 0 0 47.843555 34.655677 74.984727 74.984727 0 0 0 16.550788 1.833374 73.045333 73.045333 0 0 0 61.348202-31.44404c17.23604-24.965172 17.918707-57.808162 1.736404-83.475394z m0 0"  /><path d="M774.131071 493.557657h167.898505V116.724364A34.753939 34.753939 0 0 0 907.271758 81.971717H530.444929v124.383677c44.520727-28.898263 103.187394-22.76202 140.762505 14.732929s43.838061 96.151273 15.030303 140.736647a110.117495 110.117495 0 0 1-94.211878 50.641454 113.322667 113.322667 0 0 1-61.58093-18.20703v99.298263h143.480243a19.131475 19.131475 0 0 1 16.898586 9.63103c4.813576 8.707879 1.979475 19.661576-6.454303 24.939313a74.589091 74.589091 0 0 0-34.90392 56.702707 73.430626 73.430626 0 0 0 6.438788 37.81301 75.054545 75.054545 0 0 0 68.20202 43.787637 75.385535 75.385535 0 0 0 69.076041-104.426021 79.724606 79.724606 0 0 0-30.484687-34.539313c-7.707152-5.541495-10.055111-15.970263-5.46004-24.278626a19.130182 19.130182 0 0 1 16.893414-9.629737z m0 0"  /></svg>