<?xml version="1.0" standalone="no"?><!DOCTYPE svg PUBLIC "-//W3C//DTD SVG 1.1//EN" "http://www.w3.org/Graphics/SVG/1.1/DTD/svg11.dtd"><svg class="icon" width="600px" height="600.00px" viewBox="0 0 1024 1024" version="1.1" xmlns="http://www.w3.org/2000/svg"><path d="M1006.933445 642.434098c-13.547016-44.535607-40.406033-90.447738-76.867147-135.671606 35.789639-44.367738 62.296131-89.474098 76.111737-133.170361a523.666885 523.666885 0 0 1 0.75541 268.858754z m-787.808524 241.899017a509.73377 509.73377 0 0 0 85.730623-7.889836c18.885246 51.46859 42.504393 95.903475 70.840655 129.812983a507.047869 507.047869 0 0 1-219.438164-127.664262c19.691016 3.810623 40.674623 5.741115 62.866886 5.741115z m736.03777-117.306754C864.966757 925.528131 696.543937 1024 515.514167 1024c-12.052984 0-24.055607-0.570754-36.007869-1.359738-56.722885-20.429639-94.896262-84.941639-118.162886-140.741246-2.215869-5.371803-4.331016-10.743607-6.379016-16.16577 189.288918-45.794623 411.094033-176.128 543.760787-319.70623a460.749639 460.749639 0 0 1 38.274098 56.53823c37.048656 65.082754 43.142295 120.429115 18.096263 164.410754l0.067147 0.050361zM306.953904 146.21377a511.546754 511.546754 0 0 0-87.543606-8.225573c-22.292984 0-43.410885 1.980852-63.152263 5.841836a514.786623 514.786623 0 0 1 100.805246-77.253246A508.139016 508.139016 0 0 1 382.008068 14.386361c-30.149246 33.624131-55.178492 78.797639-75.087738 131.810623h0.050361z m48.07764 12.523017C391.677314 64.109115 445.093183 0.167869 514.154429 0c10.810754 0 21.436852 0.402885 32.079738 1.074361l2.786623 0.235016a505.234885 505.234885 0 0 1 270.789245 103.071475l8.762755 6.949771a517.976131 517.976131 0 0 1 118.045377 135.168c0.637902 1.024 1.309377 1.997639 1.880131 3.021639 2.165508 3.642754 4.196721 7.38623 6.261508 11.028984 22.74623 43.478033 16.333639 97.515016-19.741377 160.885508a476.327869 476.327869 0 0 1-38.274099 56.53823C764.497249 334.898361 543.833642 204.917508 355.014757 158.669639v0.050361z m-137.954623 679.868852c-60.180984 0-104.397639-15.007475-132.381377-44.149508A524.623738 524.623738 0 0 1 0.223937 498.066885c0.167869-4.498885 0.26859-8.99777 0.553967-13.479869l0.117508-2.971278a527.242492 527.242492 0 0 1 82.826492-249.620984c27.933377-29.880656 72.48577-45.223869 133.355017-45.223869 22.930885 0 47.221508 2.215869 72.468983 6.261508-56.823607 188.516721-57.344 449.80459-1.577967 639.647476-23.468066 3.793836-47.171148 5.774689-70.941377 5.92577h0.050361z" /></svg>