<?xml version="1.0" standalone="no"?><!DOCTYPE svg PUBLIC "-//W3C//DTD SVG 1.1//EN" "http://www.w3.org/Graphics/SVG/1.1/DTD/svg11.dtd"><svg class="icon" width="600px" height="599.41px" viewBox="0 0 1025 1024" version="1.1" xmlns="http://www.w3.org/2000/svg"><path d="M236.958302 12.303081c49.900273-14.782896 102.312359-10.959181 153.588529-11.327154q143.301297 0.191986 286.586596-0.111992c122.982815-9.055324 245.245683 64.123211 303.817308 171.619183 42.300841 72.346597 47.756433 158.38817 43.484752 240.270054a1564.683138 1564.683138 0 0 1-133.190052-127.174501 40.252994 40.252994 0 0 0-36.01331-12.271084c-30.39773-69.594802-93.736999-126.694538-170.85124-135.381888-69.6268-5.615581-139.733564-1.07192-209.584346-2.511813-47.996415 1.07192-96.952759-4.175688-144.357219 5.3596-63.99522 18.126646-127.73446 57.099735-155.188409 120.503-18.782597 37.293215-15.998805 79.994025-16.158793 120.598993 1.183912 99.048602-0.239982 198.193197 0.463965 297.353791A217.83973 217.83973 0 0 0 254.876964 857.535953c8.543362 68.538881 73.594503 109.047855 106.936013 165.667626a335.014979 335.014979 0 0 1-148.292924-23.486245A345.862168 345.862168 0 0 1 25.4381 809.63553C-14.014953 719.770242 6.063547 619.537728 1.311902 524.664814c3.919707-90.921209-9.263308-183.522293 9.983254-273.147599A362.020962 362.020962 0 0 1 236.958302 12.303081z m-9.023326 620.097687c-0.12799 34.797401-2.383822 71.146686 12.703051 103.560265 5.471591-44.684663-7.35945-96.296808 20.686455-135.029915 3.919707 33.597491 5.455593 67.450962 6.399522 101.304434 15.438847-3.935706 31.005684-7.999403 46.396535-11.91911-13.438996-65.195131-22.942286-134.917923-0.239982-199.265117a1029.859082 1029.859082 0 0 1 6.399522 153.02857c4.383673 5.3596 13.071024 15.838817 17.454696 21.214416a1289.77567 1289.77567 0 0 1 0.831938-152.916579A254.940959 254.940959 0 0 1 522.153002 308.456962a330.247335 330.247335 0 0 1 174.898937-6.543511c0.223983 49.452307 0.94393 98.920612 0.831938 148.372918 26.957987-51.724137 9.599283-111.319686 23.518243-166.0196 11.51914 21.454398 22.398327 43.388759 33.597491 65.083139a464.493308 464.493308 0 0 0-3.919707-56.139807c-14.494917-23.486246-38.621115-38.733107-58.699616-56.731763 6.399522-4.175688 19.374553-12.639056 25.902065-16.926736-4.799642-1.903858-14.254935-5.711573-19.00658-7.743421-35.645338 32.413579-85.545611 20.030504-128.918372 21.214415-78.394145-5.48759-160.164038 10.495216-234.782464-20.798446-55.131882 12.159092-108.791875 61.371416-106.936013 121.318939-0.959928 99.704553 0.719946 199.217121-0.703948 298.857679z m342.550416-399.378172c43.372761-1.183912 93.273034 11.199164 128.918371-21.214415a3137.989631 3137.989631 0 0 0-363.700836 0.479964c74.618427 31.229668 156.356322 15.246861 234.782465 20.734451z m180.786497 60.187505a464.493308 464.493308 0 0 1 3.919708 56.139807c-11.199164-21.69438-22.110349-43.628741-33.597491-65.083139-13.902962 54.699915 3.439743 114.295464-23.518244 166.0196-17.118721 45.644591-37.677186 94.280958-81.593905 120.37501-39.453053 28.797849-90.425246 19.55054-135.685866 17.038727 41.10093-12.799044 86.025575-25.742077 112.391605-62.811309 39.997013-45.036636 48.716361-106.776025 45.148628-164.931681-59.883527 1.183912-125.222647 7.375449-170.739248 50.8762-68.426889 58.411637-81.145939 157.796215-63.083288 241.581957 131.766159-2.255832 263.7723 6.079546 395.426466-0.591956-1.19991-98.200666 0.351974-196.41733-0.591955-294.617996a151.15671 151.15671 0 0 0-80.921956-137.589724c-6.527512 4.28768-19.486545 12.799044-25.902066 16.926736 20.062502 17.934661 44.1887 33.181522 58.683617 56.667768z m112.279614 88.185414c-0.831938 113.111552 0.111992 226.207105-0.831937 339.318657-145.317147-0.367973-290.634293 0.94393-435.935441 0-38.973089 3.087769-66.427039-28.25389-88.889362-55.419861-4.383673-5.375599-13.071024-15.854816-17.454696-21.214416a1029.859082 1029.859082 0 0 0-6.399522-153.02857c-22.702304 64.347194-13.199014 134.069987 0.239982 199.265117-15.454846 3.935706-31.021683 7.999403-46.396535 11.91911-0.959928-33.853472-2.495814-67.690944-6.399522-101.304434-28.045905 38.733107-15.214864 90.345252-20.686455 135.029915a125.078658 125.078658 0 0 0 114.551445 80.33c172.163142 2.255832 344.454274-1.599881 516.617415 2.383822a299.177655 299.177655 0 0 1-12.367076 70.202757c-164.083745-3.103768-328.279482 0.111992-492.379226-1.087919a247.133542 247.133542 0 0 1-112.151623-30.269739c8.543362 68.538881 73.594503 109.047855 106.936013 165.667627 220.879503-1.07192 441.870998 0.719946 662.878491-0.351974q0.367973-305.161208-0.239982-610.082435a1564.683138 1564.683138 0 0 1-133.190052-127.174501 40.252994 40.252994 0 0 0-36.013311-12.271084 451.790257 451.790257 0 0 1 8.047399 108.087928z" /></svg>