<?xml version="1.0" standalone="no"?><!DOCTYPE svg PUBLIC "-//W3C//DTD SVG 1.1//EN" "http://www.w3.org/Graphics/SVG/1.1/DTD/svg11.dtd"><svg class="icon" width="600px" height="600.00px" viewBox="0 0 1024 1024" version="1.1" xmlns="http://www.w3.org/2000/svg"><path d="M654.451451 375.767843c10.380549 12.448627 18.672941 26.965333 22.829176 43.570196l128.64251-66.399372c20.761098 16.604863 47.726431 20.761098 72.623687 8.31247 33.209725-16.604863 45.658353-56.018824 29.05349-87.140392-16.604863-31.141647-56.018824-43.590275-89.228549-26.985412a63.146667 63.146667 0 0 0-35.277804 62.243138l-128.64251 66.399372z m-70.535529-39.434039a109.487686 109.487686 0 0 1 45.638274 16.604863l66.399373-161.832157c26.965333 0 53.950745-14.536784 66.399372-41.502118a67.624157 67.624157 0 0 0-35.277804-91.296627c-35.277804-14.536784-76.779922 0-93.364706 35.257725-12.448627 29.05349-6.224314 60.175059 16.584785 78.848l-66.379294 163.920314z m246.90447 134.886902l-149.383529-26.985412v4.156235c0 16.604863-4.156235 31.121569-8.312471 43.570196l149.38353 26.985412c4.176314 29.033412 26.985412 51.862588 56.038902 60.175059 39.434039 10.360471 80.916078-14.536784 91.296627-53.950745 10.380549-39.434039-14.516706-78.848-56.018824-89.228549-33.209725-6.224314-66.399373 8.292392-83.004235 35.277804zM438.668549 172.41349l64.311216 176.368941c14.536784-8.292392 29.05349-14.516706 45.658353-16.584784L484.306824 153.740549c31.121569-20.74102 45.658353-60.175059 33.209725-95.432784C502.979765 12.649412 453.185255-10.159686 407.526902 4.35702 361.888627 18.873725 334.923294 68.668235 349.44 112.238431c12.448627 41.502118 49.79451 64.331294 89.228549 60.175059z m78.848 597.594353l45.638275-205.402353c-16.604863 0-33.189647-4.176314-47.726432-10.400627l-45.638274 205.422431c-68.467451-4.136157-126.574431 43.570196-134.886902 112.037647-8.292392 70.555608 43.570196 136.95498 114.125804 147.33553 72.623686 10.380549 136.934902-39.413961 147.335529-109.969569 6.224314-62.243137-26.985412-116.193882-78.848-139.023059zM144.017569 402.733176c49.79451 24.897255 112.037647 10.380549 143.159215-33.189647l159.784157 62.243138c2.068078-16.604863 8.292392-31.121569 18.672941-45.638275l-159.764078-62.243137c6.224314-43.570196-16.604863-89.228549-58.10698-112.057726-53.950745-26.985412-120.350118-8.312471-149.38353 45.638275-29.05349 51.882667-8.312471 116.213961 45.638275 145.247372z m678.510431 300.875295l-163.920314-186.729412a135.890824 135.890824 0 0 1-37.345882 31.121568l163.920314 186.729412a98.063059 98.063059 0 0 0 10.36047 126.574432c39.434039 39.434039 103.765333 41.502118 145.247373 2.068078 39.434039-37.345882 43.570196-99.58902 2.088157-141.091137-33.209725-31.121569-83.004235-37.345882-120.350118-18.672941z m-348.601725-178.43702a169.622588 169.622588 0 0 1-24.897255-41.502118l-188.817569 101.677177c-37.345882-43.570196-103.745255-56.018824-155.607843-26.985412C44.388392 591.570824 21.579294 664.19451 56.857098 724.369569c33.189647 58.086902 109.969569 78.848 170.144627 45.638274 53.950745-29.05349 76.759843-89.228549 58.086902-143.159216l188.817569-101.677176z" /></svg>