<?xml version="1.0" standalone="no"?><!DOCTYPE svg PUBLIC "-//W3C//DTD SVG 1.1//EN" "http://www.w3.org/Graphics/SVG/1.1/DTD/svg11.dtd"><svg class="icon" width="600px" height="600.00px" viewBox="0 0 1024 1024" version="1.1" xmlns="http://www.w3.org/2000/svg"><path d="M846.962 253.383c-101.813-78.899-261.261-73.099-294.567-50.129 105.827 23.3 185.729 151.276 185.729 305.995 0 154.72-79.902 282.696-185.729 305.829 33.143 22.971 248.974-0.818 294.694-50.204 54.411-70.781 86.773-159.476 86.773-255.625 0-96.224-32.412-184.984-86.9-255.866z"  /><path d="M371.013 748.756c-46.433-54.799-76.62-135.852-78.59-226.745v-19.854c1.97-91.062 31.994-172.11 78.426-226.911 60.379-78.264 149.963-127.813 250.047-127.813 61.527 0 119.115 18.868 168.338 51.519-73.997-66.286-171.457-106.648-278.431-106.975h-1.641C277.165 91.977 89.138 280.004 89.138 512c0 225.271 177.362 409.032 400.007 419.533 6.563 0.327 13.291 0.49 20.018 0.49 107.467 0 205.581-40.361 280.071-106.81-49.223 32.65-106.811 51.356-168.338 51.356-100.084 0.001-189.668-49.551-249.883-127.813z"  /></svg>