<?xml version="1.0" standalone="no"?><!DOCTYPE svg PUBLIC "-//W3C//DTD SVG 1.1//EN" "http://www.w3.org/Graphics/SVG/1.1/DTD/svg11.dtd"><svg class="icon" width="600px" height="519.80px" viewBox="0 0 1182 1024" version="1.1" xmlns="http://www.w3.org/2000/svg"><path d="M973.877493 0H69.505349L0 120.390328h904.372144l-69.505349 120.390328-243.670024 422.04836 69.505349 120.390328L973.877493 240.780656 1043.382843 120.390328l69.505349-120.390328h-139.010699z" fill="#EACEE7" /><path d="M1112.888192 0L1043.382843 120.390328l-69.50535 120.390328-313.175373 542.438688-69.505349-120.390328L347.526747 240.780656H208.516048L521.691421 783.219344l69.50535 120.390328 69.505349 120.390328 69.50535-120.390328L1182.393542 120.390328 1112.888192 0z" fill="#D59ECF" /><path d="M347.526747 240.780656h487.340048l69.505349-120.390328H0l69.505349 120.390328 382.680723 662.829016 69.505349 120.390328h139.010699l-69.505349-120.390328-69.50535-120.390328L208.516048 240.780656H347.526747z" fill="#C06DB7" /></svg>