<?xml version="1.0" standalone="no"?><!DOCTYPE svg PUBLIC "-//W3C//DTD SVG 1.1//EN" "http://www.w3.org/Graphics/SVG/1.1/DTD/svg11.dtd"><svg class="icon" width="600px" height="475.91px" viewBox="0 0 1291 1024" version="1.1" xmlns="http://www.w3.org/2000/svg"><path d="M1288.45913 1024h-240.550956V229.376c-59.881739 12.777739-111.749565 34.103652-154.668522 64.77913-149.325913 104.893217-212.813913 235.341913-212.813913 237.03374l-36.641391 76.710956-35.750957-76.710956c-0.890435-1.691826-64.378435-132.140522-212.813913-237.03374-42.918957-29.829565-94.831304-52.001391-154.713043-64.77913V1024H0V150.928696l33.970087-5.12c0.890435 0 33.079652-5.12 80.495304-5.12 16.072348 0 32.189217 0.845913 48.261566 1.691826V0h40.247652c7.123478 0 179.734261 2.537739 307.556174 144.962783A990.608696 990.608696 0 0 1 645.565217 339.344696a966.121739 966.121739 0 0 1 135.034435-194.381913C908.421565 2.537739 1080.987826 0 1088.111304 0h40.247653v142.380522c16.072348-0.845913 32.189217-1.691826 48.261565-1.691826 47.415652 0 78.714435 4.274087 80.495304 5.12L1291.130435 150.928696V1024h-2.671305z m-163.929043-81.92h83.300174V205.690435c-21.726609-0.890435-54.316522-1.78087-83.255652 0.845913V942.08z m-1041.229913 0h83.255652V206.224696a920.264348 920.264348 0 0 0-83.255652-0.890435V942.08zM1041.229913 81.92c-49.152 10.017391-136.102957 38.244174-204.621913 121.09913-35.127652 42.74087-64.111304 86.416696-86.906435 124.66087a809.850435 809.850435 0 0 1 93.94087-83.70087c55.340522-41.894957 122.078609-71.056696 197.587478-86.505739V81.92zM250.790957 158.096696c76.399304 15.404522 143.137391 43.542261 197.587478 86.149565a797.072696 797.072696 0 0 1 93.050435 83.433739 958.018783 958.018783 0 0 0-86.906435-124.215652C385.113043 119.941565 299.052522 91.848348 249.900522 81.92v76.176696h0.890435z" /></svg>