<?xml version="1.0" standalone="no"?><!DOCTYPE svg PUBLIC "-//W3C//DTD SVG 1.1//EN" "http://www.w3.org/Graphics/SVG/1.1/DTD/svg11.dtd"><svg class="icon" width="600px" height="600.00px" viewBox="0 0 1024 1024" version="1.1" xmlns="http://www.w3.org/2000/svg"><path d="M562.4 542c-9.4-18.3-28-29.7-48.5-29.7s-39.1 11.4-48.5 29.6l-12.5-6.4c11.8-23 35.2-37.2 61-37.2 25.8 0 49.2 14.3 61 37.3l-12.5 6.4z"  /><path d="M604.6 513.3c-18.9-32-53.7-51.9-90.8-51.9-35 0-67.7 17.4-87.3 46.4l-11.6-7.8c22.3-32.9 59.2-52.6 98.9-52.6 42 0 81.4 22.5 102.8 58.7l-12 7.2z"  /><path d="M389.7 476.6l-11.3-8.3c31.4-43.2 82.1-69 135.5-69 53.2 0 103.7 25.6 135.1 68.5l-11.3 8.3c-28.8-39.3-75.1-62.8-123.8-62.8-48.9 0-95.3 23.7-124.2 63.3z"  /><path d="M681.6 462.3c-36.4-58.3-99.1-93.1-167.7-93.1-66.9 0-128.7 33.4-165.4 89.5l-11.7-7.7c39.3-60 105.5-95.8 177.1-95.8 73.5 0 140.6 37.3 179.6 99.7l-11.9 7.4z"  /><path d="M726.4 446.5C683 370.1 601.6 322.6 513.9 322.6c-87 0-168.1 46.9-211.6 122.3l-19.4-11.2C330.4 351.3 419 300.2 514 300.2c95.8 0 184.7 51.8 232 135.2l-19.6 11.1z"  /><path d="M291.4 690.7c-9.4-18.3-28-29.7-48.5-29.7s-39.1 11.4-48.5 29.6l-12.5-6.4c11.8-23 35.2-37.2 61-37.2 25.8 0 49.2 14.3 61 37.3l-12.5 6.4z"  /><path d="M333.6 662.1c-18.9-32-53.7-51.9-90.8-51.9-35 0-67.7 17.4-87.3 46.4l-11.6-7.8c22.3-32.9 59.2-52.6 98.9-52.6 42 0 81.4 22.5 102.8 58.7l-12 7.2z"  /><path d="M118.7 625.4l-11.3-8.3c31.4-43.2 82.1-69 135.5-69 53.2 0 103.7 25.6 135.1 68.5l-11.3 8.3c-28.8-39.3-75.1-62.8-123.8-62.8-49 0-95.4 23.7-124.2 63.3z"  /><path d="M410.5 611.1c-36.4-58.3-99.1-93.1-167.7-93.1-66.9 0-128.7 33.4-165.4 89.5l-11.7-7.7c39.3-60 105.5-95.8 177.1-95.8 73.5 0 140.6 37.3 179.6 99.7l-11.9 7.4z"  /><path d="M455.3 595.2C412 518.8 330.6 471.4 242.8 471.4c-87 0-168.1 46.9-211.6 122.3l-19.4-11.2c47.5-82.4 136-133.5 231-133.5 95.8 0 184.7 51.8 232 135.2l-19.5 11z"  /><path d="M838.5 690.7c-9.4-18.3-28-29.7-48.5-29.7s-39.1 11.4-48.5 29.6l-12.5-6.4c11.8-23 35.2-37.2 61-37.2 25.8 0 49.2 14.3 61 37.3l-12.5 6.4z"  /><path d="M880.7 662.1c-18.9-32-53.7-51.9-90.8-51.9-35 0-67.7 17.4-87.3 46.4l-11.6-7.8c22.3-32.9 59.2-52.6 98.9-52.6 42 0 81.4 22.5 102.8 58.7l-12 7.2z"  /><path d="M665.8 625.4l-11.3-8.3c31.4-43.2 82.1-69 135.5-69 53.2 0 103.7 25.6 135.1 68.5l-11.3 8.3c-28.8-39.3-75.1-62.8-123.8-62.8-48.9 0-95.3 23.7-124.2 63.3z"  /><path d="M957.7 611.1C921.3 552.8 858.6 518 790 518c-66.9 0-128.7 33.4-165.4 89.5l-11.7-7.7c39.3-60 105.5-95.8 177.1-95.8 73.5 0 140.6 37.3 179.6 99.7l-11.9 7.4z"  /><path d="M1002.5 595.2C959.1 518.8 877.7 471.4 790 471.4c-87 0-168.1 46.9-211.6 122.3L559 582.5C606.5 500.1 695 449 790 449c95.8 0 184.7 51.8 232 135.2l-19.5 11z"  /></svg>