<?xml version="1.0" standalone="no"?><!DOCTYPE svg PUBLIC "-//W3C//DTD SVG 1.1//EN" "http://www.w3.org/Graphics/SVG/1.1/DTD/svg11.dtd"><svg class="icon" width="600px" height="600.00px" viewBox="0 0 1024 1024" version="1.1" xmlns="http://www.w3.org/2000/svg"><path d="M723.09333333 974.82666667H193.28c-56.21333333 0-101.86666667-45.76-101.86666667-101.86666667V157.54666667c0-62.93333333 51.2-114.02666667 114.02666667-114.02666667h439.36c62.93333333 0 114.02666667 51.2 114.02666667 114.02666667v389.86666666c0 86.61333333-70.50666667 157.12-157.12 157.12H247.04c-14.72 0-26.66666667-11.94666667-26.66666667-26.66666666s11.94666667-26.66666667 26.66666667-26.66666667h354.66666667c57.28 0 103.78666667-46.61333333 103.78666666-103.78666667V157.54666667c0-33.49333333-27.2-60.69333333-60.69333333-60.69333334H205.44c-33.49333333 0-60.69333333 27.2-60.69333333 60.69333334v715.30666666c0 26.77333333 21.76 48.53333333 48.53333333 48.53333334h529.70666667c85.12 0 154.45333333-69.22666667 154.45333333-154.45333334V119.36c0-14.72 11.94666667-26.66666667 26.66666667-26.66666667s26.66666667 11.94666667 26.66666666 26.66666667v647.68c0 114.56-93.12 207.78666667-207.68 207.78666667z"  /><path d="M697.38666667 837.65333333H245.97333333c-14.72 0-26.66666667-11.94666667-26.66666666-26.66666666s11.94666667-26.66666667 26.66666666-26.66666667h451.41333334c14.72 0 26.66666667 11.94666667 26.66666666 26.66666667s-11.94666667 26.66666667-26.66666666 26.66666666z"  /></svg>