<?xml version="1.0" standalone="no"?><!DOCTYPE svg PUBLIC "-//W3C//DTD SVG 1.1//EN" "http://www.w3.org/Graphics/SVG/1.1/DTD/svg11.dtd"><svg class="icon" width="600px" height="600.00px" viewBox="0 0 1024 1024" version="1.1" xmlns="http://www.w3.org/2000/svg"><path d="M114.915556 818.062222h785.066666c10.24 0 19.342222 3.413333 26.168889 11.377778 6.826667 6.826667 11.377778 17.066667 11.377778 26.168889v55.751111c0 10.24-3.413333 19.342222-11.377778 26.168889-6.826667 6.826667-17.066667 11.377778-26.168889 11.377778h-785.066666c-10.24 0-19.342222-3.413333-26.168889-11.377778-6.826667-6.826667-11.377778-17.066667-11.377778-26.168889v-55.751111c0-10.24 3.413333-19.342222 11.377778-26.168889 6.826667-7.964444 15.928889-11.377778 26.168889-11.377778z m18.204444 55.751111h747.52v18.204445H133.12v-18.204445z m-18.204444-654.222222H227.555556c10.24 0 19.342222 3.413333 26.168888 11.377778 6.826667 6.826667 11.377778 17.066667 11.377778 26.168889v485.831111c0 10.24-3.413333 19.342222-11.377778 26.168889-6.826667 6.826667-17.066667 11.377778-26.168888 11.377778h-112.64c-10.24 0-19.342222-3.413333-26.168889-11.377778-6.826667-6.826667-11.377778-17.066667-11.377778-26.168889V257.137778c0-10.24 3.413333-19.342222 11.377778-26.168889 6.826667-6.826667 15.928889-11.377778 26.168889-11.377778z m18.204444 55.751111h75.093333v448.284445h-75.093333V275.342222zM358.4 88.746667h112.64c10.24 0 19.342222 3.413333 26.168889 11.377777 6.826667 6.826667 11.377778 17.066667 11.377778 26.168889v616.675556c0 10.24-3.413333 19.342222-11.377778 26.168889-6.826667 6.826667-17.066667 11.377778-26.168889 11.377778h-112.64c-10.24 0-19.342222-3.413333-26.168889-11.377778-6.826667-6.826667-11.377778-17.066667-11.377778-26.168889V126.293333c0-10.24 3.413333-19.342222 11.377778-26.168889 6.826667-6.826667 15.928889-11.377778 26.168889-11.377777z m18.204444 55.751111h75.093334v579.128889h-75.093334V144.497778z m130.844445 80.782222l96.711111-56.888889c9.102222-4.551111 19.342222-5.688889 28.444444-3.413333s18.204444 9.102222 22.755556 18.204444l276.48 483.555556c10.24 18.204444 4.551111 40.96-13.653333 52.337778l-96.711111 56.888888c-9.102222 4.551111-19.342222 5.688889-28.444445 3.413334s-18.204444-9.102222-22.755555-18.204445L493.795556 277.617778c-10.24-18.204444-4.551111-40.96 13.653333-52.337778z m54.613333 58.026667l64.853334-37.546667L864.711111 661.048889l-64.853333 37.546667-237.795556-415.288889z m0 0" fill="#B9C2C8" /></svg>