<?xml version="1.0" standalone="no"?><!DOCTYPE svg PUBLIC "-//W3C//DTD SVG 1.1//EN" "http://www.w3.org/Graphics/SVG/1.1/DTD/svg11.dtd"><svg class="icon" width="600px" height="600.00px" viewBox="0 0 1024 1024" version="1.1" xmlns="http://www.w3.org/2000/svg"><path d="M917.077333 866.218667c0 36.778667-28.16 67.413333-61.866666 67.413333H78.762667L188.586667 376.32c12.544-47.786667 28.16-67.413333 61.866666-67.413333h711.68c33.792 0 61.952 30.634667 61.952 67.413333l-106.922666 489.813333z m34.986667-633.344H185.429333c-37.034667 0-46.592 32.256-59.050666 73.728L0 938.666667V66.474667C0 30.208 30.890667 0 68.010667 0H407.893333c37.12 0 68.010667 30.208 68.010667 66.474667v60.416h408.064c37.12 0 68.010667 30.208 68.010667 66.56v39.424z" fill="#167CF3" /></svg>