<?xml version="1.0" standalone="no"?><!DOCTYPE svg PUBLIC "-//W3C//DTD SVG 1.1//EN" "http://www.w3.org/Graphics/SVG/1.1/DTD/svg11.dtd"><svg class="icon" width="600px" height="600.00px" viewBox="0 0 1024 1024" version="1.1" xmlns="http://www.w3.org/2000/svg"><path d="M932.032 765.44a442.624 442.624 0 0 0-151.488-350.08 416.896 416.896 0 0 0-352.768-83.2A416.64 416.64 0 0 1 646.08 30.72a28.864 28.864 0 0 1 7.04 1.92 159.36 159.36 0 0 0 268.8 165.76 462.656 462.656 0 0 1 10.112 567.04zM800 192A96 96 0 1 1 896 96 96 96 0 0 1 800 192zM363.2 383.36a349.056 349.056 0 0 0 128.704 273.92c-160.704 90.88-344.576 5.12-373.952-10.24-1.088-2.56-1.6-5.76-2.624-8.96a159.168 159.168 0 0 0 5.312-315.52A466.048 466.048 0 0 1 556.288 21.76c3.776 0 7.232 0.64 10.944 0.64a83.584 83.584 0 0 0-33.408 16.64 423.232 423.232 0 0 0-170.624 344.32zM192 480A96 96 0 1 1 96 384 96 96 0 0 1 192 480z m398.336 190.72a327.808 327.808 0 0 0 120.128-225.28 253.888 253.888 0 0 1 23.232 17.92 465.408 465.408 0 0 1 137.984 369.28l-4.864 3.84A160 160 0 0 0 576 928a166.4 166.4 0 0 0 2.688 26.88c-7.552 0-14.72 1.92-22.4 1.92a466.176 466.176 0 0 1-403.2-234.88 253.952 253.952 0 0 0 45.376 17.92c132.288 28.16 280.512 28.8 391.872-69.12zM736 832a96 96 0 1 1-96 96 96 96 0 0 1 96-96z" /></svg>