<?xml version="1.0" standalone="no"?><!DOCTYPE svg PUBLIC "-//W3C//DTD SVG 1.1//EN" "http://www.w3.org/Graphics/SVG/1.1/DTD/svg11.dtd"><svg class="icon" width="600px" height="600.00px" viewBox="0 0 1024 1024" version="1.1" xmlns="http://www.w3.org/2000/svg"><path d="M298.667 149.333c82.41 0 149.333 66.987 149.333 149.334V448H298.667c-82.411 0-149.334-66.987-149.334-149.333 0-82.411 66.987-149.334 149.334-149.334z m0 341.334h192v-192c0-105.92-86.016-192-192-192-105.92 0-192 86.016-192 192 0 105.92 86.016 192 192 192z m0 42.666c-105.984 0-192 86.08-192 192 0 105.984 86.08 192 192 192 105.984 0 192-86.08 192-192V554.667a21.333 21.333 0 0 0-21.334-21.334H298.667z m149.333 192c0 82.347-66.923 149.334-149.333 149.334-82.347 0-149.334-66.923-149.334-149.334 0-82.346 66.923-149.333 149.334-149.333H448v149.333zM725.333 576c82.411 0 149.334 66.987 149.334 149.333 0 82.411-66.987 149.334-149.334 149.334-82.453 0-149.333-66.88-149.333-149.27V701.1a21.333 21.333 0 0 0-42.667 0v24.298c0 105.942 85.974 191.936 192 191.936 105.92 0 192-86.016 192-192 0-105.92-86.016-192-192-192H554.667a21.333 21.333 0 0 0 0 42.667h170.666z m0-469.333c-105.984 0-192 86.08-192 192v170.666a21.333 21.333 0 0 0 21.334 21.334h170.666c105.984 0 192-86.08 192-192 0-105.984-86.08-192-192-192z m0 341.333H576V298.667c0-82.347 66.923-149.334 149.333-149.334 82.347 0 149.334 66.923 149.334 149.334 0 82.346-66.923 149.333-149.334 149.333z" fill="#D81E06" /></svg>