<?xml version="1.0" standalone="no"?><!DOCTYPE svg PUBLIC "-//W3C//DTD SVG 1.1//EN" "http://www.w3.org/Graphics/SVG/1.1/DTD/svg11.dtd"><svg class="icon" width="600px" height="600.00px" viewBox="0 0 1024 1024" version="1.1" xmlns="http://www.w3.org/2000/svg"><path d="M512 511.7m-448.3 0a448.3 448.3 0 1 0 896.6 0 448.3 448.3 0 1 0-896.6 0Z" fill="#FFFFFF" /><path d="M503.5 229.7c1.7 52.8-9.5 105.3-32.7 152.9-34.7 54.2-139 119.5-139 225.1-4.1 91.4 62.2 170.8 152.9 183.1-31.8-34.4-47-81-41.7-127.5 5.2-84.4 81.6-126.5 118.5-208.4 47.6-109.1-58-225.2-58-225.2" fill="#005CF4" /><path d="M620.5 458s86.9 92.8 69.5 186.6c-12 59.1-52.4 108.4-108 131.7-5.7 4.3-9.7 10.5-11.5 17.4-32.3-22-52-58.2-52.8-97.3 0-77.8 52.8-139 69.5-164.7 13.3-23.6 24.5-48.2 33.3-73.7" fill="#28A7E1" /></svg>