<?xml version="1.0" standalone="no"?><!DOCTYPE svg PUBLIC "-//W3C//DTD SVG 1.1//EN" "http://www.w3.org/Graphics/SVG/1.1/DTD/svg11.dtd"><svg class="icon" width="600px" height="600.00px" viewBox="0 0 1024 1024" version="1.1" xmlns="http://www.w3.org/2000/svg"><path d="M1502.11524424 511.76068251c0 2.89262001-0.00037458 5.78523999 0.00195617 8.67786 0.00006243 0.0780175-0.01756383 0.09562296-0.09560213 0.09560212-5.77831019-0.00212264-11.55659956-0.00212264-17.33490976 0-0.07799669 0.00002081-0.09562296-0.0175222-0.09560215-0.09558131 0.00212264-5.78523999 0.00212264-11.57048 0-17.35571997-0.00002081-0.07797588 0.0175014-0.09564375 0.09556053-0.09560214 5.77831019 0.00212264 11.55659956 0.00212264 17.33490975 0 0.07795507-0.00002081 0.09570619 0.01745978 0.09564376 0.0955605-0.00233075 2.89262001-0.00195615 5.7852608-0.00195616 8.6778808zM1495.68486675 507.69752951c-0.06311739-0.05772756 0.01071727-0.05806049 0.03329635-0.06990153 0.17143456-0.08987933 0.34270264-0.17940488 0.49694795-0.29808552 0.29336162-0.22574922 0.39824511-0.53542605 0.30074925-0.89240448-0.08471839-0.31017627-0.35500147-0.52487527-0.63866552-0.50733225-0.48758334 0.03013319-0.87800381 0.35400258-0.99822445 0.82656095-0.06884019 0.27055361 0.00332964 0.49145407 0.22978642 0.6575612 0.1763874 0.12937712 0.37304392 0.22048422 0.57658865 0.29773176 0.01271504 0.07214903-0.05208798 0.05404412-0.0816801 0.06124447-0.83823549 0.20383608-1.56867406 0.60863639-2.21002411 1.18018895-0.14479748 0.12904414-0.28164547 0.26730723-0.43000149 0.39200205-0.1329773 0.11175086-0.2497642 0.10513321-0.38342823-0.0058893-0.04517898-0.03754163-0.08500973-0.08159687-0.12698395-0.12294676-0.19867513-0.19569927-0.41901369-0.36195208-0.66811195-0.48841576-0.66151514-0.33585607-1.34082302-0.32166351-2.0229819-0.08272061-0.67327291 0.23582136-1.2904831 0.58412197-1.87277375 0.99293862-1.05890703 0.74344495-1.84443024 1.70568851-2.31126582 2.91892414-0.14604608 0.37957834-0.23596703 0.77905124-0.4239457 1.14462426-0.07400113 0.14390263-0.13127084 0.30283025-0.10765127 0.47771935 0.01679384 0.12440347 0.08346977 0.18231829 0.20375283 0.14831441 0.13811742-0.03901915 0.2350514-0.12740014 0.29710745-0.25579918 0.06507356-0.13466292 0.09191873-0.28181194 0.13828389-0.42259306 0.50828952-1.54332722 1.55421098-2.58679308 3.02049876-3.2314103 0.5885129-0.25873341 1.20049973-0.31827143 1.82245466-0.1217814 0.46394295 0.14656635 0.85523745 0.41626676 1.21438013 0.73828404 0.30122786 0.27007497 0.41164687 0.25844208 0.66940224-0.05092261 0.38704921-0.46452564 0.80325353-0.90008347 1.29331329-1.25833132 0.27072009-0.19790514 0.54510278-0.39331308 0.86907622-0.49757226 0.25546621-0.08220035 0.46094627 0.00826165 0.62736559 0.20558413 0.15305913 0.18148589 0.13580746 0.37402202 0.03227662 0.57053288-0.12798284 0.24289684-0.28347675 0.46712693-0.46207003 0.67533312-0.32588797 0.37993211-0.70515416 0.70542471-1.06883347 1.04681628-0.024889 0.02334907-0.05776916 0.0427858-0.06671756 0.08484325 0.34867518-0.02268314 0.64817579-0.16000975 0.93121554-0.33939381 0.33477395-0.21216015 0.65287891-0.44939662 1.00284429-0.63926902 0.17128888-0.09293842 0.33529419-0.20951725 0.47861416-0.3414332 0.22152474-0.20387768 0.41791075-0.43376814 0.58971988-0.68315776 0.23523868-0.34147483 0.39568545-0.70538308 0.35685359-1.13290816-0.03477387-0.38267906-0.20252502-0.67198268-0.57567299-0.81349214-0.23686189-0.0898169-0.48469072-0.1342675-0.73549547-0.16344343zM1489.65408703 516.7314939c0.00643036-0.06128609 0.04517898-0.06931883 0.07414678-0.08338653 0.74540111-0.36224344 1.47067877-0.76404707 2.21789038-1.1230233 0.58755564-0.28229058 1.18649445-0.53719491 1.80593134-0.73734756 1.22553442-0.39595598 2.45556384-0.77805235 3.68503141-1.16170948 0.15749171-0.04915373 0.28306056-0.12473644 0.38775674-0.25640268 0.31477534-0.39587273 0.63966442-0.78371273 0.96082848-1.17450777 0.03131938-0.03812431 0.07060906-0.08036906 0.03947697-0.12871119-0.03400389-0.0527747-0.09152332-0.06929801-0.15507773-0.04765539-0.01629441 0.00555632-0.03354608 0.00830328-0.05025667 0.01271505-0.42712968 0.11297865-0.85442585 0.22535382-1.28132661 0.33922732-0.30004169 0.08003608-0.60547323 0.14508881-0.89779433 0.24743346-0.39945209 0.13986547-0.79101712 0.30283025-1.17721309 0.47782337-0.66996408 0.30357943-1.34652501 0.59633753-1.98086201 0.96921499-0.95953823 0.56404009-1.93543332 1.10127662-2.85439165 1.73361586-0.38840188 0.2672656-0.81157761 0.47788581-1.26744618 0.61431756-0.19239044 0.05758186-0.3882562 0.09576861-0.5870978 0.1198044-0.0236196 0.00285101-0.06170228 0.02043563-0.07139986-0.01629439-0.00913567-0.03458658 0.03042453-0.04041344 0.05258741-0.05400252 0.03512765-0.02151776 0.07065068-0.04264014 0.10735991-0.06124446 0.56031506-0.28414268 1.12123362-0.5670992 1.68098681-0.85234481 0.0947073-0.04825889 0.19399283-0.08573809 0.28530805-0.14267485 0.97250301-0.6064513 1.90388502-1.27674836 2.88864524-1.86384619 0.46758472-0.27877364 0.95799829-0.51372099 1.45852561-0.72825347 0.66671768-0.28576588 1.36073839-0.49411776 2.04462451-0.73118774 0.41335332-0.14329914 0.81711313-0.31789686 1.24698975-0.40827564 0.31621122-0.06648863 0.62384865-0.1521643 0.91023884-0.3049529 0.53671627-0.28632776 0.92998774-0.7235712 1.27862128-1.20917758 0.32707416-0.45559807 0.61030119-0.94126688 0.95206736-1.38660549 0.09493621-0.12369592 0.19601141-0.24266794 0.30695069-0.37941186-0.10609047 0.03013319-0.19201587 0.05391926-0.27758745 0.07895396-1.02407072 0.29956306-2.00604238 0.70634034-2.96310421 1.17411239-0.86543444 0.42300926-1.73018215 0.84797468-2.56028086 1.33880441a432.99597522 432.99597522 0 0 0-1.07957157 0.64089222c-0.50231698 0.29898036-1.02317588 0.56930508-1.50297619 0.90295526-0.45786637 0.3183963-0.86297885 0.70588252-1.28900559 1.06567034-0.74648326 0.63040387-1.49656667 1.25562598-2.29646975 1.81897934-0.40311468 0.28389295-0.82079654 0.53407339-1.29039986 0.69379179-0.259108 0.08813127-0.40465463 0.2752151-0.43716019 0.5522615-0.02416065 0.20600032 0.01739734 0.40694377 0.02536763 0.61028039 0.00341288 0.08700751 0.0348363 0.11208382 0.11299948 0.1161418 0.51357532 0.02659547 1.02581879 0.01685628 1.52986301-0.09289678 0.81288864-0.17701169 1.61707863-0.39202282 2.43167371-0.56231284 0.83942167-0.17547172 1.68331756-0.32309942 2.53786828-0.39976424 0.47155947-0.04230716 0.87182318-0.22685216 1.21015564-0.55378068 0.3281563-0.31708525 0.57490303-0.701554 0.86701604-1.04846027 0.01933269-0.02295367 0.03190207-0.05418981 0.03983075-0.08365706 0.02166345-0.08045229 0.04707271-0.16739738-0.02214207-0.23448953-0.06657188-0.06453247-0.14612933-0.09705886-0.24635134-0.06482382-0.09497783 0.03054941-0.19486687 0.04576166-0.29261243 0.06771646-0.46475454 0.10444648-0.93377521 0.1931188-1.3933272 0.31687713-0.75668025 0.20379445-1.47669293 0.51166077-2.19443725 0.82248216-0.81838255 0.35439798-1.62846183 0.728857-2.47096341 1.02486152-0.16148727 0.05668702-0.32031085 0.12475724-0.4994868 0.15226834z m-1.33501696-0.86241696h0.49925787c0.17851003-0.00002081 0.30181057-0.1050708 0.33410803-0.28449645 0.0360433-0.20027751-0.00994728-0.39943128-0.00980162-0.59941747 0.00016647-0.2200264-0.07487515-0.30283025-0.28976143-0.35202561-0.07362654-0.01685628-0.15060354-0.02509713-0.22618626-0.02615842-0.27671342-0.00389149-0.55351012-0.00559794-0.83020275-0.00235157-0.07050501 0.0008324-0.08538433-0.02249585-0.08488486-0.08813125 0.00285101-0.37400119 0.00137346-0.7480232 0.00137348-1.12202442 0-0.19355582-0.08642482-0.29265407-0.28139575-0.31336021-0.19355582-0.02053968-0.38827701-0.00751249-0.58081312 0.00761652-0.20729057 0.01629441-0.31454642 0.11801473-0.35741545 0.30468237-0.01537875 0.06700889-0.01956161 0.13674392-0.02651222 0.20548007-0.0303413 0.30060356-0.0201859 0.60222683-0.01850028 0.90347552 0.00035377 0.06419952-0.01787597 0.07870424-0.08120146 0.08186738-0.21985994 0.01096699-0.43888746-0.03092398-0.65891387-0.0034545-0.15095731 0.01885406-0.30455752 0.02020673-0.4540789 0.04607384-0.16922868 0.02930078-0.25536216 0.14490154-0.19318123 0.29627504 0.08500973 0.2069576 0.1705189 0.41622513 0.29868903 0.60268465 0.1442148 0.2097878 0.33173566 0.33288022 0.59939664 0.32561744 0.14015681-0.00380828 0.27960607-0.03924806 0.42265549-0.0067633 0.05406493 0.01227802 0.05799807 0.02846838 0.06744591 0.07524974 0.03774973 0.18693817-0.00755412 0.37189937-0.00412044 0.55783862 0.0048904 0.26549675 0.11108495 0.47574233 0.32185082 0.63148601 0.2187778 0.16165374 0.47875984 0.22649839 0.7352041 0.29810635 0.04769703 0.01331854 0.05922588-0.01841703 0.07346005-0.05088098 0.06051611-0.13805497 0.08958799-0.28279002 0.09970176-0.43285249 0.02176747-0.32341158-0.04474198-0.64757228 0.01342257-0.9714833 0.01179938-0.06571867 0.02351554-0.08598781 0.08958798-0.08446867 0.18019566 0.00414122 0.360537 0.00141509 0.54081591 0.0014151z m4.69297419-9.09672801c0.02389012-0.38324094-0.57808697-1.08356713-1.31272923-0.89065643-0.58127093 0.15264293-0.97997388 0.53007782-1.16843118 1.09380575-0.27203115 0.81365864 0.40960747 1.42812187 1.13484349 1.34800254 0.31825063-0.03514845 0.58747239-0.17959215 0.81986008-0.39014991 0.29877225-0.27067848 0.5069993-0.5927582 0.52645683-1.16100195z" fill="#FEFEFE" /><path d="M297.43028148 787.93568711c10.44935111-1.60441837 19.71177245-5.57420089 29.12832474-8.88134163 49.13379555-17.26266785 96.37675615-39.10071941 144.10395496-59.768832 41.85808592-18.12677215 83.84724385-36.08120889 127.97724445-47.96628385 26.80058311-7.21866903 54.1533677-12.38994489 81.25735822-18.47993838 5.69920475-1.28037925 11.52584059-2.16875615 17.06484623-3.9491508 5.84362667-1.87869867 10.48454637 0.01699082 14.36694755 3.7804563 4.03653215 3.91274192 2.55469037 8.98328652 1.29130192 13.67517866-0.46239289 1.71849955-1.19542518 3.54015763-2.3228871 4.87879111-17.03693275 20.23120592-31.42693925 42.65301333-50.56345127 61.145088-19.73119052 19.06612148-43.07414282 29.82980267-70.57499021 32.29589807-49.83527348 4.47101155-99.05159585 13.08050015-148.00577422 23.31382519-47.50631822 9.93113125-94.404608 22.47156622-141.81262223 32.79348622-29.39532325 6.40068267-59.26881659 6.96866133-89.21998222 5.41764267-4.55717925-0.23544415-6.39097363-1.69908148-6.59000889-6.77326697-0.46482015-11.85716148-2.88843852-23.57718282-1.47941452-35.59090252 1.89568948-16.15583763 10.38381511-27.06758163 25.49471763-32.2073031 27.38676622-9.31460741 51.74674015-23.90486282 75.25474607-40.46119823 46.6494957-32.8541677 90.39356208-69.3164563 133.92767052-106.08093867 24.84542578-20.98244267 48.47115378-43.58022637 75.17343289-62.1487597 27.98265837-19.45812385 58.35738075-35.22195911 87.65197275-52.65938963a25251.86427259 25251.86427259 0 0 1 62.95946428-37.3761517c48.4104723-28.62588208 98.84163792-53.40819911 149.31285334-78.0776486 55.81482667-27.28118045 113.082368-51.00278518 172.80508208-68.4729837 4.99044503-1.45999645 10.00152178-2.84717511 16.18860563-4.60451082-6.46985955 7.9747603-12.3656723 14.91308089-17.90103705 22.12689542-19.93143941 25.9728877-36.44893867 54.29536237-55.52355555 80.86535585-20.33072355 28.32004741-43.26710992 53.81961955-74.5678317 70.51794962-16.70197097 8.91046875-34.64305778 13.90698192-53.08416 17.7845286-25.06994725 5.27200711-48.6155757 15.45314608-72.72311467 23.8101997-39.88472415 13.82688237-80.3592723 25.97774222-119.24032474 42.64209067-29.19021985 12.51130785-57.7906157 26.21318637-85.05965985 42.47096889-57.4301677 34.23891911-111.74737541 73.32992948-168.46271527 108.69752414-5.32540682 3.32049067-11.11563378 5.50623763-16.63886222 8.32064475-32.64420978 16.63522133-65.35638282 33.13815703-98.03336058 49.70784236-2.14084267 1.08619852-4.21372208 2.31681897-6.26111527 3.571712-1.29251555 0.79250015-3.59962548 1.13231645-3.06684207 3.14936889 0.56555141 2.1420563 2.78649363 1.11653925 4.16396326 0.950272 11.59623111-1.40174222 23.01891318-3.62996622 34.23891911-6.98686577 26.58455703-7.95655585 51.26371555-20.2384877 73.9161126-35.82634667 53.59267082-36.87734992 110.50461867-68.20841245 166.46508089-101.10262993 36.99385837-21.7458157 76.45017125-38.82037097 115.52176355-56.52358637 22.52253867-10.20541155 45.35819378-19.71055882 68.65381451-27.86614993 17.04785541-5.96863052 34.86029748-9.76243675 52.35840949-14.43005628 24.89639822-6.64098133 49.81585541-13.19458133 74.72560356-19.7833766 0.97454459-0.25728948 1.97942992-0.41748859 2.93091555-0.7415277 3.70642489-1.26338845 7.06211082-0.29855289 9.043968 2.77921185 1.81680355 2.81926163-0.47452918 5.28292978-2.30225541 7.50629926-18.72994608 22.79075082-37.67713185 45.40916622-56.03449363 68.49604267-6.10577067 7.67863467-13.42881185 12.08775111-22.61356089 14.95313066-71.70123852 22.37447585-143.43524503 44.65671585-214.90710755 67.74966044-36.12489955 11.67147615-71.0531603 26.53843911-105.3199929 43.00132504-43.57537185 20.93511111-85.8727917 44.367872-129.34500503 65.49352296-1.68815882 0.82162725-3.94915082 1.2900883-4.32294874 4.86422756zM649.13893452 261.08450133c14.62545067 1.70150875 29.07856592 4.29382163 42.89088473 9.53184712 21.76037925 8.25268148 31.54466133 25.12456059 33.57263645 47.44199585 2.26463289 24.93402075-7.09245155 46.15676208-20.81132088 66.06999703-10.01972622 14.54413748-21.47274903 27.951104-34.39183645 39.84103349-8.35948089 7.69319822-17.92288237 14.49195141-27.91226785 19.91202133-20.41082311 11.07315675-38.96236563 24.90853452-58.48481185 37.2814886-16.50657659 10.46148741-33.97313422 18.47022933-54.30749867 19.79308562 0.52186075-2.45274548 2.44060918-3.58627555 3.89089659-4.947968 21.20939141-19.90959408 43.32779141-38.89197511 62.33323141-61.04921126 10.41536948-12.14236445 19.48361008-25.2192237 26.9474323-39.38470874 6.03780741-11.46030459 7.04390637-22.68880592-1.88233955-33.27286992-9.70418252-11.50763615-21.68877511-16.78449778-36.58729245-11.98944712-18.89378608 6.08028445-34.89549275 17.47626667-50.6836006 29.01788445-28.57855052 20.89263408-52.85235675 46.29390222-75.42465422 73.38454281-15.03323022 18.04181808-21.47153541 18.72023703-39.0388243 2.96975171-20.94603378-18.77970489-43.76469808-34.50834489-70.82135703-43.05593838-36.27053511-11.45909097-71.96216889-7.98689659-106.28361482 7.1021606-85.5123437 37.59339141-146.50936889 98.4472083-176.15227258 188.45240889-2.70396682 8.21020445-4.26833541 16.79056592-8.0645689 24.64517689-3.61904355 7.48809482-9.27213037 12.64237985-17.32699022 14.9179354-7.01477925 1.98185718-10.90324859-1.39446045-11.88264771-8.64953837-1.37746963-10.19934341 1.96243911-19.46904652 6.27810608-27.86008178 10.96393008-21.3198317 16.20681008-44.61666608 24.72406282-66.75327052 27.22535348-70.75460741 73.03623111-126.87162785 134.79056118-170.22854636 33.95857067-23.84175408 69.95361185-44.15427318 109.21817125-57.90712415 39.78277925-13.93489541 79.39929125-14.76259082 117.97814993 4.82417778 14.52593303 7.37522725 27.37705718 17.07091437 38.96357927 28.4838874 2.44910459 2.41148208 4.77077808 4.980736 7.405568 7.17012385 7.79514311 6.4759277 14.60603259 6.86186192 22.36112592 0.3434572 8.65196563-7.27206875 16.63279408-15.335424 25.07722904-22.86114134 37.40163792-33.33112415 80.00125155-56.93986133 128.88625304-68.82736356 1.72578133-0.41991585 5.50381037 0.63594192 4.7634963-3.571712-0.00970903-0.27549392-0.01941808-0.54977422-0.02548623-0.82405452z" fill="#0EAE82" /><path d="M219.57351348 737.640448c-10.51367348 0-21.03220148 0.15898548-31.53980681-0.08252682-3.85327408-0.08859497-4.53654755 1.0934803-5.22467556 4.92612267-3.39209482 18.89014518 0.48666548 37.79485392-0.78279111 56.655872-0.589824 8.75148325-2.28405097 17.19227733-5.81449955 25.2434963-0.83012267 1.89326222-1.50368711 3.74404741-4.2841126 2.96732444-14.95555792-4.17609955-30.11743289-7.95776948-42.87632118-17.38524444-12.29164089-9.08280415-18.48479289-21.3441043-18.76999585-36.82759112-0.20024889-10.84378075 2.44303645-21.63052089 0.24029866-32.53255585-0.55098785-2.72823941-0.78157748-3.67244325-3.93337363-4.38848473-8.34249008-1.89447585-16.47502222 0.17233541-24.64881777 0.39442963-15.6097043 0.42477037-26.54572089-6.75506252-34.95617423-18.98966283-7.47474489-10.87412148-12.46154903-23.07838103-17.41922607-35.1479277-3.6251117-8.82794192 1.3968877-15.56965452 11.26612385-17.27844503 8.71992889-1.50975525 17.67651555-1.58864118 26.48139852-2.686976 12.83049245-1.60199111 25.60515792 0.84104533 38.42715496 0.20146251 3.69307497-0.1844717 4.75621452-1.03037155 4.73558281-4.77441895-0.098304-17.56850252-0.69055525-35.15885037 1.07891675-52.68973038 0.40413867-4.00861867 0.64807822-8.07549155 1.54616415-11.98337895 2.50007703-10.88747141 8.75391052-16.81847941 20.84408888-17.76875142 11.22850133-0.88352237 22.58443378-1.64204089 33.87240297-0.44418844 11.37170963 1.20756148 16.41069985 6.98686578 16.41069985 18.27483496 0.00121363 21.81256533 0.0861677 43.62513067-0.08009955 65.43526874-0.02912711 3.82778785 0.83740445 5.18826667 4.95039525 5.13972149 16.13641955-0.18932622 32.28012089-0.08980859 48.41654045 0.13714014 4.40911645 0.06189511 8.89833245 0.54249245 13.19094044 1.52553245 12.53193955 2.86780682 16.908288 7.69805275 16.89857897 20.52975881-0.00849541 11.66419437 2.67362608 23.27862992 0.57161955 34.95738785-1.88233955 10.46391467-9.07430875 16.59031703-19.48482371 16.59153067h-29.11618844zM493.26277215 207.12895525c-1.1347437 33.13815703-13.27832178 51.92150282-30.70240237 67.70839705-13.5538157 12.27950459-29.25454222 20.70330785-47.81336653 22.75312829-42.29499259 4.67247408-82.04743111-31.162368-66.18286458-78.61407289 10.99062992-32.87601303 34.24256-54.88761363 68.14166281-63.78958695 42.84476682-11.25034667 77.95021748 29.59193125 76.55697067 51.9421345z" fill="#0EAE82" /><path d="M649.13893452 261.08450133c0.00606815 0.2742803 0.01577718 0.54856059 0.02669985 0.82284089-11.87172503-4.50499318-23.34052503-9.8182637-33.62603615-17.36339911-13.20671763-9.6871917-17.41558518-22.56987022-13.40089837-38.34826903 7.01113837-27.557888 29.78004385-46.44560592 58.21538607-48.20415526 16.54419911-1.02187615 32.30560711 11.49914075 37.24629333 29.58707673 5.68585482 20.81860267-0.43083852 38.87862518-17.5393754 52.04407942-8.99420918 6.92132978-18.98238103 12.14357808-28.98147555 17.38403081-1.31557452 0.69176889-5.62153245 0.71118697-1.94059378 4.07779555z" fill="#0FAE82" /></svg>