<?xml version="1.0" standalone="no"?><!DOCTYPE svg PUBLIC "-//W3C//DTD SVG 1.1//EN" "http://www.w3.org/Graphics/SVG/1.1/DTD/svg11.dtd"><svg class="icon" width="600px" height="600.00px" viewBox="0 0 1024 1024" version="1.1" xmlns="http://www.w3.org/2000/svg"><path d="M733.463016 808.383155l-73.148572-73.057136-78.348978 77.857511s-21.350239 27.430714-53.249874-9.566462L381.835545 666.177759s-61.501948-45.45498-13.372473-106.956927l151.108948-160.435391s14.343978-56.152958-104.465304 0c0 0-131.495987 86.932506-147.87441 110.980099 0 0-92.578661 96.247519-61.833402 196.51821 0 0 1.337247 33.419754 56.152958 76.200239s254.76276 241.516011 254.762761 241.516011zM294.480149 223.423169l73.148572 73.148572 81.629234-85.800989s21.350239-27.373567 53.249875 9.61218l146.902905 137.450738s61.501948 45.45498 13.372474 106.956927L511.697119 625.214559s-14.343978 56.152958 104.465304 0c0 0 131.495987-86.932506 147.87441-110.980099 0 0 92.578661-96.247519 61.833402-196.51821 0 0-1.337247-33.419754-56.152958-76.200239S514.920228 0 514.920228 0zM843.04872 479.363165l73.41145-73.354303 106.488319 109.699999-216.325472 219.617158-73.17143-73.045707 146.331432-146.114272-36.734299-36.802875zM184.78015 553.151786l-73.068565 72.645676L1.051511 516.16604l220.268637-219.594299 73.205719 73.217149-146.320003 146.685745 36.574286 36.677151z" /></svg>