<?xml version="1.0" standalone="no"?><!DOCTYPE svg PUBLIC "-//W3C//DTD SVG 1.1//EN" "http://www.w3.org/Graphics/SVG/1.1/DTD/svg11.dtd"><svg class="icon" width="600px" height="600.00px" viewBox="0 0 1024 1024" version="1.1" xmlns="http://www.w3.org/2000/svg"><path d="M102.396882 0h563.058129a102.365701 102.365701 0 0 1 102.365701 102.365701v153.564143h153.564142a102.365701 102.365701 0 0 1 102.365702 102.365701v563.058129a102.365701 102.365701 0 0 1-102.365702 102.365701H358.326726a102.365701 102.365701 0 0 1-102.365702-102.365701v-153.564143H102.396882a102.365701 102.365701 0 0 1-102.365701-102.365701V102.396882A102.365701 102.365701 0 0 1 102.396882 0z m102.365701 632.964891h51.198441v-274.388721a102.365701 102.365701 0 0 1 102.365702-102.365701h153.564142a60.802046 60.802046 0 0 1 12.472215 1.559026 77.608355 77.608355 0 0 1 48.23629 74.459122 69.532596 69.532596 0 0 1-60.802046 64.107183h-51.198441a102.365701 102.365701 0 0 0-102.365702 102.365701v269.368655a102.365701 102.365701 0 0 0 102.365702 102.365702h358.420267a102.365701 102.365701 0 0 0 102.365701-102.365702v-269.368655a102.365701 102.365701 0 0 0-102.365701-102.365701h-51.198441v269.368655a102.365701 102.365701 0 0 1-102.365701 102.365701h-153.564143c-28.280747 0-51.198441-41.407753-51.198441-69.688499s22.917694-65.292043 51.198441-65.292043h51.198441a102.365701 102.365701 0 0 0 102.365702-102.365702v-274.388721a102.365701 102.365701 0 0 0-102.365702-102.365702H204.762583a102.365701 102.365701 0 0 0-102.365701 102.365702v274.388721a102.365701 102.365701 0 0 0 102.365701 102.365702z" fill="#515151" /></svg>