<?xml version="1.0" standalone="no"?><!DOCTYPE svg PUBLIC "-//W3C//DTD SVG 1.1//EN" "http://www.w3.org/Graphics/SVG/1.1/DTD/svg11.dtd"><svg class="icon" width="600px" height="600.00px" viewBox="0 0 1024 1024" version="1.1" xmlns="http://www.w3.org/2000/svg"><path d="M489.709317 1022.792453a504.58221 504.58221 0 0 1-338.371968-153.185984 509.412399 509.412399 0 0 1-139.212938-346.005391 75.040431 75.040431 0 0 1 0.862534-11.946091 74.867925 74.867925 0 0 1-0.819407-11.816712 503.245283 503.245283 0 0 1 148.743935-355.795148A508.894879 508.894879 0 0 1 511.833306 0a65.768194 65.768194 0 0 1 0 131.450135 372.226415 372.226415 0 0 0-368.38814 368.38814 75.126685 75.126685 0 0 1-0.948787 11.557951 75.126685 75.126685 0 0 1 1.078167 12.204852 371.708895 371.708895 0 0 0 368.38814 368.345014 372.140162 372.140162 0 0 0 368.345013-368.345014 65.638814 65.638814 0 0 1 131.234502 0 425.229111 425.229111 0 0 1-2.199461 43.946092 502.598383 502.598383 0 0 1-166.77089 330.479784 507.644205 507.644205 0 0 1-326.512129 125.498652q-13.153639 0.043127-26.350404-0.733153z m19.320754-237.196766a281.876011 281.876011 0 0 1-274.587601-269.110512A280.32345 280.32345 0 0 1 486.517942 228.571429a67.061995 67.061995 0 0 1 76.938005 51.752021 65.854447 65.854447 0 0 1-51.752021 76.981132 149.175202 149.175202 0 0 0-146.630728 158.145553 156.420485 156.420485 0 0 0 51.752022 103.504043 48.38814 48.38814 0 0 1 13.973045 6.253369 152.409704 152.409704 0 0 0 60.765499 26.867925 199.849057 199.849057 0 0 0 40.495957 1.940701 47.439353 47.439353 0 0 1 5.951482 0l3.105122-0.345014c4.312668-0.6469 6.469003-0.991914 6.900269-0.948787a152.107817 152.107817 0 0 0 100.916442-69.692722 65.552561 65.552561 0 0 1 92.722372-5.304583 67.061995 67.061995 0 0 1 5.304582 92.722372 278.469003 278.469003 0 0 1-227.708894 115.061995q-5.175202 0.38814-10.221025 0.172507z" fill="#d4237a" /></svg>