<?xml version="1.0" standalone="no"?><!DOCTYPE svg PUBLIC "-//W3C//DTD SVG 1.1//EN" "http://www.w3.org/Graphics/SVG/1.1/DTD/svg11.dtd"><svg class="icon" width="600px" height="600.00px" viewBox="0 0 1024 1024" version="1.1" xmlns="http://www.w3.org/2000/svg"><path d="M998.290812 983.687565L795.928787 235.987875a31.993996 31.993996 0 0 0-61.748413 0l-78.38529 289.545665-105.420218-499.906189a31.993996 31.993996 0 0 0-62.708232 0L360.170559 628.074298 288.504008 432.111072a31.993996 31.993996 0 0 0-60.148713 0L26.15324 980.968075a31.993996 31.993996 0 0 0 3.839279 29.274507A31.993996 31.993996 0 0 0 56.227596 1024h911.82889a31.993996 31.993996 0 0 0 25.435227-12.477658 31.993996 31.993996 0 0 0 4.799099-27.834777zM290.743588 960.012008H102.138981l156.290671-423.920449 77.42547 209.720645z m65.427722 0l44.151714-209.880615 118.537756-562.294482 99.981238 474.310993L538.217148 960.012008z m248.43338 0l159.96998-593.168688L925.664441 960.012008z" fill="#707070" /></svg>