<?xml version="1.0" standalone="no"?><!DOCTYPE svg PUBLIC "-//W3C//DTD SVG 1.1//EN" "http://www.w3.org/Graphics/SVG/1.1/DTD/svg11.dtd"><svg class="icon" width="600px" height="347.31px" viewBox="0 0 1769 1024" version="1.1" xmlns="http://www.w3.org/2000/svg"><path d="M1361.123336 432.281534a393.999379 393.999379 0 0 1 99.392106-12.78421c85.276818 0 158.149736 27.99654 218.63338 83.974994 60.498271 55.993081 90.747407 125.472478 90.747407 208.438192 0 89.240801-31.404688 163.561815-94.199436 222.948416C1612.902045 994.260154 1535.977382 1023.953455 1444.952057 1023.953455c-48.972005 0-95.632905-7.810947-139.997329-23.447469-44.364424-15.621894-84.106639-36.509595-119.2559-62.663103-35.149261-26.138881-69.142971-56.270998-101.981128-90.367098a1542.208586 1542.208586 0 0 1-94.199436-107.422462 17203.844786 17203.844786 0 0 1-89.445582-112.966186 1414.65904 1414.65904 0 0 0-93.760618-107.846652c-32.852785-34.0961-66.553949-64.21359-101.118121-90.367099-34.564172-26.138881-73.750552-47.026582-117.529886-62.663103-43.793961-15.621894-89.591855-23.447468-137.408307-23.447468-88.728847 0-161.192202 26.007235-217.36081 78.021707-56.168608 51.999844-84.252911 121.479241-84.252911 208.438192 0 89.226174 29.956591 160.285313 89.884399 213.133537 59.913181 52.862851 135.682293 79.279649 227.278079 79.279649 57.616704 0 117.529886-10.648632 179.768799-31.960523 62.209658-21.311891 117.807804-49.293804 166.779808-83.960367 2.881567-2.28185 8.922617-7.547657 18.13778-15.79742 9.229789-8.235137 17.874489-15.051432 25.934099-20.448884 8.074237-5.412079 14.407833-8.103492 19.015414-8.103492 8.074237 0 15.124568 2.983957 21.180246 8.951872 6.041051 5.967915 9.06889 12.930482 9.06889 20.887701 0 13.647216-17.2894 35.52957-51.853572 65.64706-58.187167 50.025166-125.735768 90.367098-202.660431 121.069678C574.265504 1008.594851 499.227754 1023.953455 426.062292 1023.953455c-76.646746 0-147.354831-16.484901-212.168139-49.440077-64.813307-32.969802-116.666879-79.864739-155.560714-140.684809C19.439604 773.023126 0 704.523753 0 628.374334c0-116.520606 40.766122-213.411454 122.283739-290.716426 81.532244-77.304972 181.626458-115.950144 300.311897-115.950144 69.142971 0 134.380468 12.360019 195.741746 37.080057 61.361278 24.720038 114.794592 56.841461 160.314568 96.349641a1376.394176 1376.394176 0 0 1 130.913812 130.431113 4104.316218 4104.316218 0 0 1 120.133535 142.805759c38.323373 47.743316 76.778391 91.361751 115.379681 130.86993 38.60129 39.493552 81.66389 71.614975 129.187798 96.335013 47.538535 24.720038 97.227275 37.080057 149.080846 37.080057 58.772257 0 107.305444-17.479554 145.614189-52.424033 38.323373-34.959107 57.485059-81.137309 57.48506-138.549232 0-53.989149-18.576597-99.172698-55.744418-135.550648-37.153194-36.37795-83.111987-54.559611-137.847124-54.559611-17.2894 0-40.766122 5.265807-70.430169 15.768166-29.678673 10.516987-49.410822 15.768166-59.196446 15.768167-11.526266 0-21.750708-4.256527-30.687953-12.784209-8.922617-8.527682-13.383926-18.474206-13.383926-29.839573 0-10.239069 2.442749-26.431425 7.342875-48.591697 4.900126-22.160271 7.342875-38.937717 7.342876-50.303083 0-90.367098-30.96587-165.112303-92.897612-224.220986-61.946368-59.094056-138.710132-88.655711-230.320545-88.655711-33.40862 0-65.530042 5.25118-96.34964 15.768166-30.834225 10.516987-55.027683 22.028626-72.595 34.52029a4904.075277 4904.075277 0 0 0-47.977352 34.52029c-14.393206 10.531614-23.900913 15.797421-28.523121 15.797421-8.630073 0-15.972948-2.998585-22.028626-8.966499a29.400756 29.400756 0 0 1-9.06889-21.736081c0-10.794904 7.196603-23.871658 21.604436-39.215634 33.993709-38.089337 76.339574-67.490093 127.037593-88.246149A411.566696 411.566696 0 0 1 980.025184 0.046545c110.040738 0 201.651152 35.661215 274.816615 106.998272 73.165462 71.32243 109.762821 160.987421 109.76282 268.980345 0 21.019346-1.170179 39.786097-3.466656 56.256372z" fill="#B4DBE1" /></svg>