<?xml version="1.0" standalone="no"?><!DOCTYPE svg PUBLIC "-//W3C//DTD SVG 1.1//EN" "http://www.w3.org/Graphics/SVG/1.1/DTD/svg11.dtd"><svg class="icon" width="600px" height="580.72px" viewBox="0 0 1058 1024" version="1.1" xmlns="http://www.w3.org/2000/svg"><path d="M785.285494 549.501082a451.493647 451.493647 0 0 0-444.558086-370.086079 451.948438 451.948438 0 0 0-208.294224 50.879729C196.558699 124.612701 311.791338 53.267382 444.647124 53.267382c202.154547 0 365.992961 163.497322 365.992962 365.08338 0 46.38867-9.550608 90.332839-25.354592 131.15032z" fill="#009DDA" /><path d="M822.976288 568.886543a446.775192 446.775192 0 0 0 63.557026-204.371652c57.928988 109.263509 59.918699 244.563796-8.641027 358.147819-104.203961 172.706837-329.211749 228.532418-502.487075 124.66955a362.809425 362.809425 0 0 1-101.134122-90.844478c200.903872 76.859659 433.984198 2.558199 548.705198-187.601239z" fill="#009DDA" /><path d="M240.104925 796.850472a448.992297 448.992297 0 0 0 149.398805 153.662469c-123.987364-1.819164-244.052156-65.035096-311.133812-179.5287A364.0601 364.0601 0 0 1 209.804483 271.908098a365.08338 365.08338 0 0 1 128.535273-44.796902c-164.122659 138.711219-210.568178 378.158618-98.234831 569.739276z" fill="#009DDA" /></svg>