<?xml version="1.0" standalone="no"?><!DOCTYPE svg PUBLIC "-//W3C//DTD SVG 1.1//EN" "http://www.w3.org/Graphics/SVG/1.1/DTD/svg11.dtd"><svg class="icon" width="600px" height="600.00px" viewBox="0 0 1024 1024" version="1.1" xmlns="http://www.w3.org/2000/svg"><path d="M221.91875028 341.84374986a204.25500014 204.25500014 0 0 0-84.3075007-1.82249944 62.04374958 62.04374958 0 0 0 37.33875042 17.22374916c1.12499986 0.11250028 2.31750028 0.17999986 3.52125014 0.22500056a296.00999958 296.00999958 0 0 1 121.49999958 35.99999944 294.74999958 294.74999958 0 0 1 41.81625 27.7650007 205.59375014 205.59375014 0 0 0-119.82374972-79.40249986z" fill="#F35284" /><path d="M395.12374958 371.25125014c-2.42999958 25.62750028-0.41624986 64.29375028 7.54875056 95.38874986-1.18125-2.69999986-8.91000042-23.34375028-11.25000056-31.22999972S387.23750014 419.74999972 385.70749986 411.87499972c-9.96749972-51.33374958 2.47500028-98.06624986 9.17999972-134.82 5.16374972-28.24875014 19.86749986-63.76500014 6.25500028-111.59999944-3.52125014 3.90374972-6.86250042 7.875-10.06874958 12.0824993a219.29625014 219.29625014 0 0 0-45.15750028 161.69625084 221.76 221.76 0 0 0 7.22250014 35.22374986c1.79999958 6.24374986 3.88124986 12.37500042 6.23249944 18.27a304.71750028 304.71750028 0 0 0-97.87499958-91.73250056c-2.74499958-1.63125014-5.46750028-3.20625014-8.28000042-4.73624944A304.58250014 304.58250014 0 0 0 75.50000042 260a159.15375 159.15375 0 0 0 46.7324993 36.87749986c13.17374986 6.86250042 27.52874972 10.99124972 42.0975007 13.83750014 23.86125 4.65750042 67.11749986 17.07749958 94.25249958 30.10499986 29.71124986 14.25375 44.68500028 27.14625014 66.28500014 47.565 36.3825 34.37999972 64.02375 78.17625014 102.04874958 140.94000014-5.80500014-27.30375014-10.12499972-49.31999986-10.65374986-53.66250028a402.68250028 402.68250028 0 0 1 7.25625042-145.27125014c0.98999972-4.19624986 4.50000042-16.66124972 4.93875014-18.7762493a114.16500014 114.16500014 0 0 0-1.27125042-52.87500028c-17.81999986 34.53749972-28.29374986 72.84375-32.06250042 112.51125014z" fill="#F35284" /><path d="M219.58999958 678.12874972a204.05250042 204.05250042 0 0 0-43.72874986 72.1012507 62.09999972 62.09999972 0 0 0 33.5925007-23.73750028c0.67499972-0.95625042 1.30499972-1.91249986 1.94624916-2.92500042a298.52999958 298.52999958 0 0 1 136.8675-109.51875014 205.38 205.38 0 0 0-128.6775 64.12500084z" fill="#D861BC" /><path d="M331.6625 542.82500028c20.96999986 14.91750028 55.46249986 32.51249958 86.37749958 41.17499958-2.92500042-0.33749986-24.67124986-3.95999986-32.62499986-5.90625s-15.67125-4.17375-23.20875014-6.75000014c-49.44374958-17.03249986-83.68875014-51.16500014-112.16249986-75.37499944-21.91499986-18.60749986-45.32624972-49.10624972-93.54374958-61.22250028 1.61999972 4.98374986 3.37499958 9.88874972 5.41125014 14.74874986a219.53250014 219.53250014 0 0 0 151.58249958 131.31000028q9.45 2.3625 18.93375028 3.74624972a304.79625028 304.79625028 0 0 0-128.38499986 38.89125056c-2.77874986 1.56374958-5.5125 3.12750014-8.24625014 4.80375A304.61625042 304.61625042 0 0 0 75.50000042 764a159.09749986 159.09749986 0 0 0 55.30499986-22.02750014c12.52125-7.97624986 23.28750014-18.34875 33.0299993-29.54249944 15.96375014-18.32625014 48.37499986-49.57874972 73.2037507-66.57750028 27.20250028-18.59625042 45.84375042-25.12125 74.32874958-33.61500056 47.95875-14.31000014 99.70875042-16.35750014 173.08125056-17.9099993-26.55000042-8.62874972-47.77875014-15.88500014-51.80625056-17.6062507a402.82874986 402.82874986 0 0 1-122.17500028-78.9075c-3.13874958-2.95874972-12.18375014-12.22874986-13.79249944-13.66874972a113.98500028 113.98500028 0 0 0-46.39500042-25.32374972c20.96999986 32.68125 48.91500042 60.90750028 81.38250028 84.00375014z" fill="#D861BC" /><path d="M509.64875042 848.28499986a204.19875 204.19875 0 0 0 40.60124972 73.91249972 62.02124972 62.02124972 0 0 0-3.75750014-40.95c-0.48375042-1.12499986-1.00125014-2.09249972-1.56374958-3.15a298.58624972 298.58624972 0 0 1-26.40375084-173.25 205.55999986 205.55999986 0 0 0-8.8537493 143.4825z" fill="#1FC0CC" /><path d="M448.51624958 683.56249972c23.40000042-10.69874958 55.89000014-31.77000028 78.82875-54.2137493-1.74375042 2.3625-15.75 19.38375042-21.43124944 25.32374972s-11.45250028 11.45250028-17.4825 16.71749986c-39.43125014 34.30124972-86.1525 46.90124972-121.33125014 59.45625-26.99999958 9.65249972-65.16000028 14.68125028-99.77625 50.38874958 5.13000042 1.12499986 10.27125028 1.99124986 15.49125014 2.68875042a219.44249972 219.44249972 0 0 0 189.50625028-65.62124986q6.75000014-7.00875 12.7124993-14.53499972a304.71750028 304.71750028 0 0 0-30.5099993 130.63499958v9.54000042A304.59374958 304.59374958 0 0 0 512 1016a158.92875042 158.92875042 0 0 0 8.57249958-58.91625042c-0.64125042-14.82749986-4.2525-29.32875028-9.06749944-43.36874916-7.875-22.995-18.76499986-66.65625028-21.06000028-96.68250014-2.49750014-32.86124986 1.18125-52.26750014 8.05499986-81.18000056 11.58750042-48.70125028 35.69624986-94.5 71.0325-158.83875-20.74500028 18.66375-37.6425 33.42375028-41.1412493 36.00000042a402.59249986 402.59249986 0 0 1-129.37500056 66.37499958c-4.12875028 1.24874958-16.68374958 4.50000042-18.7425 5.11875a114.09749958 114.09749958 0 0 0-45.12375 27.51750028c38.71124972-1.79999958 77.11874986-11.87999958 113.36624972-28.46250028z" fill="#1FC0CC" /><path d="M802.04750042 682.15625014a204.21000042 204.21000042 0 0 0 84.2962493 1.82249944 62.04374958 62.04374958 0 0 0-37.33874944-17.22374916c-1.12499986-0.11250028-2.31750028-0.17999986-3.5100007-0.22500056a298.59750014 298.59750014 0 0 1-163.2824993-63.77624958 205.55999986 205.55999986 0 0 0 119.83500014 79.40249986z" fill="#2BC12F" /><path d="M628.83124972 652.74874986c2.42999958-25.62750028 0.42750028-64.29375028-7.54874958-95.38874986 1.18125 2.69999986 8.91000042 23.34375028 11.24999958 31.22999972s4.18500042 15.65999958 5.7150007 23.53500056c9.96749972 51.33374958-2.46374986 98.06624986-9.1800007 134.82-5.16374972 28.24875014-19.86749986 63.76500014-6.24374986 111.59999944 3.50999972-3.90374972 6.85125-7.875 10.06875056-12.0824993a219.37500014 219.37500014 0 0 0 45.14624986-161.69625084 221.76 221.76 0 0 0-7.22250014-35.22374986c-1.79999958-6.24374986-3.88124986-12.37500042-6.23250042-18.27a304.87500028 304.87500028 0 0 0 97.87500056 91.73250056c2.74499958 1.63125014 5.46750028 3.20625014 8.27999944 4.73624944A304.58250014 304.58250014 0 0 0 948.49999958 764a159.15375 159.15375 0 0 0-46.7324993-36.87749986c-13.17374986-6.86250042-27.52874972-10.99124972-42.0975007-13.83750014-23.84999958-4.65750042-67.10625042-17.07749958-94.25249958-30.10499986-29.71124986-14.25375-44.68500028-27.14625014-66.27374972-47.565-36.39375042-34.37999972-64.08000014-78.17625014-102.09375028-140.94000014 5.79374972 27.30375014 10.12499972 49.31999986 10.64250042 53.66250028a402.92999972 402.92999972 0 0 1-7.245 145.27125014c-0.98999972 4.19624986-4.50000042 16.66124972-4.95000056 18.7762493a114.16500014 114.16500014 0 0 0 1.27125042 52.87500028c17.81999986-34.53749972 28.29374986-72.84375 32.06249944-112.51125014z" fill="#2BC12F" /><path d="M804.36499972 345.87125028a203.88375 203.88375 0 0 0 43.72874986-72.1012507 62.14500042 62.14500042 0 0 0-33.59249972 23.73750028c-0.67499972 0.95625042-1.30499972 1.91249986-1.93499972 2.92500042a298.60874958 298.60874958 0 0 1-136.87875042 109.51875014 205.38 205.38 0 0 0 128.6775-64.12500084z" fill="#FECF41" /><path d="M692.29250028 481.17499972c-20.96999986-14.91750028-55.41750014-32.51249958-86.37750056-41.17499958 2.92500042 0.33749986 24.67124986 3.95999986 32.62499986 5.90625s15.67125 4.17375 23.20875014 6.75000014c49.49999972 17.03249986 83.69999958 51.16500014 112.16249986 75.37499944 21.92625028 18.60749986 45.32624972 49.10624972 93.58875028 61.22250028-1.61999972-4.98374986-3.37499958-9.88874972-5.42249958-14.74874986a219.51000028 219.51000028 0 0 0-151.60500042-131.31000028c-6.3-1.575-12.63375028-2.81250014-18.94499972-3.74624972a304.79625028 304.79625028 0 0 0 128.38499986-38.89125056c2.77874986-1.56374958 5.5125-3.12750014 8.24625014-4.80375A304.61625042 304.61625042 0 0 0 948.49999958 260a159.18750028 159.18750028 0 0 0-55.30499986 22.02750014c-12.52125 7.97624986-23.28750014 18.34875-33.0299993 29.54249944-15.96375014 18.32625014-48.37499986 49.57874972-73.2037507 66.57750028-27.20250028 18.59625042-45.84375042 25.12125-74.31750014 33.61500056-47.97000042 14.31000014-99.71999986 16.35750014-173.0925 17.9099993 26.55000042 8.62874972 47.77875014 15.88500014 51.80625056 17.6062507a402.82874986 402.82874986 0 0 1 122.17500028 78.9075c3.13874958 2.95874972 12.18375014 12.22874986 13.79249944 13.66874972a113.98500028 113.98500028 0 0 0 46.39500042 25.32374972c-20.96999986-32.68125-48.96000014-60.90750028-81.4275-84.00375014z" fill="#FECF41" /><path d="M514.30624986 175.71500014A204.19875 204.19875 0 0 0 473.74999986 101.80250042a62.08875028 62.08875028 0 0 0 3.75750014 40.95c0.48375042 1.12499986 1.00125014 2.09249972 1.56374958 3.15A296.42625042 296.42625042 0 0 1 508.62500042 269.10124972a294.74999958 294.74999958 0 0 1-3.15 50.09625042 205.55999986 205.55999986 0 0 0 8.8537493-143.4825z" fill="#FFB07B" /><path d="M575.43874972 340.43750028c-23.40000042 10.69874958-55.89000014 31.77000028-78.82875 54.2137493 1.74375042-2.3625 15.75-19.38375042 21.43125042-25.32374972s11.45250028-11.48624958 17.4825-16.71749986c39.46500042-34.30124972 86.1525-46.90124972 121.33125014-59.45625 26.99999958-9.65249972 65.16000028-14.68125028 99.77625-50.38874958-5.13000042-1.12499986-10.27125028-1.99124986-15.49125014-2.68875042a219.44249972 219.44249972 0 0 0-189.50625028 65.62124986 192.47625042 192.47625042 0 0 0-12.70124986 14.53499972 304.87500028 304.87500028 0 0 0 30.49874986-130.63499958v-9.54000042A304.59374958 304.59374958 0 0 0 512 8a159.15375 159.15375 0 0 0-8.57249958 58.91625042c0.64125042 14.82749986 4.2525 29.32875028 9.06749944 43.36874916 7.875 22.995 18.76499986 66.65625028 21.06000028 96.68250014 2.49750014 32.86124986-1.12499986 52.26750014-8.05499986 81.18000056-11.58750042 48.70125028-35.68500042 94.5-71.0325 158.83875 20.74500028-18.66375 37.6425-33.42375028 41.15249972-36.00000042a402.42375042 402.42375042 0 0 1 129.37499958-66.37499958c4.13999972-1.24874958 16.68374958-4.44375028 18.7425-5.11875a113.93999958 113.93999958 0 0 0 45.12375-27.51750028c-38.76749986 1.79999958-77.175 11.87999958-113.42249986 28.46250028z" fill="#FFB07B" /></svg>