<?xml version="1.0" standalone="no"?><!DOCTYPE svg PUBLIC "-//W3C//DTD SVG 1.1//EN" "http://www.w3.org/Graphics/SVG/1.1/DTD/svg11.dtd"><svg class="icon" width="600px" height="600.00px" viewBox="0 0 1024 1024" version="1.1" xmlns="http://www.w3.org/2000/svg"><path d="M440.87212026 952.52146931c-203.28330731-30.2261728-359.53331421-211.58320966-359.53331422-430.78278217 0-11.40739747 0.42789409-22.7126921 1.25952102-33.88938472 0 0 124.78769504 101.71725599 376.75586561-50.84693636-1.46840253 1.58297564-135.73446341 147.68588669-18.48207241 515.51910325z" fill="#007EC5" /><path d="M935.60834234 506.71172573c0 240.36280326-187.87443638 435.21838553-419.62635297 435.21838551-20.40175099 0-40.45510677-1.51204917-60.0829077-4.43794257-117.25239099-367.83087862 17.01366989-513.93378969 18.48285173-515.51754464-251.96816929 152.56263373-376.75664492 50.84693637-376.75664493 50.84693767 16.66761263-224.53928786 197.60766705-401.34147109 418.3567009-401.34147239 95.752456 0 184.01403393 33.25494704 254.62516766 89.25688109a430.36657906 430.36657906 0 0 1 14.80716825 12.29825857c76.92276899 66.87855398 130.35967385 161.83289738 145.68592862 269.65290841l-135.77966868-238.53665251-24.70095789-43.38022085c1.53776908 3.2142738 104.29397487 220.99142837-129.78135441 441.30009653-69.86134363 65.74607637-76.29924299 94.08842286-49.74875367 96.82647875 63.08674006 6.47453219 312.40882394-131.60672458 340.01073465-256.18631868a452.20087905 452.20087905 0 0 1 3.21349451 29.6361611 456.88667262 456.88667262 0 0 1 1.29459393 34.36404401z" fill="#56A4DB" /><path d="M782.18056738 165.39548418c1.53776908 3.21349449 104.29397487 220.99142837-129.7813544 441.30087586-235.8321122 221.9500987 251.04379389 17.65044549 290.26198098-159.36061926v-0.02338324c-28.45691958-187.74739299-160.48062788-281.91687335-160.48062658-281.91687336z" fill="#007EC5" /><path d="M483.256426 442.773629l-0.631575-0.631575 0.640606 0.622544z"  /></svg>