<?xml version="1.0" standalone="no"?><!DOCTYPE svg PUBLIC "-//W3C//DTD SVG 1.1//EN" "http://www.w3.org/Graphics/SVG/1.1/DTD/svg11.dtd"><svg class="icon" width="600px" height="600.00px" viewBox="0 0 1024 1024" version="1.1" xmlns="http://www.w3.org/2000/svg"><path d="M845.02138272 297.54218206a428.87822338 428.87822338 0 0 0-22.65808175-0.62019913c-231.93398657 0-419.9352064 188.01701527-419.9352064 419.93603767 0 87.66101987 26.86895584 169.02775717 72.82028261 236.36850026-221.38476865-11.7746534-397.26216049-194.99384886-397.26216049-419.31666982 0-231.9190224 188.00038858-419.91941097 419.91941097-419.91941095 144.2580039-0.00083126 271.51454738 72.73964153 347.11575506 183.55174197z" fill="#70BB45" /><path d="M924.95234934 539.18736944c0 231.91735986-187.9995573 419.91941097-419.91941097 419.91941097-144.2580039 0-271.51454738-72.74130404-347.1149224-183.55091071 7.49976352 0.39739357 15.04691474 0.6185366 22.6572491 0.61853659 231.91819113 0 419.93686894-188.01618401 419.93687032-419.93520641 0-87.66018723-26.88475266-169.04521653-72.82111527-236.3676676 221.3855999 11.77299086 397.26132923 194.99135506 397.26132922 419.31583716z" fill="#02532D" /></svg>