<?xml version="1.0" standalone="no"?><!DOCTYPE svg PUBLIC "-//W3C//DTD SVG 1.1//EN" "http://www.w3.org/Graphics/SVG/1.1/DTD/svg11.dtd"><svg class="icon" width="600px" height="600.00px" viewBox="0 0 1024 1024" version="1.1" xmlns="http://www.w3.org/2000/svg"><path d="M473.2928 231.2192h128.6144v450.3552h-128.6144z" fill="#008738" /><path d="M312.32 391.9872h450.3552v128.6144H312.32z" fill="#008738" /><path d="M518.3488 19.0464c0.6144 34.2016 2.6624 125.5424 2.6624 125.5424s-12.4928 0.8192-21.0944 2.048c-136.8064 18.8416-234.9056 90.112-281.3952 221.7984-51.2 145.408 14.7456 304.5376 152.1664 379.2896 46.6944 25.3952 96.256 40.5504 149.504 42.3936 5.5296 0.2048 15.9744-0.6144 15.9744-0.6144s0.4096 9.6256 0.8192 16.1792c2.8672 62.8736 6.7584 125.5424 11.0592 188.416 0.4096 6.7584 0 15.7696 0 15.7696s-9.0112 0.4096-15.9744-0.6144c-60.6208-8.3968-120.0128-21.0944-178.5856-38.5024-7.9872-2.4576-16.7936-6.7584-16.7936-6.7584s6.3488-8.192 10.6496-13.7216c12.6976-15.9744 24.3712-32.768 37.4784-50.5856-56.5248-19.8656-107.1104-47.3088-151.3472-85.4016-2.8672-2.4576-6.3488-5.12-6.3488-5.12l-66.9696 41.5744L79.872 722.1248 131.2768 692.224s-2.6624-10.24-6.3488-17.2032c-19.6608-38.7072-31.744-79.872-36.4544-122.88-0.6144-5.5296-0.8192-14.9504-0.8192-14.9504S24.3712 532.48 8.192 531.2512c2.2528-36.864 15.5648-157.0816 15.5648-157.0816l76.3904 8.6016s1.024-7.9872 2.8672-12.6976c13.7216-37.6832 32.3584-72.704 55.5008-105.472 2.8672-4.096 9.0112-12.0832 9.0112-12.0832s-7.3728-7.7824-12.0832-12.288c-8.6016-8.192-37.4784-40.1408-37.4784-40.1408l116.5312-107.7248 55.0912 53.6576s8.8064-5.3248 13.7216-8.192c31.3344-18.2272 64.7168-31.9488 99.7376-41.5744 4.7104-1.2288 15.1552-2.8672 15.1552-2.8672l-6.7584-70.2464c-0.4096 0.2048 96.8704-4.096 106.9056-4.096z" fill="#008638" /><path d="M1012.1216 477.5936c0.2048 3.2768 0.6144 16.5888-2.4576 24.576-24.1664 59.1872-50.3808 72.4992-118.784 71.0656-11.8784-0.2048-17.8176 2.048-21.504 14.1312-6.144 20.2752-17.408 38.5024-27.2384 57.1392-2.048 3.6864-4.9152 8.8064-0.6144 11.8784 4.3008 3.2768 8.3968-1.2288 11.0592-4.3008 12.6976-13.9264 29.9008-17.6128 47.104-20.2752 17.2032-2.6624 34.6112-3.072 51.8144-5.5296 16.5888-2.4576 31.1296-11.264 47.7184-18.0224-33.3824 77.6192-84.992 96.8704-145.8176 79.0528-22.528-6.5536-34.816-9.0112-57.344 14.336-5.3248 7.9872-14.1312 13.9264-21.2992 20.6848-3.072 2.8672-7.9872 5.5296-6.3488 10.4448 2.2528 6.3488 8.6016 4.096 12.9024 3.072 20.48-4.5056 40.96-2.8672 61.44-0.8192 14.336 1.4336 27.648 5.7344 41.3696 10.6496 20.8896 7.5776 42.8032 4.9152 64.9216 1.8432-18.0224 41.7792-73.3184 66.56-117.5552 53.248-21.7088-6.5536-40.7552-18.2272-58.7776-31.5392-28.672-20.8896-49.7664-19.8656-75.776 3.8912-2.048 1.8432-4.3008 4.3008-2.8672 5.9392 1.6384 2.2528 5.12 4.096 7.7824 4.3008 11.8784 0.8192 23.3472 3.2768 34.4064 7.5776 17.408 6.7584 31.1296 16.5888 39.936 34.2016 9.6256 19.2512 28.2624 29.0816 47.3088 37.6832 6.7584 3.072 13.9264 5.12 20.8896 7.7824-18.0224 25.8048-84.5824 22.3232-113.4592-7.3728-17.6128-18.2272-31.5392-38.5024-39.3216-62.6688-3.4816-10.8544-9.6256-19.2512-21.0944-15.7696-13.1072 3.8912-32.5632 0.4096-35.0208 21.0944-7.7824 65.3312 5.5296 98.9184 55.7056 125.7472 10.8544 5.7344 22.1184 11.0592 32.9728 16.5888-22.1184 19.8656-61.2352 22.3232-87.8592 5.7344-50.9952-31.744-66.9696-108.7488-32.9728-158.5152 5.7344-8.3968 13.312-12.0832 22.7328-14.336 164.6592-40.1408 267.4688-187.5968 248.6272-355.9424-14.5408-123.904-106.496-232.448-228.7616-268.9024-51.2-15.1552-79.4624-75.1616-59.8016-125.1328 1.4336-3.4816 2.8672-9.4208 2.8672-9.4208s7.168 5.5296 10.0352 7.168c18.432 9.0112 28.8768 24.9856 36.0448 43.4176 6.7584 17.6128 10.6496 35.84 10.8544 54.6816 0.2048 9.216 2.048 15.36 12.0832 17.408 9.4208 2.048 19.0464 8.8064 27.8528-0.4096 6.7584-7.168 5.5296-15.7696 2.048-24.576-8.8064-22.1184-14.336-45.056-12.6976-69.2224 0.4096-6.7584 5.5296-18.432 5.5296-18.432s12.4928 4.096 17.8176 8.6016c26.0096 22.7328 29.2864 52.224 24.1664 83.7632-1.6384 10.4448-3.4816 20.8896-2.4576 31.5392 0.6144 7.7824 2.8672 15.1552 9.4208 19.456 19.0464 12.6976 36.864 27.2384 55.9104 43.6224 8.192-25.3952 4.096-47.104-7.168-67.584-12.0832-22.3232-12.4928-44.8512-4.7104-68.4032 2.2528-6.7584 6.144-16.9984 6.144-16.9984s7.9872 7.3728 13.1072 13.312c19.8656 22.9376 24.1664 49.9712 23.9616 78.4384-0.2048 15.5648-1.4336 31.9488-5.9392 46.08-13.312 28.2624 1.4336 46.4896 18.6368 64.7168 2.8672 3.072 5.9392 7.3728 10.8544 5.5296 5.3248-1.8432 3.4816-7.168 3.4816-11.4688 0-3.072 0.2048-7.168-0.8192-9.216-18.2272-42.1888 5.7344-75.5712 19.8656-111.8208 24.576 21.9136 34.6112 68.8128 21.504 97.8944-7.3728 16.5888-17.6128 31.5392-29.4912 45.2608-7.3728 8.3968-7.3728 15.1552-1.6384 24.576 9.0112 14.9504 16.7936 30.72 21.0944 47.7184 3.6864 14.5408 10.8544 11.0592 17.8176 3.072 8.3968-9.4208 11.264-21.504 9.6256-33.1776-3.4816-24.9856 1.8432-46.2848 18.8416-65.536 8.192-9.4208 12.9024-22.1184 20.0704-35.0208 13.9264 22.7328 20.6848 44.4416 12.0832 69.8368-11.0592 32.9728-29.696 60.2112-57.9584 80.2816-9.6256 6.7584-12.0832 13.312-9.216 24.576 2.8672 11.4688 3.4816 23.3472 5.5296 35.0208 0.6144 3.2768 0.2048 8.192 5.3248 8.6016 3.8912 0.2048 4.7104-3.4816 6.144-6.144 12.9024-24.576 32.3584-41.7792 56.5248-55.0912 16.9984-9.216 28.0576-25.1904 38.912-43.4176 16.384 63.6928-11.6736 99.9424-72.0896 121.0368-26.624 9.216-32.768 14.7456-36.864 47.7184-1.024 9.0112-2.2528 18.2272-4.096 32.1536 24.1664-25.8048 51.8144-33.792 81.92-37.888 16.7936-2.4576 31.1296-14.5408 45.056-25.1904z" fill="#028737" /></svg>