<?xml version="1.0" standalone="no"?><!DOCTYPE svg PUBLIC "-//W3C//DTD SVG 1.1//EN" "http://www.w3.org/Graphics/SVG/1.1/DTD/svg11.dtd"><svg class="icon" width="600px" height="600.00px" viewBox="0 0 1024 1024" version="1.1" xmlns="http://www.w3.org/2000/svg"><path d="M547.490133 638.197333c0-23.650133 7.8912-85.728 36.488533-124.149333 36.471467-49.2608 69.992533-79.797333 150.8416-79.797333 55.2128 0 98.589867 51.221333 98.589867 106.410667 0 55.1744-35.498667 114.286933-73.9456 136.9472 0-65.021867-26.619733-105.422933-98.587733-105.422933-45.354667 0-77.888 32.512-77.888 66.011733 20.701867 0 42.389333 12.810667 42.389333 38.423467-14.784-8.861867-27.605333-14.775467-42.389333-14.775467 0 23.650133 7.8784 51.2384 26.6176 70.9376 3.940267-19.6992 11.831467-35.460267 27.6032-35.460267 18.737067 0 36.4864 20.6848 36.4864 43.3472 0 23.648-13.806933 42.359467-37.472 42.359467-39.4368 0-80.840533-50.248533-84.789333-121.186133l-19.714133 0c0 24.637867 1.9648 44.3392 7.8784 59.112533 3.9552 10.8352 7.893333 20.699733 7.893333 30.549333 0 13.7856-19.709867 63.061333-35.496533 98.523733-15.771733-35.4624-35.485867-84.738133-35.485867-98.523733 0-9.8496 3.940267-19.714133 7.8784-30.549333 5.915733-14.773333 7.893333-34.474667 7.893333-59.112533l-19.722667 0c-3.9424 70.9376-45.354667 121.186133-84.7936 121.186133-23.650133 0-37.461333-18.711467-37.461333-42.359467 0-22.6624 17.749333-43.3472 36.4864-43.3472 15.771733 0 23.652267 15.761067 27.605333 35.460267 18.722133-19.6992 26.615467-47.287467 26.615467-70.9376-14.784 0-27.6032 5.911467-42.389333 14.775467 0-25.6128 21.6896-38.423467 42.389333-38.423467 0-33.499733-32.533333-66.011733-77.885867-66.011733-71.970133 0-98.600533 40.401067-98.600533 105.422933C226.077867 654.948267 190.592 595.835733 190.592 540.661333c0-55.189333 43.377067-106.410667 98.5856-106.410667 80.8512 0 114.372267 30.536533 150.843733 79.797333 28.5952 38.423467 36.488533 100.4992 36.488533 124.149333l15.771733 0c0-56.162133-25.642667-112.322133-51.2704-160.599467-11.831467-22.6624-25.629867-50.250667-25.629867-74.8864 0-29.563733 13.7984-62.075733 33.521067-97.538133 18.724267-34.485333 45.354667-85.7216 63.0912-129.070933 17.7472 43.349333 44.3648 94.587733 63.101867 129.070933 19.7248 35.464533 33.521067 67.9744 33.521067 97.538133 0 24.635733-13.796267 52.221867-25.629867 74.8864-25.642667 48.277333-51.2704 104.437333-51.2704 160.599467L547.490133 638.197333z" /></svg>