<?xml version="1.0" standalone="no"?><!DOCTYPE svg PUBLIC "-//W3C//DTD SVG 1.1//EN" "http://www.w3.org/Graphics/SVG/1.1/DTD/svg11.dtd"><svg class="icon" width="600px" height="600.00px" viewBox="0 0 1024 1024" version="1.1" xmlns="http://www.w3.org/2000/svg"><path d="M459.199036 746.198433C350.099265 721.198486 273.999425 624.898688 273.999425 511.998925s76.09984-209.199561 185.099611-234.199508c14.49997-3.299993 24.799948-16.299966 24.799948-31.199935V31.999933c0-9.199981-3.899992-17.899962-10.799977-23.99995C466.199021 1.899996 456.99904-0.899998 447.89906 0.299999 192.599596 32.499932 0 252.49947 0 511.998925s192.599596 479.498993 447.999059 511.698926c9.099981 1.199997 18.299962-1.599997 25.199947-7.699984 6.899986-6.099987 10.799977-14.799969 10.799978-23.99995V777.398368c0-14.899969-10.299978-27.899941-24.799948-31.199935zM564.798814 277.799417c46.699902 10.799977 88.999813 35.499925 121.399745 70.799851 10.199979 10.999977 26.599944 13.499972 39.599917 5.999987l184.399613-107.399774c7.899983-4.59999 13.499972-12.399974 15.299968-21.299955 1.799996-8.999981-0.299999-18.299962-5.899988-25.599947-82.999826-110.099769-208.299563-182.999616-343.599278-199.99958C566.89881-0.799998 557.698829 1.999996 550.798844 7.999983c-6.899986 6.099987-10.899977 14.799969-10.799978 23.99995v214.599549c0 14.899969 10.299978 27.899941 24.799948 31.199935zM983.597935 312.099345c-3.599992-8.499982-10.599978-14.999969-19.29996-17.999962-8.699982-2.899994-18.299962-1.999996-26.299944 2.599994L753.698418 404.099152c-12.799973 7.499984-18.799961 22.799952-14.49997 36.999922 7.199985 23.299951 10.799977 47.199901 10.799977 70.899851 0 112.899763-76.09984 209.199561-185.099611 234.199508-14.49997 3.299993-24.799948 16.299966-24.799948 31.199935V991.997917c0 8.499982 3.299993 16.699965 9.29998 22.699953 5.999987 5.999987 14.19997 9.39998 22.699953 9.29998 1.299997 0 2.699994-0.1 3.999991-0.299999 255.399464-32.199932 447.999059-252.19947 447.99906-511.698926-0.1-68.699856-13.799971-136.599713-40.499915-199.89958z" fill="#2196F3" /></svg>