<?xml version="1.0" standalone="no"?><!DOCTYPE svg PUBLIC "-//W3C//DTD SVG 1.1//EN" "http://www.w3.org/Graphics/SVG/1.1/DTD/svg11.dtd"><svg class="icon" width="600px" height="600.00px" viewBox="0 0 1024 1024" version="1.1" xmlns="http://www.w3.org/2000/svg"><path d="M47.872 694.5664L369.3952 123.9552a39.4624 39.4624 0 0 1 68.7616 0l56.7808 100.7744-39.8464 70.1056-51.3152-91.072-270.144 479.4624h138.3296l79.5264-0.0768 286.6176 0.0768 39.6672 70.1952H311.744l-79.36 0.0128-9.5616-0.0128-16.5888-0.0384-123.968 0.0256a39.4624 39.4624 0 0 1-34.3808-58.8416z" fill="#515A70" /><path d="M830.9376 919.36H193.024a39.4624 39.4624 0 0 1-34.3168-58.9568l56.9472-100.2752 78.8992-0.0384-51.1232 90.0352h537.1392l-68.8128-121.1776-39.6928-69.248-142.4384-251.2256 39.68-69.2736 172.1088 303.0656-0.192 0.1152 54.592 95.8336 69.44 122.176a39.4624 39.4624 0 0 1-34.304 58.9696z" fill="#515A70" /><path d="M370.0992 651.9168l-79.104-0.1664 4.9024-8.7424L475.136 323.6608l38.016-67.5456 74.048-131.8784a39.4624 39.4624 0 0 1 68.8256 0l320.256 570.5856a39.4624 39.4624 0 0 1-34.4064 58.7776h-113.9072l-39.7568-70.2208h102.592l-269.184-479.5904-68.9152 122.7904-39.5776 70.6048-143.0272 254.7328z" fill="#0F69DC" /></svg>