<?xml version="1.0" standalone="no"?><!DOCTYPE svg PUBLIC "-//W3C//DTD SVG 1.1//EN" "http://www.w3.org/Graphics/SVG/1.1/DTD/svg11.dtd"><svg class="icon" width="600px" height="563.67px" viewBox="0 0 1090 1024" version="1.1" xmlns="http://www.w3.org/2000/svg"><path d="M715.78767 331.626868L593.979458 40.326345c-1.446966-2.893932-3.420101-6.577117-5.919405-10.918015a99.446013 99.446013 0 0 0-9.273735-13.154234A53.27465 53.27465 0 0 0 565.171685 4.941454 36.503001 36.503001 0 0 0 545.900731 0.074387a42.948576 42.948576 0 0 0-32.885586 12.496523 86.686405 86.686405 0 0 0-18.481699 29.925883l-124.965228 291.366294-335.432979 30.386282A43.672059 43.672059 0 0 0 12.36498 374.97007a37.884195 37.884195 0 0 0-11.970353 24.072249 43.343203 43.343203 0 0 0 7.103287 29.925884 126.280651 126.280651 0 0 0 22.296427 26.637325c0.723483 0.723483 4.669753 4.143584 11.904582 10.326074s16.508564 14.272344 27.755435 23.874935 23.874936 20.652148 38.015738 32.885587L150.418671 559.129353c0.723483 0.591941 238.223187-69.980527 246.970753-74.387196a69.980527 69.980527 0 0 1 39.462703-62.482614A67.349681 67.349681 0 0 1 466.975324 414.893172a70.046299 70.046299 0 0 1 69.454359 69.388587 67.941621 67.941621 0 0 1-8.550253 32.885586c3.485872 4.012042 133.449709 145.617376 134.699361 146.99857a54.524302 54.524302 0 0 1 20.454835-4.012041h2.893932c2.433533-5.656321 174.490921-311.36073 176.003657-314.912374l-146.143545-13.680404z" fill="#AEC9FF" /><path d="M1082.1331 376.219722a75.373764 75.373764 0 0 0-30.452052-13.154234l-138.119463-13.154235c-0.986568 2.038906-182.778088 326.816956-186.000875 331.420939v0.59194a55.642412 55.642412 0 0 1 11.838811 34.135239 56.168581 56.168581 0 0 1-112.337163 0 55.247785 55.247785 0 0 1 3.288559-18.679013c-0.526169-1.052339-134.962446-145.880461-137.724835-148.971706a68.599333 68.599333 0 0 1-25.650758 5.06438 69.651672 69.651672 0 0 1-54.392759-26.703096L193.959188 596.092752s46.039821 39.462703 71.690578 61.69336l-36.963399 152.194493q-7.629456 29.399714-14.666972 57.615547c-4.669753 18.876326-8.879108 36.108374-12.496523 51.696141s-6.905973 28.939316-9.799904 40.186187-4.669753 18.350157-5.393236 21.244089a28.873545 28.873545 0 0 0 2.170448 19.007868 40.712356 40.712356 0 0 0 13.548862 15.785082 46.631761 46.631761 0 0 0 20.652148 8.089854 36.897628 36.897628 0 0 0 22.296427-3.748957 233.158806 233.158806 0 0 0 21.244089-10.918014q15.71931-8.681795 37.489568-21.704487t48.341812-28.281605q26.308469-15.193141 53.86659-30.452052 63.074554-35.779518 140.22414-81.556254l283.736838 165.282956c3.617414 1.446966 8.879108 3.420101 15.785081 5.985177a51.03843 51.03843 0 0 0 15.719311 3.814728 60.377936 60.377936 0 0 0 29.399714-7.103287q13.154234-6.971744 9.799904-28.807773c-0.723483-2.893932-2.23622-9.931447-4.406668-21.178318s-4.867067-24.795732-8.155625-40.778127-6.577117-33.67484-10.326075-53.274649-7.563685-39.462703-11.904582-58.667886q-14.206573-69.651672-32.885586-155.483052l225.003181-202.246355c9.471049-10.852243 17.232047-20.125979 23.414537-27.689664a40.97544 40.97544 0 0 0 9.207965-26.308469 30.188968 30.188968 0 0 0-8.681795-23.940707z" fill="#3366FF" /><path d="M151.273697 558.011243h-0.52617z"  /></svg>