<?xml version="1.0" standalone="no"?><!DOCTYPE svg PUBLIC "-//W3C//DTD SVG 1.1//EN" "http://www.w3.org/Graphics/SVG/1.1/DTD/svg11.dtd"><svg class="icon" width="600px" height="507.77px" viewBox="0 0 1210 1024" version="1.1" xmlns="http://www.w3.org/2000/svg"><path d="M605.090909 0L0 330.053818l605.090909 330.007273L1100.148364 390.050909v380.090182H1210.181818V330.053818L605.090909 0.046545zM145.826909 330.053818L605.090909 79.499636l459.217455 250.507637-459.170909 250.554182-459.310546-250.507637z" fill="#0085CA" /><path d="M920.343273 677.608727v60.974546L605.090909 910.615273 289.885091 738.583273v-60.974546L571.671273 831.441455c10.379636 5.725091 21.876364 8.517818 33.466182 8.517818 11.496727 0 22.993455-2.792727 33.419636-8.517818l281.786182-153.786182zM220.066909 559.988364v220.020363L605.090909 990.161455l385.024-210.152728V559.988364L605.090909 770.094545 220.066909 559.988364z" fill="#0085CA" /></svg>