<?xml version="1.0" standalone="no"?><!DOCTYPE svg PUBLIC "-//W3C//DTD SVG 1.1//EN" "http://www.w3.org/Graphics/SVG/1.1/DTD/svg11.dtd"><svg class="icon" width="600px" height="600.00px" viewBox="0 0 1024 1024" version="1.1" xmlns="http://www.w3.org/2000/svg"><path d="M870.22089 537.331334c-49.127436 0-92.113943 30.192904-112.071964 74.202899l-170.410795-62.432784c2.046977-7.164418 2.046977-16.375812 2.046976-23.028485 0-16.375812-2.046977-30.192904-9.211394-46.056972l62.944528-64.991504c17.911044 18.422789 42.474763 27.634183 69.597201 27.634183 56.291854 0 100.813593-46.056972 100.813593-104.395802 0-57.827086-45.033483-104.395802-100.813593-104.395803-56.291854 0-100.813593 46.056972-100.813593 104.395803 0 13.817091 2.046977 25.587206 6.652674 36.845577L556.009995 440.09995c-22.516742-25.587206-53.733133-41.451274-89.555222-41.451274-4.605697 0-11.258371 0-15.864068 2.55872l-35.822089-194.462768c35.822089-16.375812 62.944528-53.221389 62.944527-97.231385C477.201399 51.174413 432.167916 5.117441 376.387806 5.117441s-100.813593 46.056972-100.813593 104.395802c0 55.78011 42.474763 99.278361 94.160919 104.395802l35.822089 201.627187c-29.169415 16.375812-49.63918 44.009995-58.33883 76.249875H250.498751C239.24038 438.564718 194.206897 399.16042 140.473763 399.16042c-62.944528 0-112.071964 50.662669-112.071964 115.654173s49.63918 115.654173 112.071964 115.654173c53.733133 0 98.766617-39.404298 110.024988-92.625688h94.160919c2.046977 30.192904 15.864068 57.827086 33.775113 78.808596L304.231884 690.854573c-19.958021-9.211394-40.427786-13.817091-62.944528-13.817092-92.113943 0-168.363818 78.808596-168.363818 173.48126s76.249875 173.481259 168.363818 173.481259 168.363818-79.32034 168.363818-173.993003c0-53.221389-24.563718-101.837081-60.385807-132.029986l71.644178-74.202898c13.305347 7.164418 29.169415 9.211394 45.033483 9.211394 45.033483 0 82.902549-25.587206 105.419291-60.385807l177.575212 64.991504v9.211395c0 69.597201 56.291854 127.424288 123.330335 127.424288 67.550225 0 123.330335-57.827086 123.330335-127.424288-2.046977-71.644178-58.338831-129.471264-125.377311-129.471265z" /></svg>