<?xml version="1.0" standalone="no"?><!DOCTYPE svg PUBLIC "-//W3C//DTD SVG 1.1//EN" "http://www.w3.org/Graphics/SVG/1.1/DTD/svg11.dtd"><svg class="icon" width="600px" height="600.00px" viewBox="0 0 1024 1024" version="1.1" xmlns="http://www.w3.org/2000/svg"><path d="M291.84 704c7.68-5.12 15.872-10.24 16.896-84.992l1.536-127.488c1.024-76.8-6.144-80.896-15.872-82.944-8.704-2.048-16.896-7.168-75.776 27.648l-110.592 65.024c-68.096 39.936-69.632 49.152-68.096 58.88 1.024 8.192 2.048 16.896 47.616 44.544l-79.872 132.608c-8.704 14.848-8.192 40.448 1.536 57.344l61.952 108.544c9.728 16.896 25.088 18.944 33.792 4.608l131.072-218.112c41.984 23.04 48.64 18.944 55.808 14.336zM457.216 780.8h-202.752c-17.408 0-39.424 13.824-49.152 30.72l-61.952 108.544c-9.728 16.896-3.584 31.232 13.312 31.232h202.752c17.408 0 39.424-13.824 49.152-30.72l61.952-108.544c10.24-17.408 4.096-31.232-13.312-31.232z" fill="#4D82B8" /><path d="M713.728 518.656l103.936 173.056c8.704 14.848 32.256 26.112 51.712 26.112l125.44-2.56c19.968-0.512 28.672-12.8 19.968-27.136L911.36 514.56c-8.704-14.848-32.256-26.112-51.712-26.112l-125.44 2.56c-19.968 0.512-29.184 12.8-20.48 27.648zM1004.544 753.664h-255.488c-2.56-47.104-9.216-50.688-16.896-54.272-8.192-4.096-16.896-8.192-81.92 29.184l-111.616 64c-67.072 38.4-66.56 46.592-63.488 55.808 3.072 8.192 2.048 17.92 62.464 50.688 35.84 19.456 76.8 41.472 113.152 60.928 69.632 37.376 78.336 33.792 86.016 28.16 6.656-5.12 13.824-10.752 14.336-63.488h155.648c17.408 0 39.424-13.824 49.152-30.72l61.952-108.544c10.24-17.92 4.096-31.744-13.312-31.744z" fill="#FFCE59" /><path d="M335.872 427.52c10.24 16.896 25.6 18.432 33.792 3.584l99.328-175.616c8.192-14.848 7.168-40.448-3.072-57.344l-65.024-106.496c-10.24-16.896-25.6-18.432-33.792-3.584l-99.328 175.616c-8.192 14.848-7.168 40.448 3.072 57.344l65.024 106.496zM557.056 283.136c-39.936 25.6-39.936 33.28-38.912 41.472 1.024 9.216 1.536 18.944 66.56 55.808l111.104 64c67.072 38.4 74.24 33.792 80.384 26.624 6.144-6.656 14.336-10.752 12.8-78.848l-3.584-127.488c-2.048-78.336-9.216-84.48-18.432-88.064-7.68-3.072-16.384-6.656-62.464 19.456l-77.824-133.632c-8.704-14.848-31.744-26.624-51.712-26.624l-125.44 1.024c-19.968 0-29.184 12.288-20.48 27.136l128 219.136z" fill="#4EB778" /></svg>