<?xml version="1.0" standalone="no"?><!DOCTYPE svg PUBLIC "-//W3C//DTD SVG 1.1//EN" "http://www.w3.org/Graphics/SVG/1.1/DTD/svg11.dtd"><svg class="icon" width="600px" height="600.00px" viewBox="0 0 1024 1024" version="1.1" xmlns="http://www.w3.org/2000/svg"><path d="M164.269019 535.144432h128.705623c-6.209482-62.094818 13.54796-124.189636 55.320838-170.4785s101.045204-72.820287 163.70452-72.820287h1.128997l25.402425-59.836825H292.974642L164.269019 535.144432z m96.529217-351.682469l24.837927-58.14333c-28.224917 16.370452-54.191841 36.127894-77.900772 58.14333h53.062845zM64.352811 535.144432h46.853363l128.705623-303.135612H162.575524C93.706725 317.812569 58.707828 425.631753 64.352811 535.144432z m499.016539-237.089305c107.254686 25.966924 179.510474 127.012128 167.656008 237.089305h60.401323L897.55237 284.507166c-10.725469-18.063947-23.144432-35.563396-36.127894-52.498346h-270.394708l-27.660418 66.046307z m89.190738-211.122382l-41.208379 97.093716h204.9129a426.8172 426.8172 0 0 0-163.704521-97.093716zM959.647189 535.144432c3.38699-66.046307-7.902977-132.092613-33.305403-193.622933l-82.416758 193.622933H959.647189z m-274.346197 374.262404l-8.467475 19.757442c14.676957-5.644983 28.789416-12.418964 42.337376-19.757442h-33.869901z m-615.303197-326.280044c1.693495 11.289967 3.951488 23.144432 6.77398 34.434399l14.676957-34.434399h-21.450937z m884.568908 0h-130.963616L705.622933 860.29548h87.497243c86.368247-68.868798 143.947078-167.656009 161.446527-277.168688z m-321.764057 326.280044H304.264609c63.788313 33.305402 135.479603 50.804851 207.735391 50.804851 34.998897 0 69.997795-3.951488 104.432194-12.418964l16.370452-38.385887zM313.296582 183.461963H558.853363l46.853362-110.077178c-84.674752-18.063947-173.300992-11.289967-254.024255 19.757442l-38.385888 90.319736z m457.808159 399.664829h-50.804851a221.283352 221.283352 0 0 1-135.479603 136.608599c-63.788313 22.015436-134.350606 14.112459-191.36494-22.015435l-69.433296 163.140022h329.102536l117.980154-277.733186z m-467.404631 0H143.947078l-44.030871 103.867695c28.789416 67.739802 73.949283 127.576626 130.963617 173.300993h41.208379l82.981257-194.75193c-23.144432-23.144432-40.643881-51.36935-51.36935-82.416758z m0 0" fill="#E61F19" /></svg>