<?xml version="1.0" standalone="no"?><!DOCTYPE svg PUBLIC "-//W3C//DTD SVG 1.1//EN" "http://www.w3.org/Graphics/SVG/1.1/DTD/svg11.dtd"><svg class="icon" width="600px" height="600.00px" viewBox="0 0 1024 1024" version="1.1" xmlns="http://www.w3.org/2000/svg"><path d="M744.076636 604.971461c-36.780695-21.639856-76.197426-44.470841-127.806851-74.028017-3.504824-2.00568-7.489578-2.835581-11.342326-3.63683-1.415232-0.293689-2.75167-0.573051-4.059456-0.904603a7.314593 7.314593 0 0 0-1.796925-0.239453c-1.324158 0-4.514827 0.496304-5.541203 5.096065-3.362584 15.0733-10.850116 28.480658-22.254863 39.848566-2.396583 2.38635-2.628874 4.927219-0.707105 7.773034 3.37998 4.990664 7.664563 8.882298 13.098319 11.896958 34.274618 19.013029 74.797543 41.515532 115.478058 64.249303 3.196809 1.788739 6.125511 4.199649 8.571213 6.324032 7.085372 6.151094 11.224646 14.611789 14.338566 22.076808 7.625678 18.274202 9.417487 32.454156 5.81238 45.979194-6.638187 24.892947-23.77038 41.142026-50.918694 48.298006-6.430456 1.694595-12.992919 2.520403-20.064988 2.520403-10.612709 0-22.103414-1.879813-36.159547-5.916756-24.054859-6.91141-47.864124-18.096147-77.199243-36.262902-1.11745-0.691755-2.614547-1.487887-4.276397-1.487887-2.464121 0-4.130064 1.678222-5.304819 3.139504-17.135262 21.317515-35.731806 38.101783-56.853869 51.310619-16.603143 10.382465-33.913391 15.647375-51.452859 15.648398-20.696368 0.001023-41.505299-7.475252-60.176545-21.618366-11.67183-8.841366-21.410636-20.452821-28.941145-34.508955-8.689916-16.213263-16.83441-33.098839-24.710799-49.427736l-3.482311-7.215332c-0.773619-1.598404-2.38328-4.926196-6.218631-4.926196-1.090844 0-2.302439 0.274246-3.814886 0.861623a108.74368 108.74368 0 0 1-39.520085 7.405667c-3.422959 0-6.92062-0.159636-10.393721-0.472767-2.549056-0.232291-5.076622-0.765433-8.006348-1.38351-1.453095-0.306992-2.968611-0.626263-4.576225-0.927116h-0.002047c-2.302439-0.430812-4.086062 1.985214-2.997264 4.059456l0.001024 0.001023c1.725294 3.284813 3.402493 6.503111 5.054109 9.673314 3.547803 6.809079 6.898107 13.241582 10.400884 19.705807 21.092387 38.902008 39.751353 66.975391 60.499909 91.025133 22.135136 25.663496 44.648896 41.130769 70.851675 48.67663 16.588817 4.77884 30.608112 7.004531 44.118823 7.004531 7.078209 0 14.078647-0.648776 20.808932-1.928933 16.21224-3.082198 32.367175-9.574053 49.386803-19.847023 14.475689-8.732895 28.971845-17.945721 42.99114-26.854625l7.241938-4.599761c0.639566-0.405229 1.139963-0.610914 1.486864-0.610914 0.350994 0 0.836041 0.201591 1.481748 0.617054 6.664793 4.284583 13.837146 8.822946 21.139459 12.993942 25.566282 14.602579 51.695383 22.007223 77.663824 22.007223h0.002047c9.069563 0 18.281365-0.905626 27.37958-2.691295 58.180074-11.423167 99.691513-47.964408 123.384122-108.607581 9.4093-24.081465 9.030677-51.906184-1.064239-78.347392-9.976212-26.131147-28.284183-48.060599-51.548026-61.748343z" fill="#066bbd" /><path d="M881.622292 423.214884c-9.868765-22.319331-26.697035-40.774659-50.01716-54.852282-14.813381-8.943696-30.231535-17.383926-45.14213-25.545816a3910.07959 3910.07959 0 0 1-14.227026-7.813966c-1.623987-0.89744-1.940189-1.493004-1.874697-3.540639 0.107447-3.39533 0.273223-6.868431 0.434905-10.225899 0.463558-9.679453 0.943488-19.689435 0.093121-29.513174-5.000897-57.96211-34.215266-100.666724-86.831624-126.927831-19.466354-9.714246-41.73145-14.69877-68.069305-15.239076-3.885494-0.079818-7.389294-0.145309-10.92277-0.14531-6.844895 0-15.845896 0.216941-24.752754 1.904373-52.313459 9.910721-93.947695 59.896158-94.785783 113.796766-0.544399 35.054377-1.252527 70.696132-1.937119 105.165178-0.237407 11.926634-0.473791 23.854291-0.706081 35.781948l-0.002047 0.093121c-0.12996 6.716982-0.26299 13.662161 2.554172 20.46203 0.763386 1.846044 2.208295 4.299933 5.925967 4.299933 0.525979 0 1.11438-0.046049 1.796925-0.141216 1.027399-0.14224 2.056845-0.290619 3.088338-0.437975 5.450129-0.781806 11.087523-1.590218 16.501836-1.590218 0.86367 0 1.716084 0.020466 2.53166 0.061398 6.17463 0.308015 12.343119 1.3743 18.874883 2.503007 2.90619 0.502443 5.91164 1.022283 8.986675 1.483794l1.779529 0.268107 0.984421-1.506307c3.451612-5.28333 5.269004-12.033058 5.2557-19.517519-0.024559-13.489222-0.016373-26.978445-0.008186-40.468691 0.017396-28.106128 0.034792-57.168024-0.255827-85.758175-0.147356-14.299681 3.972475-26.66736 12.595876-37.810141 8.747221-11.305487 18.272155-19.638269 29.118178-25.475208 7.336082-3.949962 15.603373-5.952572 24.570605-5.952572 19.834744 0 38.727023 9.894348 48.651047 19.699667 12.372795 12.222369 20.761859 27.892257 26.403346 49.316196 8.203846 31.169907 8.274454 62.71946 7.260358 89.471754a69.230758 69.230758 0 0 0-0.020466 3.231601c0.005117 0.493234 0.00921 0.9967 0.009209 1.514493v2.345418l4.073782 0.727571c1.188058 0.209778 2.340301 0.414439 3.489475 0.629333 27.747971 5.198395 51.27071 13.450337 71.912843 25.227568 16.878412 9.631358 29.570479 22.001083 37.722136 36.766368 8.018627 14.521738 11.892865 31.80231 11.514241 51.360762-0.344854 17.773805-5.868661 35.303041-16.414854 52.098565-8.013511 12.764722-16.803711 25.37697-25.305339 37.57478-3.699252 5.308913-7.52437 10.797927-11.237949 16.23066-0.567935 0.826831-1.143033 1.6465-1.763157 2.531659l-0.933255 1.334392a2.803859 2.803859 0 0 0 0.475838 3.737114c20.264533 17.306154 32.209586 34.847669 37.593199 55.202253 0.600681 2.27174 3.562129 2.840698 4.962012 0.953721 0.309038-0.417509 0.596588-0.791016 0.863671-1.13894 0.537236-0.699941 1.045819-1.362021 1.506306-2.079358a2566.011924 2566.011924 0 0 1 7.598049-11.695366c5.967922-9.152451 12.139481-18.614963 17.934464-28.115338 18.450211-30.248931 32.386618-58.730613 42.605354-87.071078 13.589506-37.683251 12.089339-75.772754-4.460592-113.211435z" fill="#066bbd" /><path d="M259.121596 674.540933c20.394493 0 40.107463-4.956895 57.002248-14.332426 13.382798-7.429203 27.007097-14.94948 40.184211-22.223141l38.743396-21.385053c16.362666-9.029654 32.726356-18.059308 49.082882-27.099195 5.881964-3.251044 9.963932-7.085372 12.844539-12.06785l1.13587-1.963724-1.683338-1.520633c-13.839193-12.497639-22.442128-27.721365-26.303063-46.538943l-0.472767-2.303462-2.350535 0.064468c-5.91778 0.161682-11.474332 1.786693-16.986883 4.967128l-21.48022 12.411681c-30.458709 17.603937-61.95505 35.80753-93.033883 53.526078-3.462868 1.973958-8.773827 4.468778-14.400988 5.13802a98.493222 98.493222 0 0 1-11.614526 0.706081c-18.534122 0.001023-35.360346-5.703909-50.00795-16.956183-5.834892-4.484128-10.351766-10.093892-13.420661-16.672728-9.231245-19.795858-10.393721-38.451754-3.552919-57.036018 5.913687-16.080234 16.569374-30.695093 33.531697-45.995567 17.84953-16.095583 38.897915-30.049387 68.245314-45.24446 4.044106-2.092661 5.107321-4.798283 3.555989-9.049097-10.534937-28.819372-15.305591-54.962799-14.58416-79.922261 0.684592-23.664979 7.265474-42.49279 20.117177-57.558927 19.038612-22.322401 42.565445-34.401508 71.923076-36.929074 5.058203-0.435928 10.224876-0.647753 15.797801-0.647753 15.014972 0 30.2827 1.603521 45.049009 3.15383l1.200338 0.125867c4.331655 0.454348 8.661264 0.913812 13.027711 1.37737l7.315616 0.774643a2.802836 2.802836 0 0 0 3.050476-2.27481v-0.001023c4.851495-26.109658 14.107299-45.261856 29.129434-60.272735l0.00307-0.00307c1.703805-1.702782 0.607844-4.619204-1.795902-4.779863l-5.426593-0.361228c-3.77907-0.255827-7.372921-0.49835-10.966773-0.716314-18.828834-1.144056-35.260062-1.699712-50.233078-1.699712-27.677363 0-52.271504 1.890047-75.188446 5.778611-33.253358 5.643534-57.966203 16.754592-77.769224 34.965349-18.788925 17.275455-30.343075 32.917714-37.465287 50.717102-6.5246 16.307408-9.66615 34.722826-9.602705 56.30026 0.049119 16.714683 0.530073 33.689287 0.99363 50.104142l0.217964 7.751544c0.058328 2.172479-0.308015 2.824325-2.068101 3.669576a406.547273 406.547273 0 0 0-21.419846 11.101849c-31.943526 17.751293-54.724369 42.240033-67.711148 72.783677-18.11866 42.620703-17.293875 85.908602 2.449795 128.661311 6.925736 14.995529 15.424294 32.158421 28.665877 46.061059 21.430078 22.506597 52.875255 35.415604 86.271876 35.415604 0.001023 0-0.001023 0 0 0z" fill="#066bbd" /><path d="M507.966127 432.766424a74.472132 74.472132 0 0 0-1.517563-0.021489c-0.748037 0-1.36509 0.026606-1.944282 0.081864-20.714787 2.007727-39.533388 11.926634-52.990888 27.929097-13.45443 15.998369-20.025079 36.264948-18.501376 57.06467 1.363044 18.626219 9.318226 36.262902 22.397103 49.659003 13.08604 13.405311 30.532387 21.771863 49.117674 23.558555 0.249687 0.024559 0.514723 0.036839 0.788969 0.036839 1.866511 0 4.343935-0.586354 5.691629-2.223644 8.538467-10.296507 17.945721-22.864754 22.976294-38.012756 1.450025-4.360308 1.954515-8.956999 2.442632-13.401218 0.084934-0.775666 0.169869-1.550309 0.25992-2.320858 0.243547-2.088568-0.207731-3.791349-1.338485-5.061272-1.174756-1.319042-2.934842-1.987261-5.236258-1.987261-0.186242 0-0.376577 0.004093-0.574074 0.013303-10.178827 0.450255-20.561291 0.6191-30.600949 0.782829l-0.260943 0.004093c-0.424672 0.00614-0.859577 0.042979-1.296529 0.081865-0.320295 0.028653-0.642636 0.061398-0.958838 0.061398-0.257873 0-0.360204-0.027629-0.369413-0.027629h-0.001024c-0.029676-0.024559-0.12689-0.1361-0.24764-0.385786-8.478092-17.501606-10.382465-34.42709-5.823635-51.742455 3.795443-14.409175 11.026124-27.284413 22.106483-39.36352l4.254908-4.697998h-6.376221c-0.738827-0.001023-1.39579-0.01535-1.997494-0.02763z" fill="#d81e06" /><path d="M491.340471 487.345484c-0.209778 1.656733-0.426719 3.370771-0.687662 5.094018a2.802836 2.802836 0 0 0 2.771114 3.223415h30.921243c3.367701 0 5.592368 0 6.393617 0.537235 0.804319 0.539282 1.683339 2.619664 3.013637 5.768377l0.079818 0.188289c8.042163 19.030425 7.362688 38.626739-2.077312 59.909461-2.529613 5.698792-5.646604 11.059893-8.945743 16.73515-1.479701 2.545986-3.010567 5.177929-4.473894 7.831362-1.059122 1.917676 0.391926 4.253884 2.579755 4.155646h0.001023c0.13917-0.00614 0.306992-0.007163 0.494257-0.008186 0.655939-0.005117 1.554402-0.01228 2.49482-0.161682 19.898189-3.148713 36.44812-12.382005 49.189306-27.444049 21.598924-25.524327 24.88476-61.975517 8.176216-90.703815-12.653181-21.7647-31.699979-34.848693-56.608275-38.889729a7.623631 7.623631 0 0 0-1.225921-0.095167c-0.765433 0-3.403516 0.12996-5.187139 1.795902-12.69002 11.790534-21.139459 25.719778-25.115004 41.399899-0.886183 3.490497-1.327228 6.974855-1.793856 10.663874z" fill="#d81e06" /></svg>