<?xml version="1.0" standalone="no"?><!DOCTYPE svg PUBLIC "-//W3C//DTD SVG 1.1//EN" "http://www.w3.org/Graphics/SVG/1.1/DTD/svg11.dtd"><svg class="icon" width="600px" height="600.00px" viewBox="0 0 1024 1024" version="1.1" xmlns="http://www.w3.org/2000/svg"><path d="M447.99454 0.264637c-255.388887 32.191608-447.99454 252.220926-447.99454 511.737763s192.605653 479.546156 447.99454 511.737763a31.935611 31.935611 0 0 0 35.999561-31.743613v-214.621384c0-14.911818-10.303874-27.839661-24.831697-31.19962-109.054671-24.991695-185.181743-121.310522-185.181743-234.173146s76.127072-209.181451 185.149743-234.173146a31.99961 31.99961 0 0 0 24.831698-31.19962V32.00825a31.871612 31.871612 0 0 0-35.967562-31.743613z m-27.999659 221.981294c-124.894478 39.871514-210.01344 155.582104-210.01344 289.756469s85.118963 249.884955 210.01344 289.756469v152.478141C214.653384 911.005537 63.99922 727.00778 63.99922 512.0024s150.654164-399.003137 355.995661-442.202611v152.446142zM564.825116 277.829254a236.797114 236.797114 0 0 1 121.406521 70.815137 32.03161 32.03161 0 0 0 39.615517 5.951927l184.381753-107.358691a31.903611 31.903611 0 0 0 9.439885-46.943428c-83.102987-110.078658-208.38146-183.00577-343.675812-200.029562a32.223607 32.223607 0 0 0-25.151693 7.743905 31.871612 31.871612 0 0 0-10.847868 23.999708v214.621384c0 14.911818 10.303874 27.839661 24.831697 31.19962z m39.167523-207.965465a450.554509 450.554509 0 0 1 241.597055 140.958282l-130.654407 76.095072a300.476338 300.476338 0 0 0-110.942648-64.639212v-152.414142zM983.636012 312.068837a32.063609 32.063609 0 0 0-45.599444-15.327814l-184.317754 107.326692a31.99961 31.99961 0 0 0-14.495823 37.023549c7.167913 23.327716 10.783869 47.199425 10.783868 70.879136 0 112.862624-76.127072 209.181451-185.149743 234.173146a31.99961 31.99961 0 0 0-24.831698 31.19962V991.99655a31.871612 31.871612 0 0 0 31.99961 31.99961c1.343984 0 2.655968-0.095999 3.999952-0.255997 255.388887-32.191608 447.99454-252.220926 447.99454-511.737763a515.833713 515.833713 0 0 0-40.383508-199.933563z m-379.643373 642.136174v-152.478142c124.862478-39.839514 210.01344-155.550104 210.01344-289.756469 0-21.663736-2.367971-43.359472-7.103913-64.83121l130.526409-75.999073c15.007817 45.631444 22.559725 92.830869 22.559725 140.830283 0 215.037379-150.654164 399.035137-355.995661 442.234611z" /></svg>