<?xml version="1.0" standalone="no"?><!DOCTYPE svg PUBLIC "-//W3C//DTD SVG 1.1//EN" "http://www.w3.org/Graphics/SVG/1.1/DTD/svg11.dtd"><svg class="icon" width="600px" height="600.00px" viewBox="0 0 1024 1024" version="1.1" xmlns="http://www.w3.org/2000/svg"><path d="M975.173818 167.796364C847.872 29.277091 626.967273-2.56 439.808 30.952727 295.470545 56.925091 116.410182 133.538909 33.698909 249.530182c0.046545 0 252.369455-58.181818 450.420364 177.896727 0 0 142.522182-284.485818 491.054545-259.584" fill="#486EAA" /><path d="M987.973818 170.728727v-0.046545l-0.046545 0.046545c-1.070545 3.537455-91.694545 302.731636-447.069091 347.368728 95.045818 184.971636 51.106909 373.387636-28.858182 490.402909 189.207273-30.952727 342.714182-199.540364 422.725818-375.528728 59.904-131.863273 100.165818-334.429091 53.248-462.196363" fill="#486EAA" /><path d="M475.648 430.219636A486.493091 486.493091 0 0 0 301.381818 299.752727c57.530182 25.879273 117.946182 66.746182 174.266182 130.466909M33.605818 263.773091l-0.930909 2.513454C-58.88 576.698182 232.634182 947.525818 512 1008.500364c-0.139636-0.139636-167.005091-199.819636-73.355636-479.418182-220.16-13.963636-364.311273-179.386182-405.038546-265.309091" fill="#486EAA" /></svg>