<?xml version="1.0" standalone="no"?><!DOCTYPE svg PUBLIC "-//W3C//DTD SVG 1.1//EN" "http://www.w3.org/Graphics/SVG/1.1/DTD/svg11.dtd"><svg class="icon" width="600px" height="600.00px" viewBox="0 0 1024 1024" version="1.1" xmlns="http://www.w3.org/2000/svg"><path d="M602.078 190.211c11.497 33.609 38.264 59.407 69.542 71.13l0.183 0.08c18.838 6.923 39.153 8.867 58.86 4.201 52.494-12.061 80.28-65.777 61.774-119.67-18.302-53.905-75.834-87.718-128.478-75.438-52.581 12.168-80.365 65.81-61.881 119.697z" fill="#153456" /><path d="M861.637 137.985c-1.295-10.116-2.571-16.373-2.571-16.373l6.162 76.984c0.151 6.306 0.074 12.779-0.182 19.326-2.421 46.826-14.873 99.756-50.695 134.436-22.353 17.835-56.963 27.624-109.212 6.847-0.942-0.091-1.618-0.482-2.443-0.836-7.564-3.209-15.516-6.681-23.875-11.225-0.566-0.385-1.167-0.498-1.929-0.808-44.585-23.559-102.02-77.494-116.026-89.699-72.595-63.269-136.332-90.127-189.052-104.615 290.54 141.61 388.157 567.572 219.485 803.794C816.623 779.289 987.954 456.142 860.193 125.72c-0.001 0.001 0.716 4.683 1.444 12.265z" fill="#153456" /><path d="M288.994 442.068c20.883 17.369 48.894 24.822 74.387 21.881h0.171c15.28-1.854 29.639-7.329 40.965-16.759 30.379-24.822 27.84-67.738-5.635-95.593-33.39-27.87-85.092-30.207-115.459-5.148-30.413 24.94-27.927 67.829 5.571 95.619z" fill="#E04542" /><path d="M436.234 316.612s2.305 2.694 5.765 7.221c-4.821-5.941-8.133-9.445-8.133-9.445l34.333 46.361c2.551 3.921 5.015 8.042 7.457 12.242 16.728 30.239 29.167 67.63 18.827 101.245-7.929 18.564-27.228 36.106-70.293 40.241-0.664 0.247-1.274 0.23-1.991 0.27-6.301 0.477-12.956 0.898-20.339 0.803-0.536-0.043-0.976 0.096-1.597 0.112-39.068-0.124-98.604-15.157-112.759-18.206-73.325-15.907-126.452-11.829-167.396-3.61 249.778-6.537 459.104 258.082 439.036 462.159 81.359-185.187 92.117-473.641-122.91-639.393z" fill="#E04542" /><path d="M258.4 707.008l0.085-0.053c8.347-5.6 14.82-12.944 18.098-21.548 8.917-22.846-7.972-45.767-37.621-51.028-29.639-5.337-60.875 8.947-69.726 31.9-8.904 22.925 7.94 45.846 37.59 51.085 18.539 3.301 37.634-1.033 51.574-10.356z" fill="#19A49C" /><path d="M248.34 603.802s2.292 0.794 5.947 2.24c-4.941-1.821-8.134-2.754-8.134-2.754l36.797 15.237c2.937 1.397 5.862 2.92 8.787 4.512 20.69 11.653 41.436 28.509 47.427 50.201 1.993 12.618-3.045 28.106-26.864 43.35-0.301 0.327-0.666 0.515-1.082 0.751-3.547 2.163-7.287 4.403-11.68 6.584-0.333 0.107-0.515 0.311-0.869 0.526-23.005 11.688-63.415 21.317-72.821 23.905-48.82 13.319-78.587 31.557-99.686 48.44 144.434-78.835 342.66 37.845 404.11 156.456-18.654-126.656-96.052-322.744-281.932-349.448z" fill="#19A49C" /></svg>