<?xml version="1.0" standalone="no"?><!DOCTYPE svg PUBLIC "-//W3C//DTD SVG 1.1//EN" "http://www.w3.org/Graphics/SVG/1.1/DTD/svg11.dtd"><svg class="icon" width="600px" height="600.00px" viewBox="0 0 1024 1024" version="1.1" xmlns="http://www.w3.org/2000/svg"><path d="M806.4 512s-6.4 0-6.4-6.4v-12.8c51.2-32 76.8-64 76.8-83.2-6.4-19.2-44.8-38.4-147.2-32-6.4 0-6.4-6.4-6.4-6.4 0-6.4 6.4-6.4 6.4-6.4 57.6 0 153.6 0 166.4 44.8 6.4 25.6-25.6 64-89.6 102.4z" fill="#FDD000" /><path d="M435.2 652.8h57.6l12.8-12.8c-25.6 6.4-44.8 12.8-70.4 12.8z" fill="#17A09A" /><path d="M512 243.2C364.8 243.2 243.2 364.8 243.2 512c0 38.4 6.4 76.8 25.6 115.2h38.4c-19.2-32-25.6-64-32-96H384c0 25.6 6.4 51.2 12.8 76.8h19.2c-12.8-19.2-12.8-44.8-19.2-76.8h102.4v12.8l19.2 6.4v-19.2h108.8c0 38.4-6.4 76.8-19.2 102.4h-44.8l-6.4 19.2h57.6c-19.2 51.2-44.8 83.2-76.8 89.6h-6.4v-57.6h-12.8v64c-32-6.4-64-38.4-83.2-89.6h-19.2c12.8 32 32 64 51.2 83.2-44.8-12.8-89.6-38.4-121.6-70.4h-38.4c51.2 64 128 108.8 217.6 108.8 147.2 0 268.8-121.6 268.8-268.8S659.2 243.2 512 243.2zM384 512s0 6.4 0 0l-108.8 6.4V512c0-38.4 6.4-70.4 25.6-102.4h96C384 441.6 384 473.6 384 512zM307.2 396.8c32-57.6 83.2-96 147.2-115.2-25.6 25.6-44.8 64-57.6 115.2H307.2z m198.4 121.6H396.8V512c0-38.4 6.4-70.4 12.8-102.4h96v108.8z m0-121.6H416c19.2-64 51.2-115.2 89.6-121.6v121.6z m211.2 0H633.6c-12.8-51.2-32-89.6-57.6-108.8 64 12.8 115.2 51.2 140.8 108.8zM518.4 275.2h6.4c38.4 6.4 70.4 51.2 89.6 121.6H518.4V275.2z m0 243.2V409.6h102.4c6.4 32 12.8 64 12.8 102.4v6.4H518.4z m57.6 217.6c19.2-19.2 38.4-44.8 51.2-83.2h70.4c-25.6 44.8-70.4 70.4-121.6 83.2z m134.4-96H633.6c6.4-32 12.8-64 19.2-102.4h96c-6.4 32-19.2 70.4-38.4 102.4z m-57.6-121.6s0-6.4 0 0c0-44.8-6.4-76.8-12.8-108.8h89.6c12.8 32 25.6 64 25.6 102.4v6.4h-102.4z" fill="#17A09A" /><path d="M268.8 652.8c-57.6 0-121.6-6.4-134.4-44.8-12.8-32 19.2-64 83.2-102.4h12.8v12.8c-57.6 32-83.2 64-76.8 83.2 0 25.6 44.8 38.4 115.2 38.4 76.8 0 172.8-12.8 268.8-38.4 6.4 0 6.4 0 12.8 6.4 0 6.4 0 6.4-6.4 12.8-102.4 19.2-198.4 32-275.2 32z" fill="#FDD000" /><path d="M518.4 672c-6.4-6.4-6.4-6.4-6.4-12.8l32-57.6-57.6-32c-6.4 0-6.4-6.4-6.4-12.8s6.4-6.4 12.8-6.4l70.4 38.4-38.4 70.4c0 12.8 0 12.8-6.4 12.8z" fill="#FDD000" /></svg>