<?xml version="1.0" standalone="no"?><!DOCTYPE svg PUBLIC "-//W3C//DTD SVG 1.1//EN" "http://www.w3.org/Graphics/SVG/1.1/DTD/svg11.dtd"><svg class="icon" width="600px" height="600.00px" viewBox="0 0 1024 1024" version="1.1" xmlns="http://www.w3.org/2000/svg"><path d="M437.26848 779.22304c-147.346773 0-267.219627-119.876267-267.219627-267.22304s119.872853-267.219627 267.219627-267.219627c108.008107 0 201.035093 64.529067 243.12832 156.95872h26.804907c-43.59168-106.318507-148.09088-181.46304-269.929814-181.46304-160.866987 0-291.723947 130.870613-291.723946 291.723947 0 160.83968 130.85696 291.723947 291.723946 291.723947 121.838933 0 226.331307-75.134293 269.929814-181.466454h-26.804907c-42.089813 92.433067-135.120213 156.965547-243.12832 156.965547z"  /><path d="M267.946667 604.16l136.533333-166.4L555.52 512l136.321707-66.56 65.580373 34.97984 175.271253-129.69984-179.2 223.573333-68.266666-46.08L546.133333 600.746667l-104.492373-55.59296-65.32096 100.819626z"  /></svg>