<?xml version="1.0" standalone="no"?><!DOCTYPE svg PUBLIC "-//W3C//DTD SVG 1.1//EN" "http://www.w3.org/Graphics/SVG/1.1/DTD/svg11.dtd"><svg class="icon" width="600px" height="600.00px" viewBox="0 0 1024 1024" version="1.1" xmlns="http://www.w3.org/2000/svg"><path d="M786.159 856.064l27.307-131.072-81.92-16.384c49.152-54.613 76.459-120.149 76.459-196.608 0-32.768-5.461-60.075-16.384-92.843l10.923 5.461-54.613-196.608 76.459-21.845c87.381 76.459 136.533 185.685 136.533 305.835 0 141.995-65.536 267.605-174.763 344.064v0 0zM676.932 266.24c-43.691-27.307-98.304-43.691-152.917-43.691-141.995 0-262.144 98.304-289.451 234.837l-76.459 76.459-70.997-70.997c21.845-218.453 207.531-387.755 436.907-387.755 81.92 0 158.379 21.845 229.376 65.536l-98.304 27.307 21.845 98.304zM240.026 577.536c27.307 131.072 147.456 223.915 283.989 223.915 38.229 0 76.459-5.461 114.688-21.845l76.459 16.384-27.307 120.149c-54.613 21.845-109.227 32.768-163.84 32.768-212.992 0-393.216-152.917-431.445-354.987l65.536 65.536 81.92-81.92zM240.026 577.536z" /></svg>