<?xml version="1.0" standalone="no"?><!DOCTYPE svg PUBLIC "-//W3C//DTD SVG 1.1//EN" "http://www.w3.org/Graphics/SVG/1.1/DTD/svg11.dtd"><svg class="icon" width="600px" height="600.00px" viewBox="0 0 1024 1024" version="1.1" xmlns="http://www.w3.org/2000/svg"><path d="M808 327.6c-55.9-91.5-138.4-140.3-161-152.4-0.2-2.9-0.6-5.8-1.3-8.7l-5.5-23.7c-6.1-26.3-29.1-44.6-56.1-44.6-4.3 0-8.7 0.5-12.9 1.5l-126.7 29.2c-15 3.4-27.7 12.5-35.8 25.6-8.2 13-10.8 28.5-7.3 43.4l5.5 23.7c2.3 10.1 7.2 19 13.8 26.2-10.7 34.9-33 105.9-58.3 174.7-0.5 1.3-49.3 125.8-143.4 207l-6.4 5.7c-49.9 44.9-101.5 91.3-69.1 159.4l1.1 2c9.4 14.9 38.2 50.2 98.9 50.2 28.8 0 64.8-8 109.2-29.9 17.5-8.6 36.5-22.4 55.1-38.7-15.1 43.5-17.6 85.8 22.8 121.5l1.8 1.4c9.9 6.8 31.5 18.8 61.8 18.8 30.6 0 70.1-12.2 115.2-54.3 7.2 21.9 21.9 40.8 48.5 54.7l2.1 0.9c7.9 3 21.6 6.9 39.1 6.9 40.2 0 100-21.1 152-123.8C918.3 671.6 883 450.6 808 327.6zM453.2 166.3l126.7-29.2c1.4-0.3 2.9-0.5 4.3-0.5 8.7 0 16.7 6 18.7 14.9l5.5 23.7c2.4 10.3-4.1 20.6-14.4 23l-126.7 29.2c-1.4 0.3-2.9 0.5-4.3 0.5-8.7 0-16.7-6-18.7-14.9l-5.5-23.7c-2.4-10.3 4.1-20.7 14.4-23z m242.6 681.1c-19.6-5-38.4-4.2-51.5 1-6.2-24.4-0.6-57.4 8.1-101.5l1.7-8.8c30.5-140.5-9.7-284.8-11.5-291.1-26.5-88-58.2-175.7-68.9-204.8l21.8-5c56.4 63.7 263 327.4 105.7 611.8-1.7-0.6-3.5-1.2-5.4-1.6z m-217-9.1c-16.2-1.6-30.7 0.9-40.5 6.5-7.8-26.4 6.3-59.5 28.4-106.9l3.6-7.7c7.4-15.1 13.8-30.5 19.4-45.9 2.4-3.8 4.7-7.5 6.8-11.2l-2.4-1.4c35.4-105.9 32.5-208.5 32.3-213.8-4.2-83.6-12.9-168.1-16.4-201l26.1-6c5.5 14.9 22 60 40.5 115.3 14.7 271.8-74.8 435-97.8 472.1zM238.2 663.7l6.1-5.5C345.3 571.1 396 441.7 398.2 436c24.1-65.6 45.5-133.1 57-170.3 2.5 0.3 5.1 0.5 7.7 0.5 3.1 0 6.3-0.3 9.4-0.8 2.3 21.1 6 58.3 9.6 101.8-8.4 54.5-55.8 284.8-262.4 387.8-1-1.2-2.1-2.4-3.1-3.5-11.4-12.3-24.5-20.9-36.5-25 10.5-18.9 31.1-38.3 58.3-62.8z m97.6 118.9c-36.6 18-69.2 26.7-95.9 26 2.1-10.4-1.2-24.2-9.1-37.9 163.1-82.7 229.8-241.2 256-336.2 0.5 8.3 1 16.6 1.4 24.9 0 1.2 2.9 105.5-33.2 208.1-30.3 45.9-82.8 97.2-119.2 115.1z m205.6 86c-8.1-10.9-23.4-20.8-42.4-26.4 26.9-44.5 97.8-183.8 98.4-411.8 2.8 9.1 5.7 18.2 8.4 27.3 0.4 1.4 39.2 141.4 10.7 272.7l-1.8 9.1c-5.1 26-10.3 52.4-11.2 77.2-20.9 23.6-41.9 41-62.1 51.9z m275.4-81.4c-21.9 43.3-47 73.7-73.1 89.9-4.9-7.7-13.5-15-24.5-20.8C875.6 570.9 680.9 307 615.5 230.8c8.3-4.2 15.4-10.3 20.7-17.7 26.7 15.6 93.5 59.8 139 134.4 69.7 114.3 103.1 318.2 41.6 439.7z" fill="#f4ea2a" /></svg>