<?xml version="1.0" standalone="no"?><!DOCTYPE svg PUBLIC "-//W3C//DTD SVG 1.1//EN" "http://www.w3.org/Graphics/SVG/1.1/DTD/svg11.dtd"><svg class="icon" width="600px" height="581.27px" viewBox="0 0 1057 1024" version="1.1" xmlns="http://www.w3.org/2000/svg"><path d="M326.480846 984.643711a211.741756 27.440306 0 1 0 423.483512 0 211.741756 27.440306 0 1 0-423.483512 0Z" fill="#EFEFEF" /><path d="M538.222602 1023.962938a1231.606466 1231.606466 0 0 1-151.218657-8.137061c-60.285521-7.780693-72.40202-17.818381-72.40202-31.182166s11.87892-23.342079 72.40202-31.182166a1244.257516 1244.257516 0 0 1 151.218657-8.13706 1244.257516 1244.257516 0 0 1 151.218656 8.13706c60.285521 7.840087 72.40202 17.818381 72.40202 31.182166s-11.87892 23.401473-72.40202 31.182166a1231.606466 1231.606466 0 0 1-151.218656 8.137061z m-190.062726-39.319227c26.786965 7.602509 94.674996 15.561386 190.062726 15.561386s163.275761-7.958877 190.062726-15.561386c-26.786965-7.602509-94.674996-15.561386-190.062726-15.561385s-163.275761 7.958877-190.062726 15.561385zM352.852049 207.227766a45.080503 45.080503 0 0 0-37.29981 4.217017 54.583639 54.583639 0 0 0-23.757841 29.697301 53.989693 53.989693 0 0 0 1.187892 38.012545 45.139897 45.139897 0 0 0 27.262123 25.717863 43.120481 43.120481 0 0 0 13.898337 2.256995 46.684157 46.684157 0 0 0 23.460867-6.592801 54.702428 54.702428 0 0 0 23.757841-29.697301 58.860051 58.860051 0 0 0 2.435179-13.660759 48.109628 48.109628 0 0 0-30.944588-49.95086z m-0.77213 53.930299a23.757841 23.757841 0 0 1-9.859504 12.829234 14.551677 14.551677 0 0 1-11.87892 1.544259 14.314099 14.314099 0 0 1-8.612217-8.374638 24.173603 24.173603 0 0 1 9.68132-28.984566 14.789256 14.789256 0 0 1 7.899482-2.375784 11.463158 11.463158 0 0 1 4.098227 0.712735 17.224435 17.224435 0 0 1 10.156477 18.471721 20.312954 20.312954 0 0 1-1.484865 6.177039zM588.054673 816.556988a52.445434 52.445434 0 0 1-39.259832 20.431743 66.997111 66.997111 0 0 1-24.411181 4.751568 57.375185 57.375185 0 0 1-27.024544-6.652195c-43.833216-22.629343-59.869759-95.387731-61.532808-103.643581a15.383202 15.383202 0 0 1 30.113063-6.236433c3.801255 18.412327 19.422035 69.075922 45.615055 82.499102a30.410036 30.410036 0 0 0 27.974857 0l3.504282-1.54426h3.860649a21.500846 21.500846 0 0 0 16.749278-8.493428c6.414617-8.731006 13.720153-32.726426-8.909191-94.556206a15.264413 15.264413 0 0 1 9.146769-19.719008 15.501991 15.501991 0 0 1 19.837797 9.146769c21.144478 57.969132 22.629343 99.664142 4.335806 124.015929z" fill="#231815" /><path d="M64.372467 276.06611a25.242706 25.242706 0 0 1-1.187892 5.93946 20.966294 20.966294 0 0 1-17.937169 15.323807 12.532261 12.532261 0 0 1-3.920044-0.593946c-8.434033-2.910335-12.413472-14.19531-8.90919-24.767549a22.926316 22.926316 0 0 1 9.800109-13.007417 15.442597 15.442597 0 0 1 7.899482-2.256995 14.729861 14.729861 0 0 1 4.098228 0.65334 17.224435 17.224435 0 0 1 10.156476 18.7093z" fill="#EA5514" /><path d="M276.233013 803.846543c-45.258687 22.985711-64.561932 26.193019-71.986258 26.193019a13.007418 13.007418 0 0 1-3.979438-0.415762c-3.801255-8.25585 11.581947-41.576221 33.201582-73.886885a422.29562 422.29562 0 0 0 42.764114 48.109628z" fill="#7D6144" /><path d="M1015.458229 625.484553a394.320762 394.320762 0 0 1-55.771532-0.415762c2.256995-7.602509 4.217017-15.205018 5.939461-22.866922a382.79821 382.79821 0 0 1 49.832071 23.282684z" fill="#B97028" /><path d="M1003.876281 768.44736c-14.314099 2.256995-57.553369-8.90919-100.970823-26.07423a419.266495 419.266495 0 0 0 31.182166-52.445434c55.177585 50.129044 67.412873 71.451706 69.788657 78.519664z" fill="#7D6144" /><path d="M511.673215 136.310611c-20.431743 1.841233-42.46714 4.929752-65.868614 9.324953-9.68132 2.078811-26.252414 2.256995-30.944587-2.850941-2.375784-2.553968-2.256995-8.731006 0-17.046251v-0.772129a132.271779 132.271779 0 0 1 56.721844-73.17415c10.572239 3.207309 34.151896 12.354077 43.595638 32.073085 6.949168 13.898337 5.642487 31.479139-3.504281 52.445433zM611.337357 139.814893a285.985008 285.985008 0 0 0-66.046798-5.345514c7.602509-23.757841 6.949168-45.318081-2.1976-64.14617a84.340335 84.340335 0 0 0-32.370058-34.567659c32.904609-8.077666 72.045652-5.93946 117.007366 5.939461 3.860649 21.619635 10.631634 77.56935-16.39291 98.119882zM754.537742 184.30145c-8.968585 13.066812-27.024544 19.956586-53.989693 20.669321a84.28094 84.28094 0 0 0-10.691028-19.422034 106.197548 106.197548 0 0 0-45.615055-35.636762c20.253559-28.39062 19.540824-70.620182 16.214727-97.822909a119.38315 119.38315 0 0 1 11.10679 4.692173 274.700034 274.700034 0 0 1 83.152443 63.611619c4.929752 12.413472 13.185602 44.367768-0.178184 63.908592zM783.93807 323.344213c-1.069103 2.494573-2.1976 4.810963-3.326098 7.305536-44.070795 9.324953-81.251815-17.818381-98.773223-33.736134a87.25067 87.25067 0 0 0 16.749278-22.688738 82.677286 82.677286 0 0 0 8.434034-38.72528c34.389475-1.960022 59.394602-13.304391 73.174149-33.914318a72.639598 72.639598 0 0 0 9.740715-22.33237c14.135915 38.428307 16.511699 86.003384-5.998855 144.091304zM561.980443 415.762214a175.511049 175.511049 0 0 1-53.455142-34.448869 80.301502 80.301502 0 0 1-26.608782-53.870904 72.520809 72.520809 0 0 1 4.692174-29.697301A28.806382 28.806382 0 0 1 508.406512 279.154629a32.370058 32.370058 0 0 1 6.058249-0.831524 29.340933 29.340933 0 0 1 21.263268 9.146768 115.819474 115.819474 0 0 0 31.419744 23.757841c-6.236433 22.926316-16.214726 69.907447-5.16733 104.5345zM760.477202 363.613753a146.348299 146.348299 0 0 1-52.326644 41.576222 207.881107 207.881107 0 0 1-93.902866 21.441451 23.757841 23.757841 0 0 1-18.709299-10.45345c-13.066812-19.719008-7.305536-64.14617 0.890919-95.031363a116.235236 116.235236 0 0 0 22.866922 1.722443 99.129591 99.129591 0 0 0 36.468285-7.899482c16.452305 16.214726 54.702428 48.169022 104.712683 48.644179z" fill="#B89670" /><path d="M831.513146 233.539575a255.396788 255.396788 0 0 1-18.946878 100.970823 179.846855 179.846855 0 0 1-91.230108 98.47625 239.716614 239.716614 0 0 1-101.624164 24.351787c-2.1976 0-4.335806 0-6.474012-0.296973v0.415762a48.465995 48.465995 0 0 1-5.345514-0.712735 192.616694 192.616694 0 0 1-120.452253-52.742406 111.067906 111.067906 0 0 1-36.52768-74.777804 102.396294 102.396294 0 0 1 6.592801-42.58593 60.701283 60.701283 0 0 1 100.436272-20.550532 78.994821 78.994821 0 0 0 60.582494 25.717862 58.563078 58.563078 0 0 0 52.326644-31.24156 54.346061 54.346061 0 0 0-5.93946-57.078213c-27.677885-38.487702-103.287213-48.287811-213.048437-27.61849-3.682465 0.831524-40.625908 8.196455-59.394602-11.87892a39.853778 39.853778 0 0 1-9.978293-28.509409 98.001093 98.001093 0 0 0-56.662451 16.571094c-36.468286 23.757841-64.324354 31.122771-84.874886 22.094792-15.026834-6.652195-29.994274-5.93946-40.150751 2.375784a50.010255 50.010255 0 0 0-20.253559 37.834361l-0.653341 14.908046h-14.492283c-0.475157 0-44.189584 1.128497-76.856615 19.600218A52.089066 52.089066 0 0 1 95.138871 278.144921a53.098774 53.098774 0 0 1-2.791546 13.779548 52.504828 52.504828 0 0 1-35.220999 34.508263 47.515682 47.515682 0 0 0 15.205018 23.757841c22.985711 19.422035 60.998256 15.680175 61.414019 15.680175h3.029124a26.668176 26.668176 0 0 1 24.351787 17.16504c3.860649 12.829234-4.157622 24.470576-14.314099 34.033107 5.93946 0 14.076521 0.415762 24.886338 0l19.184457-0.593946a420.394993 420.394993 0 0 0 183.054163-57.672159 15.442597 15.442597 0 0 1 15.798964 26.430598 442.311601 442.311601 0 0 1-204.43622 62.364332 382.79821 382.79821 0 1 0 646.272664-213.820567zM381.361458 270.839385a54.702428 54.702428 0 0 1-23.757841 29.697301 46.684157 46.684157 0 0 1-23.401473 6.474012 43.120481 43.120481 0 0 1-13.898337-2.256995 45.139897 45.139897 0 0 1-27.262122-25.717863 53.989693 53.989693 0 0 1-1.187892-38.012545 54.583639 54.583639 0 0 1 23.757841-29.697301 45.080503 45.080503 0 0 1 37.29981-4.217017 48.109628 48.109628 0 0 1 30.885193 50.069649 58.860051 58.860051 0 0 1-2.435179 13.660759z m206.693215 545.598814a52.445434 52.445434 0 0 1-39.259832 20.431743 66.997111 66.997111 0 0 1-24.411181 4.751568 57.375185 57.375185 0 0 1-27.024544-6.533406c-43.833216-22.629343-59.869759-95.387731-61.532808-103.643581a15.383202 15.383202 0 0 1 30.113063-6.236433c3.801255 18.412327 19.422035 69.075922 45.615055 82.499102a30.410036 30.410036 0 0 0 27.974857 0l3.504282-1.54426h3.860649a21.500846 21.500846 0 0 0 16.749278-8.493428c6.414617-8.731006 13.720153-32.726426-8.909191-94.556206a15.264413 15.264413 0 0 1 9.146769-19.719008 15.501991 15.501991 0 0 1 19.837797 9.146769c21.144478 57.969132 22.629343 99.664142 4.335806 124.015929z" fill="#FFFFFF" /><path d="M946.204123 506.57656a382.738815 382.738815 0 0 1-709.646704 199.209495 382.738815 382.738815 0 0 0 633.799797-427.641134 381.135161 381.135161 0 0 1 75.846907 228.431639z" fill="#C9CACA" /><path d="M353.267811 254.981026a20.312954 20.312954 0 0 1-1.187892 5.93946 23.757841 23.757841 0 0 1-9.859504 13.066813 14.551677 14.551677 0 0 1-11.87892 1.544259 14.314099 14.314099 0 0 1-8.612217-8.374638 24.173603 24.173603 0 0 1 9.68132-28.984566 14.789256 14.789256 0 0 1 7.899482-2.375784 11.463158 11.463158 0 0 1 4.098227 0.712735 17.224435 17.224435 0 0 1 9.859504 18.471721z" fill="#F8B62D" /><path d="M352.852049 207.227766a44.902319 44.902319 0 0 0-37.240415 4.217017 54.940007 54.940007 0 0 0-22.569949 67.650452 44.308373 44.308373 0 0 0 41.160459 28.034252 45.971422 45.971422 0 0 0 23.342079-6.592801 53.455142 53.455142 0 0 0 23.75784-29.697301 56.00911 56.00911 0 0 0 2.494574-13.720153 48.050233 48.050233 0 0 0-30.944588-49.891466z m-0.77213 53.930299a23.401473 23.401473 0 0 1-9.859504 12.829234 13.720153 13.720153 0 0 1-20.609926-6.889774 24.232998 24.232998 0 0 1 9.68132-28.984566 16.274121 16.274121 0 0 1 7.958876-2.256995 12.710445 12.710445 0 0 1 4.038833 0.653341 17.343224 17.343224 0 0 1 10.156477 18.471721 24.708154 24.708154 0 0 1-1.366076 6.177039zM563.88107 683.39429a15.383202 15.383202 0 0 0-9.146769 19.778403c22.569949 61.770386 15.264413 85.706411 8.909191 94.496811a20.966294 20.966294 0 0 1-16.749278 8.493428h-3.801255l-3.504281 1.54426a30.707009 30.707009 0 0 1-28.034252 0.356368c-26.133625-13.541969-41.576221-64.14617-45.55566-82.558497a15.442597 15.442597 0 0 0-30.231853 6.236433c1.722443 8.25585 17.818381 81.014237 61.592203 103.643581a58.147315 58.147315 0 0 0 27.083938 6.652195 67.947425 67.947425 0 0 0 24.351787-4.751568 52.445434 52.445434 0 0 0 39.200437-20.431743c18.352932-24.351787 16.868067-66.046797-4.335806-124.015929a15.442597 15.442597 0 0 0-19.778402-9.443742z" fill="#231815" /><path d="M971.803196 571.49486a413.208246 413.208246 0 0 0-145.279196-383.807918l-2.375784-1.900627C797.836407 91.467687 709.279056 41.516827 685.283636 29.519117a152.406549 152.406549 0 0 0-17.04625-7.186747C584.609786-7.127352 515.474469-7.305536 462.672668 21.382057a162.859999 162.859999 0 0 0-72.936571 83.152442A129.242654 129.242654 0 0 0 308.959438 126.391713c-37.359205 24.589365-51.910882 21.322662-55.474558 19.719008-25.836652-11.522553-52.801801-8.968585-72.105047 6.652195a82.439708 82.439708 0 0 0-29.697301 46.565368c-19.956586 1.960022-58.20671 8.552823-87.785221 28.984566a44.961714 44.961714 0 0 0-37.062232 4.217017 53.455142 53.455142 0 0 0-23.757841 29.697301 50.307228 50.307228 0 0 0 21.382057 60.463704A80.954842 80.954842 0 0 0 52.671731 374.185992c22.807527 18.946878 52.979985 22.45116 70.501392 22.748133l-4.217016 3.504281c-12.948023 9.146769-17.818381 19.006273-14.314099 29.222145 4.276411 12.591656 17.818381 17.818381 49.416308 18.293537a415.762214 415.762214 0 0 0-4.217016 58.622472 411.188829 411.188829 0 0 0 64.977694 222.135811c-22.33237 30.944588-61.532808 93.249525-38.012545 120.689832a34.151896 34.151896 0 0 0 27.677884 11.166185c21.203873 0 52.326644-11.344369 96.338045-34.686448a413.030062 413.030062 0 0 0 583.076807-58.028526c38.606491 16.036543 83.152443 31.122771 114.037636 31.122772 15.62078 0 27.677885-3.860649 33.676739-13.42318 11.87892-19.125062 1.663049-48.169022-84.221545-125.203821l1.960022-5.048542c17.818381 1.187892 32.488847 1.781838 44.842924 1.781838 47.515682 0 59.691575-8.315244 62.7207-22.33237 1.781838-8.731006 6.117644-28.925171-85.112465-63.255251z m-357.614898-144.982223a23.757841 23.757841 0 0 1-18.590511-10.512845c-13.126207-19.659613-7.364931-64.086776 0.831525-95.031363a108.098176 108.098176 0 0 0 22.866922 1.722443 96.991385 96.991385 0 0 0 36.468285-7.840087c16.39291 16.452305 54.702428 48.465995 104.772078 48.941152a147.239218 147.239218 0 0 1-52.326644 41.576221 207.881107 207.881107 0 0 1-94.021655 21.144479z m-52.207855-10.809818a173.610422 173.610422 0 0 1-53.455142-34.33008 80.53908 80.53908 0 0 1-26.608782-53.870904 71.867468 71.867468 0 0 1 4.692174-29.697301A29.16275 29.16275 0 0 1 508.406512 279.154629a32.548242 32.548242 0 0 1 5.93946-0.593946 29.281539 29.281539 0 0 1 21.322662 9.206163 115.581895 115.581895 0 0 0 31.479139 23.342079c-6.295828 23.045106-16.274121 69.966841-5.16733 104.593894z m222.076416-92.418001c-0.950314 2.553968-2.138206 4.929752-3.266703 7.364931-44.130189 9.324953-81.251815-17.818381-98.773223-33.736134a83.50881 83.50881 0 0 0 16.630489-22.688738 82.202129 82.202129 0 0 0 8.493428-38.72528c34.389475-1.960022 59.038234-13.304391 73.114755-33.973713a70.382603 70.382603 0 0 0 9.859504-22.213581c13.957731 38.368913 16.274121 86.003384-6.236433 143.972515zM671.563483 57.018818a275.947321 275.947321 0 0 1 83.152443 63.671013c4.870357 12.354077 13.126207 44.248978 0 63.730408-8.968585 13.126207-27.083938 20.015981-53.930299 20.728716a93.071341 93.071341 0 0 0-10.691028-19.422035 106.910284 106.910284 0 0 0-45.733843-35.636761c20.312954-28.39062 19.600219-70.560787 16.333515-97.822909a118.373442 118.373442 0 0 1 10.869212 4.751568z m-43.833216-15.086229c3.860649 21.560241 10.691028 77.212983-16.39291 98.001093a296.20088 296.20088 0 0 0-66.046798-5.345514c7.602509-23.757841 6.949168-45.318081-2.138205-64.086775a85.231254 85.231254 0 0 0-32.429453-34.567659c32.904609-8.315244 72.045652-6.295828 117.007366 5.820671zM414.978803 125.738372v-0.712735A132.152989 132.152989 0 0 1 471.700648 51.792093c10.572239 3.207309 34.092502 12.294683 43.595638 32.073085 6.652195 13.898337 5.345514 31.538534-3.86065 52.386039q-30.647615 2.732152-65.868613 9.443742c-9.621926 2.019416-26.133625 2.1976-30.825799-2.910336-2.1976-2.613362-2.1976-8.552823 0.237579-17.046251zM32.239988 271.967882a22.926316 22.926316 0 0 1 9.978293-13.007417 16.214726 16.214726 0 0 1 7.899482-2.256995 12.829234 12.829234 0 0 1 4.098228 0.65334 17.402618 17.402618 0 0 1 10.156476 18.471721 23.282684 23.282684 0 0 1-1.306681 6.474012c-3.504282 10.572239-13.601364 17.16504-21.976003 14.373494s-12.413472-13.957731-8.849795-24.708155z m102.99024 124.728664z m69.016527 433.580595a10.572239 10.572239 0 0 1-3.979438-0.415762c-3.801255-8.196455 11.581947-41.576221 33.201582-73.827491a416.653133 416.653133 0 0 0 42.764114 48.109628c-45.199292 22.688738-64.680722 25.836652-71.986258 25.836652z m359.159158 59.394602a383.273366 383.273366 0 0 1-382.857604-382.79821 388.024935 388.024935 0 0 1 4.692173-58.919445A443.97465 443.97465 0 0 0 389.736097 385.233388a15.40696 15.40696 0 1 0-15.73957-26.489992 420.691966 420.691966 0 0 1-183.054163 57.612764l-19.184456 0.593946c-10.750423 0.356368-18.828089 0-24.886338 0 10.156477-9.503136 18.174748-21.382057 14.254704-34.033107A26.786965 26.786965 0 0 0 136.715093 365.870748h-2.96973c-0.356368 0-38.487702 3.860649-61.532808-15.264413a48.109628 48.109628 0 0 1-15.264413-23.75784 52.445434 52.445434 0 0 0 35.636761-34.389475 56.00911 56.00911 0 0 0 2.732152-13.838942 51.257541 51.257541 0 0 0-6.652195-29.281539c32.726426-18.531116 76.440853-19.659613 77.212982-19.659613h14.432888l0.653341-14.432889a49.713282 49.713282 0 0 1 20.194165-37.774966c10.156477-8.25585 25.183311-9.146769 40.210145-2.494574 20.609927 9.146769 48.347206 1.900627 84.934281-22.094792a98.713828 98.713828 0 0 1 56.543661-16.808672 39.259832 39.259832 0 0 0 9.503136 27.856068c18.946878 20.312954 55.830926 12.948023 59.394602 11.878921 109.761224-20.728716 185.370553-10.928607 212.989043 27.559095a54.167877 54.167877 0 0 1 5.93946 57.018818 58.087921 58.087921 0 0 1-52.267249 31.241561 78.638453 78.638453 0 0 1-60.641889-25.599074 60.582494 60.582494 0 0 0-100.436272 20.550532 100.970823 100.970823 0 0 0-6.592801 42.526535 111.602457 111.602457 0 0 0 36.52768 74.837199 192.5573 192.5573 0 0 0 120.392859 52.742406 52.564223 52.564223 0 0 0 5.345514 0.653341v-0.415762c2.138206 0 4.276411 0.296973 6.474011 0.296973a239.479035 239.479035 0 0 0 101.56477-24.351787 180.025039 180.025039 0 0 0 91.586476-98.416855 254.802842 254.802842 0 0 0 18.828089-100.970824 382.67942 382.67942 0 0 1-268.047839 655.89459zM1003.876281 768.803728c-14.254704 2.256995-57.612764-8.968585-100.970823-26.133625a414.217954 414.217954 0 0 0 31.063377-52.445434c55.296374 49.832071 67.531662 71.154733 69.907446 78.282086z m-43.952005-143.734937c2.256995-7.543114 4.276411-15.145623 5.93946-22.866922a382.79821 382.79821 0 0 1 49.713282 23.282684 404.774212 404.774212 0 0 1-55.652742-0.415762z" fill="#231815" /></svg>