<?xml version="1.0" standalone="no"?><!DOCTYPE svg PUBLIC "-//W3C//DTD SVG 1.1//EN" "http://www.w3.org/Graphics/SVG/1.1/DTD/svg11.dtd"><svg class="icon" width="600px" height="600.00px" viewBox="0 0 1024 1024" version="1.1" xmlns="http://www.w3.org/2000/svg"><path d="M712.64 345.92S750.4 128 528 143.36a3.84 3.84 0 0 0-3.2 6.08c19.2 24 112.64 83.52 133.44 161.92z" fill="#F27019" /><path d="M661.12 290.56s220.48-21.12 188.16 199.68a3.84 3.84 0 0 1-6.4 2.24c-22.4-20.8-74.88-118.4-151.04-145.28z" fill="#F27019" /><path d="M709.76 193.92a128 128 0 0 0-32 138.24l172.8-160a128 128 0 0 0-140.8 21.76z" fill="#F27019" /><path d="M850.24 172.16l-172.48 160a128 128 0 0 0 172.48-160z" fill="#F27019" /><path d="M713.6 720.32c-105.6 98.88-388.48 179.2-499.52 59.2S203.84 384 310.72 285.76s283.84-82.24 394.88 37.76 114.88 297.6 8 396.8z" fill="#FF8025" /><path d="M470.08 368c-14.08 13.12-55.04 29.76-68.16 15.36s6.4-53.44 20.48-66.56a34.88 34.88 0 1 1 47.68 51.2zM426.24 515.52c-14.08 13.12-55.04 29.44-68.16 15.36s6.4-53.76 20.48-66.88a35.2 35.2 0 0 1 47.68 51.52zM358.08 673.92c-14.08 13.12-54.72 29.76-67.84 15.36s6.08-53.44 20.48-66.56a34.88 34.88 0 0 1 47.36 51.2zM535.68 633.6c-14.4 13.12-55.04 29.44-68.16 15.36s6.08-53.76 20.48-66.88a35.2 35.2 0 0 1 47.68 51.52zM695.36 611.2c-14.4 13.12-55.04 29.44-68.16 15.36s6.4-53.76 20.48-66.88a35.2 35.2 0 0 1 47.68 51.52zM615.68 454.72c-14.4 13.44-55.04 29.76-68.16 15.36s6.4-53.44 20.48-66.56a34.88 34.88 0 1 1 47.68 51.2z" fill="#FFFFFF" /></svg>