<?xml version="1.0" standalone="no"?><!DOCTYPE svg PUBLIC "-//W3C//DTD SVG 1.1//EN" "http://www.w3.org/Graphics/SVG/1.1/DTD/svg11.dtd"><svg class="icon" width="600px" height="600.00px" viewBox="0 0 1024 1024" version="1.1" xmlns="http://www.w3.org/2000/svg"><path d="M512.4 760.1S395.1 629.8 395.1 512.5s117.3-234.6 117.3-234.6 117.3 117.3 117.3 234.6-117.3 247.6-117.3 247.6" fill="#C7B299" /><path d="M512.4 774c-2.2 0-4.4-0.5-6.4-1.6-8.8-4.6-216-114.1-216-310.2 0-81.4 37.5-161.6 108.4-231.9 53-52.5 105.3-80.8 107.5-82 3.9-2.1 8.5-2.2 12.5-0.3 8.8 4.2 216.5 104.8 216.5 312.3S527.2 768.5 518.4 772.7c-1.9 0.9-3.9 1.3-6 1.3z m0.4-597.5c-33.9 20.2-195 124.6-195 285.8 0 161.4 161.1 262.6 194.8 282.1C546.5 726.2 707 631 707 460.4c0-170.4-160.1-265.6-194.2-283.9z" fill="#998675" /><path d="M512.4 878.2c-7.7 0-13.9-6.2-13.9-13.9V512.5c0-7.7 6.2-13.9 13.9-13.9s13.9 6.2 13.9 13.9v351.8c0 7.7-6.2 13.9-13.9 13.9z" fill="#998675" /></svg>