<?xml version="1.0" standalone="no"?><!DOCTYPE svg PUBLIC "-//W3C//DTD SVG 1.1//EN" "http://www.w3.org/Graphics/SVG/1.1/DTD/svg11.dtd"><svg class="icon" width="600px" height="600.00px" viewBox="0 0 1024 1024" version="1.1" xmlns="http://www.w3.org/2000/svg"><path d="M769.975744 877.606762h-0.752664c-3.010658-0.376332-5.268651-3.38699-4.892319-6.397648 44.783535-304.452775-74.513782-497.887541-182.521132-607.023888-101.23337-101.986035-211.498714-150.909225-240.852628-162.575524v766.965087c0 3.010658-2.634326 5.644983-5.644983 5.644983s-5.644983-2.634326-5.644984-5.644983v-775.244396c0-1.881661 0.752664-3.38699 2.257994-4.515987 1.505329-1.128997 3.38699-1.505329 5.268651-0.752664 1.505329 0.376332 133.22161 47.794193 252.142594 167.844175 69.997795 70.374127 121.931643 151.661889 154.672547 241.981624 40.643881 112.523337 51.181183 238.594634 31.235575 374.826902 0 3.010658-2.634326 4.892319-5.268651 4.892319z" fill="#231815" /><path d="M333.806689 879.488423c-2.257993 0-4.139655-1.128997-5.268652-3.38699-1.128997-3.010658 0-6.021316 3.010658-7.526644l418.105109-176.876149h-413.965454c-2.634326 0-4.892319-1.881661-5.644984-4.515987-0.376332-2.634326 0.752664-5.268651 3.38699-6.397647l375.955899-162.575524H335.68835c-2.257993 0-4.515987-1.505329-5.268651-3.38699-0.752664-2.257993-0.376332-4.515987 1.505329-6.021316l246.497611-232.573319H335.68835c-3.010658 0-5.644983-2.634326-5.644984-5.644983s2.634326-5.644983 5.644984-5.644984h257.034914c2.257993 0 4.515987 1.505329 5.268651 3.386991 0.752664 2.257993 0.376332 4.515987-1.505329 6.021315L349.988975 506.919515h386.493201c2.634326 0 4.892319 1.881661 5.644983 4.515987 0.376332 2.634326-0.752664 5.268651-3.38699 6.397648l-375.955899 162.575523h414.718119c2.634326 0 4.892319 1.881661 5.644983 4.515987 0.376332 2.634326-0.752664 5.268651-3.38699 6.397648L336.064682 879.112091c-0.752664 0.376332-1.505329 0.376332-2.257993 0.376332z" fill="#231815" /><path d="M712.773245 876.101433h-0.752664c-3.010658-0.376332-5.268651-3.38699-4.892319-6.397648 44.783535-304.452775-74.513782-499.769202-182.521132-610.410878-100.857038-103.115031-211.122381-153.54355-240.852628-165.962514v776.749725c0 3.010658-2.634326 5.644983-5.644983 5.644983s-5.644983-2.634326-5.644984-5.644983V85.051084c0-1.881661 0.752664-3.38699 2.257993-4.515987 1.505329-1.128997 3.38699-1.128997 5.268652-0.752664 1.505329 0.376332 133.22161 49.675854 252.142594 171.231165 69.997795 71.503124 121.931643 153.54355 154.672547 244.239618 40.643881 113.276001 51.181183 239.723631 31.235575 375.955898 0 3.010658-2.257993 4.892319-5.268651 4.892319z" fill="#231815" /><path d="M278.485851 876.101433c-2.257993 0-4.139655-1.128997-5.268651-3.38699-1.128997-3.010658 0-6.021316 3.010657-7.526644l417.352444-181.768468H278.485851c-2.634326 0-4.892319-1.881661-5.644984-4.515987-0.376332-2.634326 0.752664-5.268651 3.38699-6.397648l375.955899-162.575523H278.485851c-2.257993 0-4.515987-1.505329-5.268651-3.38699-0.752664-2.257993-0.376332-4.515987 1.505328-6.021316l246.497612-232.573319H278.485851c-3.010658 0-5.644983-2.634326-5.644984-5.644983s2.634326-5.644983 5.644984-5.644984h257.034913c2.257993 0 4.515987 1.505329 5.268652 3.38699 0.752664 2.257993 0.376332 4.515987-1.505329 6.021316l-246.497611 232.573319h386.493201c2.634326 0 4.892319 1.881661 5.644983 4.515987s-0.752664 5.268651-3.38699 6.397647l-375.955899 162.575524h414.718119c2.634326 0 4.892319 1.881661 5.644983 4.515987 0.376332 2.634326-0.752664 5.268651-3.38699 6.397648L280.743844 875.725101c-0.752664 0.376332-1.505329 0.376332-2.257993 0.376332z" fill="#231815" /><path d="M887.3914 943.464903H139.99559c-2.634326 0-4.892319-1.881661-5.644984-4.139655-0.752664-2.634326 0-5.268651 2.257994-6.77398l86.932745-63.600147c1.128997-0.752664 2.257993-1.128997 3.763322-1.128997h573.53032c1.128997 0 2.634326 0.376332 3.763322 1.128997l86.932746 63.600147c2.257993 1.505329 3.010658 4.139655 2.257993 6.77398-1.505329 2.634326-3.763322 4.139655-6.397648 4.139655z m-728.579199-12.042632h709.762588l-69.997795-51.181183H228.809996l-69.997795 51.181183z" fill="#231815" /></svg>