<?xml version="1.0" standalone="no"?><!DOCTYPE svg PUBLIC "-//W3C//DTD SVG 1.1//EN" "http://www.w3.org/Graphics/SVG/1.1/DTD/svg11.dtd"><svg class="icon" width="600px" height="600.00px" viewBox="0 0 1024 1024" version="1.1" xmlns="http://www.w3.org/2000/svg"><path d="M760.650641 123.772043a70.140984 70.140984 0 0 1 80.039225-52.221754c63.655929 8.703626 77.820654 80.721862 77.820654 80.721862a1816.327231 1816.327231 0 0 1 42.323513 315.549098 3042.173187 3042.173187 0 0 1 0 329.884482 8.362307 8.362307 0 0 1-12.116812 7.167691c-23.380328-11.434175-76.967357-41.470217-101.5423-85.329664C788.638771 614.417612 760.650641 123.772043 760.650641 123.772043zM263.349359 123.772043a70.140984 70.140984 0 0 0-80.039225-52.221754C119.483545 80.253914 105.318821 152.44281 105.318821 152.44281A1816.327231 1816.327231 0 0 0 63.165967 467.821249a3042.173187 3042.173187 0 0 0 0 329.884482 8.362307 8.362307 0 0 0 12.116812 7.167691c23.380328-11.434175 76.967357-41.470217 101.5423-85.329664C235.361229 614.417612 263.349359 123.772043 263.349359 123.772043z" fill="#FF7752" /><path d="M598.182961 682.681343l-85.329664 1.023956-85.329665-1.023956s17.065933 79.356588-37.374392 100.518345c0 0 6.997032 74.407467 121.680101 74.407467s122.704057-74.407467 122.704057-74.407467C580.263731 762.549909 598.182961 682.681343 598.182961 682.681343z" fill="#FFEDE1" /><path d="M518.485054 758.112766a182.776141 182.776141 0 0 0 80.721863-17.065932 139.940649 139.940649 0 0 1-1.023956-58.365491l-85.329664 1.023956-85.329665-1.023956a136.527463 136.527463 0 0 1-1.535933 59.730765 197.452843 197.452843 0 0 0 92.497355 15.700658z" fill="#FFCFAE" /><path d="M147.130356 361.671147s10.751538-199.159436 115.024387-294.558001S514.55989 8.918315 514.55989 8.918315s139.599331-35.155822 232.438005 34.131866c139.76999 104.614168 136.527463 318.962285 136.527463 318.962284z" fill="#FF7752" /><path d="M99.004425 440.003779a112.464497 108.880651 0 1 0 224.928995 0 112.464497 108.880651 0 1 0-224.928995 0Z" fill="#FFEDE1" /><path d="M708.087568 440.003779a109.904607 108.880651 0 1 0 219.809215 0 109.904607 108.880651 0 1 0-219.809215 0Z" fill="#FFEDE1" /><path d="M153.444751 440.003779a46.931315 45.395381 0 1 0 93.862631 0 46.931315 45.395381 0 1 0-93.862631 0Z" fill="#FFCFAE" /><path d="M779.593827 440.003779a46.931315 45.395381 0 1 0 93.86263 0 46.931315 45.395381 0 1 0-93.86263 0Z" fill="#FFCFAE" /><path d="M227.34024 274.634889s-85.329664 170.659328-21.161756 309.405363c86.524279 189.261195 529.043918 190.285151 617.27479-5.802418 61.266699-136.527463-32.254613-305.480198-32.254613-305.480197z" fill="#FFEDE1" /><path d="M199.181451 293.407415s-5.631758 100.518344 94.03329 104.614169c94.03329 3.754505 116.730981-65.362523 116.730981-65.362523s18.431207 68.263731 119.461529 63.997248C623.611201 392.560485 631.46153 322.590161 631.46153 322.590161s8.532966 68.263731 99.323729 67.410434 93.862631-89.425488 93.86263-89.425488-66.727797-186.018668-309.234702-186.018668c-252.063828 0-316.231735 178.850976-316.231736 178.850976z" fill="#FFDD99" /><path d="M199.181451 293.407415s-5.631758 100.518344 94.03329 104.614169c94.03329 3.754505 116.730981-65.362523 116.730981-65.362523s18.431207 68.263731 119.461529 63.997248C623.611201 392.560485 631.46153 322.590161 631.46153 322.590161s8.532966 68.263731 99.323729 67.410434 93.862631-89.425488 93.86263-89.425488-67.239775-117.584277-309.74668-117.584277c-251.55185-0.170659-315.719757 110.416585-315.719758 110.416585z" fill="#FF7752" /><path d="M398.682206 443.758284l20.820438-18.943186a34.131866 34.131866 0 0 0-28.158789-15.359339 36.691756 36.691756 0 1 0 34.131866 40.104942zM595.111093 457.069711a8.532966 8.532966 0 0 1-6.314395-14.164724 72.018237 72.018237 0 0 1 78.503291-17.065933 8.532966 8.532966 0 1 1-5.802417 16.041977 55.293622 55.293622 0 0 0-59.901425 11.604834 8.532966 8.532966 0 0 1-6.485054 3.583846z" fill="#302B28" /><path d="M487.937035 530.282563a25.42824 15.35934 0 1 0 50.85648 0 25.42824 15.35934 0 1 0-50.85648 0Z" fill="#FFCFAE" /><path d="M734.881083 546.153881a8.532966 8.532966 0 0 1-7.509011-4.607802l-8.532966-17.065933a8.532966 8.532966 0 1 1 15.18868-7.850329l8.532967 17.065933a8.532966 8.532966 0 0 1-3.754506 11.434175 8.362307 8.362307 0 0 1-3.925164 1.023956zM779.764486 546.153881a8.532966 8.532966 0 0 1-7.50901-4.607802l-8.532967-17.065933a8.532966 8.532966 0 1 1 15.18868-7.850329l8.532967 17.065933a8.532966 8.532966 0 0 1-3.754505 11.434175 8.362307 8.362307 0 0 1-3.925165 1.023956zM292.020126 546.153881a8.362307 8.362307 0 0 1-3.925165-1.023956 8.532966 8.532966 0 0 1-3.754505-11.434175l8.532966-17.065933a8.532966 8.532966 0 1 1 15.188681 7.850329l-8.532967 17.065933a8.532966 8.532966 0 0 1-7.50901 4.607802zM247.136722 546.153881a8.362307 8.362307 0 0 1-3.925164-1.023956 8.532966 8.532966 0 0 1-3.754505-11.434175l8.532966-17.065933a8.532966 8.532966 0 1 1 15.18868 7.850329l-8.532966 17.065933a8.532966 8.532966 0 0 1-7.509011 4.607802z" fill="#FF4545" /><path d="M779.252508 938.670336l-25.086921-69.629006A132.772957 132.772957 0 0 0 631.46153 781.322435c-4.437143 38.910327-55.8056 69.799665-119.46153 69.799665s-114.34175-30.718679-119.46153-69.799665a132.772957 132.772957 0 0 0-119.46153 87.548236L247.6487 938.670336a32.766591 32.766591 0 0 0 13.652747 39.080986c30.718679 18.772526 101.030322 46.248678 252.063828 46.248678s221.857127-27.476152 252.063828-46.589997a32.766591 32.766591 0 0 0 13.823405-38.739667z" fill="#FFDD99" /><path d="M483.158574 580.285746a7.850329 7.850329 0 0 0-7.85033 8.191648c2.047912 37.886371 17.065933 67.239775 36.691756 67.239775s34.131866-29.524064 36.691756-67.239775a7.850329 7.850329 0 0 0-7.85033-8.191648z" fill="#FF4545" /><path d="M496.981979 637.115303a15.018021 12.116812 0 1 0 30.036042 0 15.018021 12.116812 0 1 0-30.036042 0Z" fill="#FF9999" /></svg>