<?xml version="1.0" standalone="no"?><!DOCTYPE svg PUBLIC "-//W3C//DTD SVG 1.1//EN" "http://www.w3.org/Graphics/SVG/1.1/DTD/svg11.dtd"><svg class="icon" width="600px" height="600.00px" viewBox="0 0 1024 1024" version="1.1" xmlns="http://www.w3.org/2000/svg"><path d="M336.788041 216.863965c92.999336 0 168.34575-92.929192 168.34575-92.929192s-75.346414-92.952573-168.34575-92.952573-168.34575 92.929192-168.34575 92.929192 75.346414 92.952573 168.34575 92.952573z"  /><path d="M849.891857 313.697843c-109.962508-72.225003-184.712698-56.64133-249.818078-35.200628-10.217652-39.046861-13.46766-101.615365-10.70866-123.652292 6.359728-61.960588 69.898558-81.016392 104.841992-104.841992 34.955124-20.645736 1.589932-55.60086-28.595396-49.241131-9.527902 3.179864-152.493192 38.123298-136.617252 212.863848-1.169068 15.782414 6.839046 63.001059 10.70866 84.44176a226.354889 226.354889 0 0 1-28.174532 6.102533c-154.094814-74.656664-277.548364-48.305878-354.227515 23.8256C68.323333 412.191797 65.120087 514.204645 65.120087 607.589774c-3.179864 208.094052 187.448316 424.137764 446.385123 416.188103 231.615694 0 392.374194-147.735086 436.845529-352.660964 23.007252-105.870771 15.911011-262.10498-98.458882-357.41907z m-546.50408 119.244906c-45.827454 5.786885-87.399502 88.439972-82.606324 135.413113-3.413678 15.630435-21.522536 16.811194-29.226693 7.014406-17.126842-48.703361 45.41828-173.431194 104.760157-171.619139 18.915515 3.44875 21.721278 23.545024 7.07286 29.19162z"  /></svg>