<?xml version="1.0" standalone="no"?><!DOCTYPE svg PUBLIC "-//W3C//DTD SVG 1.1//EN" "http://www.w3.org/Graphics/SVG/1.1/DTD/svg11.dtd"><svg class="icon" width="600px" height="600.00px" viewBox="0 0 1024 1024" version="1.1" xmlns="http://www.w3.org/2000/svg"><path d="M512 512m-512 0a512 512 0 1 0 1024 0 512 512 0 1 0-1024 0Z" fill="#7B670E" /><path d="M512 512m-494.4 0a494.4 494.4 0 1 0 988.8 0 494.4 494.4 0 1 0-988.8 0Z" fill="#355300" /><path d="M512 512m-478.4 0a478.4 478.4 0 1 0 956.8 0 478.4 478.4 0 1 0-956.8 0Z" fill="#85B018" /><path d="M512 512m-206.4 0a206.4 206.4 0 1 0 412.8 0 206.4 206.4 0 1 0-412.8 0Z" fill="#E2F8A3" /><path d="M424 196.8c3.2 8 17.6 76.8 6.4 80-11.2 3.2-43.2-57.6-46.4-65.6-3.2-8 3.2-17.6 14.4-22.4s22.4 0 25.6 8z" fill="#193310" /><path d="M420.8 206.4c1.6 6.4 14.4 59.2 8 60.8-6.4 3.2-32-46.4-33.6-51.2-1.6-6.4 1.6-12.8 9.6-16s12.8 0 16 6.4zM329.6 251.2c4.8 6.4 43.2 65.6 33.6 72-8 8-60.8-40-65.6-46.4-4.8-6.4-3.2-17.6 6.4-25.6s20.8-6.4 25.6 0z" fill="#193310" /><path d="M329.6 260.8c4.8 4.8 33.6 49.6 28.8 54.4-6.4 4.8-44.8-32-49.6-36.8-4.8-4.8-3.2-12.8 3.2-17.6 4.8-4.8 12.8-4.8 17.6 0zM251.2 340.8c8 4.8 62.4 46.4 57.6 56s-70.4-16-76.8-20.8c-8-4.8-9.6-16-3.2-25.6s14.4-14.4 22.4-9.6z" fill="#193310" /><path d="M254.4 350.4c6.4 3.2 49.6 35.2 44.8 41.6-3.2 6.4-52.8-14.4-59.2-17.6s-8-11.2-3.2-17.6c3.2-6.4 11.2-9.6 17.6-6.4zM198.4 443.2c8 1.6 75.2 22.4 73.6 33.6s-72 8-80 6.4c-8-1.6-14.4-11.2-11.2-22.4 1.6-11.2 9.6-19.2 17.6-17.6z" fill="#193310" /><path d="M204.8 451.2c6.4 1.6 57.6 16 57.6 24s-56 4.8-62.4 3.2c-6.4-1.6-11.2-8-9.6-16s8-12.8 14.4-11.2zM187.2 548.8c8-1.6 78.4-4.8 80 6.4 1.6 11.2-64 32-73.6 33.6-8 1.6-17.6-6.4-19.2-17.6 0-11.2 4.8-20.8 12.8-22.4z" fill="#193310" /><path d="M195.2 553.6c6.4-1.6 60.8-4.8 62.4 3.2s-51.2 22.4-57.6 24c-6.4 1.6-12.8-3.2-14.4-11.2s3.2-14.4 9.6-16zM220.8 648c8-4.8 72-30.4 76.8-20.8 6.4 9.6-49.6 52.8-57.6 56-8 4.8-17.6 0-24-9.6-4.8-9.6-3.2-20.8 4.8-25.6z" fill="#193310" /><path d="M230.4 651.2c6.4-3.2 56-25.6 59.2-17.6 3.2 6.4-40 38.4-44.8 41.6s-12.8 0-17.6-6.4c-4.8-6.4-3.2-14.4 3.2-17.6zM294.4 736c4.8-6.4 57.6-52.8 65.6-46.4 8 8-28.8 65.6-33.6 72-6.4 6.4-17.6 6.4-27.2-1.6-8-6.4-11.2-17.6-4.8-24z" fill="#193310" /><path d="M304 734.4c4.8-4.8 43.2-41.6 49.6-36.8 6.4 4.8-24 49.6-28.8 54.4-4.8 4.8-12.8 4.8-17.6 0-6.4-4.8-8-12.8-3.2-17.6zM392 804.8c3.2-8 35.2-70.4 46.4-65.6 11.2 3.2-4.8 72-6.4 80-3.2 8-14.4 11.2-24 8-12.8-4.8-19.2-14.4-16-22.4z" fill="#193310" /><path d="M400 801.6c1.6-6.4 27.2-54.4 33.6-51.2 6.4 3.2-4.8 54.4-8 60.8-1.6 6.4-9.6 9.6-17.6 6.4-6.4-3.2-9.6-9.6-8-16zM496 838.4c0-8 9.6-76.8 20.8-76.8s20.8 68.8 20.8 76.8-9.6 16-20.8 16-20.8-8-20.8-16z" fill="#193310" /><path d="M502.4 830.4c0-6.4 6.4-60.8 14.4-60.8s14.4 54.4 14.4 60.8-6.4 12.8-14.4 12.8-14.4-6.4-14.4-12.8z" fill="#193310" /><path d="M600 827.2c-3.2-8-17.6-76.8-6.4-80 11.2-3.2 43.2 57.6 46.4 65.6 3.2 8-3.2 17.6-14.4 22.4-12.8 3.2-22.4 0-25.6-8z" fill="#193310" /><path d="M603.2 817.6c-1.6-6.4-14.4-59.2-8-60.8 6.4-3.2 32 46.4 33.6 51.2 1.6 6.4-1.6 12.8-9.6 16-6.4 3.2-12.8 0-16-6.4z" fill="#193310" /><path d="M694.4 772.8c-4.8-6.4-43.2-65.6-33.6-72 8-8 60.8 40 65.6 46.4 4.8 6.4 3.2 17.6-6.4 25.6-9.6 6.4-20.8 6.4-25.6 0z" fill="#193310" /><path d="M694.4 763.2c-4.8-4.8-33.6-49.6-28.8-54.4 6.4-4.8 44.8 32 49.6 36.8s3.2 12.8-3.2 17.6c-4.8 4.8-12.8 4.8-17.6 0z" fill="#193310" /><path d="M772.8 683.2c-8-4.8-62.4-46.4-57.6-56 6.4-9.6 70.4 16 76.8 20.8 8 4.8 9.6 16 3.2 25.6-4.8 9.6-14.4 14.4-22.4 9.6z" fill="#193310" /><path d="M769.6 673.6c-6.4-3.2-49.6-35.2-44.8-41.6 3.2-6.4 52.8 14.4 59.2 17.6 6.4 3.2 8 11.2 3.2 17.6s-11.2 9.6-17.6 6.4z" fill="#193310" /><path d="M825.6 580.8c-8-1.6-75.2-22.4-73.6-33.6 1.6-11.2 72-8 80-6.4 8 1.6 14.4 11.2 11.2 22.4-1.6 11.2-9.6 19.2-17.6 17.6z" fill="#193310" /><path d="M819.2 572.8c-6.4-1.6-57.6-16-57.6-24s56-4.8 62.4-3.2c6.4 1.6 11.2 8 9.6 16-1.6 8-8 12.8-14.4 11.2z" fill="#193310" /><path d="M836.8 475.2c-8 1.6-78.4 4.8-80-6.4s64-32 73.6-33.6c8-1.6 17.6 6.4 19.2 17.6s-4.8 20.8-12.8 22.4z" fill="#193310" /><path d="M828.8 470.4c-6.4 1.6-60.8 4.8-62.4-3.2s51.2-22.4 57.6-24c6.4-1.6 12.8 3.2 14.4 11.2s-3.2 14.4-9.6 16z" fill="#193310" /><path d="M803.2 376c-8 4.8-72 30.4-76.8 20.8-6.4-9.6 49.6-52.8 57.6-56s17.6 0 24 9.6c4.8 9.6 3.2 20.8-4.8 25.6z" fill="#193310" /><path d="M793.6 372.8c-6.4 3.2-56 25.6-59.2 17.6-3.2-6.4 40-38.4 44.8-41.6 6.4-3.2 12.8 0 17.6 6.4 4.8 6.4 3.2 14.4-3.2 17.6z" fill="#193310" /><path d="M729.6 288c-4.8 6.4-57.6 52.8-65.6 46.4-8-8 28.8-65.6 33.6-72 4.8-6.4 17.6-6.4 25.6 1.6 9.6 6.4 12.8 17.6 6.4 24z" fill="#193310" /><path d="M720 289.6c-4.8 4.8-43.2 41.6-49.6 36.8-6.4-4.8 24-49.6 28.8-54.4 4.8-4.8 12.8-4.8 17.6 0 6.4 4.8 8 12.8 3.2 17.6z" fill="#193310" /><path d="M632 219.2c-3.2 8-35.2 70.4-46.4 65.6-11.2-3.2 4.8-72 6.4-80 3.2-8 14.4-11.2 24-8s19.2 14.4 16 22.4z" fill="#193310" /><path d="M624 222.4c-1.6 6.4-27.2 54.4-33.6 51.2-6.4-3.2 4.8-54.4 8-60.8s9.6-9.6 17.6-6.4c6.4 3.2 9.6 9.6 8 16z" fill="#193310" /><path d="M528 185.6c0 8-9.6 76.8-20.8 76.8s-20.8-68.8-20.8-76.8 9.6-16 20.8-16 20.8 8 20.8 16z" fill="#193310" /><path d="M521.6 193.6c0 6.4-6.4 60.8-14.4 60.8s-14.4-54.4-14.4-60.8 6.4-12.8 14.4-12.8 14.4 6.4 14.4 12.8z" fill="#193310" /></svg>