<?xml version="1.0" standalone="no"?><!DOCTYPE svg PUBLIC "-//W3C//DTD SVG 1.1//EN" "http://www.w3.org/Graphics/SVG/1.1/DTD/svg11.dtd"><svg class="icon" width="600px" height="600.00px" viewBox="0 0 1024 1024" version="1.1" xmlns="http://www.w3.org/2000/svg"><path d="M546.43 613.05m-329.58 0a329.58 329.58 0 1 0 659.16 0 329.58 329.58 0 1 0-659.16 0Z" fill="#F39800" /><path d="M495.15 960.22C303.72 960.22 148 804.5 148 613.07s155.72-347.15 347.15-347.15S842.3 421.64 842.3 613.07 686.58 960.22 495.15 960.22z m0-659.15c-172 0-312 140-312 312s140 312 312 312 312-140 312-312-139.97-312-312-312zM670.92 98.93H319.37a17.58 17.58 0 0 1 0-35.15h351.55a17.58 17.58 0 0 1 0 35.15z" fill="#3E3A39" /><path d="M477.57 81.35h35.15v202.14h-35.15z" fill="#3E3A39" /><path d="M534.1 186.07a195.79 195.79 0 0 0 273.67 0 195.79 195.79 0 0 0-273.67 0z" fill="#009944" /><path d="M636.38 250.61a203.89 203.89 0 0 1-143-58.26l-6.45-6.28 6.45-6.28a204.6 204.6 0 0 1 286 0l6.45 6.28-6.45 6.28a203.77 203.77 0 0 1-143 58.26z m-123.93-64.55a187 187 0 0 0 247.87 0 187 187 0 0 0-247.87 0z" fill="#3E3A39" /></svg>