<?xml version="1.0" standalone="no"?><!DOCTYPE svg PUBLIC "-//W3C//DTD SVG 1.1//EN" "http://www.w3.org/Graphics/SVG/1.1/DTD/svg11.dtd"><svg class="icon" width="600px" height="600.00px" viewBox="0 0 1024 1024" version="1.1" xmlns="http://www.w3.org/2000/svg"><path d="M848.5 801.9c-9.5-9.5-43.8-27.9-62.4-24.9 18.5 8.9 47.4 31.2 52.1 35.8 6.4 6.4 5.2 17.9-2.6 25.7s-19.3 9-25.7 2.6c-4.6-4.6-26.9-33.5-35.8-52.1-3 18.6 15.4 52.9 24.9 62.4 8.7 8.7 22.7 9.4 35 2.9 17.5 28.2 50.1 68 55.5 73.4 8 8 22.4 6.5 32.1-3.2 9.8-9.8 11.2-24.1 3.2-32.1-5.4-5.4-45.2-37.9-73.4-55.5 6.5-12.3 5.8-26.3-2.9-35z m64.4 113.9c-3.9 3.9-9.7 4.5-12.8 1.3-3.2-3.2-2.6-8.9 1.3-12.8 3.9-3.9 9.7-4.5 12.8-1.3 3.2 3.1 2.6 8.9-1.3 12.8z" fill="#999999" /><path d="M107.2 502.6c0-216.8 175.7-392.5 392.5-392.5s392.5 175.7 392.5 392.5h7.3c0-220.8-179-399.8-399.7-399.8-220.8 0-399.7 179-399.7 399.8s179 399.8 399.7 399.8v-7.3c-216.9 0-392.6-175.7-392.6-392.5zM929.9 533.2h-7.3c0 216.8-175.7 392.5-392.5 392.5v7.3c220.9-0.1 399.8-179.1 399.8-399.8z" fill="#93278F" /><path d="M136.3 502.6c0-200.7 162.7-363.4 363.4-363.4s363.4 162.7 363.4 363.4h29.1c0-216.8-175.7-392.5-392.5-392.5S107.2 285.9 107.2 502.6s175.7 392.5 392.5 392.5V866c-200.7 0.1-363.4-162.7-363.4-363.4zM922.7 533.2h-29.1c0 200.7-162.7 363.4-363.4 363.4v29.1c216.8 0 392.5-175.8 392.5-392.5z" fill="#ED1E79" /><path d="M172.6 502.6c0-180.6 146.4-327.1 327.1-327.1s327 146.5 327 327.1H863c0-200.7-162.7-363.4-363.4-363.4S136.3 301.9 136.3 502.6 299 866.1 499.7 866.1v-36.3c-180.6-0.1-327.1-146.5-327.1-327.2zM893.6 533.2h-36.3c0 180.6-146.4 327.1-327.1 327.1v36.3c200.7 0 363.4-162.7 363.4-363.4z" fill="#FFFFFF" /><path d="M826.7 502.6c0-180.6-146.4-327.1-327.1-327.1s-327 146.5-327 327.1c0 180.6 146.4 327.1 327.1 327.1V502.6h327z" fill="#FCEE21" /><path d="M857.3 533.2H530.2v327.1c180.6-0.1 327.1-146.5 327.1-327.1z" fill="#FCEE21" /><path d="M577.3 538.6c-6 10.4 6 28.6 26.9 40.7 20.9 12 42.6 13.4 48.7 2.9 6-10.4-6-28.6-26.9-40.7-6.9-4-13.9-6.8-20.4-8.4h-21.5c-3 1.2-5.3 3-6.8 5.5z" fill="#1A1A1A" /><path d="M765.250316 649.847299a43.6 21.8 30 1 0 21.8-37.758708 43.6 21.8 30 1 0-21.8 37.758708Z" fill="#F7931E" /><path d="M718 464.3a43.6 21.8 0 1 0 87.2 0 43.6 21.8 0 1 0-87.2 0Z" fill="#F7931E" /><path d="M669.536335 360.2815a21.8 43.6 60 1 0 75.517416-43.6 21.8 43.6 60 1 0-75.517416 43.6Z" fill="#F7931E" /><path d="M575.630297 294.331978a21.8 43.6 30 1 0 43.6-75.517415 21.8 43.6 30 1 0-43.6 75.517415Z" fill="#F7931E" /><path d="M439.6 240.7a21.8 43.6 0 1 0 43.6 0 21.8 43.6 0 1 0-43.6 0Z" fill="#F7931E" /><path d="M316.592417 305.838646a43.6 21.8 60 1 0 37.758707-21.8 43.6 21.8 60 1 0-37.758707 21.8Z" fill="#F7931E" /><path d="M242.752342 423.728808a43.6 21.8 30 1 0 21.8-37.758707 43.6 21.8 30 1 0-21.8 37.758707Z" fill="#F7931E" /><path d="M194.2 540.9a43.6 21.8 0 1 0 87.2 0 43.6 21.8 0 1 0-87.2 0Z" fill="#F7931E" /><path d="M254.262156 688.563863a21.8 43.6 60 1 0 75.517415-43.6 21.8 43.6 60 1 0-75.517415 43.6Z" fill="#F7931E" /><path d="M380.055323 786.353325a21.8 43.6 30 1 0 43.6-75.517415 21.8 43.6 30 1 0-43.6 75.517415Z" fill="#F7931E" /><path d="M546.7 795.1a21.8 43.6 0 1 0 43.6 0 21.8 43.6 0 1 0-43.6 0Z" fill="#F7931E" /><path d="M675.39667 751.670519a43.6 21.8 60 1 0 37.758708-21.8 43.6 21.8 60 1 0-37.758708 21.8Z" fill="#F7931E" /><path d="M527.957031 464.572739a21.8 43.6 60 1 0 75.517416-43.6 21.8 43.6 60 1 0-75.517416 43.6Z" fill="#1A1A1A" /><path d="M459.1 415.5a21.8 43.6 0 1 0 43.6 0 21.8 43.6 0 1 0-43.6 0Z" fill="#1A1A1A" /><path d="M403.932821 494.296201a43.6 21.8 30 1 0 21.8-37.758708 43.6 21.8 30 1 0-21.8 37.758708Z" fill="#1A1A1A" /><path d="M395.84196 584.27249a21.8 43.6 60 1 0 75.517415-43.6 21.8 43.6 60 1 0-75.517415 43.6Z" fill="#1A1A1A" /><path d="M549 663.9c12 0 21.8-19.5 21.8-43.6s-9.8-43.6-21.8-43.6c-8 0-15 8.7-18.8 21.6v44c3.8 12.9 10.8 21.6 18.8 21.6z" fill="#1A1A1A" /><path d="M673.73601 652.065337a43.6 21.8 60 1 0 37.758707-21.8 43.6 21.8 60 1 0-37.758707 21.8Z" fill="#333333" /><path d="M705.3 496.1c-20.9-12-42.6-13.4-48.7-2.9-1.6 2.7-1.9 6-1.2 9.5H715c-2.9-2.4-6.2-4.6-9.7-6.6zM714 564.4c20.9 12 42.6 13.4 48.7 2.9 5-8.7-2.5-22.7-17.1-34.1H686c2 10 12.6 22.2 28 31.2z" fill="#333333" /><path d="M630.8 415.9a43.6 21.8 0 1 0 87.2 0 43.6 21.8 0 1 0-87.2 0Z" fill="#333333" /><path d="M569.934627 361.947124a21.8 43.6 60 1 0 75.517415-43.6 21.8 43.6 60 1 0-75.517415 43.6Z" fill="#333333" /><path d="M490.140699 345.655995a21.8 43.6 30 1 0 43.6-75.517415 21.8 43.6 30 1 0-43.6 75.517415Z" fill="#333333" /><path d="M391.2 327.9a21.8 43.6 0 1 0 43.6 0 21.8 43.6 0 1 0-43.6 0Z" fill="#333333" /><path d="M318.297077 405.532038a43.6 21.8 60 1 0 37.758708-21.8 43.6 21.8 60 1 0-37.758708 21.8Z" fill="#333333" /><path d="M294.069199 509.226004a43.6 21.8 30 1 0 21.8-37.758707 43.6 21.8 30 1 0-21.8 37.758707Z" fill="#333333" /><path d="M281.3 589.3a43.6 21.8 0 1 0 87.2 0 43.6 21.8 0 1 0-87.2 0Z" fill="#333333" /><path d="M353.950967 686.848105a21.8 43.6 60 1 0 75.517415-43.6 21.8 43.6 60 1 0-75.517415 43.6Z" fill="#333333" /><path d="M468.5 686.4c-12 20.9-13.3 42.6-2.9 48.7 8.7 5 22.7-2.5 34.1-17.1v-59.6c-10 2-22.3 12.6-31.2 28zM539.7 690.1c-2.7-1.6-6-1.9-9.5-1.2v59.6c2.3-3 4.5-6.2 6.6-9.8 12-20.8 13.3-42.6 2.9-48.6z" fill="#333333" /><path d="M595.1 707.9a21.8 43.6 0 1 0 43.6 0 21.8 43.6 0 1 0-43.6 0Z" fill="#333333" /></svg>