<?xml version="1.0" standalone="no"?><!DOCTYPE svg PUBLIC "-//W3C//DTD SVG 1.1//EN" "http://www.w3.org/Graphics/SVG/1.1/DTD/svg11.dtd"><svg class="icon" width="600px" height="600.00px" viewBox="0 0 1024 1024" version="1.1" xmlns="http://www.w3.org/2000/svg"><path d="M512.4 516m-258 0a258 258 0 1 0 516 0 258 258 0 1 0-516 0Z" fill="#8B623C" /><path d="M512.4 274c32.7 0 64.4 6.4 94.2 19 28.8 12.2 54.7 29.6 76.9 51.9 22.2 22.2 39.7 48.1 51.9 76.9 12.6 29.8 19 61.5 19 94.2s-6.4 64.4-19 94.2c-12.2 28.8-29.6 54.7-51.9 76.9-22.2 22.2-48.1 39.7-76.9 51.9-29.8 12.6-61.5 19-94.2 19s-64.4-6.4-94.2-19c-28.8-12.2-54.7-29.6-76.9-51.9-22.2-22.2-39.7-48.1-51.9-76.9-12.6-29.8-19-61.5-19-94.2s6.4-64.4 19-94.2c12.2-28.8 29.6-54.7 51.9-76.9 22.2-22.2 48.1-39.7 76.9-51.9 29.8-12.6 61.5-19 94.2-19m0-16c-142.5 0-258 115.5-258 258s115.5 258 258 258 258-115.5 258-258-115.5-258-258-258z"  /><path d="M416.3 429.2m-18 0a18 18 0 1 0 36 0 18 18 0 1 0-36 0Z"  /><path d="M608.4 429.2m-18 0a18 18 0 1 0 36 0 18 18 0 1 0-36 0Z"  /><path d="M403.6 280.2c-11.7-14.8-29.8-24.2-50.1-24.2-35.3 0-64 28.7-64 64 0 16 5.9 30.7 15.6 41.9 25.2-34.9 59.1-63.2 98.5-81.7z" fill="#754C24" /><path d="M353.4 256c20.3 0 38.4 9.5 50.1 24.2-39.4 18.5-73.2 46.8-98.5 81.6-9.7-11.2-15.6-25.9-15.6-41.9 0-35.3 28.7-63.9 64-63.9m0-16c-44.1 0-80 35.9-80 80 0 19.2 6.9 37.8 19.5 52.4 3 3.5 7.5 5.5 12.1 5.5h0.7c4.9-0.2 70.6-82.7 113.4-94 1.1-4.8 0-9.8-3-13.6C400.8 251 378 240 353.4 240z"  /><path d="M718.9 360.8c9.2-11.1 14.7-25.3 14.7-40.8 0-35.3-28.7-64-64-64-20.1 0-37.9 9.2-49.7 23.7 39.5 18.2 73.6 46.3 99 81.1z" fill="#754C24" /><path d="M669.6 256c35.3 0 64 28.7 64 64 0 15.5-5.5 29.7-14.7 40.8-25.5-34.8-59.5-62.8-99-81.2 11.8-14.4 29.7-23.6 49.7-23.6m0-16c-24.2 0-46.8 10.8-62.1 29.6-3.1 3.8-4.3 8.9-3.2 13.7 38.1 18.8 104.1 74.8 114.1 93.5h0.5c4.8 0 9.3-2.1 12.3-5.8 11.9-14.3 18.4-32.4 18.4-51 0-44.2-35.9-80-80-80z"  /><path d="M512.4 551.2c-87.2 0-165.9 36.3-221.8 94.7 44.2 76.6 127 128.1 221.8 128.1S690 722.5 734.2 645.9c-55.9-58.4-134.6-94.7-221.8-94.7z" fill="#FFFFFF" /><path d="M512.4 567.2c40.4 0 79.5 8.1 116.2 24.1 31.7 13.8 60.4 33 85.3 56.9-20.3 31.3-47.7 57.6-79.8 76.6-36.7 21.7-78.8 33.1-121.7 33.1s-85-11.5-121.7-33.1c-32.2-19-59.6-45.3-79.8-76.6 24.9-24 53.6-43.1 85.3-56.9 36.7-16 75.8-24.1 116.2-24.1m0-16c-87.2 0-165.9 36.3-221.8 94.7 44.2 76.6 127 128.1 221.8 128.1S690 722.5 734.2 645.9c-55.9-58.4-134.6-94.7-221.8-94.7z"  /><path d="M512.4 555m-28 0a28 28 0 1 0 56 0 28 28 0 1 0-56 0Z"  /></svg>