<?xml version="1.0" standalone="no"?><!DOCTYPE svg PUBLIC "-//W3C//DTD SVG 1.1//EN" "http://www.w3.org/Graphics/SVG/1.1/DTD/svg11.dtd"><svg class="icon" width="600px" height="600.00px" viewBox="0 0 1024 1024" version="1.1" xmlns="http://www.w3.org/2000/svg"><path d="M512.4 516m-258 0a258 258 0 1 0 516 0 258 258 0 1 0-516 0Z" fill="#FFFFFF" /><path d="M512.4 274c32.7 0 64.4 6.4 94.2 19 28.8 12.2 54.7 29.6 76.9 51.9 22.2 22.2 39.7 48.1 51.9 76.9 12.6 29.8 19 61.5 19 94.2s-6.4 64.4-19 94.2c-12.2 28.8-29.6 54.7-51.9 76.9-22.2 22.2-48.1 39.7-76.9 51.9-29.8 12.6-61.5 19-94.2 19s-64.4-6.4-94.2-19c-28.8-12.2-54.7-29.6-76.9-51.9-22.2-22.2-39.7-48.1-51.9-76.9-12.6-29.8-19-61.5-19-94.2s6.4-64.4 19-94.2c12.2-28.8 29.6-54.7 51.9-76.9 22.2-22.2 48.1-39.7 76.9-51.9 29.8-12.6 61.5-19 94.2-19m0-16c-142.5 0-258 115.5-258 258s115.5 258 258 258 258-115.5 258-258-115.5-258-258-258z"  /><path d="M416.3 429.2m-18 0a18 18 0 1 0 36 0 18 18 0 1 0-36 0Z"  /><path d="M608.4 429.2m-18 0a18 18 0 1 0 36 0 18 18 0 1 0-36 0Z"  /><path d="M417.1 112.7c49.1 36.9 56.6 97.6 56.1 148-18.6 2.7-36.6 7.4-53.7 13.8-8.9-50-28.2-101.9-55.7-106.4-97.3-15.7-139 227.9-226.7 165.5-187.5-133.5 131.5-332.3 280-220.9z" fill="#FFFFFF" /><path d="M310.1 80c38.9 0 76.5 9.8 107 32.6 49.1 36.9 56.6 97.6 56.1 148-18.6 2.7-36.6 7.4-53.7 13.8-8.9-50-28.2-101.9-55.7-106.4-3-0.5-6-0.7-9-0.7-80.2 0-122.1 176.5-189.2 176.5-9 0-18.3-3.1-28.3-10.3C-12 227.5 159.1 80.1 310.1 80m0-16v16-16c-25.3 0-51.3 3.8-77.5 11.3-25.2 7.2-49.2 17.5-71.4 30.5-22.5 13.2-41.8 28.4-57.4 45.3C87 169.3 75.3 188.5 69 208.3c-7.8 24.5-7.1 48.6 2.2 71.8 9.7 24.4 28.8 46.7 56.6 66.6 12.3 8.8 25 13.2 37.6 13.2 19.1 0 37.6-10 56.4-30.6 14.9-16.3 28.5-37 42.8-59 14.6-22.3 29.6-45.3 45.5-62 15.8-16.7 30.4-24.8 44.5-24.8 2.1 0 4.3 0.2 6.4 0.5 13 2.1 33.3 40.5 43.5 98.4 0.8 4.7 84.4-13.5 84.5-21.4 0.4-33.4-2.8-60.1-10.1-83.9-9.9-32.5-27.5-58.4-52.4-77.1-31.1-23.6-71.4-36-116.4-36z"  /><path d="M605.6 112.7c-49.1 36.9-56.6 97.6-56.1 148 18.6 2.7 36.6 7.4 53.7 13.8 8.9-50 28.2-101.9 55.7-106.4 97.2-15.7 138.9 227.9 226.6 165.5C1073.1 200.1 754.1 1.3 605.6 112.7z" fill="#FFFFFF" /><path d="M712.6 80c151 0 322 147.4 173 253.5-10 7.1-19.4 10.3-28.3 10.3-67.1 0-109.1-176.5-189.2-176.5-2.9 0-5.9 0.2-9 0.7-27.6 4.5-46.9 56.4-55.7 106.4-17.1-6.4-35.1-11.1-53.7-13.8-0.6-50.4 6.9-111.1 56.1-148C636.1 89.8 673.6 80 712.6 80m0-16c-45 0-85.3 12.4-116.6 35.8-24.9 18.7-42.5 44.6-52.4 77.1-7.2 23.8-10.5 50.5-10.1 83.9 0.1 7.9 83.6 25.1 84.5 20.4 4.6-25.7 12.5-53.2 20.6-70.2 7.5-15.9 16.1-26.1 23-27.2 2.2-0.3 4.3-0.5 6.4-0.5 14.1 0 28.7 8.1 44.5 24.8 15.9 16.7 30.9 39.8 45.5 62 14.4 22 27.9 42.7 42.8 59 18.8 20.6 37.3 30.6 56.4 30.6 12.6 0 25.3-4.4 37.6-13.2 27.8-19.8 46.9-42.2 56.6-66.6 9.3-23.1 10-47.3 2.2-71.8-6.3-19.8-18-39-34.8-57.1-15.6-16.9-34.9-32.1-57.4-45.3-22.2-13-46.2-23.3-71.4-30.5-26.1-7.4-52.2-11.2-77.4-11.2z"  /></svg>