<?xml version="1.0" standalone="no"?><!DOCTYPE svg PUBLIC "-//W3C//DTD SVG 1.1//EN" "http://www.w3.org/Graphics/SVG/1.1/DTD/svg11.dtd"><svg class="icon" width="600px" height="600.00px" viewBox="0 0 1024 1024" version="1.1" xmlns="http://www.w3.org/2000/svg"><path d="M692.4 331.2c12-8.7 19.1-22.4 19.1-37.3 0-25.4-20.6-46-46-46-21 0-39 13.9-44.4 34-33.1-15.4-69.9-24-108.8-24-39.2 0-76.3 8.7-109.5 24.4-5.2-20.1-23.6-34.4-44.5-34.4-25.4 0-46 20.6-46 46 0 15.1 7.3 29 19.6 37.7-47.9 46.8-77.6 112.1-77.6 184.4 0 142.5 115.5 258 258 258s258-115.5 258-258c0.1-72.4-29.8-137.9-77.9-184.8z m-56.1-43.9c3.1-13.5 15.4-23.4 29.3-23.4 16.5 0 30 13.5 30 30 0 10.1-5 19.4-13.5 25-0.6 0.4-1.1 0.9-1.6 1.4-13.8-11.9-28.9-22.3-45-31.1 0.4-0.5 0.6-1.2 0.8-1.9z m-294.1 31.9c-8.7-5.6-13.9-15-13.9-25.3 0-16.5 13.5-30 30-30 14.1 0 26.4 10 29.3 23.7 0.2 0.7 0.4 1.4 0.8 2.1-16 8.8-30.9 19.2-44.6 31-0.4-0.6-1-1.1-1.6-1.5z m341.3 367.9c-22.2 22.2-48.1 39.7-76.9 51.9-29.8 12.6-61.5 19-94.2 19s-64.4-6.4-94.2-19c-28.8-12.2-54.7-29.6-76.9-51.9-8.3-8.3-15.8-17-22.8-26.2C365.1 600 423 568.1 495 563.7l3 5.2 7 12V638c0 4.4 3.6 8 8 8s8-3.6 8-8v-57l10-17.3c72.5 4.5 128.5 35.7 175.2 97.4-7 9.2-14.5 17.9-22.7 26zM754.4 516c0 32.7-6.4 64.4-19 94.2-5.5 13-12.1 25.5-19.7 37.2-26.3-33.8-55.3-58.3-88.5-75-26.6-13.3-55.4-21.3-87.4-24.1l0.6-1c0.2-0.4 0.4-0.8 0.6-1.1 0-0.1 0.1-0.2 0.1-0.3 0.1-0.3 0.2-0.5 0.3-0.8v-0.1c0.8-3.5-0.5-7-3.2-9.1l-0.9-0.6s-0.1 0-0.2-0.1c-0.3-0.2-0.6-0.3-0.9-0.5-0.1 0-0.2-0.1-0.3-0.1-0.3-0.1-0.5-0.2-0.8-0.3-0.2 0-0.3-0.1-0.5-0.1-0.2-0.1-0.5-0.1-0.7-0.1h-40.5c-4.8 0-8.3 3.6-8.9 7.7-0.1 0.8-0.1 1.5 0 2.3 0.1 1.2 0.5 2.3 1.2 3.5l0.6 1c-31.9 2.9-61.4 11-88.1 24.3-33.1 16.5-63 41.5-89 74.4-7.5-11.7-14.1-24-19.5-36.9-12.6-29.8-19-61.5-19-94.2s6.4-64.4 19-94.2c12.2-28.8 29.6-54.7 51.9-76.9 22.2-22.2 48.1-39.7 76.9-51.9 29.8-12.6 61.5-19 94.2-19s64.4 6.4 94.2 19c28.8 12.2 54.7 29.6 76.9 51.9 22.2 22.2 39.7 48.1 51.9 76.9 12.3 29.6 18.7 61.3 18.7 94z"  /><path d="M416.3 429.2m-18 0a18 18 0 1 0 36 0 18 18 0 1 0-36 0Z"  /><path d="M608.4 429.2m-18 0a18 18 0 1 0 36 0 18 18 0 1 0-36 0Z"  /><path d="M866.4 569.9c-4.4-14.8-13-27-24.1-35.4 11.2-17.3 15.2-39.6 8.9-61-1-3.3-2.1-6.4-3.5-9.4 4.6-5.5 7.4-12.7 7.4-20.7 0-13.6-8.1-25.1-19.5-29.2 5.4-8.2 8.5-18.2 8.5-29 0-19.1-9.9-35.7-24.5-44.3 4.2-5.4 6.7-12.3 6.7-19.9 0-17-12.8-30.8-28.7-30.8h-0.4v-1.6c0-27.8-20.9-50.3-46.8-50.3-3.8 0-7.6 0.5-11.2 1.5-15.8-42.5-54.6-69.1-96.4-69.1-10.7 0-21.7 1.8-32.5 5.4-13.6 4.6-25.6 11.9-35.9 21-11.7-21.7-33.6-34.9-57-34.9-6.8 0-13.7 1.1-20.5 3.4-6.1 2.1-11.7 5-16.7 8.6-17.2-12.6-37.8-19.6-59.3-19.6-10.7 0-21.7 1.8-32.5 5.4-28.5 9.8-50.6 31.1-62.9 57.5-5.7-3.2-12.1-4.9-18.7-4.9-4.2 0-8.4 0.7-12.6 2.1-16.4 5.6-27.3 21.2-28.5 38.3-6.1-1.9-12.5-3-19-3-6.8 0-13.7 1.1-20.5 3.4-35 12-54.6 51.6-43.7 88.5 2.3 7.8 5.8 14.8 10.1 20.9-21.9 4.2-38.5 24.8-38.5 49.5 0 21.3 12.3 39.5 29.7 46.9-12.4 14.2-20 33.4-20 54.4 0 33.5 19.3 62.2 46.5 73.9-2.1 1.4-4 2.9-5.9 4.5-3.1 2-5.7 4.7-7.9 7.7-12.6 14.3-20.4 33.6-20.4 54.9 0 39.9 27.4 73 63 78.7-0.1 1.5-0.2 3-0.2 4.6 0 27.8 20.9 50.3 46.8 50.3 6.6 0 12.9-1.5 18.6-4.2 7.3 35.7 36.8 62.4 72.2 62.4 15.5 0 29.8-5.1 41.7-13.9 8.4 8.6 19.7 13.9 32.2 13.9 9.8 0 18.9-3.3 26.5-8.8 6.8 18.8 23.7 32.1 43.6 32.1 17 0 31.8-9.7 40-24.3 8 6.9 18.1 11 29.1 11 16.7 0 31.4-9.4 39.6-23.6 7.5 8.1 17.9 12.8 28.8 12.8 4.2 0 8.4-0.7 12.6-2.1 10.5-3.6 18.8-11.3 23.7-20.8 3.1 0.7 6.4 1.1 9.7 1.1 22.6 0 41.4-17.2 45.8-40.2 50.5-17.6 80.5-71.5 71.8-125.2l0.9-0.3c35.2-11.7 54.7-51.3 43.9-88.2z m-48.8 73.3c-0.3 0.1-0.5 0.2-0.8 0.2-7.5 2.4-12.1 10-10.8 17.8 3.6 22.5-0.6 45.9-11.8 65.7-11.3 19.8-28.8 34.7-49.4 41.9-5.4 1.9-9.4 6.5-10.5 12.1-3 15.7-15.7 27.2-30.1 27.2-2.1 0-4.1-0.2-6.2-0.7-1.2-0.3-2.4-0.4-3.6-0.4-5.9 0-11.5 3.3-14.2 8.7-3.2 6.2-8.4 10.9-14.6 13-2.4 0.8-4.9 1.3-7.4 1.3-6.3 0-12.5-2.8-17-7.6-3-3.3-7.3-5.1-11.7-5.1-0.6 0-1.2 0-1.8 0.1-5 0.6-9.5 3.5-12.1 7.8-5.7 9.8-15.4 15.7-25.8 15.7-6.8 0-13.3-2.5-18.7-7.1-2.9-2.5-6.6-3.9-10.4-3.9-0.9 0-1.8 0.1-2.8 0.2-4.7 0.8-8.8 3.7-11.2 7.9-5.7 10.1-15.4 16.1-26.1 16.1-12.6 0-23.8-8.4-28.5-21.5-1.7-4.7-5.6-8.4-10.4-9.9-1.5-0.5-3.1-0.7-4.6-0.7-3.4 0-6.7 1.1-9.5 3.1-5 3.7-10.9 5.7-16.9 5.7-7.7 0-15.1-3.2-20.8-9-3.1-3.2-7.3-4.8-11.4-4.8-3.3 0-6.6 1-9.5 3.1-9.5 7-20.7 10.7-32.2 10.7-13.3 0-25.8-4.8-36.1-13.9-10.3-9-17.6-21.7-20.4-35.8-1-4.8-4.1-8.9-8.5-11.1-2.3-1.1-4.7-1.7-7.2-1.7-2.3 0-4.6 0.5-6.8 1.5-3.8 1.8-7.8 2.7-11.9 2.7-17 0-30.8-15.4-30.8-34.3 0-1 0-2.1 0.1-3.2 0.7-8.3-5.2-15.8-13.4-17.1-13.5-2.1-25.9-9.5-35-20.8-9.4-11.6-14.6-26.6-14.6-42.1 0-16.6 5.8-32.3 16.4-44.3 0.4-0.5 0.8-0.9 1.1-1.4 1-1.5 2.2-2.7 3.6-3.6 0.5-0.3 1-0.7 1.5-1.1 1.5-1.3 3.1-2.5 4.7-3.6 4.8-3.3 7.4-8.9 6.9-14.8-0.6-5.8-4.2-10.8-9.6-13.1-10.6-4.6-19.7-12.4-26.3-22.7-6.9-10.7-10.5-23.3-10.5-36.5 0-16.4 5.7-32 16.1-43.9 3.4-3.9 4.7-9.1 3.5-14.1-1.2-5-4.6-9.1-9.4-11.1-11.9-5-19.9-17.9-19.9-32.1 0-16.7 10.7-31 25.5-33.8 5.3-1 9.8-4.7 11.8-9.8 2-5.1 1.3-10.8-1.8-15.2-3.5-4.9-6.1-10.3-7.8-16.2-8.5-28.7 6.6-59.6 33.5-68.8 5-1.7 10.2-2.6 15.3-2.6 4.8 0 9.6 0.7 14.2 2.2 1.6 0.5 3.2 0.8 4.9 0.8 3.2 0 6.3-0.9 9-2.8 4.1-2.8 6.6-7.2 7-12.1 0.8-11.2 7.9-20.9 17.7-24.3 2.4-0.8 4.9-1.3 7.4-1.3 3.8 0 7.6 1 11 2.9 2.4 1.3 5.1 2 7.8 2 1.7 0 3.3-0.3 4.9-0.8 4.2-1.4 7.7-4.4 9.6-8.5 11-23.6 30-41.1 53.6-49.1 8.9-3 18.1-4.6 27.3-4.6 17.9 0 35.1 5.7 49.9 16.5 2.8 2.1 6.1 3.1 9.5 3.1 3.2 0 6.5-1 9.2-2.9 4-2.8 8.2-5 12.7-6.5 5-1.7 10.2-2.6 15.4-2.6 17.7 0 34.1 10.1 42.9 26.5 2.3 4.3 6.5 7.3 11.3 8.2 0.9 0.2 1.9 0.2 2.8 0.2 3.9 0 7.7-1.4 10.6-4.1 9-8 19.2-14 30.4-17.9 8.9-3 18.1-4.6 27.3-4.6 17.4 0 34.2 5.4 48.7 15.7 14.8 10.5 26.1 25.4 32.7 43 2.4 6.4 8.5 10.4 15 10.4 1.4 0 2.7-0.2 4.1-0.5 2.3-0.6 4.7-0.9 7.1-0.9 17 0 30.8 15.4 30.8 34.3v1.1c-0.1 4.4 1.5 8.6 4.6 11.7 3 3.1 7.1 4.8 11.4 4.8h0.5c6.9 0.1 12.5 6.7 12.5 14.8 0 3.7-1.2 7.2-3.3 10-2.9 3.6-4 8.3-3.1 12.9 0.9 4.5 3.7 8.5 7.6 10.8 10.2 6 16.6 17.6 16.6 30.4 0 7.3-2 14.3-5.9 20.2-2.7 4.1-3.3 9.2-1.8 13.8 1.5 4.6 5.1 8.3 9.7 10 5.3 1.9 8.9 7.8 8.9 14.2 0 3.9-1.3 7.6-3.6 10.4-4 4.7-4.9 11.3-2.3 16.9 1.1 2.4 2 4.8 2.7 7.3 4.8 16.2 2.3 33.6-6.9 47.7-4.6 7-2.9 16.4 3.7 21.4 8.8 6.7 15.2 16.1 18.4 27.2 8.2 28.9-6.8 59.8-33.7 69z"  /></svg>