<?xml version="1.0" standalone="no"?><!DOCTYPE svg PUBLIC "-//W3C//DTD SVG 1.1//EN" "http://www.w3.org/Graphics/SVG/1.1/DTD/svg11.dtd"><svg class="icon" width="600px" height="600.00px" viewBox="0 0 1024 1024" version="1.1" xmlns="http://www.w3.org/2000/svg"><path d="M472.3 669.8S293.1 519.9 315.9 227c0 0 141.8 111.1 156.4 442.8z" fill="#CFD55C" /><path d="M497.2 617.4S342.8 442.1 409.7 156c0 0 123.3 131.3 87.5 461.4zM573.5 618.8S466.4 411.2 601 150c-0.1-0.1 87.6 157.3-27.5 468.8z" fill="#6F9176" /><path d="M516.7 630.1s-114.7-203.5 10-469.5c0.1 0 93.5 154-10 469.5z" fill="#CFD55C" /><path d="M564.7 653.3s-50.4-228.1 146.5-446.2c0 0 44.5 174.5-146.5 446.2z" fill="#CFD55C" /><path d="M541.4 545.6l-54.6-0.1-174.8-0.3 75.8 349.7 98.3 0.2 54.6 0.1 98.4 0.2L716.2 546z" fill="#BFDBD9" /><path d="M541.2 676.7l146.1 0.3 28.9-131-174.8-0.4-54.6-0.1-174.8-0.3 28.4 131.1 146.2 0.3z" fill="#A2C9CC" /></svg>