<?xml version="1.0" standalone="no"?><!DOCTYPE svg PUBLIC "-//W3C//DTD SVG 1.1//EN" "http://www.w3.org/Graphics/SVG/1.1/DTD/svg11.dtd"><svg class="icon" width="600px" height="498.70px" viewBox="0 0 1232 1024" version="1.1" xmlns="http://www.w3.org/2000/svg"><path d="M1178.3 712.2c1.9 0 1.9-3 0-3-2 0-2 3 0 3zM1231.2 780.2c1.9 0 1.9-3 0-3-2 0-2 3 0 3z" fill="#FEF8FB" /><path d="M807.3 640.4c7.6-35 11.6-69.7 12.8-103.7 0.3-9.1-8.1-16.1-17-13.8l-120.4 31.2c-15.4 4-24-17.3-10-25l136.9-76.2c4.8-2.7 7.5-7.9 6.9-13.4-4.3-40.2-11.8-78.5-20.9-113.7-1.5-5.9-6.8-10-12.8-10.1l-63.3-1.7c-13.5-0.4-18.3-18.1-6.8-25.2l50.9-31.3c5.5-3.4 7.9-10.1 5.7-16.2-28.1-77.1-57.3-125.9-57.3-125.9L362.3 908.1s88.8 4.9 187.9-22.4c12.3-3.4 13.6-20.3 2-25.5-14.2-6.4-8.3-27.7 7.1-25.9l88.4 10.2c2.9 0.3 5.8-0.2 8.3-1.7 69.4-39.5 129.6-102.3 151.3-202.4z" fill="#3FBC74" /><path d="M380 921.4c-10.9 0-17.4-0.3-18.3-0.4-4.2-0.2-8.1-2.5-10.3-6.1-2.2-3.6-2.5-8.1-0.8-12l349.8-792.5c1.9-4.4 6.2-7.4 11-7.7 4.8-0.3 9.4 2.1 11.9 6.3 1.2 2 30.1 50.7 58.3 128.1 4.3 11.7-0.4 25-11 31.6L719.5 300c-0.4 0.5-0.2 1-0.1 1.2l63.7 1.7c11.8 0.3 22.1 8.5 25 19.8 10 38.9 17.2 77.8 21.2 115.5 1.2 10.6-4.2 20.8-13.5 26L679 540.4c-0.5 0.5-0.2 1.2 0.1 1.4l120.8-31.4c8.2-2.1 16.6-0.3 23.2 5 6.6 5.3 10.3 13.3 10 21.8-1.3 36.5-5.7 72.1-13 106C800 735 747 805.9 662.4 854c-4.8 2.8-10.6 3.9-16.2 3.3L557.8 847c-0.7 0.1-0.9 0.8-0.8 1.1 10.7 4.8 16.8 15.1 15.9 26.4-0.9 11.3-8.5 20.5-19.4 23.5-74.2 20.6-142.1 23.4-173.5 23.4z m333.3-776.5L382 895.5c30.9-0.2 95.6-3.2 164.7-22.3l0.1-1.3c-12.2-5.5-18.2-18.3-14.7-31.2 3.6-12.9 15.3-20.8 28.6-19.3l88.4 10.2c78.4-44.4 127.2-109.6 145.5-193.9l12.6 2.7-12.6-2.7c7-32.4 11.2-66.5 12.5-101.4l-0.8-0.8L686 566.7c-13.3 3.5-26.2-3-31.3-15.8-5.1-12.8-0.3-26.3 11.7-33l136.9-76.2c-3.6-37.2-10.5-74.8-20.2-112.5l-63.9-2.1c-11.8-0.3-21.8-8.2-24.9-19.6-3.1-11.4 1.6-23.3 11.7-29.5l50.9-31.3c-16.1-45.2-32.7-80.5-43.6-101.8z" fill="#1B1C26" /><path d="M572.4 173.2l11.2 58.7c2.5 13.3-13.8 21.7-23.1 12l-43.9-45.6c-4.2-4.4-10.8-5.5-16.1-2.7-32.1 17-65.4 37.2-98 61.1-4.4 3.2-6.5 8.8-5.2 14.2l35.9 152.5c3.7 15.5-17.8 23.6-25.2 9.5l-58-110c-4.3-8.1-15.1-9.7-21.6-3.3-24.3 23.8-47.3 50.1-68 79.3-59.3 83.6-65.1 170.4-47.5 248.2 0.6 2.8 2.2 5.4 4.4 7.3l67.1 58.4c11.7 10.2-0.1 28.9-14.3 22.7-11.7-5.1-23.3 7.3-17.5 18.7 46.6 91.6 110 153.9 110 153.9l349.8-792.5s-55.7 11.3-131.6 42.6c-6.3 2.4-9.6 8.7-8.4 15z" fill="#3FBC74" /><path d="M362.3 921c-3.4 0-6.6-1.3-9.1-3.7-2.7-2.6-65.5-64.9-112.5-157.3-5.1-10.1-3.4-21.9 4.3-30.2 7.8-8.2 19.5-10.7 29.8-6.2 0.6 0 1.1-0.5 1-0.8l-67.4-58.7c-4.3-3.8-7.2-8.7-8.5-14.2-21.5-94.9-4.8-181.9 49.6-258.5 20-28.2 43.4-55.5 69.5-81.1 6.1-6 14.4-8.7 22.8-7.3 8.3 1.3 15.4 6.3 19.3 13.8l58 110c0.5 0.5 1.2 0.2 1.4 0l-36.1-152.9c-2.5-10.4 1.5-21.2 10.1-27.6 30.6-22.4 64.1-43.3 99.6-62.1 10.4-5.5 23.3-3.4 31.5 5.1l43.9 45.6c0.5 0.3 1.1 0 1.2-0.2l-11.2-59.1c-2.3-12.3 4.4-24.7 15.9-29.4 76.2-31.3 131.6-42.8 133.9-43.3 4.7-1 9.6 0.8 12.6 4.6s3.7 8.9 1.8 13.3L374.2 913.3c-1.7 3.9-5.2 6.7-9.4 7.5-0.8 0.1-1.7 0.2-2.5 0.2z m-97.6-173.7l-0.9 1c32.5 63.9 73.9 113.7 94.6 136.7l331.3-750.6c-23.1 6.2-60.3 17.6-104.2 35.7l-13.1 3.1 12.7-2.4 11.2 58.7c2.2 11.6-3.4 23.1-13.9 28.5-10.5 5.4-23.1 3.4-31.3-5.2l-43.9-45.6c-35.1 18-67.6 38.3-97.2 60l35.7 153.2c3.2 13.4-3.6 26.1-16.5 30.9-12.9 4.8-26.3-0.3-32.7-12.4l-58-110-10.2-9.3 9 9.2c-25 24.5-47.3 50.5-66.5 77.5-50 70.4-65.3 150.4-45.5 237.8l67.4 58.8c10.1 8.8 12.1 22.8 5 34.1-7.2 11.5-20.7 15.6-33 10.3z" fill="#1B1C26" /><path d="M473.6 675.2h216" fill="#3FBC74" /><path d="M689.6 688.1h-216c-7.1 0-12.9-5.8-12.9-12.9 0-7.1 5.8-12.9 12.9-12.9h216.1c7.1 0 12.9 5.8 12.9 12.9 0 7.1-5.8 12.9-13 12.9z" fill="#1B1C26" /><path d="M320.2 529l110.5 185.7" fill="#3FBC74" /><path d="M430.8 727.6c-4.4 0-8.7-2.2-11.1-6.3L309.1 535.6c-3.7-6.1-1.6-14.1 4.5-17.7 6.1-3.7 14.1-1.6 17.7 4.5l110.5 185.7c3.7 6.1 1.6 14.1-4.5 17.7-2 1.2-4.3 1.8-6.5 1.8z" fill="#1B1C26" /><path d="M486 312.6l67.2 162.9" fill="#3FBC74" /><path d="M553.2 488.4c-5.1 0-9.9-3-11.9-8l-67.2-162.9c-2.7-6.6 0.4-14.2 7-16.9 6.6-2.7 14.2 0.4 16.9 7l67.2 162.9c2.7 6.6-0.4 14.2-7 16.9-1.7 0.7-3.3 1-5 1z" fill="#1B1C26" /><path d="M591.2 395.6l147-11.9" fill="#3FBC74" /><path d="M591.2 408.5c-6.7 0-12.3-5.1-12.9-11.9-0.6-7.1 4.7-13.3 11.8-13.9l147-11.8c7.2-0.6 13.3 4.7 13.9 11.8 0.6 7.1-4.7 13.3-11.8 13.9l-147 11.8c-0.3 0.1-0.6 0.1-1 0.1z" fill="#1B1C26" /><path d="M718.2 219m-11.1 0a11.1 11.1 0 1 0 22.2 0 11.1 11.1 0 1 0-22.2 0Z" fill="#FCDB75" /></svg>