<?xml version="1.0" standalone="no"?><!DOCTYPE svg PUBLIC "-//W3C//DTD SVG 1.1//EN" "http://www.w3.org/Graphics/SVG/1.1/DTD/svg11.dtd"><svg class="icon" width="600px" height="600.00px" viewBox="0 0 1024 1024" version="1.1" xmlns="http://www.w3.org/2000/svg"><path d="M285.8 689.6m-226.2 0a226.2 226.2 0 1 0 452.4 0 226.2 226.2 0 1 0-452.4 0Z" fill="#FFCE31" /><path d="M285.8 463.5c-16.2 0-31.9 1.7-47.1 4.9 102.3 21.7 179 112.5 179 221.2s-76.8 199.5-179 221.2c15.2 3.2 31 4.9 47.1 4.9 124.9 0 226.2-101.3 226.2-226.2s-101.3-226-226.2-226z" fill="#F28400" /><path d="M81.7 617.1c-3.6 0-7.3-0.8-10.8-2.5-12.5-6-17.7-20.9-11.8-33.3 1.8-3.8 3.8-7.7 5.8-11.5 6.6-12.1 21.8-16.6 33.9-10 12.1 6.6 16.6 21.8 10 33.9-1.6 3-3.2 6.1-4.7 9.2-4.1 9-13.1 14.2-22.4 14.2z" fill="#231E21" /><path d="M285.8 940.8c-67.1 0-130.2-26.1-177.6-73.6-47.4-47.4-73.6-110.5-73.6-177.6 0-15 1.3-30 3.9-44.6 2.4-13.6 15.4-22.6 29-20.2 13.6 2.4 22.6 15.4 20.2 29-2.1 11.7-3.2 23.7-3.2 35.8 0 110.9 90.2 201.2 201.2 201.2S487 800.5 487 689.6c0-110.9-90.2-201.2-201.2-201.2-53.7 0-104.2 20.9-142.2 58.9-9.8 9.8-25.6 9.8-35.4 0-9.8-9.8-9.8-25.6 0-35.4 47.4-47.4 110.5-73.6 177.6-73.6S416 464.6 463.4 512c47.4 47.4 73.6 110.5 73.6 177.6s-26.1 130.2-73.6 177.6c-47.4 47.4-110.5 73.6-177.6 73.6z" fill="#231E21" /><path d="M171.3 631.7c-5.1 0-10.2-1.5-14.7-4.8-11.2-8.1-13.7-23.7-5.6-34.9 13.6-18.7 30.5-34.1 50.4-45.9 11.9-7 27.2-3 34.2 8.8 7 11.9 3 27.2-8.8 34.2-13.9 8.2-25.8 19-35.3 32.1-4.8 7-12.5 10.5-20.2 10.5zM144.5 714.6c-13.8 0-25-11.2-25-25 0-6.4 0.4-12.9 1.1-19.2 1.6-13.7 14-23.6 27.7-22 13.7 1.6 23.6 14 22 27.7-0.5 4.5-0.8 9-0.8 13.5 0 13.8-11.2 25-25 25z" fill="#FFFFFF" /><path d="M681.6 633.1m-282.7 0a282.7 282.7 0 1 0 565.4 0 282.7 282.7 0 1 0-565.4 0Z" fill="#9FE229" /><path d="M681.6 350.4c-20.2 0-39.9 2.2-58.9 6.2 127.9 27.1 223.8 140.6 223.8 276.5s-95.9 249.4-223.8 276.5c19 4 38.7 6.2 58.9 6.2 156.1 0 282.7-126.6 282.7-282.7S837.7 350.4 681.6 350.4z" fill="#67A800" /><path d="M399.4 674.4c-13.2 0-24.2-10.3-24.9-23.6-0.3-5.9-0.5-11.9-0.5-17.8 0-13.8 11.2-25 25-25s25 11.2 25 25c0 5 0.1 10 0.4 15 0.8 13.8-9.7 25.6-23.5 26.4h-1.5zM681.6 940.8c-67 0-130.7-21.2-184.2-61.2-25.7-19.2-48.2-42.3-66.8-68.5-18.9-26.5-33.3-55.7-42.9-86.7-4.1-13.2 3.3-27.2 16.5-31.3 13.2-4.1 27.2 3.3 31.3 16.5 16 51.4 48.6 97.5 91.9 130 44.8 33.5 98.1 51.2 154.2 51.2 77.2 0 149.7-34.2 198.9-93.8 8.8-10.6 24.5-12.2 35.2-3.4 10.6 8.8 12.2 24.5 3.4 35.2-58.8 71.2-145.3 112-237.5 112zM942.1 768.1c-3.2 0-6.5-0.6-9.7-2-12.7-5.4-18.7-20-13.3-32.8 13.4-31.8 20.2-65.5 20.2-100.3 0-68.8-26.8-133.5-75.5-182.2-48.7-48.7-113.4-75.5-182.2-75.5-56.9 0-110.9 18.2-156 52.6-43.7 33.3-76.2 80.5-91.5 133-3.9 13.3-17.7 20.9-31 17-13.3-3.9-20.9-17.7-17-31 18.2-62.7 57-119.1 109.2-158.8 53.9-41.1 118.3-62.8 186.3-62.8 82.2 0 159.5 32 217.6 90.1 58.1 58.1 90.1 135.4 90.1 217.6 0 41.5-8.1 81.8-24.2 119.8-4 9.6-13.3 15.3-23 15.3z" fill="#231E21" /><path d="M538.4 554.5c-5.1 0-10.2-1.5-14.7-4.8-11.2-8.1-13.7-23.7-5.6-34.9 16.4-22.7 37-41.4 61.1-55.6 11.9-7 27.2-3 34.2 8.8 7 11.9 3 27.2-8.8 34.2-18.2 10.7-33.6 24.8-46 41.9-4.8 6.8-12.4 10.4-20.2 10.4zM504.9 658.1c-13.8 0-25-11.2-25-25 0-7.8 0.5-15.6 1.3-23.3 1.6-13.7 14-23.6 27.7-22 13.7 1.6 23.6 14 22 27.7-0.7 5.8-1 11.7-1 17.6 0 13.8-11.2 25-25 25z" fill="#FFFFFF" /><path d="M698.281556 338.931633a91.7 158.7 44.999 1 0 224.431775-224.439609 91.7 158.7 44.999 1 0-224.431775 224.439609Z" fill="#8CBF1D" /><path d="M505.665449 291.56933a158.7 91.7 44.999 1 0 129.68112-129.685647 158.7 91.7 44.999 1 0-129.68112 129.685647Z" fill="#8CBF1D" /><path d="M922.8 114.5c-17.5-4.7-35.6-6.6-53.7-6 5.2 52.8-12.2 107.3-52.7 147.7-34.2 34.2-78.6 52-123.4 53.5 1 9.9 2.7 19.7 5.2 29.3 61.1 16.3 129.1 0.5 177-47.4 48.1-48.1 63.9-116 47.6-177.1z" fill="#67A800" /><path d="M745.8 370.2c-18.2 0-36.3-2.4-53.9-7.1-8.6-2.3-15.4-9.1-17.7-17.7-9.3-34.7-9.4-71.4-0.4-106.2 9.2-35.9 28-68.7 54.4-95 26.3-26.3 59.2-45.1 95-54.4 34.8-9 71.5-8.8 106.2 0.4 8.6 2.3 15.4 9.1 17.7 17.7 9.3 34.7 9.4 71.4 0.4 106.2-9.2 35.9-28 68.7-54.4 95s-59.2 45.1-95 54.4c-17.2 4.4-34.8 6.7-52.3 6.7z m-26.5-52.3c22 3.7 44.6 2.8 66.2-2.8 27.2-7 52.2-21.3 72.2-41.3 20-20 34.3-44.9 41.3-72.2 5.6-21.6 6.5-44.3 2.8-66.2-22-3.7-44.6-2.8-66.2 2.8-27.2 7-52.2 21.3-72.2 41.3s-34.3 44.9-41.3 72.2c-5.6 21.6-6.5 44.3-2.8 66.2z" fill="#231E21" /><path d="M638.1 370.2c-17.6 0-35.1-2.2-52.2-6.6-35.9-9.2-68.7-28-95-54.4s-45.1-59.2-54.4-95c-9-34.8-8.8-71.5 0.4-106.2 2.3-8.6 9.1-15.4 17.7-17.7 34.7-9.3 71.4-9.4 106.2-0.4 35.9 9.2 68.7 28 95 54.4 26.3 26.3 45.1 59.2 54.4 95 9 34.8 8.8 71.5-0.4 106.2-2.3 8.6-9.1 15.4-17.7 17.7-17.6 4.6-35.8 7-54 7zM482.2 135.5c-3.7 22-2.8 44.6 2.8 66.2 7 27.2 21.3 52.2 41.3 72.2s44.9 34.3 72.2 41.3c21.6 5.6 44.3 6.5 66.2 2.8 3.7-22 2.8-44.6-2.8-66.2-7-27.2-21.3-52.2-41.3-72.2s-44.9-34.3-72.2-41.3c-21.6-5.6-44.3-6.5-66.2-2.8z" fill="#231E21" /><path d="M621.6 628.5m-21.8 0a21.8 21.8 0 1 0 43.6 0 21.8 21.8 0 1 0-43.6 0Z" fill="#231E21" /><path d="M752.5 628.5m-21.8 0a21.8 21.8 0 1 0 43.6 0 21.8 21.8 0 1 0-43.6 0Z" fill="#231E21" /><path d="M687.1 706.2c-18.6 0-34.8-11.9-40.3-29.7-2.5-7.9 2-16.3 9.9-18.8s16.3 2 18.8 9.9c1.6 5.1 6.3 8.6 11.7 8.6 5.1 0 9.5-3 11.4-7.8 0.5-1.3 1.1-2.3 1.6-3.2 3.1-6.2 10.1-9.5 17.1-7.8 8 2 12.9 10.2 10.8 18.2-0.5 1.9-1.2 3.6-2.2 5.2-6.8 15.6-21.8 25.4-38.8 25.4z m11.9-37.8zM281.9 838.2c-18.6 0-34.8-11.9-40.3-29.7-2.5-7.9 2-16.3 9.9-18.8s16.3 2 18.8 9.9c1.6 5.1 6.3 8.6 11.7 8.6 5.1 0 9.5-3 11.4-7.8 0.5-1.3 1.1-2.3 1.6-3.2 3.1-6.2 10.1-9.5 17.1-7.8 8 2 12.9 10.2 10.8 18.2-0.5 1.9-1.2 3.6-2.2 5.2-6.8 15.5-21.8 25.4-38.8 25.4z m11.9-37.9z" fill="#231E21" /><path d="M239.2 735.1m-21.8 0a21.8 21.8 0 1 0 43.6 0 21.8 21.8 0 1 0-43.6 0Z" fill="#231E21" /><path d="M332.5 735.1m-21.8 0a21.8 21.8 0 1 0 43.6 0 21.8 21.8 0 1 0-43.6 0Z" fill="#231E21" /></svg>