<?xml version="1.0" standalone="no"?><!DOCTYPE svg PUBLIC "-//W3C//DTD SVG 1.1//EN" "http://www.w3.org/Graphics/SVG/1.1/DTD/svg11.dtd"><svg class="icon" width="600px" height="600.00px" viewBox="0 0 1024 1024" version="1.1" xmlns="http://www.w3.org/2000/svg"><path d="M717.614 710.157c-11.505 0-22.243 2.302-32.213 6.52-0.767-0.767-1.152-1.535-1.918-2.301L478.697 510.742c-13.806-13.807-33.748-18.408-51.771-13.423l-0.384-0.384c-0.384 0.384-1.152 0.384-1.534 0.768-6.52 1.918-13.04 5.369-18.792 10.354-125.785 75.549-212.07 257.708-212.07 408.42 0 21.092-3.068 31.063 0 51.388h394.229v-198.65l19.558 19.559c3.452 3.451 6.904 6.135 10.738 8.435 1.918 19.175 18.024 34.132 37.583 34.132 18.407 0 33.746-13.04 37.198-30.297h0.767v-7.67c0-12.655 10.355-22.625 22.626-22.625 12.655 0 22.626 10.354 22.626 22.626v174.489h60.591V793.376c0.769-46.02-36.43-83.219-82.448-83.219zM830.36 337.786c-3.07-11.888-41.034-27.612-52.924-24.544l-7.285 1.918-36.048-40.65c-3.835-4.218-23.01-23.776-37.582-32.214-20.709-11.888-181.392 22.243-202.1 54.073-8.822 13.805-12.656 29.912-14.573 37.581l-12.656 62.51-7.286 1.918c-11.889 3.068-36.816 35.664-33.749 47.552 3.068 11.888 15.34 19.175 27.612 15.724l48.32-12.656c11.505 61.36 65.577 107.763 130.388 107.763 73.247 0 132.687-59.058 132.687-131.923 0-15.34-2.684-30.295-7.668-44.102l56.757-15.338c12.27-3.452 19.558-15.724 16.107-27.612z m-100.475-68.262l4.218 4.985c1.533 1.918 0.767 0.767-4.218-4.985z" /></svg>