<?xml version="1.0" standalone="no"?><!DOCTYPE svg PUBLIC "-//W3C//DTD SVG 1.1//EN" "http://www.w3.org/Graphics/SVG/1.1/DTD/svg11.dtd"><svg class="icon" width="600px" height="600.00px" viewBox="0 0 1024 1024" version="1.1" xmlns="http://www.w3.org/2000/svg"><path d="M85.1 939.4h876.2v31.3H85.1zM304.1 407.5v469.4H116.4V407.5h187.7m0-31.3h-219v532h219.1c17.3 0 31.3-14 31.3-31.3V407.5c0-17.4-14.1-31.3-31.4-31.3zM930 407.5v469.4H742.2V407.5H930m31.3-31.3H742.2c-17.3 0-31.3 14-31.3 31.3v469.4c0 17.3 14 31.3 31.3 31.3h219.1v-532zM843.6 125.8c6.3 0 16.2 6.4 18.5 10.9l90.5 176.8H709.4L567.7 175.2c-11.9-11.7-27.7-18-44.5-18s-32.6 6.4-44.5 18L337 313.6H93.7l90.5-176.8c2.4-4.5 12.3-10.9 18.5-10.9h640.9m0-31.4H202.7c-17.6 0-38.5 12.6-46.4 28L56.8 316.9c-7.9 15.4 0.1 28 17.7 28h275.2l150.8-147.3c6.3-6.1 14.5-9.1 22.7-9.1s16.5 3 22.7 9.1l150.8 147.3h275.2c17.7 0 25.6-12.6 17.7-28L890 122.5c-7.9-15.4-28.7-28-46.4-28z" fill="#707070" /><path d="M523.2 264l49.6 49.6h-99.2l49.6-49.6m0-44.3L398 344.9h250.3L523.2 219.7zM241.6 470.1v62.6H179v-62.6h62.6m15.6-31.3H147.7V564h109.5c8.7 0 15.7-7 15.7-15.6v-93.9c0-8.7-7-15.7-15.7-15.7zM554.5 470.1v62.6h-62.6v-62.6h62.6m15.6-31.3h-93.9c-8.6 0-15.6 7-15.6 15.6v93.9c0 8.6 7 15.6 15.6 15.6h93.9c8.7 0 15.7-7 15.7-15.6v-93.9c0-8.6-7-15.6-15.7-15.6zM179 689.1c0-17.2 14.1-31.3 31.3-31.3 17.2 0 31.3 14.1 31.3 31.3v156.4h31.3V689.1c0-34.4-28.2-62.6-62.6-62.6-34.4 0-61.1 28.2-61.1 62.6l-1.5 156.4H179V689.1z" fill="#707070" /><path d="M179 814.2h62.6v31.3H179zM867.4 470.1v62.6h-62.6v-62.6h62.6m31.3-31.3H789.2c-8.6 0-15.7 7-15.7 15.6v93.9c0 8.6 7.1 15.6 15.7 15.6h109.5V438.8zM804.8 689.1c0-17.2 14.1-31.3 31.3-31.3 17.2 0 31.3 14.1 31.3 31.3v156.4h31.3V689.1c0-34.4-28.2-62.6-62.6-62.6-34.4 0-61 28.2-61 62.6l-1.6 156.4h31.3V689.1z" fill="#707070" /><path d="M804.8 814.2h62.6v31.3h-62.6zM491.9 751.7c0-17.2 14.1-31.3 31.3-31.3 17.3 0 31.3 14.1 31.3 31.3v156.4h31.3V751.7c0-34.4-28.2-62.6-62.6-62.6-34.4 0-61 28.2-61 62.6l-1.6 156.4h31.3V751.7z" fill="#707070" /><path d="M617.1 376.2H429.4c-17.3 0-31.3 14-31.3 31.3v469.4c0 17.3 14 31.3 31.3 31.3H492v-31.3h-62.6V407.5h187.7v469.4h-62.6v31.3h62.6c17.3 0 31.3-14 31.3-31.3V407.5c0-17.4-14-31.3-31.3-31.3z" fill="#707070" /></svg>