<?xml version="1.0" standalone="no"?><!DOCTYPE svg PUBLIC "-//W3C//DTD SVG 1.1//EN" "http://www.w3.org/Graphics/SVG/1.1/DTD/svg11.dtd"><svg class="icon" width="600px" height="600.00px" viewBox="0 0 1024 1024" version="1.1" xmlns="http://www.w3.org/2000/svg"><path d="M456.9 514.6h30.6v61.3h-30.6zM395.7 514.6h30.6v61.3h-30.6zM334.4 514.6H365v61.3h-30.6zM273.1 514.6h30.6v61.3h-30.6zM671.4 514.6H702v61.3h-30.6zM732.7 514.6h30.6v61.3h-30.6zM610.1 514.6h30.6v61.3h-30.6zM548.9 514.6h30.6v61.3h-30.6zM518.2 300.1c-8.5 0-15.3-6.8-15.3-15.3V70.4c0-8.5 6.8-15.3 15.3-15.3s15.3 6.9 15.3 15.3v214.4c0 8.5-6.8 15.3-15.3 15.3zM273.1 453.3h490.2v30.6H273.1z" fill="#157EFB" /><path d="M273.1 514.6h490.2v30.6H273.1zM273.1 575.8h490.2v30.6H273.1zM518.2 300.8c36.2 0 71.3 12.9 98.8 36.5 17.4 14.9 31.1 33.4 40.3 54.1H379.1c9.2-20.6 22.9-39.2 40.3-54.1 27.5-23.5 62.6-36.5 98.8-36.5m0-31.3c-91.1 0-166.4 66.2-181.1 153.2h362.1c-14.6-87-89.9-153.2-181-153.2z" fill="#157EFB" /><path d="M456.9 698.3h122.5V729H456.9zM456.9 759.6h122.5v30.6H456.9z" fill="#157EFB" /><path d="M242.5 637.1v183.8h30.6V667.7h30.7v153.2h30.6V667.7H365v153.2h30.7V667.7h30.6v153.2h30.6V667.7h122.6v153.2h30.6V667.7h30.6v153.2h30.7V667.7H702v153.2h30.7V667.7h30.6v153.2h30.6V637.1z" fill="#157EFB" /><path d="M579.5 790.3v30.6h337v122.6H842c-24-55.2-78.6-91.9-140-91.9-61.4 0-115.9 36.8-139.9 91.9h-87.7c-24-55.2-78.6-91.9-139.9-91.9-61.4 0-115.9 36.8-139.9 91.9H120V820.9h337v-30.6H89.4v183.8h126.9c13.7-52.8 61.2-91.9 118.2-91.9s104.5 39.2 118.2 91.9h131.2c13.6-52.8 61.2-91.9 118.2-91.9 57.1 0 104.5 39.2 118.2 91.9h126.8V790.3H579.5z" fill="#157EFB" /></svg>