<?xml version="1.0" standalone="no"?><!DOCTYPE svg PUBLIC "-//W3C//DTD SVG 1.1//EN" "http://www.w3.org/Graphics/SVG/1.1/DTD/svg11.dtd"><svg class="icon" width="600px" height="600.00px" viewBox="0 0 1024 1024" version="1.1" xmlns="http://www.w3.org/2000/svg"><path d="M453.3 250.8c-6.3-12.2-18.1-19.7-30.7-21.2v-0.2H227.3v0.1c-15.1-1-30.1 6.9-37.3 21.3L68.4 488.2c-10 19.2-2.3 43 17.1 52.9 5.7 3 11.9 4.4 17.9 4.4 14.3 0 28-7.8 35.1-21.4l110.6-216h20.6l-152 294.8h120.1v294.9c0 21.7 17.6 39.3 39.2 39.3 21.7 0 39.3-17.6 39.3-39.3v-295h10.5v294.9c0 21.7 17.6 39.3 39.3 39.3s39.3-17.6 39.3-39.3V602.8h120.1L374.6 308h19.7L505 523.9c6.9 13.5 20.8 21.4 35.1 21.4 6.1 0 12.1-1.4 17.8-4.4 19.4-9.9 27-33.6 17.1-52.9L453.3 250.8z m495.2-9.9c-7.4-7.4-17.5-11.5-27.8-11.5H653.3c-10.3 0-20.6 4.2-27.8 11.5-7.4 7.4-11.5 17.5-11.5 27.8V536c0 21.7 17.6 39.3 39.3 39.3s39.3-17.6 39.3-39.3V323.7c0-4 1.5-8.1 4.6-11.2 1.7-1.7 3.7-2.9 5.8-3.6v588.8c0 21.7 17.6 39.3 39.3 39.3 21.7 0 39.3-17.6 39.3-39.3V602.8h10.5v294.9c0 21.7 17.6 39.3 39.3 39.3s39.3-17.6 39.3-39.3V309c2.1 0.7 4.2 1.9 5.8 3.6 3.1 3.1 4.6 7.1 4.6 11.2V536c0 21.7 17.6 39.3 39.3 39.3 21.7 0 39.3-17.6 39.3-39.3V268.6c0.3-10.2-4-20.4-11.2-27.7zM787.2 225c38.1 0 69-30.9 69-69s-30.9-69-69-69-68.9 30.9-68.9 69c-0.1 38.1 30.8 69 68.9 69z m-465.5 0c38.1 0 69-30.9 69-69s-30.9-69-69-69-68.9 30.9-68.9 69c-0.1 38.1 30.8 69 68.9 69z" /></svg>