<?xml version="1.0" standalone="no"?><!DOCTYPE svg PUBLIC "-//W3C//DTD SVG 1.1//EN" "http://www.w3.org/Graphics/SVG/1.1/DTD/svg11.dtd"><svg class="icon" width="600px" height="600.00px" viewBox="0 0 1024 1024" version="1.1" xmlns="http://www.w3.org/2000/svg"><path d="M24.4264 368L931.6264 152s92.8 17.6 92.8 139.2 8 416-390.4 545.6S-93.9736 731.2 24.4264 368z" fill="#E1B305" /><path d="M24.4264 368L922.0264 152s84.8 8 92.8 112-17.6 432-270.4 528-736 60.8-660.8-406.4L24.4264 368z" fill="#F3E8AA" /><path d="M24.4264 368L922.0264 152s25.6 0 17.6 8C918.8264 182.4 118.8264 385.6 109.2264 393.6S16.4264 393.6 24.4264 368z" fill="#EED883" /><path d="M515.6264 350.4s0 51.2-51.2 86.4-136 155.2-203.2 164.8c-67.2 8-102.4-60.8-102.4-112 0-35.2-25.6-68.8 17.6-86.4 43.2-17.6 297.6-86.4 339.2-52.8zM574.8264 393.6s17.6-17.6 25.6 0 25.6 51.2 0 147.2c-25.6 96-51.2 225.6-110.4 216-59.2-8-211.2 0-177.6-104s262.4-259.2 262.4-259.2zM634.0264 403.2s-8-25.6 17.6-35.2 92.8 68.8 102.4 112 76.8 172.8 0 225.6c-76.8 51.2-76.8 51.2-102.4 51.2s-84.8 25.6-33.6-172.8c25.6-145.6 16-180.8 16-180.8z" fill="#F1DA28" /><path d="M710.8264 360s51.2-43.2 169.6 51.2 33.6 172.8 25.6 182.4c-8 8-41.6 51.2-59.2 43.2s-33.6-8-41.6-112c-9.6-104-94.4-104-94.4-164.8z" fill="#F1DA28" /><path d="M685.2264 307.2s92.8-35.2 126.4-43.2 102.4-60.8 144-43.2 33.6 78.4 25.6 104c-8 25.6-8 96-25.6 104s-67.2-68.8-126.4-78.4-152-16-144-43.2z" fill="#F1DA28" /></svg>