<?xml version="1.0" standalone="no"?><!DOCTYPE svg PUBLIC "-//W3C//DTD SVG 1.1//EN" "http://www.w3.org/Graphics/SVG/1.1/DTD/svg11.dtd"><svg class="icon" width="600px" height="600.00px" viewBox="0 0 1024 1024" version="1.1" xmlns="http://www.w3.org/2000/svg"><path d="M830.603353 85.270994a22.371927 22.371927 0 0 0-31.646143 0.367644L90.507521 810.737798a22.375124 22.375124 0 0 0 0.367644 31.642946c68.989167 67.4067 161.897562 103.039381 266.039874 103.036183 19.635378 0 39.67996-1.265974 60.02505-3.826693 126.360788-15.898199 250.001012-79.970529 348.13954-180.41722 98.138528-100.443495 159.320858-225.53831 172.281103-352.234773 13.152059-128.608211-24.763211-243.556055-106.757379-323.667247zM285.662464 718.788474a32.924904 32.924904 0 0 0 23.120003 9.418076 33.27976 33.27976 0 0 0 23.666673-9.964747c12.742855-13.046561 12.499891-34.034229-0.543474-46.786675a32.902526 32.902526 0 0 0-23.120002-9.418076c-4.55239 0-8.951328 0.917511-13.008198 2.650232L764.219662 185.238151c86.84387 133.742437 48.83589 336.336574-94.366183 482.901788-143.134938 146.504474-344.865911 189.24387-480.584034 105.558541l88.82595-90.913528c-4.83052 12.055521-2.288983 26.377647 7.567069 36.003522z m14.772889-31.82517a11.745422 11.745422 0 0 1 8.347114-3.513396c3.021073 0 5.994193 1.208429 8.152103 3.318385a11.687877 11.687877 0 0 1 0.188617 16.512004 11.729437 11.729437 0 0 1-8.337523 3.513397c-3.021073 0-5.994193-1.214823-8.161693-3.327976a11.68468 11.68468 0 0 1-0.188618-16.502414z m592.398914-282.577453c-11.930842 116.674172-68.672673 232.274184-159.768425 325.511861-91.095751 93.234479-205.349867 152.645724-321.713939 167.284343-105.951759 13.334282-201.794911-12.122656-272.596722-71.789654l18.618763-19.056739c53.787893 35.485623 118.598708 53.938147 188.42866 53.938148 23.500434 0 47.573114-2.084381 71.96868-6.301096 103.253573-17.845113 204.144635-72.735937 284.092785-154.563866 80.018482-81.898261 132.565977-184.128825 147.959065-287.852343 14.421229-97.169867-4.629116-188.297587-53.679198-259.003491l18.583597-19.021573c61.300615 69.401567 88.96981 164.637308 78.106734 270.85441z" fill="#009FE8" /><path d="M447.636752 655.719971a29.692835 29.692835 0 0 0 21.112347-8.88739 29.331585 29.331585 0 0 0 8.404658-20.971684 29.30601 29.30601 0 0 0-8.880996-20.763885 29.344373 29.344373 0 0 0-20.632812-8.411052 29.699229 29.699229 0 0 0-21.118741 8.893785c-11.36499 11.643121-11.144404 30.360988 0.492323 41.738765a29.350766 29.350766 0 0 0 20.623221 8.401461z m-10.901439-40.165889a15.345134 15.345134 0 0 1 10.904636-4.590753c3.944978 0 7.826019 1.57927 10.655277 4.341395a15.255621 15.255621 0 0 1 0.246162 21.547126 15.335544 15.335544 0 0 1-10.898242 4.590752 15.37071 15.37071 0 0 1-10.645687-4.331803 15.357922 15.357922 0 0 1-4.597147-10.732003 15.335544 15.335544 0 0 1 4.335001-10.824714zM427.710455 771.217683c8.852224 0 17.477469-3.628485 23.666673-9.958353 6.176417-6.323474 9.523574-14.670588 9.418077-23.510025s-3.641273-17.109825-9.96155-23.279847a32.915313 32.915313 0 0 0-23.1232-9.421273 33.27976 33.27976 0 0 0-23.663476 9.961549c-12.749249 13.049758-12.506285 34.037426 0.540277 46.789873a32.905723 32.905723 0 0 0 23.123199 9.418076z m-8.343916-41.240049a11.745422 11.745422 0 0 1 8.343916-3.516593c3.021073 0 5.994193 1.214823 8.158497 3.324779a11.68468 11.68468 0 0 1 0.195011 16.502413 11.742225 11.742225 0 0 1-8.350311 3.516594 11.7678 11.7678 0 0 1-8.152102-3.318386 11.748619 11.748619 0 0 1-3.516594-8.21604 11.707059 11.707059 0 0 1 3.321583-8.292767zM698.788648 548.460679a29.763167 29.763167 0 0 0 21.153908-8.909769c11.387368-11.662302 11.169979-30.421729-0.48593-41.812294a29.405114 29.405114 0 0 0-20.667978-8.42384 29.750379 29.750379 0 0 0-21.157104 8.909769 29.385932 29.385932 0 0 0-8.414248 21.00685 29.379539 29.379539 0 0 0 8.900178 20.802247 29.421098 29.421098 0 0 0 20.671174 8.427037z m-10.859879-40.191465a15.277999 15.277999 0 0 1 10.859879-4.568374c3.932191 0 7.80364 1.576073 10.604128 4.315819a15.290787 15.290787 0 0 1 4.577965 10.69364 15.28759 15.28759 0 0 1-4.32541 10.789548 15.265212 15.265212 0 0 1-10.856683 4.571571 15.303575 15.303575 0 0 1-10.616914-4.328606 15.204471 15.204471 0 0 1-0.242965-21.473598zM744.820855 310.697412a29.705623 29.705623 0 0 0 21.112347-8.88739 29.331585 29.331585 0 0 0 8.404658-20.974881 29.315601 29.315601 0 0 0-8.880996-20.760688 29.34757 29.34757 0 0 0-20.636009-8.411052 29.692835 29.692835 0 0 0-21.112348 8.88739c-11.368187 11.639924-11.150798 30.360988 0.492323 41.748357a29.373145 29.373145 0 0 0 20.620025 8.398264z m-10.898243-40.172283a15.332347 15.332347 0 0 1 10.898243-4.587556c3.941781 0 7.822822 1.57927 10.658474 4.344591a15.255621 15.255621 0 0 1 0.249359 21.540733 15.345134 15.345134 0 0 1-10.904636 4.593949 15.377103 15.377103 0 0 1-10.648884-4.335c-2.870819-2.803684-4.542799-6.716693-4.590753-10.72561s1.534513-7.960288 4.338197-10.831107zM519.76208 522.885455a29.763167 29.763167 0 0 0 21.153908-8.909769c11.387368-11.662302 11.169979-30.421729-0.48593-41.812294a29.405114 29.405114 0 0 0-20.667978-8.42384 29.750379 29.750379 0 0 0-21.157104 8.909769 29.385932 29.385932 0 0 0-8.414248 21.00685 29.379539 29.379539 0 0 0 8.900178 20.802247 29.421098 29.421098 0 0 0 20.671174 8.427037z m-10.859879-40.191465a15.277999 15.277999 0 0 1 10.859879-4.568374c3.932191 0 7.80364 1.576073 10.604128 4.315819a15.290787 15.290787 0 0 1 4.577965 10.69364 15.28759 15.28759 0 0 1-4.32541 10.789548 15.265212 15.265212 0 0 1-10.856683 4.571571 15.303575 15.303575 0 0 1-10.616914-4.328606 15.204471 15.204471 0 0 1-0.242965-21.473598zM630.768143 605.128981a29.750379 29.750379 0 0 0-21.157104 8.909769 29.385932 29.385932 0 0 0-8.414248 21.00685 29.379539 29.379539 0 0 0 8.900178 20.802247 29.421098 29.421098 0 0 0 20.671174 8.427037 29.763167 29.763167 0 0 0 21.153908-8.909769c11.387368-11.662302 11.169979-30.421729-0.48593-41.812294a29.405114 29.405114 0 0 0-20.667978-8.42384z m10.856683 40.185071a15.265212 15.265212 0 0 1-10.856683 4.571571 15.303575 15.303575 0 0 1-10.616915-4.328606 15.204471 15.204471 0 0 1-0.242964-21.473598 15.277999 15.277999 0 0 1 10.859879-4.568374c3.932191 0 7.80364 1.576073 10.604128 4.315819a15.290787 15.290787 0 0 1 4.577965 10.69364 15.274803 15.274803 0 0 1-4.32541 10.789548zM630.748962 459.110437c8.852224 0 17.477469-3.628485 23.666673-9.958353 6.176417-6.323474 9.523574-14.670588 9.418076-23.510025s-3.641273-17.109825-9.96155-23.279847a32.915313 32.915313 0 0 0-23.123199-9.421274 33.27976 33.27976 0 0 0-23.663476 9.96155c-12.749249 13.049758-12.506285 34.037426 0.540277 46.789873a32.91851 32.91851 0 0 0 23.123199 9.418076z m-8.343917-41.240049a11.745422 11.745422 0 0 1 8.343917-3.516593c3.021073 0 5.994193 1.214823 8.158496 3.324779a11.68468 11.68468 0 0 1 0.195011 16.502413 11.742225 11.742225 0 0 1-8.35031 3.516593 11.7678 11.7678 0 0 1-8.152103-3.318385 11.748619 11.748619 0 0 1-3.516593-8.216041 11.732634 11.732634 0 0 1 3.321582-8.292766zM538.173045 616.78489a32.902526 32.902526 0 0 0 23.120002 9.418076c8.852224 0 17.477469-3.628485 23.666673-9.958353 6.176417-6.323474 9.523574-14.670588 9.418077-23.510025s-3.641273-17.109825-9.96155-23.279847a32.915313 32.915313 0 0 0-23.1232-9.421273 33.27976 33.27976 0 0 0-23.663476 9.961549c-12.749249 13.049758-12.503088 34.040623 0.543474 46.789873z m14.779282-31.821973a11.745422 11.745422 0 0 1 8.343917-3.516593c3.021073 0 5.994193 1.214823 8.158497 3.324779a11.68468 11.68468 0 0 1 0.195011 16.502413 11.742225 11.742225 0 0 1-8.350311 3.516594 11.7678 11.7678 0 0 1-8.152102-3.318386 11.748619 11.748619 0 0 1-3.516594-8.21604 11.713453 11.713453 0 0 1 3.321582-8.292767z" fill="#009FE8" /></svg>