<?xml version="1.0" standalone="no"?><!DOCTYPE svg PUBLIC "-//W3C//DTD SVG 1.1//EN" "http://www.w3.org/Graphics/SVG/1.1/DTD/svg11.dtd"><svg class="icon" width="600px" height="600.00px" viewBox="0 0 1024 1024" version="1.1" xmlns="http://www.w3.org/2000/svg"><path d="M280.7 528.5C312 456 363.5 355.2 428.5 284.2s112.5-87.9 169.7-79.5c57.2 8.5 136.8 74.9 157.4 138.7s0 158.3-83.2 249.9-152.6 126-243.8 175.4C337.3 818.1 205 865.5 205 813.1s44.4-212.2 75.7-284.6z" fill="#FF8238" /><path d="M665.6 226v-99.8l40.1 16-11.2 99.4M719.8 280.1l109-16.8v43.5H740M694.3 254.1l68.6-95.2 49.1 43.4-92.5 67.2" fill="#CFE530" /><path d="M238.8 849.4c-12.8 0-22.9-2.3-30.6-6.9-10.6-6.3-16.4-17-16.4-30 0-36.1 18.6-108.8 26.6-138.3 15.8-58.3 35-116.4 50.2-151.6 19.1-44.2 40-86 62-124.1 28.6-49.5 58.3-91.2 88.3-123.9 33.5-36.6 62.9-59.7 92.4-72.8 28-12.4 56.4-15.9 89.6-11 30.3 4.5 66.6 23.4 99.5 51.8 33.6 29 58.8 64.1 69.2 96.3 11.6 36.1 10.8 78.5-2.6 122.8-14.4 47.7-43.3 96.3-83.6 140.6-79.7 87.7-146.5 123.7-231 169.3-5.4 2.9-10.9 5.9-16.5 8.9-41.7 22.6-87.6 42.6-126 54.9-29.3 9.3-52.8 14-71.1 14z m55.4-315.8c-35.3 81.6-74.6 235.9-74.6 278.9 0 4 1.3 5.1 2.8 6.1 4 2.4 21.4 8.7 78.9-9.8 36.8-11.8 81-31.1 121.2-52.8 5.6-3 11.1-6 16.5-8.9 82.2-44.3 147.1-79.3 223.6-163.5 37.5-41.2 64.3-86.2 77.5-129.9 11.7-38.8 12.7-75.5 2.8-106.1-8.9-27.5-31.1-58-60.9-83.8-28.6-24.7-60.4-41.6-85.3-45.3-28-4.2-50.9-1.4-74.1 8.9-25.9 11.5-52.3 32.5-83.1 66.2-29.3 31.8-87.1 105.4-145.3 240z" fill="#212121" /><path d="M695.1 255.3c-0.5 0-1 0-1.6-0.1-7.7-0.9-13.2-7.8-12.3-15.4l10-88.8-11-4.4v79.2c0 7.7-6.2 13.9-13.9 13.9s-13.9-6.2-13.9-13.9V126c0-4.6 2.3-9 6.1-11.6 3.8-2.6 8.7-3.1 13-1.4l40 16c5.8 2.3 9.4 8.3 8.7 14.5L709 243c-0.8 7.1-6.9 12.3-13.9 12.3zM829.3 321h-88.9c-7.7 0-13.9-6.2-13.9-13.9s6.2-13.9 13.9-13.9h75v-13.3l-92.9 14.3c-7.6 1.2-14.7-4-15.9-11.7-1.2-7.6 4-14.7 11.7-15.9l109-16.8c4-0.6 8.1 0.5 11.2 3.2 3.1 2.6 4.9 6.5 4.9 10.6v43.5c-0.2 7.7-6.4 13.9-14.1 13.9z" fill="#212121" /><path d="M720.3 283.6c-4.3 0-8.6-2-11.3-5.8-4.5-6.2-3.1-15 3.1-19.5l78.4-57-24.5-21.5-59.6 82.7c-4.5 6.2-13.2 7.7-19.5 3.2-6.2-4.5-7.7-13.2-3.2-19.5l68.6-95.2c2.3-3.2 5.9-5.3 9.8-5.7 3.9-0.4 7.8 0.8 10.8 3.4L822 192c3.2 2.8 4.9 6.9 4.7 11.1-0.2 4.2-2.3 8.1-5.7 10.6L728.5 281c-2.5 1.8-5.3 2.6-8.2 2.6zM548.5 387.4c-3.6 0-7.1-1.4-9.9-4.1L434.8 279.6c-5.4-5.4-5.4-14.3 0-19.7 5.4-5.4 14.3-5.4 19.7 0l103.8 103.8c5.4 5.4 5.4 14.3 0 19.7-2.7 2.7-6.2 4-9.8 4zM614.1 657.3c-3.6 0-7.2-1.4-10-4.2L495.5 542.5c-5.4-5.5-5.3-14.3 0.2-19.7 5.5-5.4 14.3-5.3 19.7 0.2L624 633.7c5.4 5.5 5.3 14.3-0.2 19.7-2.6 2.6-6.2 3.9-9.7 3.9zM343.7 663.1c-3.6 0-7.1-1.4-9.9-4.1l-77.6-77.6c-5.4-5.4-5.4-14.3 0-19.7 5.4-5.4 14.3-5.4 19.7 0l77.6 77.6c5.4 5.4 5.4 14.3 0 19.7-2.7 2.8-6.2 4.1-9.8 4.1zM484.3 402.8c-3.6 0-7.1-1.4-9.9-4.1l-77.6-77.6c-5.4-5.4-5.4-14.3 0-19.7 5.4-5.4 14.3-5.4 19.7 0l77.6 77.6c5.4 5.4 5.4 14.3 0 19.7-2.7 2.8-6.2 4.1-9.8 4.1z" fill="#212121" /></svg>