<?xml version="1.0" standalone="no"?><!DOCTYPE svg PUBLIC "-//W3C//DTD SVG 1.1//EN" "http://www.w3.org/Graphics/SVG/1.1/DTD/svg11.dtd"><svg class="icon" width="600px" height="600.00px" viewBox="0 0 1024 1024" version="1.1" xmlns="http://www.w3.org/2000/svg"><path d="M349.6 305.7c99.9 0 180.9 81.1 180.9 181.1s-81 181.1-180.9 181.1-180.9-81.1-180.9-181.1 80.9-181.1 180.9-181.1z" fill="#44336B" /><path d="M350 305.3c100.1 0 181.3 81.2 181.3 181.3 0 100.1-81.2 181.3-181.3 181.3s-181.3-81.2-181.3-181.3c-0.1-100.1 81.1-181.3 181.3-181.3z" fill="#44336B" /><path d="M274 380.1c12.5 7.1 14.8 26 5.2 42.4-9.6 16.3-27.5 23.8-40 16.8-12.5-7.1-14.8-26-5.2-42.4 9.7-16.4 27.5-23.9 40-16.8z" fill="#716392" /><path d="M350 305.3c100.1 0 181.3 81.2 181.3 181.3 0 100.1-81.2 181.3-181.3 181.3" fill="#37265E" /><path d="M668.9 351.8c98.3 0 177.9 81.1 177.9 181.1S767.2 714 668.9 714C570.6 714 491 632.9 491 532.9s79.6-181.1 177.9-181.1z" fill="#44336B" /><path d="M669.2 351.3c98.4 0 178.2 81.2 178.2 181.3 0 100.1-79.8 181.3-178.2 181.3-98.4 0.1-178.2-81.1-178.2-181.2 0-100.2 79.8-181.4 178.2-181.4z" fill="#44336B" /><path d="M669.2 351.3c98.4 0 178.2 81.2 178.2 181.3 0 100.1-79.8 181.3-178.2 181.3" fill="#37265E" /><path d="M503.1 513.1c108.4 0 196.3 88.8 196.3 198.3s-87.9 198.3-196.3 198.3-196.3-88.8-196.3-198.3 87.9-198.3 196.3-198.3z" fill="#4D3C75" /><path d="M503.1 513.1c108.4 0 196.3 88.8 196.3 198.3s-87.9 198.3-196.3 198.3" fill="#3C266D" /><path d="M594.6 426.2c12.3 7.1 14.5 26 5.1 42.4-9.4 16.3-27 23.8-39.3 16.8-12.3-7.1-14.5-26-5.1-42.4s27-23.9 39.3-16.8z" fill="#716392" /><path d="M332.4 287.5c-41-69.9-5.1-166.3 12.2-176.3 21.6-12.5 119.6 6.9 160.5 76.8 41 69.9 8.2 164.5-12.2 176.3-18.9 10.9-119.5-6.9-160.5-76.8z" fill="#63CC68" /><path d="M420.7 594.8c13.5 7.8 16 28.6 5.6 46.5s-29.7 26.2-43.2 18.4-16-28.6-5.6-46.5c10.4-18 29.7-26.2 43.2-18.4z" fill="#8E83AA" /><path d="M332.4 287.5c-41-69.9-5.1-166.3 12.2-176.3 21.6-12.5 119.6 6.9 160.5 76.8 41 69.9 8.2 164.5-12.2 176.3-18.9 10.9-119.5-6.9-160.5-76.8z" fill="#52AF50" /><path d="M544.8 178c71.8-72.4 200.9-62.5 218.9-44.5 23.8 23.8 30.6 145.3-41.2 217.7-71.8 72.4-205.8 57.6-218.9 44.5-13.8-13.8-30.6-145.3 41.2-217.7z" fill="#5ABD57" /><path d="M544.8 178c71.8-72.4 200.9-62.5 218.9-44.5 23.8 23.8 30.6 145.3-41.2 217.7-71.8 72.4-205.8 57.6-218.9 44.5-13.8-13.8-30.6-145.3 41.2-217.7z" fill="#4CA130" /></svg>