<?xml version="1.0" standalone="no"?><!DOCTYPE svg PUBLIC "-//W3C//DTD SVG 1.1//EN" "http://www.w3.org/Graphics/SVG/1.1/DTD/svg11.dtd"><svg class="icon" width="600px" height="600.00px" viewBox="0 0 1024 1024" version="1.1" xmlns="http://www.w3.org/2000/svg"><path d="M512 192.554667c-163.968 0-301.141333 113.664-335.658667 265.728a81.493333 81.493333 0 0 0-28.586666-5.12A80.554667 80.554667 0 0 0 66.730667 533.333333c0 44.288 36.266667 80.213333 80.938666 80.213334 10.069333 0 19.712-1.834667 28.586667-5.162667 34.56 152.064 171.733333 265.728 335.701333 265.728s301.141333-113.664 335.658667-265.728c8.917333 3.328 18.56 5.12 28.586667 5.12a80.554667 80.554667 0 0 0 80.981333-80.170667c0-44.288-36.266667-80.213333-80.938667-80.213333a81.493333 81.493333 0 0 0-28.586666 5.162667c-34.56-152.064-171.733333-265.728-335.701334-265.728zM1024 533.333333c0 72.96-55.296 133.802667-127.658667 143.402667C837.12 831.488 685.781333 938.666667 512 938.666667c-173.781333 0-325.12-107.178667-384.341333-261.930667C55.296 667.136 0 606.336 0 533.333333c0-72.96 55.296-133.802667 127.658667-143.402666C186.88 235.178667 338.218667 128 512 128c173.781333 0 325.12 107.178667 384.341333 261.930667C968.704 399.530667 1024 460.330667 1024 533.333333zM387.925333 602.026667a29.397333 29.397333 0 0 1 25.813334 32.213333 91.306667 91.306667 0 0 0-0.341334 7.850667c0 51.797333 44.074667 94.122667 98.602667 94.122666s98.56-42.325333 98.56-94.122666c0-2.474667-0.085333-4.906667-0.256-7.338667a29.354667 29.354667 0 0 1 26.026667-32 28.928 28.928 0 0 1 31.018666 27.093333c0.298667 4.053333 0.469333 8.106667 0.469334 12.245334 0 84.906667-69.845333 153.472-155.818667 153.472S356.181333 727.04 356.181333 642.133333c0-4.394667 0.170667-8.789333 0.554667-13.184a28.928 28.928 0 0 1 31.189333-26.88z m158.464-233.130667a212.906667 212.906667 0 0 1 22.016-49.365333c2.56-4.437333 3.925333-6.997333 5.290667-9.941334 3.413333-7.296 6.4-16.213333 9.514667-28.970666a31.061333 31.061333 0 0 1 60.288 14.634666 213.333333 213.333333 0 0 1-13.525334 40.277334c-2.133333 4.650667-4.224 8.533333-7.594666 14.421333a155.690667 155.690667 0 0 0-16.896 37.76c-1.194667 3.754667-2.474667 8.533333-3.84 14.08-1.749333 7.424-5.418667 25.173333-5.674667 25.856-5.290667 14.293333-17.365333 22.4-32.682667 23.168-1.408 0.042667-4.053333 0-8.874666-0.085333h-1.28a375.722667 375.722667 0 0 0-6.698667-0.170667c-78.336 0-176.597333-88.96-176.597333-162.602667 0-16.981333 13.866667-30.805333 31.061333-30.805333 17.194667 0 31.018667 13.824 31.018667 30.805333 0 37.333333 64.298667 95.744 109.013333 100.693334 1.621333-6.826667 3.498667-13.653333 5.461333-19.754667zM339.114667 551.253333c-30.72 0-55.68-24.064-55.68-53.76 0-29.738667 24.917333-53.845333 55.68-53.845333 30.72 0 55.637333 24.106667 55.637333 53.802667 0 29.738667-24.917333 53.802667-55.637333 53.802666z m359.381333 0c-30.72 0-55.68-24.064-55.68-53.76 0-29.738667 24.917333-53.845333 55.68-53.845333 30.72 0 55.637333 24.106667 55.637333 53.802667 0 29.738667-24.917333 53.802667-55.637333 53.802666z" fill="#3D3D3D" /></svg>