<?xml version="1.0" standalone="no"?><!DOCTYPE svg PUBLIC "-//W3C//DTD SVG 1.1//EN" "http://www.w3.org/Graphics/SVG/1.1/DTD/svg11.dtd"><svg class="icon" width="600px" height="600.00px" viewBox="0 0 1024 1024" version="1.1" xmlns="http://www.w3.org/2000/svg"><path d="M971.74686 630.250968c-3.394645 2.410324-6.978583 4.505161-10.720264 6.28451 6.164625 5.312809 11.243974 12.581641 9.685465 21.92638-2.751051 16.518924-23.6868 22.033646-44.117769 25.144352 14.285273 24.475519 16.304393 44.313371 5.962714 58.106484-8.55602 11.420647-23.062135 15.067682-38.678765 15.067682-13.326191 0-27.45372-2.656405-39.385457-5.420075 0.309178 0.094646-0.580497 0.056788-1.709942-0.031548-25.302096-1.785659-43.84014-7.760992-55.980099-17.547414-54.188129 106.754653-157.951961 184.541246-283.358234 202.442006 1.00956 2.599617 2.107456 5.054109 3.211662 7.230973l23.819305 20.601332a24.475519 24.475519 0 0 1 7.136327 26.677622l-5.451624 15.648179a24.68374 24.68374 0 0 1-27.251808 16.247605l-157.604925-25.100184a24.765767 24.765767 0 0 1-20.790625-23.282976l-0.826578-19.446648a24.469209 24.469209 0 0 1 8.347799-19.516056 24.595404 24.595404 0 0 1 20.475138-5.804969l29.277238 4.940533c-58.068625-10.177626-111.638399-33.668824-157.478731-67.167284-0.473231 0.776099-0.870745 1.596367-1.432313 2.321988-5.634606 7.331929-7.615868 20.847413-7.615867 30.507639l11.919117 29.113185a24.406111 24.406111 0 0 1-5.704014 27.012038l-11.950666 11.508983a24.734218 24.734218 0 0 1-31.681253 2.227342L60.562232 876.722406a24.68374 24.68374 0 0 1-8.019692-30.122744l8.06386-17.730397a24.601714 24.601714 0 0 1 16.266535-13.660607 24.69005 24.69005 0 0 1 20.91051 4.000381l37.151806 27.308596c13.957166 11.117779 24.223129 7.287761 44.439566-16.045693 1.943403-2.239961 4.221222-4.7891 6.732503-7.092159-65.192333-67.861357-105.435916-159.661904-105.435916-260.28348 0-19.818923 1.716252-39.486413 4.78279-58.920442-13.420837 8.30994-23.775136 14.525044-32.539378 14.525044-3.77323 0-7.249902-1.142065-10.575141-3.747991-6.738813-5.306499-8.234223-13.742635-4.435754-25.093874 5.54627-16.588332 21.402671-40.483353 41.518153-49.108781-20.9042-28.204581-35.940334-66.479522-30.135364-79.490226 4.883746-10.941106 11.729824-16.569402 91.674351-2.404014 15.559842-24.014907 33.940143-46.048552 54.528856-65.987362-24.904582-28.532688-36.577618-60.99004-34.394445-96.646434 5.388526-87.869573 94.299208-167.120028 109.852741-180.338953C278.128708 2.954593 286.760445 0.695703 293.013407 1.074288c14.083361 0.940153 21.017776 15.566152 25.485079 28.20458 1.173613 3.325238 3.558699 4.908985 5.350667 5.666156 3.091777 1.287189 6.770361 1.123135 10.08929-0.416444 1.873996-0.895984 3.79216-1.621606 5.672465-2.208412a30.160603 30.160603 0 0 1 24.229438 2.51759 31.056587 31.056587 0 0 1 14.827912 19.970357 19.13747 19.13747 0 0 0 9.56558 12.512234 17.951238 17.951238 0 0 0 14.808982 1.110516c0.74455-0.277629 1.590057-0.542638 2.435564-0.76348 12.215675-3.180114 25.074945 4.107647 29.188901 16.689288 12.714145 38.886987 16.847031 72.694625 12.739385 101.258861 1.886615 0.182983 4.757551 0.429063 11.679346 0.429063 190.50396 0 348.506399 141.016594 374.571975 323.772181 38.29387-0.542638 128.971282 6.234033 151.818884 80.588121 4.555639 14.802673-0.965392 30.810507-13.730015 39.846069z m-607.49638 327.873518l0.50478 11.938046 151.585424 24.141102 3.628106-10.411087-22.469018-19.440338a24.70267 24.70267 0 0 1-5.760802-7.30669c-4.000381-7.697894-12.663667-26.96787-10.543591-45.884499l-11.269213-1.325048c-1.791969 7.167876-4.826958 18.973417-10.84015 29.952381v0.359656h-0.195602c-9.123898 16.455827-25.062325 30.911463-54.162891 24.791006l-40.477043-6.814529z m53.020826-20.285845a369.347502 369.347502 0 0 1-16.417969-2.227342l9.155447 1.539579c2.662714 0.548948 5.02887 0.719311 7.262522 0.687763zM117.633917 868.948795l-33.037849-24.273607-4.946843 10.878008 124.358854 89.680471 7.937665-7.647416-11.243973-27.46634a24.43135 24.43135 0 0 1-1.836138-9.060801c-0.082027-8.707454 0.908604-29.800947 11.370169-45.733065l-9.458314-6.246652c-12.177817 14.045503-44.256584 50.881821-83.143571 19.869402zM93.335072 466.601303v-0.00631c0.069407-0.037858 0.050478-0.037858 0.094646-0.063098l0.075717-0.302868c-0.088336-0.182983-0.195602-0.454302-0.334417-0.593116-3.722752 0.74455-8.265772 3.880496-12.688906 8.347799a281.143512 281.143512 0 0 1 12.85296-7.382407zM272.241711 14.791683c0.012619 0 0.012619-0.012619 0.01893-0.012619l0.006309-0.00631-0.025239 0.018929z m136.448335 81.509346a46.629049 46.629049 0 0 1-33.946453-4.088718 47.398839 47.398839 0 0 1-23.743587-31.037658 2.586997 2.586997 0 0 0-1.217782-1.747801 1.817208 1.817208 0 0 0-1.583747-0.138815 16.714527 16.714527 0 0 0-2.126386 0.820268c-10.644548 4.991012-22.715099 5.30019-33.195592 0.927533a37.505152 37.505152 0 0 1-21.16921-22.361752c-0.309178-0.883365-0.612046-1.703632-0.902294-2.467113l-0.315488 0.26501C280.621059 44.706206 194.284755 118.95303 189.438868 197.951094c-1.836137 29.958691 8.246843 56.226179 30.823126 80.291564 6.29713 6.707264 9.306881 15.62925 8.259462 24.500758-7.130017 60.800747-7.161566 164.29957 72.776652 174.256354 18.544354 2.284129 35.221022-3.369406 48.244346-16.430588 23.453339-23.503817 32.779149-68.303039 25.598654-122.907612-2.27782-6.107838-13.591201-34.646835-26.166532-53.216428a24.734218 24.734218 0 0 1-2.574378-22.980108 25.384123 25.384123 0 0 1 18.001716-15.320072c6.965964-1.602676 30.804197-8.770552 44.982205-33.750851 15.37055-27.087755 15.13078-66.132485-0.694073-116.093082z m50.39597 118.036485c-8.713764 0-12.537472-0.372275-14.821602-0.599426-1.085277-0.088336-1.564818-0.132505-4.309559 0.271319a104.868038 104.868038 0 0 1-5.849137 12.310322c-17.578962 30.98087-45.87188 42.458305-58.996159 46.269393 12.777243 20.178579 23.320834 46.376659 26.393682 54.314325 0.870745 2.239961 1.476481 4.631356 1.798279 7.104778 8.448755 64.271109-3.489292 116.307614-33.618346 146.512385-16.474756 16.506305-37.631347 25.276857-60.504189 25.276857-3.760611 0-7.56539-0.23977-11.401717-0.719311-70.277991-8.745313-105.126738-70.101318-100.03477-173.63169-14.007644 15.679728-26.747029 32.444732-37.738612 50.40228l-5.079349 8.31625-9.609748-1.76042c-34.754101-6.372847-55.588894-8.858888-66.76977-9.515102 5.893306 17.301333 21.93269 49.821783 41.341479 63.602275l8.404586 5.969024-3.104397 9.799041a347.490529 347.490529 0 0 0-16.1151 104.836489c0 185.19115 147.130741 338.271985 330.996844 348.190912 0.782409-2.631166 1.558508-5.344358 2.334607-8.436136 2.404015-9.597129 6.063669-23.901331 20.443589-22.361752 10.997894 1.325047 19.38986 2.303059 25.529247 3.00975a24.17896 24.17896 0 0 1 16.840721 9.717015c3.192733 4.303249 4.826958 9.559271 4.814339 14.916248 171.454826-24.778387 299.075821-170.691346 299.075821-345.036037 0-192.302238-157.018118-348.758789-350.020739-348.758789z m499.246317 384.358396c-16.701907-54.326944-88.462689-60.649313-121.746619-60.567286a380.22551 380.22551 0 0 1 0.921224 24.967679 376.647882 376.647882 0 0 1-27.781828 142.272234c4.183364 10.07667 18.992346 15.900569 45.064232 17.736706 3.091777 0.220841 5.237092 0.485851 6.133077 0.700382 33.435363 7.729443 46.60381 4.02562 48.88163 0.971701 1.836137-2.448183 1.179923-12.064241-8.177436-28.513758a27.239189 27.239189 0 0 1-0.801338-25.466149 27.365384 27.365384 0 0 1 20.550854-15.017204c5.817589-0.864436 10.247033-1.76673 13.603821-2.593307a112.288304 112.288304 0 0 0-1.615296-0.858126 20.014526 20.014526 0 0 1-10.84015-20.689669 20.235367 20.235367 0 0 1 16.108791-17.231926 44.433257 44.433257 0 0 0 16.664048-7.218354c2.732122-1.937093 3.975142-5.426385 3.03499-8.492923z m-413.534678 153.680261c-101.561729 0-151.150051-45.638419-175.366871-91.257908-26.70917-50.339182-9.56558-112.780464 39.032111-142.133419 47.026564-28.412802 127.25503-45.972835 242.382721 31.668633 77.300742 52.131151 110.906468 94.728271 102.754272 130.239541-8.663286 37.751232-59.494629 47.663848-69.129617 49.209737-55.008397 15.679728-101.107427 22.273416-139.672616 22.273416z m68.77627-191.677573c-72.726174-42.83058-138.196135-49.033064-190.384074-17.528484-36.356777 21.970548-48.673408 66.990611-28.652573 104.716604 29.087946 54.800175 87.055615 80.058103 169.839529 75.369959 67.009541-25.914142 53.601323-135.590209 49.197118-162.558079z m112.357711 113.846812c2.221032-9.786422-1.817208-38.123507-81.13707-93.611445 3.325238 36.464043 2.927724 95.851406-26.620834 135.684855a624.065783 624.065783 0 0 0 59.324266-13.950856l1.861376-0.410134c10.795982-1.608986 42.57819-10.183936 46.572262-27.71242zM320.13902 416.615466c-6.80191 3.949903-14.159078 5.962713-21.509936 5.962714-4.309559 0-8.606498-0.694072-12.796172-2.082218-22.702479-7.546461-34.457542-33.76978-26.20439-58.45983 3.899425-11.654107 11.666727-21.326954 21.863282-27.245498 10.795982-6.259272 22.986418-7.641107 34.306109-3.867877 18.373991 6.095218 30.192152 24.910891 28.740909 45.758304a51.323503 51.323503 0 0 1-2.536519 12.701526c-3.899425 11.641488-11.654107 21.314334-21.863283 27.232879z m-13.313571-58.857344a12.013763 12.013763 0 0 0-3.741682-0.599426c-3.129636 0-5.773421 1.198852-7.30038 2.082217-4.233842 2.454493-7.502292 6.625237-9.212234 11.736135-3.249521 9.729634 0.523709 20.109172 8.246842 22.67724 4.700763 1.545889 8.928296-0.2587 11.029443-1.482792 4.233842-2.460802 7.508602-6.631547 9.218544-11.742444 0.624665-1.873996 1.00956-3.78585 1.142064-5.704013 0.555258-7.969214-3.306309-14.947797-9.382597-16.966917z" fill="#515151" /></svg>