<?xml version="1.0" standalone="no"?><!DOCTYPE svg PUBLIC "-//W3C//DTD SVG 1.1//EN" "http://www.w3.org/Graphics/SVG/1.1/DTD/svg11.dtd"><svg class="icon" width="600px" height="600.00px" viewBox="0 0 1024 1024" version="1.1" xmlns="http://www.w3.org/2000/svg"><path d="M412.6 320.7S452 437 439.2 538.5l32.9 1.8s6-29.7 3.7-66.7c-3.5-56.5-17.1-131.2-27.5-151l-35.7-1.9z" fill="#E2B960" /><path d="M576.8 243.9s-2.7 132.1-50.9 232l31.2 12.5s16.2-28.5 27-67.2c16.4-59.1 29.6-140.1 26.5-163.7l-33.8-13.6z" fill="#DB7D6B" /><path d="M326.8 649.9c-0.1-81.5 29.9-153.4 75.9-197.9l214.6-0.1c46 44.4 76.1 116.3 76.1 197.8 0.1 89.1-35.7 166.8-89.1 209.5l-188.1 0.1c-53.5-42.7-89.4-120.3-89.4-209.4z" fill="#BFDBD9" /><path d="M617.2 451.9l-214.6 0.1c-45.9 44.4-75.9 116.4-75.9 197.9l366.6-0.2c0-81.5-30.1-153.4-76.1-197.8z" fill="#A2C9CC" /><path d="M576 160.6c-64.7 0-117.1 52.5-117 117.2l234.2-0.2c0-64.7-52.5-117.1-117.2-117z" fill="#F0967E" /><path d="M443.3 258.6c-61.9 0-112 50.2-111.9 112.1l224-0.1c-0.1-62-50.3-112.1-112.1-112z" fill="#F8D06B" /></svg>