<?xml version="1.0" standalone="no"?><!DOCTYPE svg PUBLIC "-//W3C//DTD SVG 1.1//EN" "http://www.w3.org/Graphics/SVG/1.1/DTD/svg11.dtd"><svg class="icon" width="600px" height="600.00px" viewBox="0 0 1024 1024" version="1.1" xmlns="http://www.w3.org/2000/svg"><path d="M811.1 488H533V256.9c0 0.4 2.3 1 3.5 1.2 5 0.8 28.2 1.1 56.5 1.1 33.6 0 74.5-6.2 101.7-27.2h0.2c50.5-22 66.3-127.8 68-138.5 1.8-11.6-6.1-20.9-17.7-22.8-10.9-1.7-108.4-15-158.6 20.7-26.2 18.6-31.6 53.9-53.6 84.3v-74.3c0-11.8-9.2-21.4-21-21.4s-21 9.5-21 21.4V253c0-24.5-25.2-48.9-45.8-63.5-50.2-35.8-147.5-21.6-158.4-20-11.6 1.8-19.6 14-17.8 25.6 1.6 10.7 17.2 100.8 67.7 142.8h0.1c27.2 22 68.4 22.8 102.1 22.8 23.4 0 52.2-3.6 52.2-4.8v132H213.3c-23.6 0-43.3 16.8-43.3 40.4V571c0 23.6 19.7 44.9 43.3 44.9h37.3L313.3 927c2.6 14.6 14.9 29.9 41.9 29.9h321.6c27 0 39.4-15.3 41.8-29.3L781.9 616H811c23.6 0 42.9-21.3 42.9-44.9v-42.7c0.1-23.6-19.2-40.4-42.8-40.4zM611.6 127c23.9-17 72.6-17.5 104.7-15-7.3 30-22.6 74.7-45.9 91.3-23.9 17-72.5 17.5-104.7 15 7.3-29.9 22.6-74.6 45.9-91.3z m-250 173.6c-23.5-16.8-38.6-61-46-91.3 31.8-2.4 81-1.9 104.7 15 23.6 16.8 38.6 61 46 91.3-31.7 2.4-81 1.9-104.7-15zM677.7 915H354.3l-60.2-299h444.3l-60.7 299zM811 573H213v-43h598v43z" fill="#777B88" /></svg>