<?xml version="1.0" standalone="no"?><!DOCTYPE svg PUBLIC "-//W3C//DTD SVG 1.1//EN" "http://www.w3.org/Graphics/SVG/1.1/DTD/svg11.dtd"><svg class="icon" width="600px" height="600.00px" viewBox="0 0 1024 1024" version="1.1" xmlns="http://www.w3.org/2000/svg"><path d="M983.182565 1023.399225h-50.507013a5.588604 5.588604 0 1 1 0-11.037494h50.507013a5.588604 5.588604 0 0 1 0 11.037494zM843.746883 1023.399225H368.016926a5.588604 5.588604 0 0 1 0-11.037494H843.746883a5.588604 5.588604 0 1 1 0 11.037494zM271.403926 1023.399225H41.78214a5.588604 5.588604 0 1 1 0-11.037494h229.691644a5.588604 5.588604 0 1 1 0 11.037494z"  /><path d="M270.60755 356.790482a17.324674 17.324674 0 1 1 17.324674-17.324674 17.338645 17.338645 0 0 1-17.324674 17.324674z m0-27.286361a9.975659 9.975659 0 1 0 9.975659 9.961687 9.975659 9.975659 0 0 0-9.975659-9.961687z" fill="#FD6C00" /><path d="M746.882396 555.4514m-13.650166 0a13.650166 13.650166 0 1 0 27.300333 0 13.650166 13.650166 0 1 0-27.300333 0Z" fill="#39ADFB" /><path d="M586.279875 68.097146m-13.650167 0a13.650166 13.650166 0 1 0 27.300333 0 13.650166 13.650166 0 1 0-27.300333 0Z" fill="#39ADFB" /><path d="M419.446059 53.091743l-12.280958-0.377231a5.909949 5.909949 0 0 0-4.917972 2.361185l-7.265186 9.905802a5.951864 5.951864 0 0 1-10.506576-1.858211l-3.423021-11.791956a5.951864 5.951864 0 0 0-3.953937-3.98188l-11.666212-3.856138a5.951864 5.951864 0 0 1-1.48098-10.562462l10.157288-6.901927a5.965835 5.965835 0 0 0 2.598701-4.890029V8.857938A5.951864 5.951864 0 0 1 386.403435 4.191453l9.780058 7.516673a5.923921 5.923921 0 0 0 5.448889 0.964035l11.708127-3.730394a5.937892 5.937892 0 0 1 7.390929 7.67036l-4.191453 11.55444a5.937892 5.937892 0 0 0 0.768433 5.476832l7.167385 9.975659a5.951864 5.951864 0 0 1-5.029744 9.472685z" fill="#FD6C00" /><path d="M784.046616 45.9523c0-1.788353 0.321345 0 0.768433-5.588604h-22.46619a5.588604 5.588604 0 0 0 0 11.065437h22.46619c-0.447088-5.476832-0.768433-3.70245-0.768433-5.476833zM819.785742 36.577416l16.765813-16.765813A5.099602 5.099602 0 0 0 829.370198 12.57436l-16.765813 16.765814a18.973312 18.973312 0 0 1 7.181357 7.237242zM803.229501 26.81133c1.788353 0 0 0.321345 5.588604 0.768433V5.099602a5.588604 5.588604 0 0 0-11.079408 0v22.480161c5.490804-0.447088 3.674507-0.768433 5.490804-0.768433zM786.589431 36.577416a19.168913 19.168913 0 0 1 7.223271-7.237242l-16.765813-16.765814a5.113573 5.113573 0 1 0-7.223271 7.223271zM844.040285 40.419582h-22.480161c0.46106 5.588604 0.782405 3.744365 0.782404 5.588604s-0.321345 0-0.782404 5.588605h22.480161a5.588604 5.588604 0 0 0 0-11.065437zM819.785742 55.327184a19.071113 19.071113 0 0 1-7.223272 7.223272l16.765814 16.765813a5.099602 5.099602 0 0 0 7.2093-7.223271zM803.229501 65.093271c-1.774382 0 0-0.321345-5.588605-0.768433v22.46619a5.588604 5.588604 0 0 0 11.079409 0V64.268952c-5.490804 0.502974-3.744365 0.824319-5.490804 0.824319zM786.589431 55.327184l-16.765813 16.765814a5.113573 5.113573 0 0 0 7.223271 7.223271l16.765813-16.765813a19.280685 19.280685 0 0 1-7.223271-7.223272z" fill="#FFD304" /><path d="M812.56247 638.498063c0-1.187578 0.209573 0 0.516946-5.588605h-15.005403c-1.886154 0-3.409049 3.660536-3.409049 5.588605s1.522895 5.588604 3.409049 5.588604h15.005403c-0.307373-5.588604-0.516946-4.373083-0.516946-5.588604zM836.425811 632.266769l11.177209-11.177209a3.409049 3.409049 0 1 0-4.820171-4.820172l-11.177209 11.177209a12.811876 12.811876 0 0 1 4.820171 4.820172zM825.346403 625.742073c1.187578 0 0 0.209573 5.588605 0.516946V611.253616c0-1.886154-3.646564-3.409049-5.588605-3.409049s-5.588604 1.522895-5.588604 3.409049v15.005403c5.588604-0.335316 4.428969-0.516946 5.588604-0.516946zM814.266995 632.266769a12.57436 12.57436 0 0 1 4.820171-4.834143l-11.177209-11.177209a3.409049 3.409049 0 1 0-4.820171 4.820171zM852.618793 632.979316h-15.005403c0.307373 5.588604 0.516946 4.359111 0.516946 5.588604s-0.209573 0-0.516946 5.588605h15.005403c1.886154 0 3.409049-3.660536 3.409049-5.588605s-1.522895-5.588604-3.409049-5.588604zM836.425811 644.785243a12.867762 12.867762 0 0 1-4.820171 4.820171l11.177209 11.177209a3.409049 3.409049 0 1 0 4.820171-4.820171zM825.346403 651.309938c-1.187578 0 0-0.223544-5.588604-0.516946v15.005403c0 1.886154 3.660536 3.409049 5.588604 3.409049s5.588604-1.522895 5.588605-3.409049V650.792992c-5.588604 0.27943-4.401026 0.516946-5.588605 0.516946zM814.266995 644.785243l-11.177209 11.177209a3.409049 3.409049 0 0 0 2.4031 5.812148 3.436992 3.436992 0 0 0 2.417071-0.991977l11.177209-11.177209a12.672161 12.672161 0 0 1-4.820171-4.820171z" fill="#FD6C00" /><path d="M418.300395 448.066365s-16.612127-27.691535-71.939311-11.079409a117.444523 117.444523 0 0 0-28.152595 12.57436l32.497735 9.025597a13.971511 13.971511 0 0 1 9.640343 17.059215 13.887682 13.887682 0 0 1-17.059215 9.626371l-50.744529-14.111226c-20.957267 23.262566-33.685314 54.419036-40.335753 87.64329 0 0 52.854227 19.853517 125.911259-1.397152l-15.690007-29.857119a13.845768 13.845768 0 1 1 24.450145-12.797904l17.618075 33.531627c4.554713-1.858211 9.137368-3.842166 13.803853-6.049665 105.219451-49.864324 27.691535-88.635267 0-94.167985z" fill="#FFFFFF" /><path d="M362.917325 453.599083a121.216831 121.216831 0 0 0-13.049392 4.792228l0.782405 0.209573a13.859739 13.859739 0 0 1 10.017574 14.781859l6.594553 1.844239a13.873711 13.873711 0 0 1 9.640343 17.045244 13.887682 13.887682 0 0 1-17.045244 9.626371l-50.7585-14.111226c-18.512252 20.496207-30.541724 47.15385-37.723081 75.935164 21.669814 4.093653 60.077498 7.293129 106.658517-6.231294l-15.690007-29.85712a13.845768 13.845768 0 1 1 24.533974-12.881733l4.890029 9.291055a13.845768 13.845768 0 0 1 11.736069 7.321072l7.446815 14.167112q3.646564-1.564809 7.349015-3.32522c52.211537-24.729575 59.406866-46.734705 50.031982-63.304917a102.215576 102.215576 0 0 0-33.419855-14.222998s-16.612127-27.691535-71.995197-11.079409z" fill="#87D8AB" /><path d="M687.824818 326.220815s16.612127-27.691535 71.995197-11.065437a117.360694 117.360694 0 0 1 28.152596 12.574361L755.474876 336.71342a13.887682 13.887682 0 0 0-9.640343 17.045244 13.971511 13.971511 0 0 0 17.059215 9.640343l50.744529-14.111227c20.957267 23.248595 33.685314 54.488894 40.335753 87.64329 0 0-52.854227 19.853517-125.911259-1.327293l15.690007-29.85712a13.845768 13.845768 0 0 0-24.506031-12.881733l-17.618076 33.531627c-4.554713-1.858211-9.137368-3.842166-13.803853-6.049665-105.219451-49.822409-27.691535-88.579381 0-94.126071z" fill="#FFFFFF" /><path d="M754.413041 441.793156c59.085521 10.394804 99.560989-4.8062 99.560989-4.8062-4.848114-24.2266-12.965562-47.33548-25.148721-67.063254L782.272234 382.819407a13.887682 13.887682 0 0 1-17.045244-9.626371 13.789882 13.789882 0 0 1 1.508924-10.827921l-3.842166 1.075806a13.971511 13.971511 0 0 1-17.059215-9.640342 13.887682 13.887682 0 0 1 9.640343-17.045244l15.620149-4.34514c-48.900289-11.680183-63.933635 13.203078-63.933635 13.203078-20.454292 4.079681-68.027288 26.322327-49.123834 57.744256a193.058342 193.058342 0 0 0 29.731376 17.0173c4.666485 2.207499 9.24914 4.191453 13.803853 6.049665l17.618076-33.531627a13.845768 13.845768 0 0 1 24.506031 12.881733l-0.92212 1.760411a13.789882 13.789882 0 0 1 20.300606 17.618075z" fill="#87D8AB" /><path d="M583.345857 300.583092a16.039295 16.039295 0 0 1 5.015773-31.673416l47.419309 7.516673c9.528571-38.435627-0.111772-72.302571-21.585985-97.35349-38.46357-44.876494-108.977787-6.412924-108.977787-6.412923s-107.161491-29.731376-109.201332 65.73596l52.127708-7.111499a16.025323 16.025323 0 0 1 4.401026 31.757245l-53.273372 7.279157c20.356492 89.417672 131.625607 139.561426 131.625607 139.561426 47.61491-35.068493 77.444087-70.067129 93.609125-102.788408z" fill="#FFFFFF" /><path d="M574.418062 158.017792a145.862577 145.862577 0 0 0-47.070022 14.642144 131.332205 131.332205 0 0 0-15.885608-3.031818c-3.953938 1.774382-6.259237 3.031818-6.259237 3.031818a143.906566 143.906566 0 0 0-23.905256-3.898052c-28.739399 2.556787-60.65033 16.765813-62.955629 66.588222l29.801233-4.065709a15.927523 15.927523 0 0 1 9.570485 1.718496l12.574361-1.718496a16.025323 16.025323 0 1 1 4.331168 31.757245l-53.273372 7.279157c16.025323 70.388474 88.327894 116.410631 118.408557 132.827157 42.445451-32.81908 69.550183-65.428587 84.625444-96.054139l-41.0483-6.510725a16.039295 16.039295 0 0 1 5.015772-31.673416l11.917699 1.900126a15.857665 15.857665 0 0 1 10.241118-1.900126l26.000983 4.191454c8.145391-37.038476-1.494952-69.661955-22.354418-93.972385-11.302953-13.286907-25.442122-19.238771-39.734978-21.110953z" fill="#87D8AB" /><path d="M379.529452 708.355619h321.205043v310.125634h-321.205043z" fill="#FFFFFF" /><path d="M432.146163 711.121978h268.602303v307.359275H432.146163z" fill="#DD8C8A" /><path d="M606.594452 711.121978h94.140043v307.359275h-94.140043z" fill="#B76969" /><path d="M604.610497 713.860394a5.504775 5.504775 0 0 1-5.490804-5.08563c-0.125744-1.732467-13.49648-174.448289-40.601211-319.486547a5.518747 5.518747 0 1 1 10.841893-2.025869c27.216504 145.639033 40.629155 318.941658 40.754898 320.674125a5.504775 5.504775 0 0 1-5.071659 5.90995zM486.718886 713.860394a5.504775 5.504775 0 0 1-5.462861-4.862086c-0.27943-2.319271-0.405174-6.063636-0.600775-11.750041-0.92212-27.579763-3.101675-92.211974-28.571741-162.712219a5.504775 5.504775 0 0 1 10.366862-3.744365c26.07084 72.148884 28.278339 137.982645 29.228401 166.093325 0.167658 5.001801 0.307373 8.955739 0.530918 10.81395a5.588604 5.588604 0 0 1-4.834143 6.133493zM588.836661 456.477214a5.36506 5.36506 0 0 1-2.375157-0.544889 5.588604 5.588604 0 0 1-2.598701-7.349014c12.57436-26.35027 26.937074-49.529007 42.655024-68.893522a5.518747 5.518747 0 1 1 8.564536 6.985755c-15.173061 18.67991-29.060743 41.118158-41.257872 66.686023a5.588604 5.588604 0 0 1-4.98783 3.115647zM529.052565 713.860394a5.490804 5.490804 0 0 1-5.504776-5.504775c0-18.162965 6.636468-111.338973 37.303935-202.461169a5.518747 5.518747 0 0 1 10.450691 3.52082c-33.992687 101.014026-36.731103 198.0322-36.731103 198.940349a5.504775 5.504775 0 0 1-5.518747 5.504775z"  /><path d="M310.342528 578.420564c-35.934727 0-58.680347-8.382907-60.077498-8.857938a5.504775 5.504775 0 0 1-3.464935-6.245265c7.530645-37.611308 21.530099-67.985374 41.649075-90.255963a5.588604 5.588604 0 0 1 5.588605-1.620695l50.744528 14.111226a8.382907 8.382907 0 0 0 10.25509-5.798177 8.201277 8.201277 0 0 0-0.782405-6.315123A8.285106 8.285106 0 0 0 349.155386 469.442777l-32.511706-9.039568a5.518747 5.518747 0 0 1-1.397151-10.003602 124.192763 124.192763 0 0 1 29.465917-13.091306c50.29744-15.103204 71.324565 4.62457 76.843311 11.414725 11.610326 2.794302 28.432025 9.780058 40.251924 19.811603a5.518747 5.518747 0 1 1-7.111499 8.382906c-10.590406-8.941767-26.853245-15.759865-37.44365-17.883534a5.490804 5.490804 0 0 1-3.646564-2.570758c-0.586803-0.92212-15.634121-23.639797-65.666103-8.620423a114.566392 114.566392 0 0 0-15.019375 5.658463l19.266714 5.351088a19.364515 19.364515 0 0 1-10.366861 37.317907l-47.419309-13.189107c-16.765813 19.560116-28.75337 45.658899-35.767069 77.65366 13.49648 3.842166 56.179447 13.300879 111.422802-1.075807l-12.504502-23.751569a19.364515 19.364515 0 0 1 34.272117-18.009278l15.25689 29.0328c3.157562-1.397151 6.10555-2.668559 8.913824-3.995852 39.120231-18.526224 48.900289-33.755171 50.213611-43.311685a5.518747 5.518747 0 1 1 10.925722 1.508924c-2.472957 17.757791-21.44627 35.166294-56.416962 51.694591-4.317197 2.039841-8.913824 4.06571-14.083284 6.175408a5.588604 5.588604 0 0 1-6.985755-2.542815l-17.604104-33.531627a8.382907 8.382907 0 0 0-14.725973 7.782132l15.690007 29.857119a5.518747 5.518747 0 0 1-3.353163 7.865961 248.497298 248.497298 0 0 1-69.312667 10.087431zM795.782685 456.547072a248.6929 248.6929 0 0 1-69.256781-10.059488 5.504775 5.504775 0 0 1-3.353162-7.865961l15.690007-29.857119a8.382907 8.382907 0 0 0-14.739945-7.782132l-17.604104 33.531627a5.588604 5.588604 0 0 1-6.985755 2.542815c-5.169459-2.12367-9.780058-4.191453-14.083284-6.175408-39.986465-18.945369-58.98772-38.882716-56.48682-59.253179 3.059761-24.827375 38.002511-40.615183 55.634558-44.820608 5.476832-6.790154 26.434099-26.545871 76.843312-11.414725a123.88539 123.88539 0 0 1 29.465917 13.175135 5.518747 5.518747 0 0 1-1.397151 10.003602l-32.511707 9.039568a8.382907 8.382907 0 0 0-5.784205 10.255089 8.382907 8.382907 0 0 0 10.255089 5.798177l50.7585-14.111226a5.504775 5.504775 0 0 1 5.588605 1.606724c20.105005 22.354418 34.11843 52.644654 41.649074 90.269934a5.504775 5.504775 0 0 1-3.464934 6.245265c-1.536866 0.55886-24.296458 8.87191-60.217214 8.87191zM736.166247 437.699503a232.080773 232.080773 0 0 0 81.286252 6.664411 174.909349 174.909349 0 0 0 30.13655-5.588604c-6.985756-31.994761-19.029198-58.079572-35.767069-77.65366l-47.419309 13.175135a19.364515 19.364515 0 0 1-10.366861-37.303934l19.266714-5.351089a114.566392 114.566392 0 0 0-15.019375-5.672434c-50.045953-15.005403-65.093271 7.712274-65.666102 8.69028a5.588604 5.588604 0 0 1-3.60465 2.514872c-15.43852 3.087704-46.69279 17.19893-48.984119 35.822955-1.844239 14.907602 15.53632 31.477815 50.297441 47.922283 2.794302 1.397151 5.742291 2.654587 8.913824 4.009824l15.25689-29.046772a19.364515 19.364515 0 0 1 34.272117 18.02325z m-48.341429-105.931998zM530.785032 420.93369a5.588604 5.588604 0 0 1-2.263385-0.475031A321.498445 321.498445 0 0 1 469.310383 383.531954c-40.740927-31.813131-66.825738-68.628063-75.446161-106.448944a5.476832 5.476832 0 0 1 0.838291-4.359111 5.588604 5.588604 0 0 1 3.786279-2.333242l53.273373-7.265186a10.506576 10.506576 0 1 0-2.794303-20.831524l-52.141679 7.1115a5.504775 5.504775 0 0 1-6.259237-5.588605c0.572832-27.481963 9.570485-47.880369 26.727501-60.65033 30.569667-22.74562 76.717568-13.398679 87.307973-10.841893 6.790154-3.395077 29.899034-13.971511 55.648529-14.935545a5.518747 5.518747 0 0 1 0.405174 11.023522c-27.384162 0.991977-52.504939 14.474486-52.756426 14.614201a5.588604 5.588604 0 0 1-4.107625 0.475031c-0.489003-0.139715-50.29744-13.538394-79.931015 8.536594-12.951591 9.640343-20.314577 24.939148-21.949244 45.519183l45.561098-6.217322a21.54407 21.54407 0 0 1 5.82612 42.696938l-47.15385 6.440867c20.761666 74.314468 107.203406 120.154996 124.150848 128.537903 39.762921-29.717404 68.572177-60.678273 85.757136-92.142117L582.479624 311.5647a21.54407 21.54407 0 0 1 6.74824-42.557223l42.305736 6.706325c6.664411-32.525678-0.894177-63.444632-21.530099-87.517546a54.782295 54.782295 0 0 0-19.364515-14.558315 5.518747 5.518747 0 0 1 4.484855-10.073459 65.666103 65.666103 0 0 1 23.262566 17.450417c24.058942 28.068766 32.134476 64.394695 22.745621 102.285434a5.588604 5.588604 0 0 1-6.217323 4.121596l-47.405337-7.516673a10.506576 10.506576 0 1 0-3.297277 20.761665l41.0483 6.510725a5.518747 5.518747 0 0 1 4.093653 7.879932c-17.771762 36.074442-49.808437 71.338536-95.243792 104.786334a5.588604 5.588604 0 0 1-3.32522 1.089778zM379.529452 897.264422a5.588604 5.588604 0 0 1-5.588605-5.588605V864.836544a5.588604 5.588604 0 0 1 11.037494 0v26.951045a5.588604 5.588604 0 0 1-5.448889 5.476833z"  /><path d="M700.734495 1024h-321.205043a5.588604 5.588604 0 0 1-5.588605-5.518747V922.678601a5.588604 5.588604 0 1 1 11.037494 0V1012.934563h310.167549V713.860394h-310.167549v117.067293a5.518747 5.518747 0 1 1-11.037494 0V708.355619a5.588604 5.588604 0 0 1 5.588605-5.518747h321.205043a5.588604 5.588604 0 0 1 5.518746 5.518747v310.167549a5.588604 5.588604 0 0 1-5.518746 5.476832z"  /><path d="M473.683466 940.925394a5.588604 5.588604 0 0 1-5.518747-5.588604v-58.680347l-35.627354-37.16422a5.588604 5.588604 0 0 1-1.536866-3.828194V708.355619a5.588604 5.588604 0 0 1 11.037494 0v125.156797l35.627354 37.16422a5.504775 5.504775 0 0 1 1.522894 3.814222v60.915789a5.504775 5.504775 0 0 1-5.504775 5.518747zM534.599255 1024a5.588604 5.588604 0 0 1-5.588605-5.518747v-88.607324a5.504775 5.504775 0 0 1 1.620696-3.898052l45.938328-45.938329-34.928778-34.928778a5.490804 5.490804 0 0 1-1.606723-3.898051v-44.247776a5.518747 5.518747 0 1 1 11.023522 0v42.012334l37.150248 37.150248a5.588604 5.588604 0 0 1 0 7.810075l-48.215685 48.215685V1018.523168a5.588604 5.588604 0 0 1-5.393003 5.476832zM661.977522 974.149648a5.504775 5.504775 0 0 1-5.448889-5.504775v-55.18747a5.518747 5.518747 0 1 1 11.023522 0v55.18747a5.490804 5.490804 0 0 1-5.574633 5.504775zM661.977522 885.989412a5.588604 5.588604 0 0 1-5.518746-5.518747v-25.847295l-59.490695-59.490695a5.504775 5.504775 0 0 1 0-7.796103l36.968618-36.968619V708.355619a5.518747 5.518747 0 1 1 11.023523 0v44.303662a5.588604 5.588604 0 0 1-1.606724 3.898051l-34.691262 34.677291 57.213338 57.213339a5.490804 5.490804 0 0 1 1.606724 3.898051v28.124652a5.504775 5.504775 0 0 1-5.504776 5.518747z"  /></svg>