<?xml version="1.0" standalone="no"?><!DOCTYPE svg PUBLIC "-//W3C//DTD SVG 1.1//EN" "http://www.w3.org/Graphics/SVG/1.1/DTD/svg11.dtd"><svg class="icon" width="600px" height="600.00px" viewBox="0 0 1024 1024" version="1.1" xmlns="http://www.w3.org/2000/svg"><path d="M294.413005 990.926283a178.108461 23.081658 0 1 0 356.216922 0 178.108461 23.081658 0 1 0-356.216922 0Z" fill="#EFEFEF" /><path d="M472.521466 1023.95004a1035.976732 1035.976732 0 0 1-127.198918-6.844561c-50.709702-6.544799-60.901603-14.988089-60.901603-26.229156s9.99206-19.634397 60.901603-26.229157a1046.618276 1046.618276 0 0 1 127.198918-6.84456 1046.618276 1046.618276 0 0 1 127.198918 6.84456c50.709702 6.594759 60.901603 14.988089 60.901603 26.229157s-9.99206 19.684357-60.901603 26.229156a1035.976732 1035.976732 0 0 1-127.198918 6.844561z m-159.872953-33.073717c22.532094 6.394918 79.636714 13.089598 159.872953 13.089598s137.340858-6.69468 159.872952-13.089598c-22.532094-6.394918-79.636714-13.089598-159.872952-13.089598s-137.340858 6.69468-159.872953 13.089598zM333.382037 302.423421c-20.733524-6.894521-43.765221 5.845355-51.309226 28.52733s3.197459 46.562997 23.980943 53.507479a35.521772 35.521772 0 0 0 11.490868 1.898491 43.115737 43.115737 0 0 0 39.968239-30.375861 47.212481 47.212481 0 0 0 2.348134-11.640749 40.417881 40.417881 0 0 0-26.478958-41.91669z m-0.749405 45.36395a17.336223 17.336223 0 0 1-14.988089 12.689916 11.490868 11.490868 0 0 1-3.3973-0.549564c-7.094362-2.298174-10.541623-11.840591-7.593965-20.833444a17.386184 17.386184 0 0 1 14.988089-12.589995 10.441702 10.441702 0 0 1 3.34734 0.499603 14.988089 14.988089 0 0 1 8.643131 15.537653 22.232332 22.232332 0 0 1-0.999206 5.245831z" fill="#231815" /><path d="M944.996001 540.334358c-20.933365-68.145846-103.717578-74.340923-138.689786-73.94124a346.025022 346.025022 0 0 0-342.078159-296.764168 83.683499 83.683499 0 0 1-10.591583-0.449643c3.697062-26.179196 0-57.154581-11.690709-92.826233a22.482134 22.482134 0 0 0-26.72876-14.988089l-2.148292 0.699444a16.636779 16.636779 0 0 1-13.589201-1.348928 17.386184 17.386184 0 0 1-8.693092-11.440908 28.777131 28.777131 0 0 0-13.48928-18.535271 27.877846 27.877846 0 0 0-22.232333-2.248213 46.612958 46.612958 0 0 0-4.99603 1.998412 11.74067 11.74067 0 0 1-9.242655 0.449642 8.643131 8.643131 0 0 1-4.99603-4.996029c-4.096744-11.590789-10.491663-24.980149-23.281498-25.879435-5.795395-0.499603-13.639161 1.74861-19.984119 13.589201C278.225868 25.743292 197.040385 98.285645 192.094315 178.871605a120.304397 120.304397 0 0 0 31.375067 88.629568 346.074982 346.074982 0 0 0-49.960298 60.50192c-72.991995-13.039638-79.286992-7.893727-83.683498 2.148293-5.395712 11.940511 8.34337 47.01264 27.478163 72.892074-18.335429 7.943687-32.873876 29.976179-37.969826 44.964268-3.447261 10.391742-2.048372 18.185548 4.096745 23.031697a15.537653 15.537653 0 0 0 9.642337 3.447261c8.043608 0 17.486104-5.695474 29.976179-13.339399a336.032962 336.032962 0 0 0-4.446467 54.206922 344.726054 344.726054 0 0 0 96.323454 238.610382 67.09668 67.09668 0 0 0-6.145117 6.494839c-18.38539 21.333047-27.827886 24.980149-40.517801 14.688327l-33.973002-24.980148a22.532094 22.532094 0 0 0-19.134794-3.747023 23.031697 23.031697 0 0 0-14.98809 12.540035l-7.344163 16.187136a22.632015 22.632015 0 0 0 7.344163 27.578085l118.106144 85.482069a22.632015 22.632015 0 0 0 13.239479 4.296586 22.182372 22.182372 0 0 0 15.637573-6.394919l10.991266-10.541622a22.532094 22.532094 0 0 0 4.996029-24.980149l-10.441702-26.528918c0-9.242655 1.798571-21.283087 6.894521-27.927807 0.499603-0.699444 0.949246-1.498809 1.398889-2.198253a343.377126 343.377126 0 0 0 143.835697 61.601047l-26.77872-4.496427a22.132412 22.132412 0 0 0-18.685151 5.245832 22.632015 22.632015 0 0 0-7.693886 17.885786l0.799365 17.885787a22.532094 22.532094 0 0 0 18.984913 21.283087l143.885657 22.981737a14.638367 14.638367 0 0 0 3.597141 0.349722 22.432174 22.432174 0 0 0 21.283087-14.98809l4.99603-14.338605a22.282293 22.282293 0 0 0-6.494839-24.380625l-21.78269-18.934953c-0.999206-2.098333-1.948452-4.246625-2.897697-6.69468a344.02661 344.02661 0 0 0 258.794342-185.502585c11.091186 8.992854 28.027727 14.438526 51.109385 16.087216a3.896903 3.896903 0 0 0 1.648689 0 159.323389 159.323389 0 0 0 35.871494 4.996029c14.238685 0 27.478164-3.34734 35.371891-13.839002 9.392536-12.589995 7.593965-30.825504-5.445673-53.257677 18.635191-2.847737 37.769985-7.843767 40.268-23.081658a21.682769 21.682769 0 0 0-8.793012-19.984119 66.746958 66.746958 0 0 0 9.742258-5.795394 32.823916 32.823916 0 0 0 12.390154-36.620899z m-727.022252-359.714143c4.446466-72.442432 83.233856-140.388436 92.32663-148.032362v-0.249801c0 0.699444 0.499603 1.498809 0.849325 2.248213a33.873082 33.873082 0 0 0 19.284675 20.483722 37.220422 37.220422 0 0 0 30.275941-0.749404 10.241861 10.241861 0 0 1 2.048372-0.799365 1.398888 1.398888 0 0 1 1.398888 0 2.198253 2.198253 0 0 1 1.099127 1.64869 43.61534 43.61534 0 0 0 21.732729 28.427409 41.866729 41.866729 0 0 0 30.925425 3.697062c14.538447 45.863553 14.688328 81.635126 0.699444 106.465394a65.348069 65.348069 0 0 1-41.017405 30.925425 23.5313 23.5313 0 0 0-16.536858 14.088804 22.881816 22.881816 0 0 0 2.448054 21.033285 276.280446 276.280446 0 0 1 24.080864 48.71129c6.544799 49.960298-1.998412 91.127583-23.381419 112.660471a51.159345 51.159345 0 0 1-44.064983 14.98809c-73.041955-9.142734-72.991995-104.01734-66.497156-159.872953a28.327489 28.327489 0 0 0-7.494045-22.482134c-20.683563-21.78269-29.826298-45.913514-28.177608-73.191836zM130.293427 426.724641c-3.896903 2.148293-7.843767 4.496427-11.74067 6.744641a25.779514 25.779514 0 0 1 11.590789-7.593966 1.798571 1.798571 0 0 1 0.349722 0.499603s-0.199841 0.249801-0.199841 0.349722z m100.969761 438.751335L117.803352 783.241326l4.596348-9.99206 29.976178 22.232332c35.521772 28.427409 64.948387-5.395712 75.889693-18.235508 3.29738 2.248213 6.145117 4.146705 8.643131 5.745434-9.592377 14.638367-10.441702 33.923042-10.341782 41.86673a24.280705 24.280705 0 0 0 1.59873 8.39333l10.291821 24.980148z m288.57068 35.32193l-3.29738 9.542417-138.489945-22.132412-0.449643-10.891345 36.970621 6.195077c26.528918 5.645514 41.167285-7.693886 49.460694-22.731935v-0.349723a117.356739 117.356739 0 0 0 9.99206-27.378243c3.946864 0.399682 7.344164 0.849325 10.341781 1.199047-1.998412 17.286263 5.995236 34.972208 9.592378 42.116531a23.381419 23.381419 0 0 0 5.295791 6.64472z m-108.663648-44.164903c4.99603 0.799365 9.99206 1.448849 14.98809 2.098332a34.022963 34.022963 0 0 1-6.744641-0.699444z m99.570874-24.980149a23.081658 23.081658 0 0 0-4.396507-13.739082 22.382213 22.382213 0 0 0-15.387771-8.892933c-5.545593-0.599524-13.239479-1.548769-23.231539-2.747816-13.039638-1.398888-16.436938 11.74067-18.58523 20.583642-0.699444 2.747816-1.498809 5.245831-2.148293 7.693886a319.745905 319.745905 0 0 1-287.671394-415.419875l2.797776-8.992853L154.424251 404.69215c-17.735906-12.639955-32.324313-42.466253-37.720025-58.353628a544.966927 544.966927 0 0 1 61.051484 8.693092l8.842972 1.64869 4.546387-7.593965a321.944158 321.944158 0 0 1 34.522566-46.263236c-4.696268 94.924566 27.128442 151.1299 91.377385 159.173509a81.135523 81.135523 0 0 0 10.341781 0.699444 76.739017 76.739017 0 0 0 55.206129-23.181578c27.578084-27.678005 38.469429-75.390089 30.775543-134.343241a31.774749 31.774749 0 0 0-1.648689-6.494838 332.885463 332.885463 0 0 0-24.080864-49.960298 91.477305 91.477305 0 0 0 53.857201-42.316372 93.92536 93.92536 0 0 0 5.345752-11.340988 13.289439 13.289439 0 0 1 3.896903-0.249801 107.36468 107.36468 0 0 0 13.539241 0.599523 319.745905 319.745905 0 0 1 46.513037 635.894669z m406.676823-275.830803a38.919072 38.919072 0 0 1-15.237891 6.544799 18.635191 18.635191 0 0 0-14.688328 15.837414 18.235509 18.235509 0 0 0 9.99206 18.934953 15.437732 15.437732 0 0 0 1.448848 0.849325c-3.047578 0.699444-7.094362 1.548769-12.390153 2.348134a24.980149 24.980149 0 0 0-18.035668 37.070541c8.543211 14.988089 9.142734 23.980943 7.444084 26.229156s-14.088804 6.095156-44.614545-0.949246a45.214069 45.214069 0 0 0-5.645514-0.649484c-23.781102-1.69865-37.320342-6.994442-41.117325-16.237096a346.924307 346.924307 0 0 0 25.279911-130.446338c0-7.693886-0.349722-15.287851-0.849325-22.831856 30.425821 0 95.973732 5.695474 111.161662 55.505891a7.094362 7.094362 0 0 1-2.747816 7.593965z" fill="#231815" /><path d="M238.507432 858.431574l-7.244244 7.044402-113.459836-82.23465 4.596348-9.99206 29.976178 22.232332c35.521772 28.427409 64.948387-5.395712 75.889693-18.235508 3.29738 2.248213 6.145117 4.146705 8.643131 5.745434-9.592377 14.638367-10.441702 33.923042-10.341782 41.86673a24.280705 24.280705 0 0 0 1.59873 8.39333zM519.833868 900.797906l-3.29738 9.542417-138.489945-22.132412-0.449643-10.891345 36.970621 6.195077c26.528918 5.645514 41.167285-7.693886 49.460694-22.731935v-0.349723a117.356739 117.356739 0 0 0 9.99206-27.378243c3.946864 0.399682 7.344164 0.849325 10.341781 1.199047-1.998412 17.286263 5.995236 34.972208 9.592378 42.116531a23.381419 23.381419 0 0 0 5.295791 6.64472z" fill="#7C432C" /><path d="M917.417917 555.622209a38.919072 38.919072 0 0 1-15.237891 6.544799 18.635191 18.635191 0 0 0-14.688328 15.837415 18.235509 18.235509 0 0 0 9.99206 18.934953 15.437732 15.437732 0 0 0 1.448848 0.849325c-3.047578 0.699444-7.094362 1.548769-12.390153 2.348134a24.980149 24.980149 0 0 0-18.035668 37.07054c8.543211 14.988089 9.142734 23.980943 7.444084 26.229157s-14.088804 6.095156-44.614545-0.949246a45.214069 45.214069 0 0 0-5.645514-0.649484c-23.781102-1.69865-37.320342-6.994442-41.117325-16.237097a346.924307 346.924307 0 0 0 25.279911-130.246496c0-7.693886-0.349722-15.287851-0.849325-22.831856 30.425821 0 95.973732 5.695474 111.161662 55.505891a7.094362 7.094362 0 0 1-2.747816 7.593965z" fill="#F4D19C" /><path d="M464.228056 195.608304a107.36468 107.36468 0 0 1-13.53924-0.599523 13.289439 13.289439 0 0 0-3.896903 0.249801 93.92536 93.92536 0 0 1-5.345752 11.340988 91.477305 91.477305 0 0 1-53.857201 42.266412 332.885463 332.885463 0 0 1 24.080863 49.960297 31.774749 31.774749 0 0 1 1.64869 6.494839c7.693886 58.953151-3.197459 106.665236-30.775543 134.343241a76.739017 76.739017 0 0 1-55.256089 23.181578 81.135523 81.135523 0 0 1-10.341782-0.699445C252.696156 453.953004 220.871447 397.747669 225.567714 302.823103a321.944158 321.944158 0 0 0-34.522565 46.263236l-4.546387 7.593965-8.743052-1.64869a544.966927 544.966927 0 0 0-60.951564-8.693092c5.395712 15.887375 19.984119 45.713672 37.720025 58.353628l7.693886 5.445673-2.797777 8.992853A319.745905 319.745905 0 0 0 446.991754 834.35071c0.649484-2.448055 1.448849-4.99603 2.148293-7.693886 2.148293-8.842973 5.545593-21.982531 18.58523-20.583642 9.99206 1.199047 17.685945 2.148293 23.231539 2.747816a22.382213 22.382213 0 0 1 15.387771 8.892933 23.081658 23.081658 0 0 1 4.396507 13.739082 319.745905 319.745905 0 0 0-46.513038-635.844709z m205.836427 472.724337c-49.960298 14.338605-92.32663 20.383801-127.5986 20.383801-92.676352 0-137.940382-41.866729-159.872953-83.583578a98.571667 98.571667 0 0 1 35.621692-130.296456c42.965856-26.129236 116.157692-42.166491 221.374079 28.976973 70.54394 47.812005 101.219563 86.880958 93.825439 119.355151-8.093568 34.622486-54.506685 43.71526-63.349657 45.114149z" fill="#FFFFFF" /><path d="M784.473564 515.354209a318.84662 318.84662 0 0 1-273.182907 316.348605 23.131618 23.131618 0 0 0-4.396506-13.789042 22.582055 22.582055 0 0 0-15.387772-8.892933c-5.545593-0.599524-13.239479-1.548769-23.281499-2.747816-13.089598-1.398888-16.436938 11.74067-18.635191 20.583642-0.649484 2.747816-1.448849 5.245831-2.148293 7.693886a320.745111 320.745111 0 0 1-259.793547-160.822198 320.245508 320.245508 0 0 0 244.905379 137.190977c0.649484-2.448055 1.448849-4.99603 2.148293-7.693885 2.148293-8.842973 5.545593-21.982531 18.58523-20.583643 9.99206 1.199047 17.685945 2.148293 23.231539 2.747816a22.382213 22.382213 0 0 1 15.387771 8.892933 23.131618 23.131618 0 0 1 4.396507 13.789042 319.745905 319.745905 0 0 0 231.016416-475.322271 317.447731 317.447731 0 0 1 57.15458 182.604887z" fill="#C9CACA" /><path d="M418.164662 87.294379a41.866729 41.866729 0 0 1-30.925424-3.697062 43.61534 43.61534 0 0 1-21.73273-28.427409 2.198253 2.198253 0 0 0-1.099126-1.64869 1.398888 1.398888 0 0 0-1.398889 0 10.241861 10.241861 0 0 0-2.048372 0.799365 37.220422 37.220422 0 0 1-30.27594 0.749404 33.873082 33.873082 0 0 1-19.284675-20.483722c-0.349722-0.749404-0.599524-1.548769-0.849325-2.248213v0.249801c-9.342576 7.544005-88.129965 75.49001-92.576432 148.032362-1.64869 27.378243 7.494045 51.509067 28.177608 73.541558a28.327489 28.327489 0 0 1 7.494045 22.482134c-6.494839 55.755692-6.544799 150.630297 66.497156 159.872953a51.159345 51.159345 0 0 0 44.064983-14.98809c21.383007-21.532888 29.976179-62.600253 23.381419-112.660471a276.280446 276.280446 0 0 0-23.881022-48.71129 22.881816 22.881816 0 0 1-2.448055-21.033285 23.5313 23.5313 0 0 1 16.337017-14.438526 65.348069 65.348069 0 0 0 41.067365-30.925425c14.188725-24.830268 13.888963-60.601841-0.499603-106.465394zM357.313019 355.98086a43.115737 43.115737 0 0 1-39.968238 30.375861 35.521772 35.521772 0 0 1-11.490868-1.898491c-20.783484-6.944481-31.474988-30.975385-23.980943-53.507479s30.775543-35.421851 51.509067-28.52733a40.417881 40.417881 0 0 1 26.279116 41.91669 47.212481 47.212481 0 0 1-2.348134 11.640749z" fill="#DE1619" /><path d="M333.781719 342.49158a22.232332 22.232332 0 0 1-1.149087 5.295791 17.336223 17.336223 0 0 1-14.988089 12.689916 11.490868 11.490868 0 0 1-3.3973-0.549564c-7.094362-2.298174-10.541623-11.840591-7.593965-20.833444a17.386184 17.386184 0 0 1 14.988089-12.589995 10.441702 10.441702 0 0 1 3.34734 0.499603 14.988089 14.988089 0 0 1 8.793012 15.487693z" fill="#F8B62D" /><path d="M639.38886 503.76342c-105.216387-71.143464-178.408223-54.956327-221.374079-28.976972a98.571667 98.571667 0 0 0-35.421851 130.496297c22.132412 41.716849 67.396442 83.583578 159.872953 83.583578 35.27197 0 77.388501-6.045196 127.5986-20.383801 8.842973-1.398888 55.256089-10.491663 63.149816-44.964268 7.394124-32.873876-23.281499-71.942829-93.825439-119.754834z m-78.987231 158.174303c-75.58993 4.346546-128.597806-18.835032-154.876922-69.045132a71.742987 71.742987 0 0 1 26.229156-95.973731c47.612164-28.877052 107.41464-23.181578 173.811876 16.087215 3.747022 24.730347 16.037256 125.250466-45.16411 148.931648z m147.532759-44.614546c-3.597141 16.087216-32.674035 23.980943-42.516213 25.429792l-1.74861 0.349722c-18.934953 5.445672-36.97062 9.592377-54.107003 12.789836 26.978561-36.471017 27.328283-90.927742 24.280705-124.401141 72.442432 50.909543 76.089533 76.838938 74.091121 85.831791z" fill="#231815" /><path d="M707.934388 617.323177c-3.597141 16.087216-32.674035 23.980943-42.516213 25.429792l-1.74861 0.349722c-18.934953 5.445672-36.97062 9.592377-54.107003 12.789836 26.978561-36.471017 27.328283-90.927742 24.280705-124.401141 72.442432 50.909543 76.089533 76.838938 74.091121 85.831791zM560.401629 661.937723c-75.58993 4.346546-128.597806-18.835032-154.876922-69.045132a71.742987 71.742987 0 0 1 26.229156-95.973731c47.612164-28.877052 107.41464-23.181578 173.811876 16.087215 3.747022 24.730347 16.037256 125.250466-45.16411 148.931648z" fill="#F4D19C" /><path d="M306.003794 384.45823a35.821533 35.821533 0 0 0 11.540828 1.898491 43.115737 43.115737 0 0 0 39.968239-30.375861 47.112561 47.112561 0 0 0 2.298173-11.640749 40.417881 40.417881 0 0 0-26.229156-41.96665c-20.933365-6.844561-43.965062 5.895315-51.509067 28.52733s3.197459 46.662918 23.930983 53.557439z m0.699444-45.363951a17.336223 17.336223 0 0 1 14.988089-12.639955 11.191107 11.191107 0 0 1 3.3973 0.499603 14.688328 14.688328 0 0 1 8.543211 15.587613 18.835032 18.835032 0 0 1-1.049166 4.99603c-2.947658 8.892933-11.440908 14.438526-18.48531 12.090392s-10.391742-11.640749-7.394124-20.533683z" fill="#231815" /><path d="M944.996001 540.334358c-20.883404-68.145846-103.717578-74.390883-138.689786-73.89128a346.025022 346.025022 0 0 0-342.078159-296.764168 91.027662 91.027662 0 0 1-10.641543-0.399682c3.747022-26.179196 0-57.154581-11.640749-92.776273a22.482134 22.482134 0 0 0-26.72876-15.287851 13.539241 13.539241 0 0 0-2.148292 0.699444 16.486898 16.486898 0 0 1-13.539241-1.199047 17.486104 17.486104 0 0 1-8.743052-11.390948 28.47737 28.47737 0 0 0-13.539241-18.335429 27.328283 27.328283 0 0 0-22.182372-2.298174 47.312402 47.312402 0 0 0-4.99603 1.998412 11.390948 11.390948 0 0 1-9.192694 0.399682 8.693092 8.693092 0 0 1-4.99603-4.99603C331.783307 14.302384 325.43835 0.763144 312.648513 0.063699c-5.695474-0.449643-13.589201 1.69865-19.984119 13.539241-14.488486 12.140352-95.62401 84.732665-100.570079 165.268665a120.154516 120.154516 0 0 0 31.425027 88.629568 344.12653 344.12653 0 0 0-49.960297 60.50192c-72.991995-13.039638-79.286992-7.843767-83.733459 2.198253-5.295792 11.890551 8.44329 47.01264 27.528124 72.842114-18.38539 7.893727-32.873876 29.976179-37.919866 44.964268-3.447261 10.391742-2.098333 18.135588 4.046784 22.981737a14.988089 14.988089 0 0 0 9.642337 3.447261c8.043608 0 17.486104-5.695474 29.726377-13.289439a342.727642 342.727642 0 0 0 91.926948 292.567503 81.085563 81.085563 0 0 0-6.145116 6.494838c-18.43535 21.383007-27.827886 24.980149-40.567762 14.688328l-33.923042-24.980149a22.582055 22.582055 0 0 0-33.973003 8.842973l-7.344163 16.386977a22.582055 22.582055 0 0 0 7.294203 27.578085l118.056183 85.482069a22.632015 22.632015 0 0 0 28.976973-2.048372l10.891345-10.591583a22.282293 22.282293 0 0 0 4.99603-24.980149l-10.341782-26.528918c0-9.242655 1.848531-21.233127 6.994442-27.977767 0.499603-0.649484 0.849325-1.398888 1.298968-2.098332a344.426292 344.426292 0 0 0 143.885657 61.551086l-26.82868-4.546387a22.632015 22.632015 0 0 0-26.329077 23.231539l0.799365 17.835826a22.632015 22.632015 0 0 0 18.984913 21.333047l143.885657 22.981737a22.482134 22.482134 0 0 0 24.980149-14.988089l4.99603-14.338606a22.482134 22.482134 0 0 0-6.544799-24.430585l-21.73273-18.884993a68.145846 68.145846 0 0 1-2.947657-6.644719 344.176491 344.176491 0 0 0 258.794342-185.552546c11.091186 8.992854 28.027727 14.438526 51.159345 16.087216h1.498808a163.570015 163.570015 0 0 0 35.971415 4.99603c14.288645 0 27.528124-3.34734 35.32193-13.789043 9.442496-12.639955 7.593965-30.875464-5.445672-53.257677 18.685151-2.847737 37.769985-7.943687 40.31796-23.081657a21.83265 21.83265 0 0 0-8.842973-19.984119 68.79533 68.79533 0 0 0 9.99206-5.745435 32.973796 32.973796 0 0 0 12.090392-36.421057z m-727.022252-359.714143c4.446466-72.442432 83.233856-140.388436 92.27667-147.982402l0.299762-0.249801 0.849325 2.298174a34.322724 34.322724 0 0 0 19.334635 20.483722 37.320342 37.320342 0 0 0 29.976179-0.849325l1.998412-0.749405a1.498809 1.498809 0 0 1 1.448848 0 2.448055 2.448055 0 0 1 1.099127 1.59873 43.515419 43.515419 0 0 0 21.682769 28.477369 42.666094 42.666094 0 0 0 31.025345 3.747023c14.438526 45.763633 14.688328 81.585166 0.649484 106.415434a65.248149 65.248149 0 0 1-41.017405 30.875464 23.231538 23.231538 0 0 0-16.436938 14.038843 22.681975 22.681975 0 0 0 2.348134 21.033286 277.229692 277.229692 0 0 1 24.080864 48.81121c6.544799 49.960298-1.998412 91.127583-23.381419 112.660472a51.109385 51.109385 0 0 1-44.064983 14.988089c-73.041955-9.092774-72.991995-103.967379-66.447196-159.872953a28.227568 28.227568 0 0 0-7.544005-22.432173c-20.633603-21.88261-29.876258-45.963474-28.177608-73.291757zM130.193506 426.724641c-3.896903 2.098333-7.893727 4.446466-11.690709 6.794601a24.980149 24.980149 0 0 1 11.540828-7.643926 0.999206 0.999206 0 0 1 0.299762 0.549564z m101.069682 438.701374L117.803352 783.241326l4.496427-9.99206 29.976179 22.232332c35.571732 28.427409 64.948387-5.345752 75.939652-18.235508l8.643132 5.745434c-9.542417 14.588407-10.441702 33.923042-10.391742 41.86673a22.632015 22.632015 0 0 0 1.69865 8.343369l10.291821 24.980149z m288.57068 35.371891l-3.29738 9.542417-138.439985-22.132412-0.499603-10.941305 36.92066 6.245037c26.628839 5.595553 41.167285-7.643926 49.510655-22.731935v-0.299762a114.15928 114.15928 0 0 0 9.99206-27.478164l10.291821 1.199047c-1.898491 17.336223 5.995236 34.972208 9.692298 42.116531a21.78269 21.78269 0 0 0 4.99603 6.64472z m-108.663648-44.164903c4.99603 0.749404 9.99206 1.498809 14.98809 2.048372a32.873876 32.873876 0 0 1-6.69468-0.649484z m99.620834-24.980149a23.181578 23.181578 0 0 0-4.396506-13.689122 22.232332 22.232332 0 0 0-15.387772-8.892933l-23.48134-2.997617c-13.139558-1.448849-16.486898 11.74067-18.685151 20.533682-0.699444 2.847737-1.398888 5.295792-2.098333 7.743846a319.745905 319.745905 0 0 1-287.421592-415.269994l2.797776-8.942893-7.643925-5.495633c-17.735906-12.639955-32.374273-42.466253-37.769985-58.303668a537.17312 537.17312 0 0 1 61.051484 8.743053l8.793012 1.598729 4.646308-7.643925a323.492927 323.492927 0 0 1 34.472605-46.163315c-4.696268 94.924566 27.128442 151.1299 91.327424 159.123548a82.534412 82.534412 0 0 0 10.441702 0.649483 76.788978 76.788978 0 0 0 55.156169-23.131617c27.528124-27.678005 38.419469-75.390089 30.675623-134.343241a25.929394 25.929394 0 0 0-1.59873-6.444878 317.947334 317.947334 0 0 0-24.130823-49.960298 91.777067 91.777067 0 0 0 53.907161-42.416293 106.365474 106.365474 0 0 0 5.345752-11.291027 13.239479 13.239479 0 0 1 3.896903-0.249801 125.650149 125.650149 0 0 0 13.53924 0.549563 319.745905 319.745905 0 0 1 46.562998 635.944629z m406.626863-275.830803a40.917484 40.917484 0 0 1-15.237891 6.594759 18.635191 18.635191 0 0 0-4.99603 34.972208l1.498809 0.749405a126.549434 126.549434 0 0 1-12.440114 2.398094 24.980149 24.980149 0 0 0-18.035668 37.120501c8.543211 14.988089 9.142734 23.881022 7.444085 26.129236s-14.088804 6.195077-44.664506-0.899286a41.566968 41.566968 0 0 0-5.545593-0.649483c-23.831062-1.69865-37.370303-6.994442-41.167286-16.237097a346.474664 346.474664 0 0 0 25.579673-130.646179c0-7.693886-0.349722-15.337811-0.849325-22.881816 30.375861 0 95.923772 5.695474 111.161662 55.505891a7.094362 7.094362 0 0 1-2.747816 7.643925z" fill="#231815" /><path d="M639.38886 503.76342c-105.166427-71.143464-178.458183-54.956327-221.374079-29.026933a98.571667 98.571667 0 0 0-35.421851 130.546258c22.132412 41.816769 67.446402 83.633538 160.172714 83.633539 34.972208 0 77.338541-6.045196 127.54864-20.383802 8.793012-1.448849 55.256089-10.541623 63.149817-44.964268 7.194283-32.973796-23.48134-71.992789-94.075241-119.804794z m-234.113955 89.129171a71.693027 71.693027 0 0 1 26.179196-95.973731c47.662124-28.877052 107.4646-23.181578 173.861836 16.087215 4.046784 24.680387 16.287057 125.250466-44.964268 148.981608-75.53997 4.296586-128.497886-18.835032-155.076764-69.095092z m302.659483 24.430586c-3.647102 16.087216-32.674035 23.930983-42.516213 25.429792l-1.69865 0.349722c-18.984913 5.445672-36.97062 9.642337-54.206923 12.789836 27.028521-36.520978 27.378243-90.927742 24.330665-124.351181 72.442432 50.859583 76.139494 76.838938 74.091121 85.781831z" fill="#231815" /></svg>