<?xml version="1.0" standalone="no"?><!DOCTYPE svg PUBLIC "-//W3C//DTD SVG 1.1//EN" "http://www.w3.org/Graphics/SVG/1.1/DTD/svg11.dtd"><svg class="icon" width="600px" height="600.00px" viewBox="0 0 1024 1024" version="1.1" xmlns="http://www.w3.org/2000/svg"><path d="M525.714286 828.928c14.573714 0 22.710857-4.717714 33.426285-20.150857l171.428572-233.984h2.56l170.166857 234.422857c9.856 14.573714 19.712 19.712 35.145143 19.712 22.272 0 38.564571-15.853714 38.564571-37.723429 0-9.417143-3.437714-19.273143-8.996571-27.428571L782.006857 513.097143l190.72-255.451429c6.4-8.118857 9.417143-17.133714 9.417143-26.130285 0-20.132571-16.713143-36.425143-36.864-36.425143-15.853714 0-24.850286 5.138286-35.565714 20.571428l-171.008 236.982857h-2.56l-170.148572-236.982857c-10.715429-15.853714-19.291429-20.571429-36.004571-20.571428-22.710857 0-38.985143 15.433143-38.985143 36.864 0 9.417143 2.998857 18.834286 9.417143 27.428571l183.862857 251.136L497.005714 765.933714c-6.436571 8.557714-9.435429 17.554286-9.435428 26.569143 0 20.571429 16.713143 36.425143 38.144 36.425143z m-444.434286-1.718857c24.009143 0 39.862857-15.414857 39.862857-39.862857v-234.422857h251.574857c20.992 0 36.004571-13.275429 36.004572-34.285715 0-21.430857-14.994286-34.706286-36.022857-34.706285H121.161143V274.779429h276.425143c21.010286 0 36.425143-13.275429 36.425143-35.126858 0-21.869714-15.414857-35.584-36.425143-35.584H80.859429c-24.009143 0-39.003429 15.433143-39.003429 39.424V787.382857c0 24.429714 14.994286 39.862857 39.424 39.862857z" /></svg>