<?xml version="1.0" standalone="no"?><!DOCTYPE svg PUBLIC "-//W3C//DTD SVG 1.1//EN" "http://www.w3.org/Graphics/SVG/1.1/DTD/svg11.dtd"><svg class="icon" width="600px" height="398.96px" viewBox="0 0 1540 1024" version="1.1" xmlns="http://www.w3.org/2000/svg"><path d="M50.768181 500.702753a55.765427 55.765427 0 0 0 49.550086 55.592779h135.011035l31.767302-111.185558H100.318267A55.765427 55.765427 0 0 0 50.768181 500.702753z m-3.280319-189.91322h238.945361l28.659631-89.086566H47.487862a44.543283 44.543283 0 1 0 0 89.086566z m123.443593 379.826441H47.315213a44.543283 44.543283 0 1 0 0 88.913917h95.129259zM95.829409 89.10901h270.367366a43.852689 43.852689 0 0 0 45.061228-44.543283A43.680041 43.680041 0 0 0 366.196775 0.022444H95.829409a43.680041 43.680041 0 0 0-45.061228 44.543283 43.852689 43.852689 0 0 0 45.061228 44.543283z m1033.300568 0H1399.497344a43.680041 43.680041 0 0 0 45.061228-44.543283A43.680041 43.680041 0 0 0 1399.497344 0.022444H1129.129977a43.507392 43.507392 0 0 0-44.888579 44.543283 43.680041 43.680041 0 0 0 44.888579 44.543283z m-480.480448 0h270.367367a43.852689 43.852689 0 0 0 45.061227-44.543283A43.680041 43.680041 0 0 0 919.016896 0.022444H648.649529a43.680041 43.680041 0 0 0-45.061228 44.543283 43.680041 43.680041 0 0 0 45.061228 44.543283zM170.931455 868.098511h128.968342L358.945543 690.615974h217.191665l61.635473 178.000482h133.975145L549.549357 200.294568h-159.354456z m293.50225-578.717378h2.071781c10.013606 44.543283 21.235751 90.985697 34.529676 131.558067l57.66456 180.072263H382.598372l49.03214-180.072263c12.258035-39.709128 22.44429-87.014785 32.630545-131.558067z m369.467538 220.299336l-14.847761-64.397847h-119.47268l26.933147 111.185559h117.4009zM1470.28318 690.615974H1273.291376v63.016659a121.889758 121.889758 0 0 0 3.452968 25.897258H1470.28318A44.543283 44.543283 0 1 0 1470.28318 690.615974z m-70.785836 244.297461H1129.129977a44.543283 44.543283 0 1 0 0 89.086565H1399.497344a44.543283 44.543283 0 1 0 0-89.086565z m22.789586-378.445254c25.551961 0 46.442415-29.350225 46.442415-55.59278s-20.890454-55.592779-46.442415-55.592779h-169.886008a468.049765 468.049765 0 0 1 21.926345 111.185559zM366.196775 934.913435H95.829409a44.543283 44.543283 0 1 0 0 89.086565h270.367366a44.543283 44.543283 0 1 0 0-89.086565z m1127.393937-712.347226H627.586426L658.835783 311.652774h834.754929a44.543283 44.543283 0 1 0 0-89.086565zM1126.540251 779.011945h2.935023l8.287122 89.086566h114.638526a1135.853707 1135.853707 0 0 1-1.381187-130.694826v-164.533908c0-99.27282-48.859492-191.812353-209.940433-191.812353a392.257125 392.257125 0 0 0-182.144043 40.227073L883.278681 496.041247a276.237412 276.237412 0 0 1 132.076012-33.666435c88.913917 0 101.3446 49.550086 101.3446 79.590904v14.502465h-3.280319c-183.352582 0-293.50225 52.830405-293.50225 166.950985 0 69.059353 56.801318 124.652132 157.97327 124.652132 64.915792 0 117.573548-24.51607 148.650257-69.059353z m-177.655185-69.059352c0-66.12433 84.770356-85.288301 169.886008-85.288301h20.717806v62.671362c0 7.42388-9.668309 17.264838-12.77598 25.206664-11.394793 32.803193-54.38424 62.671363-104.970217 62.671363-40.227073-0.345297-72.857617-20.890454-72.857617-65.779034z m-524.160489 46.96036l-13.466574 44.370634h168.332173l-14.157167-44.370634z m494.292319 178.000482H648.649529a44.543283 44.543283 0 1 0 0 89.086565h270.367367a44.543283 44.543283 0 1 0 0-89.086565z" fill="#006934" /></svg>