<?xml version="1.0" standalone="no"?><!DOCTYPE svg PUBLIC "-//W3C//DTD SVG 1.1//EN" "http://www.w3.org/Graphics/SVG/1.1/DTD/svg11.dtd"><svg class="icon" width="600px" height="600.00px" viewBox="0 0 1024 1024" version="1.1" xmlns="http://www.w3.org/2000/svg"><path d="M134 483.5h246v66.7c0.1-0.1 0.2-0.1 0.4-0.2 0.1-0.1 0.2-0.1 0.3-0.2 0.1-0.1 0.3-0.1 0.4-0.2 0.1 0 0.1-0.1 0.2-0.1l16.7-6v-78H116v282h259.4v-18H134v-246z" fill="#DD365E" /><path d="M230.1 627.1h45l-22.5-68z" fill="#FFFFFF" /><path d="M375.5 556.9c0-0.2 0.1-0.4 0.1-0.6 0-0.1 0.1-0.2 0.1-0.4s0.1-0.3 0.1-0.4c0-0.1 0.1-0.3 0.1-0.4 0-0.1 0.1-0.3 0.1-0.4 0.1-0.1 0.1-0.3 0.2-0.4 0.1-0.1 0.1-0.2 0.2-0.4 0.1-0.1 0.1-0.2 0.2-0.4 0.1-0.1 0.1-0.2 0.2-0.4 0.1-0.1 0.1-0.2 0.2-0.3 0.1-0.1 0.2-0.3 0.3-0.4l0.2-0.2c0.4-0.4 0.7-0.8 1.2-1.2l0.2-0.2c0.1-0.1 0.3-0.2 0.5-0.3 0.1-0.1 0.2-0.1 0.3-0.2 0.1-0.1 0.3-0.2 0.4-0.2v-66.7H134v246h241.4V558v-0.9c0.1-0.1 0.1-0.1 0.1-0.2z m-60.8 133.8H296l-11.5-34.4h-64.2l-11.1 34.4h-36.5l59.9-169.3h41l59.9 169.3h-18.8z" fill="#FFFFFF" /><path d="M440.8 434.7v-30.2h-163l-119.3 43h246.9z" fill="#FC6B79" /><path d="M440.8 453.9l-24.8 8.9V537l24.8-8.9V453.9z" fill="#DD365E" /><path d="M253.1 521.4h-20.5l-59.9 169.3h36.5l11.1-34.4h64.2l11.5 34.4h37.6l-59.9-169.3h-20.6z m-23 105.7l22.5-68 22.5 68h-45z" fill="#330867" /><path d="M675.4 567h-282v282h282V567z m-18 264h-246V585h246v246z" fill="#18A3D3" /><path d="M561 756.8c4.6-4 6.9-10 6.9-18.1 0-7.1-2.4-12.3-7.1-15.8-4.7-3.5-11.8-5.2-21.3-5.2h-42.3v45.2h43c9.2-0.1 16.2-2.1 20.8-6.1zM557.5 684.3c4.4-3.3 6.6-8.3 6.6-15 0-5.8-2.3-10.1-6.9-13-4.6-2.9-11.6-4.3-20.8-4.3h-39.1v37.2h40.4c8.8 0 15.4-1.6 19.8-4.9z" fill="#FFFFFF" /><path d="M411.4 831h246V585h-246v246z m52-208.1h82c16.4 0 29.1 3.8 38.4 11.3 9.2 7.6 13.8 18.1 13.8 31.5 0 14.1-5.2 24.7-15.6 32-1.7 1.2-3.6 2.3-5.6 3.3 4 1.5 7.5 3.4 10.6 5.5 10.8 7.5 16.2 18.3 16.2 32.6 0 17.3-5.4 30.4-16.1 39.5-10.7 9-26.4 13.5-46.9 13.5h-76.8V622.9z" fill="#FFFFFF" /><path d="M682.8 549l34.7-12.5H470.6L435.9 549z" fill="#66C1FF" /><path d="M693.4 845.2l151.3-54.5V509.8l-151.3 54.5z" fill="#18A3D3" /><path d="M540.2 792.2c20.6 0 36.2-4.5 46.9-13.5 10.7-9 16.1-22.2 16.1-39.5 0-14.3-5.4-25.1-16.2-32.6-3.1-2.1-6.6-4-10.6-5.5 2.1-1 4-2.1 5.6-3.3 10.4-7.3 15.6-18 15.6-32 0-13.4-4.6-23.9-13.8-31.5-9.2-7.6-22-11.3-38.4-11.3h-82v169.3h76.8zM497.3 652h39.1c9.3 0 16.2 1.4 20.8 4.3 4.6 2.9 6.9 7.2 6.9 13 0 6.7-2.2 11.7-6.6 15-4.4 3.3-11 5-19.8 5h-40.4V652z m0 65.7h42.3c9.4 0 16.5 1.7 21.3 5.2 4.7 3.5 7.1 8.8 7.1 15.8 0 8.1-2.3 14.1-6.9 18.1-4.6 4-11.5 6-20.7 6h-43v-45.1z" fill="#330867" /><path d="M740.8 518.5v-282h-282v282h282z m-264-264h246v246h-246v-246z" fill="#EAB236" /><path d="M722.8 254.5h-246v246h246v-246zM568.3 420.3c7.4 10.3 17.7 15.4 31 15.4 10.4 0 18.9-3 25.7-9 6.7-6 10.7-14.1 11.8-24.3h35.4c-2.2 19.6-9.8 35.1-23 46.7-13.2 11.5-29.9 17.3-50.3 17.3-23.8 0-42.7-7.9-56.7-23.8s-21-37.4-21-64.5c0-27.6 7-49.6 21-65.8 14-16.2 32.9-24.4 56.7-24.4 20.1 0 36.8 5.4 50 16.3 13.2 10.9 21 25.6 23.3 44.2h-35.4c-1.2-9.1-5.1-16.4-11.8-21.8-6.7-5.4-15.3-8.1-25.7-8.1-13.2 0-23.5 5.2-30.9 15.7-7.5 10.5-11.2 25-11.2 43.6 0 18 3.7 32.2 11.1 42.5z" fill="#FFFFFF" /><path d="M867.5 175.5H620.6l-119.3 43h246.9z" fill="#FFE08A" /><path d="M758.8 514.7L910 460.2V179.3l-151.2 54.5z" fill="#EAB236" /><path d="M928 166.4c0-0.3 0-0.6-0.1-0.9v-0.3-0.3c0-0.1-0.1-0.3-0.1-0.4 0-0.1 0-0.2-0.1-0.3l-0.3-0.9v-0.1c-0.1-0.3-0.2-0.5-0.4-0.8 0-0.1-0.1-0.1-0.1-0.2-0.1-0.2-0.3-0.5-0.4-0.7l-0.1-0.1c-0.2-0.3-0.4-0.5-0.6-0.8 0-0.1-0.1-0.1-0.1-0.1-0.2-0.2-0.4-0.4-0.5-0.6l-0.2-0.2c-0.2-0.2-0.5-0.4-0.8-0.6-0.3-0.2-0.5-0.4-0.8-0.5-0.1 0-0.1-0.1-0.2-0.1-0.2-0.1-0.5-0.2-0.7-0.3-0.1 0-0.1 0-0.2-0.1l-0.9-0.3h-0.2c-0.3-0.1-0.5-0.1-0.8-0.2h-0.3c-0.3 0-0.5 0-0.8-0.1h-0.2H619c-1 0-2.1 0.2-3.1 0.5l-169.2 61c-0.1 0-0.1 0.1-0.2 0.1-0.1 0.1-0.3 0.1-0.4 0.2-0.1 0.1-0.2 0.1-0.4 0.2-0.1 0.1-0.2 0.1-0.4 0.2-0.1 0.1-0.3 0.2-0.4 0.2-0.1 0.1-0.2 0.1-0.3 0.2-0.2 0.1-0.3 0.2-0.5 0.4-0.1 0-0.1 0.1-0.2 0.1-0.4 0.4-0.8 0.7-1.2 1.2l-0.2 0.2c-0.1 0.1-0.2 0.3-0.3 0.4-0.1 0.1-0.1 0.2-0.2 0.3-0.1 0.1-0.2 0.3-0.2 0.4-0.1 0.1-0.1 0.2-0.2 0.4-0.1 0.1-0.1 0.2-0.2 0.4-0.1 0.1-0.1 0.3-0.2 0.4-0.1 0.1-0.1 0.3-0.1 0.4 0 0.1-0.1 0.3-0.1 0.4 0 0.2-0.1 0.3-0.1 0.5 0 0.1-0.1 0.2-0.1 0.3 0 0.2-0.1 0.4-0.1 0.6v160.1H276.2c-1 0-2.1 0.2-3.1 0.5l-169.2 61c-0.1 0-0.1 0.1-0.2 0.1-0.1 0.1-0.3 0.1-0.4 0.2-0.1 0.1-0.2 0.1-0.4 0.2-0.1 0.1-0.2 0.1-0.4 0.2-0.1 0.1-0.3 0.2-0.4 0.2-0.1 0.1-0.2 0.1-0.3 0.2-0.2 0.1-0.3 0.2-0.5 0.3-0.1 0-0.1 0.1-0.2 0.1-0.4 0.4-0.8 0.7-1.2 1.2l-0.2 0.2c-0.1 0.1-0.2 0.3-0.3 0.4-0.1 0.1-0.1 0.2-0.2 0.3-0.1 0.1-0.2 0.2-0.2 0.4-0.1 0.1-0.1 0.2-0.2 0.4-0.1 0.1-0.1 0.2-0.2 0.4-0.1 0.1-0.1 0.3-0.2 0.4 0 0.1-0.1 0.3-0.1 0.4 0 0.1-0.1 0.3-0.1 0.4 0 0.1-0.1 0.3-0.1 0.4 0 0.1-0.1 0.2-0.1 0.4s-0.1 0.4-0.1 0.6v301.1c0 5 4 9 9 9h268.4V858c0 5 4 9 9 9h301.1c0.2 0 0.3 0 0.5-0.1 0.1 0 0.3-0.1 0.4-0.1 0.1 0 0.3-0.1 0.4-0.1 0.1 0 0.3-0.1 0.4-0.1h0.2l169.3-61c3.6-1.3 5.9-4.7 5.9-8.5v-300-0.1-0.6l59.4-21.4c3.6-1.3 5.9-4.7 5.9-8.5V166.6l0.2-0.2c0 0.1 0 0 0 0z m-307.4 9.1h246.9l-119.3 43H501.3l119.3-43z m-150 361h246.9L682.8 549H435.9l34.7-12.5z m270.2-300v282h-282v-282h282z m-300 291.6L416 537v-74.2l24.8-8.9V528.1z m-163-123.6h163v30.2l-35.4 12.8H158.5l119.3-43zM375.4 558v189.5H116v-282h282v78l-16.7 6c-0.1 0-0.1 0.1-0.2 0.1-0.1 0.1-0.3 0.1-0.4 0.2-0.1 0.1-0.2 0.1-0.3 0.2-0.1 0.1-0.3 0.1-0.4 0.2-0.1 0.1-0.3 0.2-0.4 0.2-0.1 0.1-0.2 0.1-0.3 0.2-0.2 0.1-0.3 0.2-0.5 0.3l-0.2 0.2c-0.4 0.4-0.8 0.7-1.2 1.2l-0.2 0.2c-0.1 0.1-0.2 0.3-0.3 0.4-0.1 0.1-0.1 0.2-0.2 0.3-0.1 0.1-0.2 0.2-0.2 0.4-0.1 0.1-0.1 0.2-0.2 0.4-0.1 0.1-0.1 0.2-0.2 0.4-0.1 0.1-0.1 0.3-0.2 0.4-0.1 0.1-0.1 0.3-0.1 0.4 0 0.1-0.1 0.3-0.1 0.4 0 0.1-0.1 0.3-0.1 0.4 0 0.1-0.1 0.2-0.1 0.4s-0.1 0.4-0.1 0.6v1z m18 9h282v282h-282V567z m451.3 223.7l-151.3 54.5V564.3l151.3-54.5v280.9zM910 460.2l-151.2 54.5V233.8L910 179.3v280.9z" fill="#330867" /><path d="M599.3 318.4c10.4 0 18.9 2.7 25.7 8.1 6.7 5.4 10.7 12.6 11.8 21.8h35.4c-2.3-18.6-10.1-33.3-23.3-44.2-13.2-10.9-29.9-16.3-50-16.3-23.8 0-42.7 8.1-56.7 24.4-14 16.2-21 38.2-21 65.8 0 27.1 7 48.6 21 64.5 14 15.9 32.9 23.8 56.7 23.8 20.3 0 37.1-5.8 50.3-17.3 13.2-11.5 20.8-27.1 23-46.7h-35.4c-1.2 10.2-5.1 18.3-11.8 24.3-6.7 6-15.3 9-25.7 9-13.2 0-23.6-5.1-31-15.4-7.4-10.3-11.1-24.4-11.1-42.6 0-18.6 3.7-33.1 11.2-43.6 7.4-10.4 17.8-15.6 30.9-15.6z" fill="#330867" /></svg>