<?xml version="1.0" standalone="no"?><!DOCTYPE svg PUBLIC "-//W3C//DTD SVG 1.1//EN" "http://www.w3.org/Graphics/SVG/1.1/DTD/svg11.dtd"><svg class="icon" width="600px" height="600.00px" viewBox="0 0 1024 1024" version="1.1" xmlns="http://www.w3.org/2000/svg"><path d="M628.571429 442.857143q0-61.714286-30.571429-96.571429t-84.285714-34.857143q-36 0-70.857143 17.428571t-62.857143 48.285714-45.428571 78.285714-17.428571 102.857143q0 64 30.571429 98.857143t86 34.857143q54.857143 0 100.571429-38t70-94.857143 24.285714-116.285714zm322.285714 69.142857q0 63.428571-21.142857 112.571429t-56.285714 77.142857-75.142857 42.571429-82.857143 15.714286q-3.428571 0-8.857143 2.857143t-9.428571 2.857143q-54.285714 0-81.142857-30.285714-16-18.857143-18.857143-47.428571-29.714286 37.714286-75.142857 62.857143t-99.142857 25.142857q-92 0-142.571429-54.571429t-50.571429-154q0-89.714286 37.714286-165.714286t102.285714-120.285714 140.571429-44.285714q49.714286 0 88.571429 20.285714t60.571429 56.857143l1.142857-10.857143 6.285714-32q0.571429-3.428571 3.142857-6.857143t5.428571-3.428571l67.428571 0q2.857143 0 7.428571 6.285714 2.857143 2.857143 1.714286 9.142857l-68.571429 350.857143q-2.857143 13.714286-2.857143 27.428571 0 22.285714 7.142857 29.714286t25.428571 7.428571q16-0.571429 32.571429-3.142857t41.714286-13.714286 44-28.571429 32.571429-51.142857 13.714286-78.285714q0-166.857143-99.428571-266.285714t-266.285714-99.428571q-74.285714 0-142 29.142857t-116.571429 78-78 116.571429-29.142857 142 29.142857 142 78 116.571429 116.571429 78 142 29.142857q130.285714 0 231.428571-82.285714 6.285714-5.142857 13.714286-4.571429t12 6.857143l23.428571 28q4.571429 6.857143 4 13.714286-1.142857 7.428571-6.857143 12.571429-58.285714 47.428571-130 73.142857t-147.714286 25.714286q-89.142857 0-170.285714-34.857143t-140-93.714286-93.714286-140-34.857143-170.285714 34.857143-170.285714 93.714286-140 140-93.714286 170.285714-34.857143q196.571429 0 317.714286 121.142857t121.142857 317.714286z" /></svg>