<?xml version="1.0" standalone="no"?><!DOCTYPE svg PUBLIC "-//W3C//DTD SVG 1.1//EN" "http://www.w3.org/Graphics/SVG/1.1/DTD/svg11.dtd"><svg class="icon" width="600px" height="600.00px" viewBox="0 0 1024 1024" version="1.1" xmlns="http://www.w3.org/2000/svg"><path d="M524.188 170.833h13.187V16.184C537.375 7.193 530.182 0 520.991 0h-54.347c-8.99 0-16.384 7.193-16.384 15.984v154.85H172.532c-8.992 0-16.384 7.192-16.384 15.984v54.147c0 8.391 6.193 15.584 14.585 16.184 60.94 5.395 93.909 45.555 93.909 95.307v330.277c0 44.357-23.178 79.722-74.328 84.518-7.393 0.6-13.387 5.994-14.586 12.587l-10.39 54.347c-1.798 9.591 5.395 18.582 15.785 18.582H450.86v154.05c0 8.991 7.193 16.184 16.384 16.184h54.347c8.99 0 16.384-7.193 16.384-15.984v-154.85h-13.187H685.03c102.9 0 187.017-88.113 187.017-197.207-0.599-67.733-33.567-127.675-82.919-163.04 24.377-33.568 38.962-76.126 38.962-121.682 0-110.292-83.518-199.605-187.017-199.605h-29.771M438.272 297.91h132.87c49.352 0 89.513 39.561 89.513 88.114s-40.161 88.114-89.513 88.114h-132.87V297.909zM613.9 729.887H437.673V554.26H613.9c49.352 0 89.513 39.561 89.513 88.114 0 47.953-39.561 87.514-89.513 87.514z" fill="#333333" /></svg>