<?xml version="1.0" standalone="no"?><!DOCTYPE svg PUBLIC "-//W3C//DTD SVG 1.1//EN" "http://www.w3.org/Graphics/SVG/1.1/DTD/svg11.dtd"><svg class="icon" width="600px" height="524.68px" viewBox="0 0 1171 1024" version="1.1" xmlns="http://www.w3.org/2000/svg"><path d="M448.571429 576l118.285714 0q-8 90.285714-56.285714 142t-122.571429 51.714286q-92.571429 0-145.428571-66.285714t-52.857143-180.571429q0-110.857143 53.142857-178t133.142857-67.142857q84.571429 0 132.571429 49.714286t55.428571 141.142857l-116 0q-2.857143-36.571429-20.285714-56.571429t-46.571429-20q-32.571429 0-50.571429 34.571429t-18 101.428571q0 27.428571 2.857143 48t10.285714 39.714286 22.857143 29.428571 37.714286 10.285714q54.285714 0 62.285714-79.428571zm406.857143 0l117.714286 0q-8 90.285714-56 142t-122.285714 51.714286q-92.571429 0-145.428571-66.285714t-52.857143-180.571429q0-110.857143 53.142857-178t133.142857-67.142857q84.571429 0 132.571429 49.714286t55.428571 141.142857l-116.571429 0q-2.285714-36.571429-20-56.571429t-46.285714-20q-32.571429 0-50.571429 34.571429t-18 101.428571q0 27.428571 2.857143 48t10.285714 39.714286 22.571429 29.428571 37.428571 10.285714q28 0 43.714286-21.714286t19.142857-57.714286zm205.142857-68q0-118.285714-8.857143-175.428571t-34.571429-92q-3.428571-4.571429-7.714286-8t-12.285714-8.571429-9.142857-6.285714q-49.142857-36-398.285714-36-357.142857 0-405.714286 36-2.857143 2.285714-10 6.571429t-12 8-8.285714 8.285714q-25.714286 34.285714-34.285714 91.142857t-8.571429 176.285714q0 118.857143 8.571429 175.714286t34.285714 91.714286q3.428571 4.571429 8.571429 8.571429t11.714286 8 10 6.857143q25.142857 18.857143 136.857143 28t268.857143 9.142857q348.571429 0 398.285714-37.142857 2.857143-2.285714 9.714286-6.285714t11.714286-8 7.714286-9.142857q26.285714-34.285714 34.857143-90.857143t8.571429-176.571429zm109.714286-434.857143l0 877.714286-1170.285714 0 0-877.714286 1170.285714 0z" /></svg>