<?xml version="1.0" standalone="no"?><!DOCTYPE svg PUBLIC "-//W3C//DTD SVG 1.1//EN" "http://www.w3.org/Graphics/SVG/1.1/DTD/svg11.dtd"><svg class="icon" width="600px" height="600.00px" viewBox="0 0 1024 1024" version="1.1" xmlns="http://www.w3.org/2000/svg"><path d="M971.487 932H52.513C23.511 932 0 908.489 0 879.487V144.513C0 115.511 23.511 92 52.513 92h918.974c29.002 0 52.513 23.511 52.513 52.513v734.974c0 29.002-23.511 52.513-52.513 52.513z m16.263-777.494c0-14.501-11.755-26.256-26.256-26.256H62.506c-14.501 0-26.256 11.755-26.256 26.256v714.988c0 14.501 11.755 26.256 26.256 26.256h898.988c14.501 0 26.256-11.755 26.256-26.256V154.506z m-85.79 491.735c-9.629 7.307-21.035 12.802-34.215 16.489-13.183 3.687-27.627 5.531-43.333 5.531-14.069 0-27.729-2.458-40.976-7.374-13.25-4.916-25.098-12.015-35.547-21.303-10.449-9.284-18.92-20.515-25.405-33.694-6.489-13.177-9.937-28.094-10.347-44.756h49.377c0.682 9.832 2.695 18.812 6.044 26.935 3.345 8.126 7.75 15.126 13.215 20.995 5.461 5.873 11.883 10.415 19.258 13.622 7.376 3.21 15.501 4.813 24.381 4.813 7.786 0 15.264-0.819 22.435-2.458 7.171-1.638 13.487-4.301 18.952-7.988 5.461-3.687 9.834-8.501 13.112-14.441 3.278-5.94 4.917-13.279 4.917-22.019 0-7.646-2.356-14.134-7.068-19.459-4.713-5.326-10.894-9.935-18.542-13.826-7.651-3.892-16.391-7.406-26.225-10.549a1520.657 1520.657 0 0 1-30.015-9.935 417.773 417.773 0 0 1-30.015-11.573c-9.835-4.231-18.577-9.454-26.225-15.669-7.651-6.212-13.83-13.689-18.542-22.429-4.712-8.738-7.069-19.254-7.069-31.544 0-12.562 2.459-23.658 7.376-33.286 4.917-9.627 11.848-17.718 20.796-24.272 8.944-6.555 19.598-11.503 31.961-14.85 12.36-3.345 25.918-5.019 40.669-5.019 13.113 0 24.721 1.332 34.83 3.994 10.107 2.663 18.952 6.283 26.533 10.856 7.58 4.577 13.964 9.903 19.156 15.977 5.189 6.078 9.457 12.597 12.805 19.562 3.345 6.964 5.839 14.133 7.478 21.507 1.639 7.374 2.731 14.614 3.278 21.712h-49.376c-0.82-9.147-2.801-17.068-5.942-23.76-3.143-6.689-7.139-12.22-11.985-16.592-4.85-4.368-10.417-7.61-16.698-9.729-6.284-2.116-12.978-3.175-20.079-3.175-6.421 0-12.737 0.65-18.951 1.946-6.217 1.299-11.781 3.415-16.698 6.35-4.917 2.938-8.912 6.759-11.986 11.47-3.073 4.711-4.61 10.482-4.61 17.309 0 7.921 2.357 14.578 7.069 19.971 4.712 5.396 10.891 10.107 18.542 14.133 7.648 4.03 16.39 7.649 26.225 10.856a2615.59 2615.59 0 0 1 30.117 10.037 381.603 381.603 0 0 1 30.118 11.675c9.834 4.302 18.574 9.493 26.225 15.568 7.648 6.077 13.829 13.384 18.542 21.917 4.712 8.535 7.068 18.812 7.068 30.827 0 14.613-2.699 27.38-8.093 38.303-5.397 10.927-12.907 20.042-22.537 27.345zM453.211 441.717v219.375h-48.353V375.351h55.114l122.724 217.122V375.351h48.352v285.741H576.55L453.211 441.717zM285.559 620.125c-11.134 12.838-24.483 22.874-40.054 30.111-15.571 7.239-32.781 10.856-51.631 10.856H82.828V375.351h111.046c19.669 0 37.321 3.722 52.962 11.164 15.639 7.444 28.956 17.615 39.952 30.52 10.994 12.904 19.429 27.994 25.303 45.267 5.872 17.277 8.81 35.744 8.81 55.407 0 20.484-3.108 39.466-9.322 56.944-6.217 17.481-14.889 32.638-26.02 45.472zM265.89 472.442c-4.577-12.834-10.893-23.418-18.951-31.749-8.061-8.328-17.62-14.508-28.684-18.538-11.063-4.026-23.017-6.042-35.854-6.042h-51.22v203.398h51.22c12.975 0 24.996-2.218 36.059-6.657 11.064-4.436 20.623-10.959 28.684-19.562 8.057-8.603 14.342-19.183 18.849-31.749 4.507-12.561 6.761-26.967 6.761-43.219 0-17.75-2.289-33.045-6.864-45.882z" /></svg>