<?xml version="1.0" standalone="no"?><!DOCTYPE svg PUBLIC "-//W3C//DTD SVG 1.1//EN" "http://www.w3.org/Graphics/SVG/1.1/DTD/svg11.dtd"><svg class="icon" width="600px" height="600.00px" viewBox="0 0 1024 1024" version="1.1" xmlns="http://www.w3.org/2000/svg"><path d="M954 464.2c2 16 3.4 32.1 3.4 48.6 0 242.9-199.8 439.8-446.2 439.8C264.8 952.6 65 755.7 65 512.8 64.9 269.9 264.7 73 511.2 73c123.6 0 235.4 49.6 316.2 129.6l-106.2 109c-53.2-54-127.6-87.7-210-87.7-161.8 0-293 129.4-293 288.9 0 159.6 131.2 288.9 293 288.9 121.2 0 225.3-72.6 269.8-176.1l-259.7 31.9-21-149.6L800.1 467c0-0.1 0-0.3-0.1-0.5L951.4 444c0.1 0.7 0.2 1.5 0.3 2.3l4.2-0.6-1.9 18.5z" /></svg>