<?xml version="1.0" standalone="no"?><!DOCTYPE svg PUBLIC "-//W3C//DTD SVG 1.1//EN" "http://www.w3.org/Graphics/SVG/1.1/DTD/svg11.dtd"><svg class="icon" width="600px" height="600.00px" viewBox="0 0 1024 1024" version="1.1" xmlns="http://www.w3.org/2000/svg"><path d="M493.092571 753.298286v-67.254857h-215.04c-32.365714 0-58.624-30.116571-58.624-67.254858V304.969143C219.428571 267.830857 245.686857 237.714286 278.070857 237.714286h449.572572C760.027429 237.714286 786.285714 267.830857 786.285714 304.969143V618.788571c0 37.138286-26.258286 67.254857-58.642285 67.254858H512.621714v67.254857h198.217143a16.822857 16.822857 0 0 1 0 33.609143H314.422857a16.822857 16.822857 0 1 1 0-33.609143h178.651429z m-215.04-481.956572c-16.182857 0-29.312 15.049143-29.312 33.627429V618.788571c0 18.578286 13.129143 33.645714 29.330286 33.645715h449.572572c16.201143 0 29.330286-15.067429 29.330285-33.645715V304.969143c0-18.578286-13.129143-33.645714-29.330285-33.645714H278.070857z m205.092572 88.722286c2.816-10.258286 10.788571-15.872 20.662857-15.872 10.185143 0 16.237714 7.661714 13.037714 19.236571l-56.941714 206.628572c-2.742857 9.910857-10.587429 15.853714-19.638857 15.853714-10.752 0-17.261714-7.68-14.08-19.236571l24.576-89.179429h-97.993143l-25.508571 92.544c-2.742857 9.965714-10.825143 15.872-20.150858 15.872-10.514286 0-16.731429-7.753143-13.568-19.236571l56.96-206.628572c2.816-10.221714 10.550857-15.853714 20.150858-15.853714 10.422857 0 16.768 7.570286 13.549714 19.236571l-21.357714 77.513143h98.011428l22.290286-80.877714z m77.622857 19.565714c7.350857-26.624 21.174857-39.296 43.922286-39.296h45.220571c63.506286 0 89.051429 48.914286 67.913143 125.622857-21.156571 76.763429-70.125714 123.794286-130.468571 123.794286h-45.238858c-25.362286 0-34.541714-17.097143-26.642285-45.750857l45.293714-164.352z m26.587429 176.512c46.72 0 84.992-36.772571 102.509714-100.315428 15.542857-56.411429 2.249143-81.865143-39.954286-81.865143H604.708571c-9.435429 0-12.342857 2.669714-15.963428 15.817143l-45.293714 164.352a153.051429 153.051429 0 0 0-0.548572 2.011428h44.470857z" fill="#979797" /></svg>