<?xml version="1.0" standalone="no"?><!DOCTYPE svg PUBLIC "-//W3C//DTD SVG 1.1//EN" "http://www.w3.org/Graphics/SVG/1.1/DTD/svg11.dtd"><svg class="icon" width="600px" height="499.11px" viewBox="0 0 1231 1024" version="1.1" xmlns="http://www.w3.org/2000/svg"><path d="M829.694239 896.199647c9.871078 10.918408 19.427958 20.946585 28.19934 31.655527a10.473293 10.473293 0 0 1-0.130916 9.923445c-40.845841 47.129817-87.792375 84.10054-153.669385 86.038098-44.014012 1.282978-81.168018-15.709939-105.125675-52.602112-17.699864-27.099645-30.005983-57.603109-44.694776-86.771229-1.152062-2.277941-2.016109-4.712982-3.927484-9.268864-7.488404 8.195351-14.060395 15.369557-20.58002 22.569946-36.839807 40.557826-76.559769 77.476182-126.88394 101.198189-51.764249 24.376589-106.015904 28.984837-162.12657 22.229564-51.842798-6.231609-99.155898-23.407809-139.556623-56.843796-56.817612-47.129817-87.033061-108.660411-97.035056-180.952312-14.610243-105.41369 9.635429-202.003631 69.673579-288.93196 55.979749-81.168018 132.80135-133.534481 230.857552-148.642205 116.51538-17.90933 204.229206 29.665601 260.392237 136.021888 28.487356 53.989823 45.29699 112.011864 58.25769 171.2907 0.73313 3.351454 1.413894 6.676724 2.147025 10.028178l3.639469 1.021146c8.326268-22.386663 17.647498-44.511494 24.79552-67.264722 19.349408-61.556777 26.366514-125.10348 28.801555-189.304764 0.523665-13.929479 1.62336-27.858958 1.859009-41.89317 0-6.860007 3.011072-9.347414 9.39978-9.347414h65.458079c7.854969 0 10.604209 3.534736 10.473293 11.232607-1.335345 50.219438-6.414892 99.967578-18.171163 148.904037-19.349408 80.61817-53.701808 154.481066-100.491242 222.557468-2.618323 3.848935-4.739165 10.185277-3.508553 14.296044 13.405815 44.982792 24.638421 90.934363 42.128819 134.319978 23.826741 59.043187 69.909228 68.076402 118.29584 27.073461 6.755274-5.681761 13.562914-11.651538 21.522616-18.537728zM178.386356 719.90795c0 51.973714 3.587103 97.506354 20.763303 140.787235 16.495436 41.526605 40.767291 76.533586 85.985732 90.567798 43.359431 13.458181 83.576875 2.880155 121.306911-19.61124 48.229512-28.801555 86.404664-68.861899 122.799356-110.781253 2.618323-3.168171 3.299087-9.713979 2.461224-14.243678q-6.310159-34.038201-14.008029-67.709836c-15.500473-68.312051-29.822701-136.912117-47.496382-204.648138-10.473293-40.505459-27.649492-79.073359-56.293948-110.990718-12.437035-13.850929-26.942545-24.926436-46.134854-27.597126-36.132859-5.02718-67.029073 6.676724-93.657419 30.582015-32.807589 29.351402-51.999898 67.474188-66.531591 107.901096-22.20338 62.001892-28.225524 126.517375-29.194303 185.743845zM1134.467054 625.072285c0 85.095502 0 170.191005 0.130916 255.286507a111.278734 111.278734 0 0 0 3.351453 28.408806 48.962643 48.962643 0 0 0 32.257742 35.216447 412.673911 412.673911 0 0 0 50.297987 13.353448c8.195351 1.649544 10.656575 4.582066 10.787492 12.672684 0.576031 35.373546 0.81168 35.347362-34.404767 35.347362h-265.759799c-18.328262 0-18.328262 0-18.328262-17.726048-0.157099-27.937508-0.130916-27.858958 27.440026-31.419877a270.106216 270.106216 0 0 0 32.100642-5.236647c20.946585-5.419929 31.838809-20.187271 34.823698-41.029123a185.900944 185.900944 0 0 0 1.963743-26.183232q0.183283-193.101332 0-386.202664c0-35.137897-12.044286-64.122734-45.166075-78.91626-17.542765-7.854969-37.468204-11.206423-56.686696-14.165128-11.25879-1.728093-15.709939-4.424966-15.709939-16.521619 0.392748-30.346365-0.183283-30.817663 29.639418-32.886139 64.358383-4.451149 128.769132-8.431001 193.153699-12.437035 14.348411-0.89023 19.76834 4.948631 19.794523 20.606203v261.832315zM1147.427753 87.844742c0 52.366463-38.64645 93.657419-87.111611 93.474136-45.218441-0.183283-84.702754-41.89317-84.440921-89.022987 0.288016-50.428904 39.274847-92.400624 85.880999-92.164975 48.884093 0.104733 85.776266 37.939502 85.671533 87.713826z" fill="#898989" /></svg>