<?xml version="1.0" standalone="no"?><!DOCTYPE svg PUBLIC "-//W3C//DTD SVG 1.1//EN" "http://www.w3.org/Graphics/SVG/1.1/DTD/svg11.dtd"><svg class="icon" width="600px" height="600.00px" viewBox="0 0 1024 1024" version="1.1" xmlns="http://www.w3.org/2000/svg"><path d="M498.56 419.2l195.84-66.56-9.6 541.44-195.84 66.56 9.6-541.44z" fill="#6F7983" /><path d="M488.96 983.68a21.12 21.12 0 0 1-13.44-4.48 23.04 23.04 0 0 1-9.6-19.2l9.6-541.44a22.4 22.4 0 0 1 15.36-21.12l195.84-64a23.04 23.04 0 0 1 30.72 22.4L707.84 896a23.68 23.68 0 0 1-15.36 21.76l-195.84 64a16 16 0 0 1-7.68 1.92z m32.64-547.84L512 928l149.12-50.56 9.6-493.44z" fill="#41474C" /><path d="M677.12 298.24l195.84-65.92-3.2 177.28-195.84 65.92 3.2-177.28z" fill="#6F7983" /><path d="M673.92 499.2a25.6 25.6 0 0 1-13.44-4.48 23.04 23.04 0 0 1-9.6-19.2l3.2-177.28a23.04 23.04 0 0 1 15.36-21.76l195.84-64a23.04 23.04 0 0 1 30.72 21.76v176a22.4 22.4 0 0 1-15.36 21.12l-195.84 64z m26.24-183.68v128l149.12-50.56v-128z" fill="#41474C" /><path d="M154.24 129.92L350.08 63.36l522.88 168.96-195.84 65.92-522.88-168.32z" fill="#6F7983" /><path d="M677.12 320h-7.04L147.2 151.68A23.04 23.04 0 0 1 131.2 128a23.68 23.68 0 0 1 15.36-22.4l195.84-64a19.2 19.2 0 0 1 14.72 0l522.88 168.32a23.04 23.04 0 0 1 0 44.16L684.8 320z m-448-192l448 144.64 121.6-40.96-448-145.28z" fill="#41474C" /><path d="M677.12 298.24l-3.2 177.28-175.36-56.32-9.6 541.44-171.52-55.68 8.96-541.44-175.36-56.32 3.2-177.28 522.88 168.32z" fill="#6F7983" /><path d="M488.96 983.68a14.72 14.72 0 0 1-7.04 0l-171.52-55.04a23.68 23.68 0 0 1-16.64-22.4l9.6-524.8-159.36-51.2A23.68 23.68 0 0 1 128 306.56L131.2 128a24.32 24.32 0 0 1 9.6-18.56 21.12 21.12 0 0 1 20.48-3.2l522.88 168.96a23.68 23.68 0 0 1 16 22.4v177.28a21.76 21.76 0 0 1-9.6 18.56 23.04 23.04 0 0 1-20.48 0L520.96 448 512 960a23.04 23.04 0 0 1-10.24 18.56 19.84 19.84 0 0 1-12.8 5.12z m-148.48-95.36l128 40.32 8.96-512a24.32 24.32 0 0 1 9.6-18.56 25.6 25.6 0 0 1 20.48 0l145.92 47.36v-128L176.64 161.28v128l158.72 51.84a23.04 23.04 0 0 1 16.64 22.4z" fill="#41474C" /></svg>