<?xml version="1.0" standalone="no"?><!DOCTYPE svg PUBLIC "-//W3C//DTD SVG 1.1//EN" "http://www.w3.org/Graphics/SVG/1.1/DTD/svg11.dtd"><svg class="icon" width="600px" height="84.38px" viewBox="0 0 7281 1024" version="1.1" xmlns="http://www.w3.org/2000/svg"><path d="M36.295111 16.611556h182.385778L542.151111 762.083556h5.347556L869.603556 16.611556h182.385777V967.111111h-155.761777V312.149333h-5.290667L611.384889 967.111111H476.899556L197.404444 312.149333h-5.290666V967.111111H36.295111zM2391.495111 16.611556h685.568v133.12h-529.806222v263.623111h497.834667v133.12h-497.834667v287.516444h552.391111V967.111111H2391.552zM4388.295111 16.611556h155.761778l469.902222 685.568h5.347556V16.668444h157.013333V967.111111h-151.722667L4549.404444 272.213333h-5.290666V967.111111h-155.761778zM6487.495111 16.611556h155.761778v592.384c0 82.545778 18.602667 142.449778 57.230222 182.385777 37.262222 38.627556 98.531556 58.595556 182.385778 58.595556 82.488889 0 143.758222-19.968 182.385778-58.595556 37.262222-39.936 57.230222-99.84 57.230222-182.385777V16.611556h155.761778V606.435556c0 123.790222-34.645333 218.282667-103.879111 283.534222-69.176889 63.886222-166.4 95.857778-291.498667 95.857778-126.464 0-223.630222-31.971556-290.190222-94.549334-70.542222-66.56-105.187556-161.052444-105.187556-284.842666V16.611556z" /></svg>