<?xml version="1.0" standalone="no"?><!DOCTYPE svg PUBLIC "-//W3C//DTD SVG 1.1//EN" "http://www.w3.org/Graphics/SVG/1.1/DTD/svg11.dtd"><svg class="icon" width="600px" height="600.00px" viewBox="0 0 1024 1024" version="1.1" xmlns="http://www.w3.org/2000/svg"><path d="M48.764 97.086v-6h259.234c17.094 26.313 39.219 58.047 66.391 95.203s51.359 69.078 72.546 95.766l229.672 289.078c30.406 37.547 54.078 66.578 71 87.078 16.922 20.516 38.891 45.469 65.891 74.875 2.047-26.688 3.406-51.641 4.094-74.859 0.688-23.203 1.031-45.063 1.031-65.578V341.977c0-90.141-3.938-164.609-11.797-223.422L682.248 97.086v-6h304.828v6l-124.703 22.641c-6.5 54.219-9.75 123.516-9.75 207.906v636.453h-5.078c-52.203-75.063-103.891-145.313-155.047-210.719l-313.75-395.875c-46.5-56.109-86.141-100.813-118.953-134.094-4.781 52.609-7.172 101.734-7.172 147.359v367.265c0 49.125 3.406 107.734 10.25 175.797l130.219 21.469v5.797h-312v-5.797l126.25-20.328c4.094-27.859 7-67.516 8.719-118.984 1.703-51.469 2.563-97.328 2.563-137.578V373.977c0-33.672-0.516-67.047-1.547-100.141a1885.484 1885.484 0 0 0-5.625-98.391l-68.266-56.875-94.422-21.484z m153.438 16l619.468 779v-54.531L245.405 113.086h-43.203z" /></svg>