<?xml version="1.0" standalone="no"?><!DOCTYPE svg PUBLIC "-//W3C//DTD SVG 1.1//EN" "http://www.w3.org/Graphics/SVG/1.1/DTD/svg11.dtd"><svg class="icon" width="600px" height="600.00px" viewBox="0 0 1024 1024" version="1.1" xmlns="http://www.w3.org/2000/svg"><path d="M725.333333 160V277.333333h-64v-53.333333h-181.333333V789.333333H554.666667v64H341.333333v-64h74.666667V224h-192V277.333333h-64V160H725.333333z m106.666667 160a42.666667 42.666667 0 0 1 42.666667 42.666667v213.333333a42.666667 42.666667 0 0 1-42.666667 42.666667H618.666667a42.666667 42.666667 0 0 1-42.666667-42.666667V362.666667a42.666667 42.666667 0 0 1 42.666667-42.666667h213.333333z m-21.333333 64h-170.666667v170.666667h170.666667v-170.666667z" /></svg>