<?xml version="1.0" standalone="no"?><!DOCTYPE svg PUBLIC "-//W3C//DTD SVG 1.1//EN" "http://www.w3.org/Graphics/SVG/1.1/DTD/svg11.dtd"><svg class="icon" width="600px" height="600.00px" viewBox="0 0 1024 1024" version="1.1" xmlns="http://www.w3.org/2000/svg"><path d="M507.6 577.8c33.4-74.7 42.6-150.1 24.8-228.5C516.2 277.8 483 216 419.2 175.8c-61-38.5-125.8-40.4-186-1.5-67.9 43.8-111.2 106.4-121.9 189.2-13.6 105.8 1.2 202.3 79.9 282.3 59.3 60.3 132.1 78.6 208.3 42.9 0.3-0.1 0.5-0.2 0.7-0.3 27.4-12.4 50.2 25.3 26 43.2-1.7 1.3-3.5 2.3-5.5 3.1C289 786.2 125.2 723.5 55.4 587.8c-75-145.7-51.5-353.4 131.4-451C366 41.2 592.7 157.6 629.9 363.2c17.6 97.4-2.7 185.5-64.1 266.9M810 884.2c3.6-1.3 7.2-3.3 11-3.9 60.3-8.8 70-22.3 50.1-78.6-49-138.5-98-277-150.3-414.3-12.3-32.3-12-59.1 5.1-86.4 6.2-9.8 18.1-22.3 27.2-22.2 8.4 0.1 20.5 14.1 24.3 24.4 46.4 125.3 91.4 251 136.9 376.6 15.5 42.7 29.3 86.1 47.1 127.8 10.6 24.7 25.4 47.6 39.9 72.2 2.9 4.9-0.6 11.1-6.3 11.1H817.3c-3.8 0-7-2.9-7.3-6.7z m0 0"  /><path d="M263.8 597c19.9-5.2 39.5-13.2 59.7-15 67.3-6.1 133.6 7 188.8 43 85.8 55.9 167.9 77.8 252.8 16 9-6.5 21.7-0.2 21.7 10.9 0 42.5-23 73.1-67.9 89.2-94.5 33.9-182.9 11.2-255.1-50.5-56.3-48.1-114.8-78.4-187.2-82-6.5-0.2-11.9-5.1-12.8-11.6z m0 0M562.8 768.2c-20.2 75-16.5 93.9 37 115.1 3.5 1.4 2.6 6.7-1.3 6.7H458c-3.7 0-4.8-5-1.5-6.6 43-20.1 50.8-66.2 67.7-106.3 3.8-9.1 17.7-13.9 28.3-20.2 1.7-1 3.8-0.4 4.8 1.3 1.9 3.4 3.7 6.7 5.5 10z"  /><path d="M508.3 576.2s-8.6 14.8 17 40.4 40.5 13.6 40.5 13.6"  /></svg>