<?xml version="1.0" standalone="no"?><!DOCTYPE svg PUBLIC "-//W3C//DTD SVG 1.1//EN" "http://www.w3.org/Graphics/SVG/1.1/DTD/svg11.dtd"><svg class="icon" width="600px" height="524.68px" viewBox="0 0 1171 1024" version="1.1" xmlns="http://www.w3.org/2000/svg"><path d="M753.314199 517.542792 753.314199 567.903513 932.064958 567.903513 932.064958 1024 989.518863 1024 989.518863 567.903378 1168.270959 567.903378 1168.270959 517.542657 753.314199 517.542657 753.314199 517.542792ZM941.326035 81.305138C941.326035 48.227702 933.580677 21.119219 918.097715 0L851.575132 63.352314C870.930107 87.294268 880.613543 113.334772 880.613543 141.49106 880.613543 222.091782 815.321951 262.390807 684.745447 262.390807L369.561334 262.390807C263.974593 262.390807 181.085722 284.74636 120.899803 329.440098 40.296366 389.27982 0 467.589594 0 564.378899 0 590.773614 4.043144 617.698913 12.142779 645.154793L98.198057 562.793832C81.648581 532.172897 73.383196 502.081205 73.383196 472.516222 73.383196 375.029315 147.065903 326.27504 294.444412 326.27504L384.128506 326.27504 343.189334 695.836321 337.90983 747.047096C327.697016 830.816888 301.301099 886.253884 258.717804 913.353014L201.171702 907.013682 133.065257 972.482981 390.597579 984.096473 453.865583 922.853396 300.424324 914.934208C345.085858 893.818997 375.236339 872.170531 390.859463 849.998163 406.482725 827.82299 417.290255 791.752859 423.262149 741.770398L429.584112 683.167007 469.119933 326.275174 615.954496 326.275174C707.860065 326.275174 785.063108 302.778154 847.566702 255.790926 910.070295 208.804902 941.326035 150.645245 941.326035 81.305138L941.326035 81.305138Z" /></svg>