<?xml version="1.0" standalone="no"?><!DOCTYPE svg PUBLIC "-//W3C//DTD SVG 1.1//EN" "http://www.w3.org/Graphics/SVG/1.1/DTD/svg11.dtd"><svg class="icon" width="600px" height="600.00px" viewBox="0 0 1024 1024" version="1.1" xmlns="http://www.w3.org/2000/svg"><path d="M535.6195 614.396672c-38.826456-101.204785-82.388887-212.265517-116.052705-297.470389A34886.979029 34886.979029 0 0 1 310.042055 614.396672h225.534778z m178.729698 188.585645c15.359917 46.07975 18.943897 85.247538 13.397261 118.612691h112.51139a419.411062 419.411062 0 0 1-15.530582-28.330513c-46.037084-92.074168-245.332004-645.54317-297.385056-790.86505h-30.335836l-24.874532 69.332958c45.567753 114.474047 198.69759 500.605288 242.217355 631.292581zM51.355456 1023.994453a51.199723 51.199723 0 0 1-4.821307-102.186113c4.223977-1.450659 30.634501-12.714598 61.397001-74.282264C147.354936 768.721169 324.548643 280.915812 412.740165 34.005149A51.199723 51.199723 0 0 1 460.953237 0h102.399446c21.674549 0 40.959778 13.653259 48.213072 34.005149 88.191522 246.867996 265.385229 734.71602 304.809015 813.520927 30.7625 61.567667 57.173024 72.831605 61.397001 74.239598A51.199723 51.199723 0 0 1 972.950464 1023.994453h-358.398059c-27.562517 0-49.066401-21.845215-50.090395-49.365066-1.023994-27.477184 21.077219-50.943724 48.511737-53.034379 0.341331 0 8.02129-0.59733 11.519938-5.887968 2.133322-3.242649 12.031935-22.357212-7.338627-80.340898a3827.349935 3827.349935 0 0 0-43.519764-120.66068c-3.413315 0.767996-6.655964 2.090655-10.282611 2.090655H271.343598c-10.239945 26.922521-20.053225 52.181051-28.97051 74.666263-4.565309 86.527531 47.146411 142.20723 50.175728 145.321879A51.199723 51.199723 0 0 1 256.154347 1023.994453H51.355456z" fill="#C5C5C5" /></svg>