<?xml version="1.0" standalone="no"?><!DOCTYPE svg PUBLIC "-//W3C//DTD SVG 1.1//EN" "http://www.w3.org/Graphics/SVG/1.1/DTD/svg11.dtd"><svg class="icon" width="600px" height="600.00px" viewBox="0 0 1024 1024" version="1.1" xmlns="http://www.w3.org/2000/svg"><path d="M28.096 231.68l216 0c0 32.256 4.48 63.744 13.504 94.528 5.248 20.224 9.728 39.744 13.504 58.496 5.248 32.256 9.728 63.744 13.504 94.528C293.632 508.48 302.592 536.96 311.616 564.672c5.248-9.024 11.264-28.48 17.984-58.496 2.24-14.272 6.72-33.728 13.504-58.496C348.352 438.72 354.368 419.2 361.088 389.184 363.328 380.224 366.336 369.728 370.112 357.696c5.248-11.264 8.256-20.224 9.024-27.008 2.24-9.024 3.776-17.984 4.48-27.008C388.864 262.464 396.352 238.464 406.08 231.68 408.384 229.44 415.872 227.968 428.608 227.2c9.024 2.24 17.984 3.776 27.008 4.48l134.976 0c11.264 36.032 18.752 62.976 22.528 81.024 9.024 29.248 17.984 57.728 27.008 85.504C631.104 400.448 623.616 406.464 617.6 416.192c2.24 2.24 6.72 5.248 13.504 9.024-5.248 0-11.264 1.472-17.984 4.48l17.984 9.024c-17.984 5.248-30.016 17.28-36.032 36.032 5.248 2.24 11.264 6.72 17.984 13.504C598.848 490.432 585.344 497.92 572.608 510.72c2.24 0 5.248 1.472 9.024 4.48C579.328 517.44 574.848 518.976 568.128 519.68 562.88 524.928 559.872 527.936 559.104 528.704c2.24 2.24 3.776 3.776 4.48 4.48C558.336 535.424 552.384 536.96 545.6 537.728 540.352 542.976 534.336 547.456 527.616 551.232c2.24 0 5.248 1.472 9.024 4.48C531.328 557.952 526.848 560.96 523.136 564.672c2.24 2.24 3.776 3.776 4.48 4.48-11.264 0-18.752 1.472-22.528 4.48-2.24-5.248-3.776-11.264-4.48-17.984C489.344 573.696 471.36 588.736 446.592 600.704c2.24 2.24 6.72 3.776 13.504 4.48 5.248 2.24 9.728 5.248 13.504 9.024-5.248 0-9.728 1.472-13.504 4.48 0 2.24 1.472 5.248 4.48 9.024C446.592 632.96 431.616 638.976 419.584 645.76c0 2.24 1.472 5.248 4.48 9.024-14.272 0-26.24 4.48-36.032 13.504 2.24 0 5.248 1.472 9.024 4.48-5.248 0-11.264 1.472-17.984 4.48 2.24 2.24 6.72 5.248 13.504 9.024-14.272 2.24-26.24 8.256-36.032 17.984C358.848 706.496 363.328 709.504 370.112 713.216c-17.984 0-34.496 7.488-49.472 22.528 2.24 0 5.248 1.472 9.024 4.48C320.576 742.464 313.088 748.48 307.136 758.208l9.024 9.024C277.824 772.48 249.344 784.512 230.592 803.2c5.248 2.24 11.264 6.72 17.984 13.504C237.376 821.952 225.344 829.504 212.608 839.232c2.24 0 5.248 1.472 9.024 4.48-9.024 0-17.984 4.48-27.008 13.504 2.24 2.24 6.72 5.248 13.504 9.024-5.248 2.24-9.728 5.248-13.504 9.024 5.248 2.24 9.728 5.248 13.504 9.024 5.248 2.24 9.728 3.776 13.504 4.48-17.984 0-34.496 4.48-49.472 13.504C166.848 854.976 160.832 821.952 154.112 803.2 148.864 761.984 142.848 730.496 136.128 708.736c-9.024-44.992-19.52-89.984-31.488-135.04L77.632 438.72C72.384 402.688 66.368 378.688 59.584 366.72L46.08 299.2C25.856 254.208 19.84 231.68 28.096 231.68zM244.096 902.208c2.24 0 6.72-3.008 13.504-9.024 5.248 0 11.264-1.472 17.984-4.48-2.24 0-6.72-1.472-13.504-4.48-2.24-2.24-6.72-5.248-13.504-9.024 2.24-2.24 6.72-5.248 13.504-9.024C256.832 864 252.352 860.992 248.576 857.216c2.24 0 6.72-3.008 13.504-9.024 5.248 0 9.728-1.472 13.504-4.48L266.624 834.752c11.264-5.248 21.76-9.728 31.488-13.504 2.24 0 5.248-1.472 9.024-4.48C298.112 807.744 290.624 803.2 284.608 803.2 304.832 792 333.376 779.968 370.112 767.232 367.872 761.984 364.864 757.504 361.088 753.728L370.112 744.704c5.248 0 9.728-1.472 13.504-4.48C381.376 737.984 378.368 736.512 374.592 735.744c14.272-14.272 29.248-23.232 44.992-27.008l-4.48-4.48c11.264-11.264 21.76-17.28 31.488-17.984C441.344 683.968 436.864 680.96 433.088 677.248c5.248-2.24 11.264-3.776 17.984-4.48C448.832 670.464 445.824 668.992 442.112 668.224 451.136 662.976 464.576 656.96 482.624 650.24l-4.48-4.48c9.024 0 16.512-3.008 22.528-9.024 2.24 0 8.256-4.48 17.984-13.504l-4.48-4.48c2.24-2.24 6.72-3.776 13.504-4.48C516.352 608.96 508.864 604.48 505.088 600.704c11.264-5.248 21.76-9.728 31.488-13.504 0 2.24 0 3.776 0 4.48C534.336 605.952 529.856 620.992 523.136 636.736L487.104 771.712C484.864 785.984 480.384 799.488 473.6 812.224c-20.224 56.256-32.256 96.768-36.032 121.472-65.28 0-132.736 0-202.496 0-2.24-9.024-3.776-19.52-4.48-31.488C235.84 902.208 240.384 902.208 244.096 902.208zM608.576 537.728c2.24-2.24 5.248-3.776 9.024-4.48-2.24-2.24-3.776-5.248-4.48-9.024C618.368 521.92 625.856 518.976 635.584 515.2L626.624 506.176c11.264-5.248 26.24-11.264 44.992-17.984C662.592 479.232 656.576 471.68 653.632 465.728c2.24-2.24 5.248-3.776 9.024-4.48L658.112 456.704c9.024-9.024 17.984-14.976 27.008-17.984-5.248-2.24-9.728-5.248-13.504-9.024 2.24-2.24 6.72-3.776 13.504-4.48-5.248-9.024-8.256-14.976-9.024-17.984 2.24-2.24 6.72-3.776 13.504-4.48 5.248 14.272 9.728 29.248 13.504 44.992l40.512 135.04c5.248-14.272 11.264-42.752 17.984-85.504 5.248-23.232 9.728-47.232 13.504-72 0-17.984 3.008-41.984 9.024-72 5.248-2.24 11.264-3.776 17.984-4.48l-4.48-4.48c2.24-2.24 6.72-5.248 13.504-9.024l-4.48-4.48c2.24 0 6.72-3.008 13.504-9.024 5.248 0 9.728-1.472 13.504-4.48-2.24-5.248-5.248-9.728-9.024-13.504 11.264-5.248 17.28-8.256 17.984-9.024 5.248-2.24 9.728-6.72 13.504-13.504l-4.48-4.48c5.248 0 9.728-1.472 13.504-4.48 5.248-2.24 9.728-5.248 13.504-9.024l-4.48-4.48c9.024-2.24 19.52-6.72 31.488-13.504 9.024-9.024 19.52-13.504 31.488-13.504 5.248-2.24 17.28-3.776 36.032-4.48 9.024 2.24 22.528 3.776 40.512 4.48 0 9.024 0 16.512 0 22.528-11.264 44.992-24.768 89.984-40.512 134.976-5.248 29.248-14.272 77.248-27.008 144l-17.984 108.032c-5.248 23.232-8.256 41.28-9.024 54.016-5.248 23.232-9.728 39.744-13.504 49.472-9.024 29.248-19.52 77.248-31.488 144 0 2.24-1.472 5.248-4.48 9.024 0 20.224-1.472 32.256-4.48 36.032l-44.992 0-9.024 0L658.112 933.888c-5.248-17.984-14.272-48-27.008-89.984C622.08 814.464 613.12 782.976 604.096 749.248 586.112 672 571.136 614.976 559.104 578.24c5.248-5.312 14.272-8.256 27.008-9.024C583.872 566.976 582.336 563.968 581.632 560.192c2.24-2.24 5.248-3.776 9.024-4.48l-4.48-4.48C591.36 542.208 598.848 537.728 608.576 537.728zM739.136 326.208c5.248-11.264 8.256-23.232 9.024-36.032 2.24-11.264 3.776-23.232 4.48-36.032 2.24-5.248 3.776-12.736 4.48-22.528l126.016 0-4.48 0c-9.024 2.24-19.52 6.72-31.488 13.504-9.024 5.248-17.984 9.728-27.008 13.504 2.24 2.24 3.776 3.776 4.48 4.48-9.024 0-17.984 4.48-27.008 13.504l9.024 9.024c-2.24 2.24-5.248 3.776-9.024 4.48-9.024 2.24-19.52 6.72-31.488 13.504 2.24 2.24 5.248 6.72 9.024 13.504-2.24 2.24-6.72 3.776-13.504 4.48l-9.024 9.024c0 2.24 1.472 5.248 4.48 9.024-5.248 0-9.728 1.472-13.504 4.48 2.24 2.24 3.776 3.776 4.48 4.48l-9.024 0c0-2.24 0-6.72 0-13.504L739.072 326.208z" /></svg>