<?xml version="1.0" standalone="no"?><!DOCTYPE svg PUBLIC "-//W3C//DTD SVG 1.1//EN" "http://www.w3.org/Graphics/SVG/1.1/DTD/svg11.dtd"><svg class="icon" width="600px" height="600.00px" viewBox="0 0 1024 1024" version="1.1" xmlns="http://www.w3.org/2000/svg"><path d="M827.677 405.416m-32 0a32 32 0 1 0 64 0 32 32 0 1 0-64 0Z" fill="#FFFFFF" /><path d="M832.515 360.19c-23.159 0-42 18.841-42 42 0 10.439 3.837 19.993 10.163 27.347-25.195 21.804-49.358 32.378-71.903 31.422-26.104-1.094-40.896-17.367-41.576-18.132-3.623-4.138-9.911-4.574-14.071-0.968-4.174 3.617-4.625 9.933-1.008 14.105 0.823 0.95 20.567 23.29 55.312 24.954a87.32 87.32 0 0 0 4.159 0.099c27.844 0 56.687-13.316 85.869-39.628a41.78 41.78 0 0 0 15.055 2.801c23.159 0 42-18.841 42-42s-18.841-42-42-42z m0 64c-12.131 0-22-9.869-22-22s9.869-22 22-22 22 9.869 22 22-9.869 22-22 22z" fill="#723703" /><path d="M575.018 844.977v50h98s-2-46-98-50z" fill="#FFC912" /><path d="M599.802 837.089l28.259-59.842c2.357-4.994 0.221-10.955-4.772-13.313-4.996-2.361-10.956-0.222-13.313 4.772l-31.373 66.437c-1.051-0.055-2.096-0.113-3.168-0.157a10.041 10.041 0 0 0-7.338 2.774 9.997 9.997 0 0 0-3.078 7.217v50c0 5.522 4.478 10 10 10h98a9.999 9.999 0 0 0 9.991-10.435c-0.092-2.061-3.043-46.582-83.208-57.453z m-14.785 47.888V855.6c37.979 3.06 57.175 13.359 66.711 21.832 2.955 2.625 5.142 5.198 6.758 7.545h-73.469z" fill="#723703" /><path d="M394.902 839.976v50h-98s2-46 98-50z" fill="#FFC912" /><path d="M404.899 839.899v-70.922c0-5.522-4.477-10-10-10s-10 4.478-10 10v61.564c-94.608 7.084-97.892 56.819-97.987 59a10.001 10.001 0 0 0 9.991 10.435h98c5.523 0 10-4.478 10-10v-50c0-0.026-0.004-0.051-0.004-0.077z m-93.458 40.077c7.237-10.467 25.854-25.567 73.458-29.38v0.38c0 0.026 0.004 0.051 0.004 0.077v28.922h-73.462z" fill="#723703" /><path d="M758.531 653.587v115.089c0 19.882-16.118 36-36 36h-462.13c-19.882 0-36-16.118-36-36V198.125c0-19.882 16.118-36 36-36h454.427c19.882 0 36 16.118 36 36v115.089c0 19.882-16.118 36-36 36H430.843c-10.689 0-19.353 8.665-19.353 19.353v3.872c0 10.689 8.665 19.353 19.353 19.353h236.245c19.882 0 36 16.118 36 36V542.88c0 19.882-16.118 36-36 36H430.843c-10.689 0-19.353 8.665-19.353 19.353 0 10.688 8.665 19.353 19.353 19.353h291.688c19.883 0.001 36 16.118 36 36.001z" fill="#FFC912" /><path d="M284.401 768.675v-570.55c0-19.882 16.118-36 36-36h-60c-19.882 0-36 16.118-36 36V768.676c0 19.882 16.118 36 36 36h60c-19.882-0.001-36-16.119-36-36.001zM351.93 368.443v3.872c0 10.688 8.665 19.353 19.353 19.353h60c-10.689 0-19.353-8.665-19.353-19.353v-3.872c0-10.688 8.665-19.354 19.353-19.354h-60c-10.688 0-19.353 8.665-19.353 19.354zM351.93 598.109c0 10.688 8.665 19.354 19.353 19.354h60c-10.689 0-19.353-8.665-19.353-19.354s8.665-19.353 19.353-19.353h-60c-10.688 0-19.353 8.665-19.353 19.353z" fill="#FFB408" /><path d="M441.734 189.416m-60 0a60 60 0 1 0 120 0 60 60 0 1 0-120 0Z" fill="#FFFFFF" /><path d="M441.734 259.416c-38.598 0-70-31.402-70-70s31.402-70 70-70 70 31.402 70 70-31.402 70-70 70z m0-120c-27.57 0-50 22.43-50 50s22.43 50 50 50 50-22.43 50-50-22.43-50-50-50z" fill="#723703" /><path d="M441.734 189.416m-16 0a16 16 0 1 0 32 0 16 16 0 1 0-32 0Z" fill="#723703" /><path d="M606.694 189.416m-60 0a60 60 0 1 0 120 0 60 60 0 1 0-120 0Z" fill="#FFFFFF" /><path d="M606.694 259.416c-38.598 0-70-31.402-70-70s31.402-70 70-70 70 31.402 70 70-31.402 70-70 70z m0-120c-27.57 0-50 22.43-50 50s22.43 50 50 50 50-22.43 50-50-22.429-50-50-50z" fill="#723703" /><path d="M606.694 189.416m-16 0a16 16 0 1 0 32 0 16 16 0 1 0-32 0Z" fill="#723703" /><path d="M335.11 620.698m-32 0a32 32 0 1 0 64 0 32 32 0 1 0-64 0Z" fill="#FFFFFF" /><path d="M335.11 578.698c-18.31 0-33.911 11.782-39.646 28.159-70.537-18.832-109.536-47.99-115.953-86.723-8.73-52.701 44.43-106.479 52.255-112.507a9.977 9.977 0 0 0 5.771-6.235c1.674-5.263-1.235-10.887-6.498-12.561-6.599-2.098-11.908 2.946-17.041 7.827-11.143 10.594-27.198 29.761-38.843 51.784-15.729 29.748-20.328 57.653-13.668 82.941 11.515 43.724 55.966 75.885 132.1 95.645 3.062 20.166 20.515 35.67 41.523 35.67 23.159 0 42-18.841 42-42s-18.842-42-42-42z m0 64c-12.131 0-22-9.869-22-22s9.869-22 22-22 22 9.869 22 22-9.869 22-22 22z" fill="#723703" /><path d="M327.472 274.804h-0.017a8 8 0 0 1-7.983-8.017l0.141-67.981a8 8 0 0 1 8-7.983h0.017a8 8 0 0 1 7.983 8.017l-0.141 67.981a8 8 0 0 1-8 7.983zM327.473 329.814h-0.058a8 8 0 0 1-7.943-8.057l0.141-20a8 8 0 0 1 7.999-7.943h0.058a8 8 0 0 1 7.943 8.057l-0.141 20a8.002 8.002 0 0 1-7.999 7.943z" fill="#FFFFFF" /></svg>