<?xml version="1.0" standalone="no"?><!DOCTYPE svg PUBLIC "-//W3C//DTD SVG 1.1//EN" "http://www.w3.org/Graphics/SVG/1.1/DTD/svg11.dtd"><svg class="icon" width="600px" height="600.00px" viewBox="0 0 1024 1024" version="1.1" xmlns="http://www.w3.org/2000/svg"><path d="M336.102393 595.31461986l31.064791-17.486242 7.630746-0.115021-29.154835 17.459z" fill="#1296db" /><path d="M345.643095 595.17235686l29.154835-17.459 0.88082 3.278103 0.892927 3.232699 0.902008 3.190324 0.911088 3.147947 0.926223 3.099517 0.932277 3.057142 0.944384 3.014764 0.956492 2.966335 0.965572 2.926986 0.974653 2.881582 0.98676 2.839207 0.998868 2.793803 1.004922 2.751427 1.020056 2.706024 1.029137 2.663647 1.03519 2.621272 1.050325 2.572841 1.059405 2.533493 1.068486 2.488089 1.080593 2.442686 1.089674 2.403336 1.101782 2.357934 1.110862 2.31253 1.119943 2.270155 1.13205 2.227778 1.141131 2.182375 1.150211 2.139998 1.162319 2.094596 1.1714 2.05222 1.18048 2.009843 1.192588 1.967467 1.201668 1.922064 2.291343 3.456688 2.330691 3.347721 2.367015 3.238753 2.400309 3.126759 2.439659 3.017792 2.475982 2.908824 2.512304 2.796831 2.551654 2.687862 2.584949 2.578895 2.621271 2.466901 2.657594 2.357934 2.693916 2.248966 2.733266 2.136972 2.769588 2.028004 2.802884 1.919038 2.842233 1.810069 2.875529 1.698076 2.914878 1.589108 2.951201 1.48014 2.984496 1.371173 3.023845 1.259179 3.057141 1.150212 3.096491 1.041244 3.129786 0.92925 3.169135 0.823309 3.202431 0.711315 3.238754 0.602348 3.278102 0.49338 3.311399 0.381386 3.34772 0.275445 3.384044 0.163451 3.420366 0.054484 2.391229-0.024215 2.363987-0.075672 2.336745-0.124102 2.309504-0.175558 2.285289-0.227016 2.261073-0.275445 2.230805-0.323875 2.20659-0.378359 2.182375-0.423763 2.155133-0.478245 2.127892-0.526676 2.100649-0.578133 2.076434-0.626562 2.049193-0.67802 2.021951-0.726449 1.997736-0.777906 1.970493-0.829363 1.943253-0.877793 1.91601-0.932277 1.891795-0.97768 1.864553-1.032163 1.837312-1.080594 1.813096-1.13205 1.785855-1.18048 1.758613-1.231937 1.731371-1.283394 1.707156-1.334851 1.676887-1.383281 1.652673-1.434737 1.62543-1.486194 1.598189-1.537652 1.573973-1.586081 1.543705-1.61635 1.495275-1.643591 1.446845-1.667807 1.398415-1.698075 1.346958-1.725318 1.298529-1.752559 1.250098-1.776774 1.198641-1.807042 1.150212-1.834285 1.101781-1.861527 1.053352-1.885741 1.001895-1.91601 0.953464-1.943252 0.905035-1.967467 0.856605-1.997736 0.805148-2.021951 0.759745-2.052219 0.708288-2.076435 0.659858-2.103676 0.611429-2.130918 0.559971-2.15816 0.511541-2.185402 0.466139-2.212644 0.414681-2.239885 0.366252-2.264101 0.314795-2.294369 0.269391-2.318584 0.220962-2.345826 0.169505-2.373068 0.121075-2.40031 0.072645-2.427552 0.024215-2.451766-0.003027-1.059406-0.018162-1.059405-0.024214-1.062432-0.03935-1.065459-0.04843-1.065459-0.05751-1.065459-0.069618-1.068486-0.078699-1.071513-0.090806-1.07454-0.102914-1.07454-0.111994-1.074539-0.124102-1.077567-0.133182-1.077566-0.142263-1.080594-0.154371-1.08362-0.166478-1.08362-0.175558-1.083621-0.187667-1.086647-0.196746-1.086647-0.208854-1.089674-0.217935-1.089674-0.230043-1.089674-0.242149-1.089674-0.251231-1.092701-0.260311-1.092701-0.272418-1.095728-0.281499-1.095728-0.296634-1.095727-0.302687-1.098755-0.314795-1.095728-0.326902-1.101781-0.335983-1.098755-0.354144-1.104809-0.363225-1.095727-0.369278-1.086648-0.375332-1.074539-0.384413-1.065459-0.38744-1.056379-0.39652-1.044271-0.405601-1.03519-0.411655-1.02611-0.417708-1.014002-0.423762-1.004922-0.429816-0.998868-0.441923-0.983733-0.44495-0.974653-0.454031-0.965572-0.460085-0.956492-0.469165-0.944384-0.475219-0.935304-0.481273-0.926223-0.490353-0.914115-0.499434-0.908062-0.505488-0.892927-0.514568-0.883847-0.520622-0.877793-0.526676-0.862658-0.535756-0.856605-0.544837-0.847525-0.550891-0.832389-0.559972-0.826337-0.569052-0.817255-0.575105-0.802121-0.58116-0.796068-0.605374-0.820282-0.623536-0.817256-0.63867-0.817255-0.653804-0.811202-0.668939-0.811202-0.6871-0.808175-0.699208-0.805148-0.720395-0.802121-0.732503-0.802121-0.747638-0.796068-0.765799-0.796067-0.780933-0.793041-0.796067-0.790013-0.814229-0.786987-0.826336-0.786987-0.844497-0.78396-0.859632-0.780933-0.874766-0.777906-0.889901-0.777906-0.908061-0.771853-0.92017-0.771852-0.93833-0.771853-0.953465-0.765798-0.968599-0.765799-0.983734-0.762772-0.998867-0.759745-1.014003-0.759745-1.032163-0.756718-1.047298-0.756718-1.059405-0.750664-1.077567-0.750665-1.092701-0.747637-1.107835-0.765799-1.144158-0.774879-1.18048-0.786987-1.216803-0.802121-1.253125-0.811202-1.292474-0.826336-1.32577-0.835417-1.36512-0.847524-1.401442-0.859632-1.434737-0.871739-1.474087-0.886874-1.510409-0.895954-1.546732-0.908062-1.583054-0.920169-1.619377-0.932277-1.655699-0.944384-1.692022-0.956491-1.728344-0.9686-1.764667-0.980706-1.797962-0.992814-1.840338-1.001895-1.870607-1.017029-1.909957-1.029137-1.946279-1.041244-1.982601-1.050325-2.018924-1.065459-2.055246-1.077566-2.088542-1.089674-2.127892-1.098755 0.538784 0.278472 2.660621 1.3742 2.61219 1.362093 2.569815 1.346958 2.521385 1.331824 2.479008 1.313663 2.430579 1.301555 2.388202 1.283394 2.342799 1.271286 2.297396 1.256152 2.248966 1.241018 2.20659 1.222856 2.161187 1.210749 2.112757 1.195615 2.070381 1.18048 2.024977 1.165346 1.979575 1.150211 1.931145 1.135077 1.888768 1.119943 1.840338 1.107835 1.797962 1.089674 1.749533 1.07454 1.704129 1.059405 1.658726 1.047298 1.613323 1.029137 1.56792 1.017029 1.522517 0.998868 1.477113 0.98676 1.428684 0.968599 1.386308 0.956492 1.365119 0.935304 1.343931 0.93833 1.328797 0.938331 1.307609 0.944384 1.286421 0.947411 1.268259 0.947411 1.250099 0.950438 1.231937 0.953465 1.210749 0.956491 1.189561 0.959519 1.171399 0.962545 1.153238 0.965572 1.132051 0.9686 1.113889 0.968599 1.095728 0.974653 1.071512 0.974653 1.056379 0.980706 1.03519 0.980707 1.014002 0.98676 0.995841 0.986761 0.97768 0.992814 0.956492 0.992814 0.935303 0.998868 0.917143 0.998868 0.895954 1.004921 0.877793 1.004922 0.856605 1.010975 0.838443 1.010976 0.817256 1.017029 0.796067 1.020056 0.777907 1.023083 0.756718 1.026109 0.729476 0.992814 0.720396 1.007949 0.708288 1.017029 0.699207 1.032164 0.690127 1.04427 0.681046 1.059406 0.668939 1.065459 0.659858 1.08362 0.650778 1.092701 0.641697 1.107835 0.632616 1.119943 0.623536 1.129024 0.611428 1.144157 0.605375 1.156266 0.593267 1.171399 0.584186 1.18048 0.578133 1.195615 0.566025 1.204695 0.556944 1.21983 0.550891 1.231937 0.538783 1.244044 0.529703 1.256152 0.523649 1.271287 0.511541 1.280367 0.505488 1.295501 0.496407 1.304582 0.487326 1.319716 0.478246 1.331824 0.469166 1.343932 0.463111 1.359065 0.451004 1.368147 0.44495 1.38328 0.420735 1.3742 0.408628 1.371173 0.393494 1.374201 0.378359 1.371173 0.369278 1.371173 0.351117 1.368146 0.342037 1.368147 0.326902 1.368146 0.314795 1.365119 0.29966 1.36512 0.287553 1.362092 0.272419 1.362093 0.260311 1.362092 0.248203 1.359066 0.233069 1.356039 0.220962 1.356039 0.205827 1.353012 0.19372 1.353012 0.178586 1.349985 0.166478 1.349985 0.15437 1.346958 0.142263 1.343931 0.124102 1.340905 0.115021 1.340904 0.099887 1.340905 0.087779 1.33485 0.072645 1.334851 0.060537 1.331824 0.045404 1.331824 0.033295 1.32577 0.021188 1.32577 0.006054 1.322743-0.030269 3.066222-0.090806 3.032926-0.15437 2.99963-0.211881 2.966335-0.275446 2.93304-0.332956 2.899743-0.39652 2.866449-0.460085 2.833152-0.517595 2.79683-0.578132 2.766561-0.641697 2.730239-0.702235 2.696944-0.762772 2.666674-0.826336 2.630352-0.883847 2.59403-0.947411 2.563761-1.007948 2.530465-1.071513 2.494143-1.129023 2.460847-1.192588 2.430579-1.256152 2.391229-1.313663 2.36096-1.377227 2.324638-1.437764 2.294369-1.501329 2.25502-1.561866 2.224751-1.622403 2.191456-1.682941 2.155133-1.746506 2.121838-1.807042 2.088542-1.870608 2.052219-1.931144 2.018924-1.96444 1.985628-2.000763 1.919037-2.031031 1.855473-2.067354 1.794935-2.097623 1.731371-2.130918 1.667807-2.164214 1.604242-2.200536 1.540678-2.230805 1.477114-2.2641 1.41355-2.297396 1.349985-2.330692 1.289447-2.363987 1.225884-2.397283 1.159292-2.430579 1.101781-2.460847 1.035191-2.49717 0.971626-2.527438 0.911088-2.563761 0.847524-2.59403 0.78396-2.627325 0.720396-2.660621 0.659858-2.690889 0.593267-2.727212 0.53273-2.757481 0.469165-2.790776 0.408628-2.824072 0.345063-2.857368 0.281499-2.890663 0.217935-2.920932 0.157397-2.954227 0.093833-2.987523 0.030269-4.273944-0.066591-4.231567-0.205827-4.186165-0.342037-4.137734-0.478246-4.095359-0.617482-4.049955-0.750664-4.004552-0.892927-3.959149-1.02611-3.913746-1.162319-3.87137-1.301555-3.82294-1.437765-3.777536-1.573973-3.732134-1.71321-3.68673-1.849419-3.644355-1.985628-3.595924-2.124865-3.550521-2.261073-3.505119-2.397283-3.459715-2.536519-3.414312-2.672729-3.368909-2.808937-3.323505-2.948174-3.278103-3.084383-3.2327-3.223619-3.187296-3.359828-3.138867-3.496038-3.096491-3.635273-3.04806-3.771483-3.005684-3.910719-2.957255-4.046929-2.911851-4.186164-2.866448-4.322374-1.501329-2.403337-1.489221-2.454793-1.477114-2.512304-1.461979-2.566788-1.452899-2.621271-1.440791-2.672729-1.42263-2.730239-1.416576-2.781695-1.401442-2.839207-1.386308-2.890663-1.377226-2.948173-1.362093-2.999631-1.349985-3.057141-1.337878-3.108598-1.322743-3.166108-1.310636-3.220593-1.301555-3.272049-1.283394-3.329559-1.271286-3.384043-1.259179-3.438527-1.247071-3.493011-1.231937-3.547495-1.222857-3.601978-1.204695-3.656461-1.195615-3.713973-1.18048-3.765429-1.165346-3.82294-1.156265-3.874396-1.141131-3.934935-1.125996-3.98639-1.116916-4.040875z" fill="#1296db" /><path d="M494.126319 509.26669186l-0.538784-0.278472-2.164213-1.113889-2.19751-1.12297-2.236858-1.138104-1.961414-0.998867-1.598188-0.814229 2.451766 1.250098 2.793804 1.42263 2.7484 1.401442z" fill="#1296db" /><path d="M651.136242 207.32709386l-31.942584 60.107631 0.390466-0.74461 0.378359-0.780934 0.360198-0.814228 0.345064-0.847524 0.329929-0.88082 0.314794-0.917143 0.299661-0.947411 0.284526-0.983733 0.266365-1.017029 0.254257-1.050325 32.747732-62.353571-0.314795 1.310636-0.335983 1.271286-0.357171 1.228911-0.372305 1.186534-0.393493 1.144157-0.411655 1.101782-0.432843 1.059405-0.451004 1.017029-0.469165 0.974653z" fill="#1296db" /><path d="M667.693234 361.67639586l-35.253983 29.239587h-7.630745l33.347053-29.239587z" fill="#1296db" /><path d="M658.155559 361.67639586l-33.347053 29.239587-0.562998-1.967467-0.556945-1.943252-0.553917-1.912983-0.547864-1.885742-0.54181-1.852446-0.535757-1.825204-0.532729-1.794935-0.526676-1.764667-0.520622-1.737424-0.517595-1.707156-0.508515-1.676888-0.508515-1.649645-0.499433-1.619377-0.496408-1.589108-0.490353-1.561866-0.484299-1.528571-0.481273-1.504355-0.475219-1.47106-0.472192-1.443818-0.466139-1.41355-0.460084-1.38328-0.457058-1.353012-0.451004-1.32577-0.44495-1.295502-0.441923-1.268259-0.43587-1.237991-0.432843-1.207722-0.426789-1.18048-0.420735-1.147185-0.417708-1.119943-0.414682-1.089674-0.405601-1.059405-0.408628-1.059405-0.414681-1.047298-0.420735-1.044271-0.423763-1.041244-0.429815-1.035191-0.432843-1.032163-0.438897-1.029137-0.44495-1.020056-0.451004-1.017029-0.454031-1.010975-0.460084-1.007949-0.463112-0.998867-0.469165-0.998868-0.475219-0.992815-0.478246-0.98676-0.484299-0.980707-0.487327-0.977679-0.49338-0.974653-0.496407-0.965572-0.502461-0.962546-0.505488-0.956492-0.511541-0.950437-0.514568-0.947412-0.520622-0.941357-0.523649-0.93833-0.529703-0.92925-0.532729-0.926223-0.535757-0.920169-0.54181-0.917143-0.544837-0.908061-0.547864-0.908062-0.553918-0.898981-1.029136-1.610296-1.032164-1.583054-1.041244-1.55884-1.047298-1.531597-1.053351-1.504356-1.056379-1.483167-1.065459-1.452899-1.071513-1.42263-1.077566-1.404469-1.08362-1.3742-1.092701-1.349985-1.095728-1.319716-1.101782-1.298528-1.110862-1.271287-1.116916-1.241017-1.122969-1.216803-1.129024-1.189561-1.138104-1.165346-1.144158-1.138104-1.150211-1.110862-1.156265-1.086647-1.162319-1.059405-1.1714-1.029137-1.177453-1.007949-1.186534-0.977679-1.192588-0.953465-1.198641-0.926223-1.204696-0.898981-1.213775-0.871739-1.21983-0.847525-1.22891-0.817255-1.234964-0.796068-1.231937-0.765798-1.247071-0.744611-1.259179-0.717369-1.26826-0.69618-1.283394-0.671966-1.292474-0.647751-1.304582-0.620508-1.319717-0.599321-1.328797-0.575106-1.340904-0.550891-1.353012-0.526676-1.365119-0.499433-1.377227-0.478246-1.386308-0.454031-1.401442-0.429816-1.410522-0.402574-1.42263-0.381386-1.434738-0.357171-1.446845-0.332956-1.458952-0.302687-1.47106-0.284526-1.480141-0.257284-1.492248-0.233069-1.507382-0.211881-1.513437-0.181613-1.52857-0.160424-1.537651-0.136209-1.552786-0.111995-1.561866-0.084752-1.573973-0.060537-1.583055-0.03935-1.595161-0.012107-2.312531 0.024215-2.282262 0.075671-2.25502 0.121075-2.221724 0.175559-2.191456 0.220962-2.164213 0.272418-2.130918 0.320849-2.103677 0.372305-2.07038 0.420735-2.043139 0.469165-2.009843 0.520622-1.979575 0.569052-1.952333 0.617482-1.919037 0.668939-1.891795 0.720396-1.8585 0.765799-1.831257 0.817255-1.797963 0.868712-1.77072 0.917143-1.737425 0.968599-1.707156 1.014002-1.676887 1.068486-1.646618 1.116916-1.61635 1.165346-1.586081 1.216803-1.555813 1.265232-1.525544 1.31669-1.492248 1.365119-1.465006 1.416576-1.43171 1.465007-1.401442 1.516463-1.371174 1.564893-0.562998 0.656831-0.553917 0.659858-0.544837 0.665912-0.538784 0.678019-0.529702 0.681047-0.523649 0.690127-0.514569 0.69618-0.508514 0.699208-0.499434 0.708288-0.490353 0.717369-0.4843 0.720395-0.475219 0.732503-0.472192 0.73553-0.460085 0.741584-0.45403 0.750664-0.447978 0.756719-0.438896 0.765798-0.432843 0.771853-0.423762 0.777906-0.417708 0.786987-0.411655 0.790013-0.402574 0.799095-0.393493 0.808175-0.393494 0.814228-0.381386 0.820283-0.375332 0.829363-0.369278 0.835417-0.360198 0.84147-0.354144 0.850551-0.348091 0.856605-0.342036 0.865686-0.332956 0.871739-0.314795 0.877793-0.305714 0.874766-0.296633 0.877793-0.284526 0.871739-0.275446 0.877793-0.266365 0.874766-0.254257 0.877793-0.24215 0.871739-0.239123 0.877793-0.223988 0.874767-0.214908 0.877793-0.205827 0.871739-0.19372 0.877793-0.187666 0.877793-0.175559 0.871739-0.163451 0.877793-0.15437 0.874766-0.14529 0.877793-0.13621 0.871739-0.124101 0.877793-0.115022 0.874766-0.10594 0.877793-0.093833 0.874766-0.087779 0.874767-0.072645 0.877793-0.066592 0.871739-0.054483 0.877793-0.045403 0.874766-0.036323 0.877793-0.024215 0.871739-0.015134 0.877793-0.003027 0.877793 0.069618 3.468796 0.211881 3.426419 0.34809 3.384044 0.490354 3.341667 0.629589 3.299291 0.771853 3.259941 0.911088 3.211512 1.050325 3.172162-13.227432-35.868438-1.313663-3.965202-1.138104-4.013633-0.965572-4.071143-0.786987-4.125627-0.614455-4.177084-0.43587-4.231568-0.263338-4.286051-0.090806-4.337508 0.009081-1.092701 0.018161-1.095728 0.030269-1.095728 0.045403-1.092701 0.057511-1.095727 0.066591-1.092701 0.081725-1.095728 0.093833-1.095728 0.105941-1.092701 0.121075-1.095728 0.130155-1.092701 0.142263-1.095727 0.157398-1.095728 0.169504-1.092701 0.181613-1.095728 0.19372-1.092701 0.205827-1.095728 0.220962-1.095727 0.230042-1.092701 0.24215-1.095728 0.257284-1.092701 0.272418-1.095728 0.278473-1.095728 0.293606-1.092701 0.308741-1.095727 0.317822-1.092701 0.332956-1.095728 0.342036-1.092701 0.357171-1.095728 0.369279-1.095728 0.381386-1.0927 0.393493-1.095728 0.420735-1.089674 0.423762-1.080594 0.43587-1.071513 0.44495-1.062432 0.451004-1.053351 0.460085-1.044271 0.469165-1.035191 0.478246-1.029136 0.4843-1.017029 0.496407-1.007949 0.505487-0.998868 0.514569-0.989787 0.520622-0.983734 0.529702-0.971626 0.54181-0.965572 0.547864-0.953465 0.559972-0.947411 0.566025-0.93833 0.578132-0.92925 0.587214-0.920169 0.596294-0.911089 0.605374-0.905035 0.614455-0.892927 0.623536-0.886873 0.635643-0.877793 0.641697-0.868713 0.653804-0.859632 0.662885-0.853578 0.671966-0.844497 0.681046-0.83239 0.696181-0.829363 0.699208-0.817255 1.716236-1.958387 1.752559-1.894822 1.788882-1.831258 1.831258-1.77072 1.86758-1.707156 1.906929-1.643592 1.943252-1.583054 1.979575-1.522517 2.021951-1.455925 2.058273-1.395389 2.097623-1.331823 2.133945-1.271287 2.173294-1.210749 2.209617-1.147184 2.248966-1.083621 2.288315-1.023083 2.324638-0.959518 2.360961-0.898981 2.40031-0.835417 2.439659-0.771852 2.475981-0.711315 2.512304-0.650778 2.554681-0.587213 2.587975-0.526676 2.630353-0.463111 2.663647-0.402574 2.702997-0.33901 2.73932-0.278472 2.778669-0.214908 2.818018-0.154371 2.851313-0.090806 2.890664-0.033296 1.994708 0.015135 1.982602 0.045403 1.967467 0.078698 1.952333 0.105941 1.937198 0.139236 1.922064 0.169505 1.909956 0.199774 1.894822 0.230042 1.882715 0.263338 1.864553 0.29058 1.852446 0.323875 1.837312 0.354144 1.822177 0.381386 1.81007 0.414681 1.791908 0.444951 1.779801 0.475219 1.764667 0.505487 1.749532 0.538784 1.737425 0.566025 1.719263 0.596294 1.707156 0.626562 1.688995 0.656831 1.676887 0.690127 1.661753 0.717369 1.646619 0.747638 1.631484 0.777906 1.619377 0.811201 1.601215 0.838444 1.586081 0.868713 1.573974 0.898981 1.558839 0.929249 1.540678 0.959519 1.543705 0.989787 1.534624 1.02611 1.525544 1.059405 1.516463 1.089674 1.507382 1.12297 1.498302 1.159292 1.492248 1.189561 1.480141 1.222856 1.47106 1.259179 1.465006 1.289448 1.452899 1.322743 1.446845 1.356039 1.437764 1.392361 1.428684 1.42263 1.42263 1.452899 1.410522 1.489221 1.404469 1.51949 1.395388 1.555812 1.389335 1.586082 1.377227 1.619376 1.371173 1.655699 1.365119 1.685968 1.353012 1.716237 1.346958 1.752559 1.340905 1.785855 1.331824 1.816123 1.322743 1.846392 1.316689 1.882715 1.307609 1.91601 1.298529 1.946279 1.292474 1.982601 1.286421 2.009844 0.690127 1.125996 0.6871 1.132051 0.681046 1.138104 0.678019 1.144157 0.668939 1.150212 0.665912 1.156265 0.659858 1.165346 0.656832 1.171399 0.650777 1.177454 0.641697 1.18048 0.63867 1.192588 0.632616 1.195614 0.62959 1.201669 0.620509 1.210749 0.617482 1.210749 0.608401 1.225883 0.605375 1.225883 0.59932 1.234964 0.59024 1.241018 0.587214 1.244044 0.581159 1.253125 0.575106 1.259179 0.566025 1.265233 0.562998 1.271286 0.556945 1.274314 0.547864 1.283394 0.544837 1.289447 0.535756 1.295502 0.529703 1.301555 0.523649 1.304582 0.517595 1.313662 0.511541 1.319717 0.508515 1.32577 0.517595 1.362092 0.520622 1.401442 0.529703 1.434738 0.532729 1.474086 0.538784 1.51041 0.547863 1.543705 0.550891 1.586081 0.556945 1.619377 0.562998 1.658726 0.572079 1.692021 0.575106 1.731371 0.581159 1.764667 0.59024 1.804016 0.593267 1.840338 0.602348 1.876661 0.605374 1.91601 0.614455 1.949306 0.620509 1.985628 0.626563 2.024978 0.629589 2.058273 0.641697 2.100649 0.644724 2.133945 0.650778 2.170268 0.656831 2.20659 0.665912 2.242912 0.671965 2.282262 0.67802 2.318584 0.684073 2.35188 0.690127 2.391229 0.696181 2.427552z" fill="#1296db" /><path d="M347.008215 761.80470686l28.882416-50.784864-0.463112 0.862658-0.441923 0.892928-0.423762 0.926223-0.405601 0.956491-0.384413 0.989787-29.412119 51.94113 0.481273-1.234964 0.502461-1.195614 0.529702-1.156266 0.556945-1.116915z" fill="#1296db" /><path d="M336.102393 595.31461986l31.064791-17.486242 7.630746-0.115021-29.154835 17.459z" fill="#1296db" /><path d="M345.643095 595.17235686l29.154835-17.459 0.88082 3.278103 0.892927 3.232699 0.902008 3.190324 0.911088 3.147947 0.926223 3.099517 0.932277 3.057142 0.944384 3.014764 0.956492 2.966335 0.965572 2.926986 0.974653 2.881582 0.98676 2.839207 0.998868 2.793803 1.004922 2.751427 1.020056 2.706024 1.029137 2.663647 1.03519 2.621272 1.050325 2.572841 1.059405 2.533493 1.068486 2.488089 1.080593 2.442686 1.089674 2.403336 1.101782 2.357934 1.110862 2.31253 1.119943 2.270155 1.13205 2.227778 1.141131 2.182375 1.150211 2.139998 1.162319 2.094596 1.1714 2.05222 1.18048 2.009843 1.192588 1.967467 1.201668 1.922064 2.291343 3.456688 2.330691 3.347721 2.367015 3.238753 2.400309 3.126759 2.439659 3.017792 2.475982 2.908824 2.512304 2.796831 2.551654 2.687862 2.584949 2.578895 2.621271 2.466901 2.657594 2.357934 2.693916 2.248966 2.733266 2.136972 2.769588 2.028004 2.802884 1.919038 2.842233 1.810069 2.875529 1.698076 2.914878 1.589108 2.951201 1.48014 2.984496 1.371173 3.023845 1.259179 3.057141 1.150212 3.096491 1.041244 3.129786 0.92925 3.169135 0.823309 3.202431 0.711315 3.238754 0.602348 3.278102 0.49338 3.311399 0.381386 3.34772 0.275445 3.384044 0.163451 3.420366 0.054484 2.391229-0.024215 2.363987-0.075672 2.336745-0.124102 2.309504-0.175558 2.285289-0.227016 2.261073-0.275445 2.230805-0.323875 2.20659-0.378359 2.182375-0.423763 2.155133-0.478245 2.127892-0.526676 2.100649-0.578133 2.076434-0.626562 2.049193-0.67802 2.021951-0.726449 1.997736-0.777906 1.970493-0.829363 1.943253-0.877793 1.91601-0.932277 1.891795-0.97768 1.864553-1.032163 1.837312-1.080594 1.813096-1.13205 1.785855-1.18048 1.758613-1.231937 1.731371-1.283394 1.707156-1.334851 1.676887-1.383281 1.652673-1.434737 1.62543-1.486194 1.598189-1.537652 1.573973-1.586081 1.543705-1.61635 1.495275-1.643591 1.446845-1.667807 1.398415-1.698075 1.346958-1.725318 1.298529-1.752559 1.250098-1.776774 1.198641-1.807042 1.150212-1.834285 1.101781-1.861527 1.053352-1.885741 1.001895-1.91601 0.953464-1.943252 0.905035-1.967467 0.856605-1.997736 0.805148-2.021951 0.759745-2.052219 0.708288-2.076435 0.659858-2.103676 0.611429-2.130918 0.559971-2.15816 0.511541-2.185402 0.466139-2.212644 0.414681-2.239885 0.366252-2.264101 0.314795-2.294369 0.269391-2.318584 0.220962-2.345826 0.169505-2.373068 0.121075-2.40031 0.072645-2.427552 0.024215-2.451766-0.003027-1.059406-0.018162-1.059405-0.024214-1.062432-0.03935-1.065459-0.04843-1.065459-0.05751-1.065459-0.069618-1.068486-0.078699-1.071513-0.090806-1.07454-0.102914-1.07454-0.111994-1.074539-0.124102-1.077567-0.133182-1.077566-0.142263-1.080594-0.154371-1.08362-0.166478-1.08362-0.175558-1.083621-0.187667-1.086647-0.196746-1.086647-0.208854-1.089674-0.217935-1.089674-0.230043-1.089674-0.242149-1.089674-0.251231-1.092701-0.260311-1.092701-0.272418-1.095728-0.281499-1.095728-0.296634-1.095727-0.302687-1.098755-0.314795-1.095728-0.326902-1.101781-0.335983-1.098755-0.354144-1.104809-0.363225-1.095727-0.369278-1.086648-0.375332-1.074539-0.384413-1.065459-0.38744-1.056379-0.39652-1.044271-0.405601-1.03519-0.411655-1.02611-0.417708-1.014002-0.423762-1.004922-0.429816-0.998868-0.441923-0.983733-0.44495-0.974653-0.454031-0.965572-0.460085-0.956492-0.469165-0.944384-0.475219-0.935304-0.481273-0.926223-0.490353-0.914115-0.499434-0.908062-0.505488-0.892927-0.514568-0.883847-0.520622-0.877793-0.526676-0.862658-0.535756-0.856605-0.544837-0.847525-0.550891-0.832389-0.559972-0.826337-0.569052-0.817255-0.575105-0.802121-0.58116-0.796068-0.605374-0.820282-0.623536-0.817256-0.63867-0.817255-0.653804-0.811202-0.668939-0.811202-0.6871-0.808175-0.699208-0.805148-0.720395-0.802121-0.732503-0.802121-0.747638-0.796068-0.765799-0.796067-0.780933-0.793041-0.796067-0.790013-0.814229-0.786987-0.826336-0.786987-0.844497-0.78396-0.859632-0.780933-0.874766-0.777906-0.889901-0.777906-0.908061-0.771853-0.92017-0.771852-0.93833-0.771853-0.953465-0.765798-0.968599-0.765799-0.983734-0.762772-0.998867-0.759745-1.014003-0.759745-1.032163-0.756718-1.047298-0.756718-1.059405-0.750664-1.077567-0.750665-1.092701-0.747637-1.107835-0.765799-1.144158-0.774879-1.18048-0.786987-1.216803-0.802121-1.253125-0.811202-1.292474-0.826336-1.32577-0.835417-1.36512-0.847524-1.401442-0.859632-1.434737-0.871739-1.474087-0.886874-1.510409-0.895954-1.546732-0.908062-1.583054-0.920169-1.619377-0.932277-1.655699-0.944384-1.692022-0.956491-1.728344-0.9686-1.764667-0.980706-1.797962-0.992814-1.840338-1.001895-1.870607-1.017029-1.909957-1.029137-1.946279-1.041244-1.982601-1.050325-2.018924-1.065459-2.055246-1.077566-2.088542-1.089674-2.127892-1.098755 0.538784 0.278472 2.660621 1.3742 2.61219 1.362093 2.569815 1.346958 2.521385 1.331824 2.479008 1.313663 2.430579 1.301555 2.388202 1.283394 2.342799 1.271286 2.297396 1.256152 2.248966 1.241018 2.20659 1.222856 2.161187 1.210749 2.112757 1.195615 2.070381 1.18048 2.024977 1.165346 1.979575 1.150211 1.931145 1.135077 1.888768 1.119943 1.840338 1.107835 1.797962 1.089674 1.749533 1.07454 1.704129 1.059405 1.658726 1.047298 1.613323 1.029137 1.56792 1.017029 1.522517 0.998868 1.477113 0.98676 1.428684 0.968599 1.386308 0.956492 1.365119 0.935304 1.343931 0.93833 1.328797 0.938331 1.307609 0.944384 1.286421 0.947411 1.268259 0.947411 1.250099 0.950438 1.231937 0.953465 1.210749 0.956491 1.189561 0.959519 1.171399 0.962545 1.153238 0.965572 1.132051 0.9686 1.113889 0.968599 1.095728 0.974653 1.071512 0.974653 1.056379 0.980706 1.03519 0.980707 1.014002 0.98676 0.995841 0.986761 0.97768 0.992814 0.956492 0.992814 0.935303 0.998868 0.917143 0.998868 0.895954 1.004921 0.877793 1.004922 0.856605 1.010975 0.838443 1.010976 0.817256 1.017029 0.796067 1.020056 0.777907 1.023083 0.756718 1.026109 0.729476 0.992814 0.720396 1.007949 0.708288 1.017029 0.699207 1.032164 0.690127 1.04427 0.681046 1.059406 0.668939 1.065459 0.659858 1.08362 0.650778 1.092701 0.641697 1.107835 0.632616 1.119943 0.623536 1.129024 0.611428 1.144157 0.605375 1.156266 0.593267 1.171399 0.584186 1.18048 0.578133 1.195615 0.566025 1.204695 0.556944 1.21983 0.550891 1.231937 0.538783 1.244044 0.529703 1.256152 0.523649 1.271287 0.511541 1.280367 0.505488 1.295501 0.496407 1.304582 0.487326 1.319716 0.478246 1.331824 0.469166 1.343932 0.463111 1.359065 0.451004 1.368147 0.44495 1.38328 0.420735 1.3742 0.408628 1.371173 0.393494 1.374201 0.378359 1.371173 0.369278 1.371173 0.351117 1.368146 0.342037 1.368147 0.326902 1.368146 0.314795 1.365119 0.29966 1.36512 0.287553 1.362092 0.272419 1.362093 0.260311 1.362092 0.248203 1.359066 0.233069 1.356039 0.220962 1.356039 0.205827 1.353012 0.19372 1.353012 0.178586 1.349985 0.166478 1.349985 0.15437 1.346958 0.142263 1.343931 0.124102 1.340905 0.115021 1.340904 0.099887 1.340905 0.087779 1.33485 0.072645 1.334851 0.060537 1.331824 0.045404 1.331824 0.033295 1.32577 0.021188 1.32577 0.006054 1.322743-0.030269 3.066222-0.090806 3.032926-0.15437 2.99963-0.211881 2.966335-0.275446 2.93304-0.332956 2.899743-0.39652 2.866449-0.460085 2.833152-0.517595 2.79683-0.578132 2.766561-0.641697 2.730239-0.702235 2.696944-0.762772 2.666674-0.826336 2.630352-0.883847 2.59403-0.947411 2.563761-1.007948 2.530465-1.071513 2.494143-1.129023 2.460847-1.192588 2.430579-1.256152 2.391229-1.313663 2.36096-1.377227 2.324638-1.437764 2.294369-1.501329 2.25502-1.561866 2.224751-1.622403 2.191456-1.682941 2.155133-1.746506 2.121838-1.807042 2.088542-1.870608 2.052219-1.931144 2.018924-1.96444 1.985628-2.000763 1.919037-2.031031 1.855473-2.067354 1.794935-2.097623 1.731371-2.130918 1.667807-2.164214 1.604242-2.200536 1.540678-2.230805 1.477114-2.2641 1.41355-2.297396 1.349985-2.330692 1.289447-2.363987 1.225884-2.397283 1.159292-2.430579 1.101781-2.460847 1.035191-2.49717 0.971626-2.527438 0.911088-2.563761 0.847524-2.59403 0.78396-2.627325 0.720396-2.660621 0.659858-2.690889 0.593267-2.727212 0.53273-2.757481 0.469165-2.790776 0.408628-2.824072 0.345063-2.857368 0.281499-2.890663 0.217935-2.920932 0.157397-2.954227 0.093833-2.987523 0.030269-4.273944-0.066591-4.231567-0.205827-4.186165-0.342037-4.137734-0.478246-4.095359-0.617482-4.049955-0.750664-4.004552-0.892927-3.959149-1.02611-3.913746-1.162319-3.87137-1.301555-3.82294-1.437765-3.777536-1.573973-3.732134-1.71321-3.68673-1.849419-3.644355-1.985628-3.595924-2.124865-3.550521-2.261073-3.505119-2.397283-3.459715-2.536519-3.414312-2.672729-3.368909-2.808937-3.323505-2.948174-3.278103-3.084383-3.2327-3.223619-3.187296-3.359828-3.138867-3.496038-3.096491-3.635273-3.04806-3.771483-3.005684-3.910719-2.957255-4.046929-2.911851-4.186164-2.866448-4.322374-1.501329-2.403337-1.489221-2.454793-1.477114-2.512304-1.461979-2.566788-1.452899-2.621271-1.440791-2.672729-1.42263-2.730239-1.416576-2.781695-1.401442-2.839207-1.386308-2.890663-1.377226-2.948173-1.362093-2.999631-1.349985-3.057141-1.337878-3.108598-1.322743-3.166108-1.310636-3.220593-1.301555-3.272049-1.283394-3.329559-1.271286-3.384043-1.259179-3.438527-1.247071-3.493011-1.231937-3.547495-1.222857-3.601978-1.204695-3.656461-1.195615-3.713973-1.18048-3.765429-1.165346-3.82294-1.156265-3.874396-1.141131-3.934935-1.125996-3.98639-1.116916-4.040875z" fill="#1296db" /><path d="M494.126319 509.26669186l-0.538784-0.278472-2.164213-1.113889-2.19751-1.12297-2.236858-1.138104-1.961414-0.998867-1.598188-0.814229 2.451766 1.250098 2.793804 1.42263 2.7484 1.401442z" fill="#1296db" /><path d="M651.136242 207.32709386l-31.942584 60.107631 0.390466-0.74461 0.378359-0.780934 0.360198-0.814228 0.345064-0.847524 0.329929-0.88082 0.314794-0.917143 0.299661-0.947411 0.284526-0.983733 0.266365-1.017029 0.254257-1.050325 32.747732-62.353571-0.314795 1.310636-0.335983 1.271286-0.357171 1.228911-0.372305 1.186534-0.393493 1.144157-0.411655 1.101782-0.432843 1.059405-0.451004 1.017029-0.469165 0.974653z" fill="#1296db" /><path d="M667.693234 361.67639586l-35.253983 29.239587h-7.630745l33.347053-29.239587z" fill="#1296db" /><path d="M658.155559 361.67639586l-33.347053 29.239587-0.562998-1.967467-0.556945-1.943252-0.553917-1.912983-0.547864-1.885742-0.54181-1.852446-0.535757-1.825204-0.532729-1.794935-0.526676-1.764667-0.520622-1.737424-0.517595-1.707156-0.508515-1.676888-0.508515-1.649645-0.499433-1.619377-0.496408-1.589108-0.490353-1.561866-0.484299-1.528571-0.481273-1.504355-0.475219-1.47106-0.472192-1.443818-0.466139-1.41355-0.460084-1.38328-0.457058-1.353012-0.451004-1.32577-0.44495-1.295502-0.441923-1.268259-0.43587-1.237991-0.432843-1.207722-0.426789-1.18048-0.420735-1.147185-0.417708-1.119943-0.414682-1.089674-0.405601-1.059405-0.408628-1.059405-0.414681-1.047298-0.420735-1.044271-0.423763-1.041244-0.429815-1.035191-0.432843-1.032163-0.438897-1.029137-0.44495-1.020056-0.451004-1.017029-0.454031-1.010975-0.460084-1.007949-0.463112-0.998867-0.469165-0.998868-0.475219-0.992815-0.478246-0.98676-0.484299-0.980707-0.487327-0.977679-0.49338-0.974653-0.496407-0.965572-0.502461-0.962546-0.505488-0.956492-0.511541-0.950437-0.514568-0.947412-0.520622-0.941357-0.523649-0.93833-0.529703-0.92925-0.532729-0.926223-0.535757-0.920169-0.54181-0.917143-0.544837-0.908061-0.547864-0.908062-0.553918-0.898981-1.029136-1.610296-1.032164-1.583054-1.041244-1.55884-1.047298-1.531597-1.053351-1.504356-1.056379-1.483167-1.065459-1.452899-1.071513-1.42263-1.077566-1.404469-1.08362-1.3742-1.092701-1.349985-1.095728-1.319716-1.101782-1.298528-1.110862-1.271287-1.116916-1.241017-1.122969-1.216803-1.129024-1.189561-1.138104-1.165346-1.144158-1.138104-1.150211-1.110862-1.156265-1.086647-1.162319-1.059405-1.1714-1.029137-1.177453-1.007949-1.186534-0.977679-1.192588-0.953465-1.198641-0.926223-1.204696-0.898981-1.213775-0.871739-1.21983-0.847525-1.22891-0.817255-1.234964-0.796068-1.231937-0.765798-1.247071-0.744611-1.259179-0.717369-1.26826-0.69618-1.283394-0.671966-1.292474-0.647751-1.304582-0.620508-1.319717-0.599321-1.328797-0.575106-1.340904-0.550891-1.353012-0.526676-1.365119-0.499433-1.377227-0.478246-1.386308-0.454031-1.401442-0.429816-1.410522-0.402574-1.42263-0.381386-1.434738-0.357171-1.446845-0.332956-1.458952-0.302687-1.47106-0.284526-1.480141-0.257284-1.492248-0.233069-1.507382-0.211881-1.513437-0.181613-1.52857-0.160424-1.537651-0.136209-1.552786-0.111995-1.561866-0.084752-1.573973-0.060537-1.583055-0.03935-1.595161-0.012107-2.312531 0.024215-2.282262 0.075671-2.25502 0.121075-2.221724 0.175559-2.191456 0.220962-2.164213 0.272418-2.130918 0.320849-2.103677 0.372305-2.07038 0.420735-2.043139 0.469165-2.009843 0.520622-1.979575 0.569052-1.952333 0.617482-1.919037 0.668939-1.891795 0.720396-1.8585 0.765799-1.831257 0.817255-1.797963 0.868712-1.77072 0.917143-1.737425 0.968599-1.707156 1.014002-1.676887 1.068486-1.646618 1.116916-1.61635 1.165346-1.586081 1.216803-1.555813 1.265232-1.525544 1.31669-1.492248 1.365119-1.465006 1.416576-1.43171 1.465007-1.401442 1.516463-1.371174 1.564893-0.562998 0.656831-0.553917 0.659858-0.544837 0.665912-0.538784 0.678019-0.529702 0.681047-0.523649 0.690127-0.514569 0.69618-0.508514 0.699208-0.499434 0.708288-0.490353 0.717369-0.4843 0.720395-0.475219 0.732503-0.472192 0.73553-0.460085 0.741584-0.45403 0.750664-0.447978 0.756719-0.438896 0.765798-0.432843 0.771853-0.423762 0.777906-0.417708 0.786987-0.411655 0.790013-0.402574 0.799095-0.393493 0.808175-0.393494 0.814228-0.381386 0.820283-0.375332 0.829363-0.369278 0.835417-0.360198 0.84147-0.354144 0.850551-0.348091 0.856605-0.342036 0.865686-0.332956 0.871739-0.314795 0.877793-0.305714 0.874766-0.296633 0.877793-0.284526 0.871739-0.275446 0.877793-0.266365 0.874766-0.254257 0.877793-0.24215 0.871739-0.239123 0.877793-0.223988 0.874767-0.214908 0.877793-0.205827 0.871739-0.19372 0.877793-0.187666 0.877793-0.175559 0.871739-0.163451 0.877793-0.15437 0.874766-0.14529 0.877793-0.13621 0.871739-0.124101 0.877793-0.115022 0.874766-0.10594 0.877793-0.093833 0.874766-0.087779 0.874767-0.072645 0.877793-0.066592 0.871739-0.054483 0.877793-0.045403 0.874766-0.036323 0.877793-0.024215 0.871739-0.015134 0.877793-0.003027 0.877793 0.069618 3.468796 0.211881 3.426419 0.34809 3.384044 0.490354 3.341667 0.629589 3.299291 0.771853 3.259941 0.911088 3.211512 1.050325 3.172162-13.227432-35.868438-1.313663-3.965202-1.138104-4.013633-0.965572-4.071143-0.786987-4.125627-0.614455-4.177084-0.43587-4.231568-0.263338-4.286051-0.090806-4.337508 0.009081-1.092701 0.018161-1.095728 0.030269-1.095728 0.045403-1.092701 0.057511-1.095727 0.066591-1.092701 0.081725-1.095728 0.093833-1.095728 0.105941-1.092701 0.121075-1.095728 0.130155-1.092701 0.142263-1.095727 0.157398-1.095728 0.169504-1.092701 0.181613-1.095728 0.19372-1.092701 0.205827-1.095728 0.220962-1.095727 0.230042-1.092701 0.24215-1.095728 0.257284-1.092701 0.272418-1.095728 0.278473-1.095728 0.293606-1.092701 0.308741-1.095727 0.317822-1.092701 0.332956-1.095728 0.342036-1.092701 0.357171-1.095728 0.369279-1.095728 0.381386-1.0927 0.393493-1.095728 0.420735-1.089674 0.423762-1.080594 0.43587-1.071513 0.44495-1.062432 0.451004-1.053351 0.460085-1.044271 0.469165-1.035191 0.478246-1.029136 0.4843-1.017029 0.496407-1.007949 0.505487-0.998868 0.514569-0.989787 0.520622-0.983734 0.529702-0.971626 0.54181-0.965572 0.547864-0.953465 0.559972-0.947411 0.566025-0.93833 0.578132-0.92925 0.587214-0.920169 0.596294-0.911089 0.605374-0.905035 0.614455-0.892927 0.623536-0.886873 0.635643-0.877793 0.641697-0.868713 0.653804-0.859632 0.662885-0.853578 0.671966-0.844497 0.681046-0.83239 0.696181-0.829363 0.699208-0.817255 1.716236-1.958387 1.752559-1.894822 1.788882-1.831258 1.831258-1.77072 1.86758-1.707156 1.906929-1.643592 1.943252-1.583054 1.979575-1.522517 2.021951-1.455925 2.058273-1.395389 2.097623-1.331823 2.133945-1.271287 2.173294-1.210749 2.209617-1.147184 2.248966-1.083621 2.288315-1.023083 2.324638-0.959518 2.360961-0.898981 2.40031-0.835417 2.439659-0.771852 2.475981-0.711315 2.512304-0.650778 2.554681-0.587213 2.587975-0.526676 2.630353-0.463111 2.663647-0.402574 2.702997-0.33901 2.73932-0.278472 2.778669-0.214908 2.818018-0.154371 2.851313-0.090806 2.890664-0.033296 1.994708 0.015135 1.982602 0.045403 1.967467 0.078698 1.952333 0.105941 1.937198 0.139236 1.922064 0.169505 1.909956 0.199774 1.894822 0.230042 1.882715 0.263338 1.864553 0.29058 1.852446 0.323875 1.837312 0.354144 1.822177 0.381386 1.81007 0.414681 1.791908 0.444951 1.779801 0.475219 1.764667 0.505487 1.749532 0.538784 1.737425 0.566025 1.719263 0.596294 1.707156 0.626562 1.688995 0.656831 1.676887 0.690127 1.661753 0.717369 1.646619 0.747638 1.631484 0.777906 1.619377 0.811201 1.601215 0.838444 1.586081 0.868713 1.573974 0.898981 1.558839 0.929249 1.540678 0.959519 1.543705 0.989787 1.534624 1.02611 1.525544 1.059405 1.516463 1.089674 1.507382 1.12297 1.498302 1.159292 1.492248 1.189561 1.480141 1.222856 1.47106 1.259179 1.465006 1.289448 1.452899 1.322743 1.446845 1.356039 1.437764 1.392361 1.428684 1.42263 1.42263 1.452899 1.410522 1.489221 1.404469 1.51949 1.395388 1.555812 1.389335 1.586082 1.377227 1.619376 1.371173 1.655699 1.365119 1.685968 1.353012 1.716237 1.346958 1.752559 1.340905 1.785855 1.331824 1.816123 1.322743 1.846392 1.316689 1.882715 1.307609 1.91601 1.298529 1.946279 1.292474 1.982601 1.286421 2.009844 0.690127 1.125996 0.6871 1.132051 0.681046 1.138104 0.678019 1.144157 0.668939 1.150212 0.665912 1.156265 0.659858 1.165346 0.656832 1.171399 0.650777 1.177454 0.641697 1.18048 0.63867 1.192588 0.632616 1.195614 0.62959 1.201669 0.620509 1.210749 0.617482 1.210749 0.608401 1.225883 0.605375 1.225883 0.59932 1.234964 0.59024 1.241018 0.587214 1.244044 0.581159 1.253125 0.575106 1.259179 0.566025 1.265233 0.562998 1.271286 0.556945 1.274314 0.547864 1.283394 0.544837 1.289447 0.535756 1.295502 0.529703 1.301555 0.523649 1.304582 0.517595 1.313662 0.511541 1.319717 0.508515 1.32577 0.517595 1.362092 0.520622 1.401442 0.529703 1.434738 0.532729 1.474086 0.538784 1.51041 0.547863 1.543705 0.550891 1.586081 0.556945 1.619377 0.562998 1.658726 0.572079 1.692021 0.575106 1.731371 0.581159 1.764667 0.59024 1.804016 0.593267 1.840338 0.602348 1.876661 0.605374 1.91601 0.614455 1.949306 0.620509 1.985628 0.626563 2.024978 0.629589 2.058273 0.641697 2.100649 0.644724 2.133945 0.650778 2.170268 0.656831 2.20659 0.665912 2.242912 0.671965 2.282262 0.67802 2.318584 0.684073 2.35188 0.690127 2.391229 0.696181 2.427552z" fill="#1296db" /><path d="M347.008215 761.80470686l28.882416-50.784864-0.463112 0.862658-0.441923 0.892928-0.423762 0.926223-0.405601 0.956491-0.384413 0.989787-29.412119 51.94113 0.481273-1.234964 0.502461-1.195614 0.529702-1.156266 0.556945-1.116915z" fill="#1296db" /><path d="M334.822026 767.58905986l1.280367-172.27444 9.540702-0.142263c11.674647 43.992563 25.625501 78.589714 41.713328 103.933716 30.329261 46.84085 68.482987 70.19317 114.327996 70.19317 32.03339 0 58.515496-10.681833 79.304056-32.17868 20.927795-21.357611 31.322075-48.551033 31.322075-81.438001 0-14.096145-2.279235-28.619078-6.834678-43.284275-4.697706-14.80746-10.821069-27.477947-18.651587-38.01449-7.972782-10.960305-19.362902-21.354584-34.028099-31.322075-14.519907-10.109754-36.873359-22.780241-66.915068-38.01449-26.339843-13.381803-46.698587-24.62966-60.652468-33.882809-14.093118-9.110886-25.340975-18.509324-34.028099-27.907763-23.918345-26.19758-35.877518-58.085681-35.877518-95.534146 0-23.20703 4.697706-45.415193 13.953881-66.915067 9.395412-21.357611 22.353452-39.721646 39.010331-55.098157 29.472656-27.193421 64.351306-40.862777 104.645032-40.862777 13.097277 0 25.201739 1.280367 36.307334 3.986391 11.102568 2.563761 26.05229 7.830519 44.561615 15.661037 13.953882 5.554311 23.349293 9.110886 28.476815 10.536543 4.982232 1.564893 9.395412 2.279235 13.239539 2.279235 9.825228 0 16.375379-6.976941 19.647429-21.215349h9.540702l2.987523 165.582026h-9.537675c-7.545993-26.482106-13.953882-46.698587-19.362903-60.652468a233.126682 233.126682 0 0 0-19.362902-39.152594c-13.669356-21.642137-28.619078-37.729964-45.130667-48.121217-16.375379-10.39428-35.311493-15.661038-56.669104-15.661038-31.037549 0-55.66721 10.533516-73.749745 31.748865-7.545993 8.687124-13.381803 18.79385-17.79801 30.468497-4.26789 11.674647-6.404862 23.349293-6.404862 35.020913 0 46.559351 29.899445 84.004789 89.695309 112.336314l58.800022 28.473788c45.275957 21.357611 77.881426 44.991431 97.955644 70.904485 22.780241 29.04284 34.170362 62.64415 34.170362 101.085429 0 25.628528-5.127522 50.115926-15.376512 73.46522-14.522934 32.463206-36.165071 57.661918-65.207911 75.317664-28.903604 17.65272-62.928676 26.482106-102.22656 26.482107-35.877518 0-70.332406-7.119204-103.506928-21.215349-17.225931-7.545993-27.477947-11.81691-30.753023-12.955013-3.417339-1.138104-7.119204-1.710183-11.390121-1.710183-13.23954 0-22.492689 6.692415-27.477947 20.077244h-9.537675z" fill="#1296db" /></svg>