<?xml version="1.0" standalone="no"?><!DOCTYPE svg PUBLIC "-//W3C//DTD SVG 1.1//EN" "http://www.w3.org/Graphics/SVG/1.1/DTD/svg11.dtd"><svg class="icon" width="600px" height="600.00px" viewBox="0 0 1024 1024" version="1.1" xmlns="http://www.w3.org/2000/svg"><path d="M105.01270187 584.93428622l0-13.74799644 0-43.85377849 57.97460195 0 0-0.38447787 43.84212765 0 13.75964728 0 44.22660552 0 0 44.22660551 0 13.74799645 0 57.60177493 71.7225984 0L336.53828267 584.93428622l0-13.74799644 0-44.22660551 0-13.74799645L336.53828267 469.35790933l0-14.13247431 0-43.84212764 0-13.75964729 0-57.9862528-57.97460196 0 0-58.34742898-57.9862528 0 0-57.22894791-71.36142222 0 0 57.9862528-57.97460196 0 0 57.97460195L33.65127965 340.02188515l0 57.60177494 0 13.75964729 0 44.21495467 0 13.75964728 0 43.84212765 0 14.13247431 0 43.85377849 0 13.74799644 0 57.60177493 71.36142222 0L105.01270187 584.93428622zM105.01270187 411.38330738l0-13.75964729 0-43.85377849 57.60177493 0 0-57.9862528 44.21495467 0 0 57.22894791 57.99790364 0 0 44.61108338 0 13.75964729 0 43.84212764-57.99790364 0 0 0.37282703-43.84212765 0-13.75964729 0-44.21495466 0L105.01270187 411.38330738zM431.91209529 642.53606115l44.21495466 0 13.7596473 0 43.8304768 0 13.77129813 0 57.99790364 0L605.48637582 584.93428622l57.96295111 0 0-57.9862528 0-13.74799644 0-57.9862528-57.96295111 0 0-43.84212765 57.96295111 0 0-57.61342578 0-14.1324743 0-57.5901241-57.96295111 0 0-57.9862528-57.99790364 0-13.77129813 0-43.8304768 0-13.7596473 0-44.21495466 0-13.77129814 0-57.59012408 0 0 57.9862528 0 14.12082347 0 43.85377849 0 13.74799644 0 43.8537785 0 14.1324743 0 43.84212765 0 13.75964729 0 44.21495466 0 13.7596473 0 43.85377848 0 13.74799645 0 57.60177493 57.59012408 0L431.91209529 642.52441031zM431.91209529 353.7698816l0-13.74799645 0-43.85377848 0-0.38447787 44.21495466 0 13.7596473 0 43.8304768 0 13.77129813 0 44.21495467 0 0 43.85377849 0 14.13247431 0 43.85377849-44.21495467 0-13.77129813 0-43.8304768 0-13.7596473 0-44.21495466 0L431.91209529 353.7698816zM431.91209529 527.33251129l0-13.75964729L431.91209529 469.35790933l44.21495466 0 13.7596473 0 43.8304768 0 13.77129813 0 44.21495467 0 0 43.84212765 0 13.74799644 0 44.22660551-44.21495467 0-13.77129813 0-43.8304768 0-13.7596473 0-44.21495466 0L431.91209529 527.33251129zM745.05184142 584.93428622L687.46171733 584.93428622l0-57.9862528 0-13.74799644L687.46171733 469.35790933l0-13.75964728 0-44.21495467 0-13.75964729 0-43.85377849 0-13.74799645 0-57.97460195 57.60177494 0 0-57.9862528 57.97460195 0 13.77129813 0 43.8304768 0 13.74799645 0 57.99790365 0 0 57.9862528 57.97460195 0 0 71.7225984-71.73424925 0 0-57.9862528-44.23825635 0-13.74799645 0-43.8304768 0-13.77129813 0-44.22660551 0 0 44.23825635 0 13.74799645 0 43.85377849 0 13.75964729 0 44.21495467 0 13.75964728 0 43.84212765 0.38447787 0 0 57.9862528 43.84212764 0 13.77129813 0 43.8304768 0 14.14412516 0 43.84212764 0 0-57.9862528 71.73424925 0 0 71.73424924-57.97460195 0 0 57.60177493-57.60177494 0-14.14412516 0-43.8304768 0-13.77129813 0-57.97460195 0L745.06349227 584.93428622zM93.18709475 671.08063005l0 64.42916977L28.74627413 735.50979982l0-64.42916977L93.18709475 671.08063005zM93.18709475 735.50979982l64.42916978 0 0 64.44082063-64.42916978 0L93.18709475 735.50979982zM222.04543431 671.08063005l0 64.42916977-64.42916978 0 0-64.42916977L222.04543431 671.08063005zM222.04543431 735.50979982l64.44082062 0 0 64.44082063-64.44082062 0L222.04543431 735.50979982zM350.91542471 671.08063005l0 64.42916977-64.44082062 0 0-64.42916977L350.91542471 671.08063005zM350.91542471 735.50979982l64.42916978 0 0 64.44082063-64.42916978 0L350.91542471 735.50979982zM479.77376427 671.08063005l0 64.42916977-64.42916978 0 0-64.42916977L479.77376427 671.08063005zM479.77376427 735.50979982l64.44082062 0 0 64.44082063-64.44082062 0L479.77376427 735.50979982zM608.65540551 671.08063005l0 64.42916977-64.44082062 0 0-64.42916977L608.65540551 671.08063005zM608.65540551 735.50979982l64.42916978 0 0 64.44082063-64.42916978 0L608.65540551 735.50979982zM737.51374507 671.08063005l0 64.42916977-64.42916978 0 0-64.42916977L737.51374507 671.08063005zM737.51374507 735.50979982l64.44082062 0 0 64.44082063-64.44082062 0L737.51374507 735.50979982zM866.38373547 671.08063005l0 64.42916977-64.42916978 0 0-64.42916977L866.38373547 671.08063005zM995.25372587 671.08063005l0 64.42916977-64.42916978 0 0-64.42916977L995.25372587 671.08063005zM866.38373547 735.50979982l64.42916978 0 0 64.44082063-64.42916978 0L866.38373547 735.50979982z" fill="#707070" /></svg>