<?xml version="1.0" standalone="no"?><!DOCTYPE svg PUBLIC "-//W3C//DTD SVG 1.1//EN" "http://www.w3.org/Graphics/SVG/1.1/DTD/svg11.dtd"><svg class="icon" width="600px" height="600.00px" viewBox="0 0 1024 1024" version="1.1" xmlns="http://www.w3.org/2000/svg"><path d="M195.230385 956.449775l-79.32034 67.550225-30.704648-36.845577c-9.211394-9.723138-14.84058-22.516742-15.864068-36.845577-0.511744-6.652674 0.511744-14.328836 1.023489-22.516742l20.469765-242.054973c2.558721-22.516742 9.211394-39.916042 22.516741-52.709645l55.268366-51.174413 54.244878 56.291855-27.634183 318.304847z m41.451274-468.757621l-67.038481 59.362319-31.728136-33.775113c-13.817091-14.328836-23.54023-33.775112-25.075462-48.103948-0.511744-8.187906 0-17.3993 0.511744-28.657671L133.309345 218.514743c2.046977-30.704648 9.211394-43.498251 31.216392-65.503249l39.404298-41.451274 60.385807 69.085457-27.634183 307.046477z m-12.281859-393.531234l11.770115-92.113943 90.066967 4.605697 198.556721 231.82009-8.69965 90.066966-92.625687-2.558721-199.068466-231.820089z m565.477261 543.472263l63.968016-56.291854 46.056972 51.174413c11.258371 12.793603 14.328836 30.704648 13.305347 52.709645l-22.004997 242.054973c-0.511744 8.187906-1.023488 15.864068-2.558721 22.516741-3.582209 14.328836-11.770115 27.122439-22.516741 36.845578L829.281359 1023.488256l-67.550225-67.550225 28.145927-318.304848z m38.892554-457.49925l72.667666-69.085457 32.751625 41.451274c17.911044 22.516742 23.028486 35.310345 19.958021 65.503249l-18.934533 218.002998c-1.535232 11.258371-2.046977 20.981509-4.093953 28.657671-3.582209 14.328836-16.375812 33.775112-33.775113 48.103948l-37.357321 33.775113-56.803598-59.362319 25.587206-307.046477z m54.756622-85.973013l-240.51974 232.843578-93.137432 2.55872 7.676162-90.066966 239.496252-231.82009 91.602199-4.605697-5.117441 91.090455z m-424.747626 333.657171l70.108945-66.014993 58.338831 63.968016-19.958021 318.816592-67.038481 67.038481-61.921039-63.456272 20.469765-320.351824z"  /></svg>