<?xml version="1.0" standalone="no"?><!DOCTYPE svg PUBLIC "-//W3C//DTD SVG 1.1//EN" "http://www.w3.org/Graphics/SVG/1.1/DTD/svg11.dtd"><svg class="icon" width="600px" height="566.79px" viewBox="0 0 1084 1024" version="1.1" xmlns="http://www.w3.org/2000/svg"><path d="M371.4971075 86.8645475a73.08164906 73.08164906 0 0 0 71.88926344 21.03982219l252.59325656-65.38884375a5.30803594 5.30803594 0 0 0-1.42316906-10.50067875L368.03534469 35.86124937a19.23201281 19.23201281 0 0 0-13.96244156 32.46363844z m447.83665031 2.00013a41.57961187 41.57961187 0 0 0-53.84963531-26.92481813l-252.40093687 90.69817219a20.53978969 20.53978969 0 0 0-3.53869032 37.00239281l378.793725 224.66837438a16.88570719 16.88570719 0 0 0 24.73236844-19.46279719zM428.19308094 713.90509438a25.38625688 25.38625688 0 0 0 38.00245781 21.88603031l382.0247025-219.51419438 0.34617656-0.19231968a25.46318531 25.46318531 0 0 0 0.30771188-44.00284594L463.19534469 243.33620375a24.69390469 24.69390469 0 0 0-37.31010563 21.347535z m618.23228437-155.58698344a21.61678219 21.61678219 0 0 0-22.84763062-31.19432532 71.81233594 71.81233594 0 0 0-56.04208594 48.46467282l-106.42995844 327.1365375a3.53869031 3.53869031 0 0 0 6.50041969 2.69248219z m-20.84750156-89.27500407a16.6933875 16.6933875 0 0 0 18.07809187-24.23233593L868.99081531 118.174265a2.92326562 2.92326562 0 0 0-5.34649969 2.42323313L978.22864813 428.5404875a64.38877875 64.38877875 0 0 0 47.34921562 40.50261937zM322.60933062 725.48276562a22.57838344 22.57838344 0 0 0 35.54076-18.61658812l-2.03859375-431.48944031A21.15521437 21.15521437 0 0 0 321.80158625 258.95259875L44.32210437 479.85149844A32.54056594 32.54056594 0 0 0 45.93759406 532.04718125zM40.93727 415.424255a6.3081 6.3081 0 0 0 9.73139906 7.69280531l256.82429906-238.47695906a43.65666937 43.65666937 0 0 0 2.30784188-61.54244156l-28.809555-31.07893219A32.50210125 32.50210125 0 0 0 229.14174781 97.40369094z m405.91086375 460.22206687a58.58071125 58.58071125 0 0 0-67.11972469 19.53972563l-38.81020219 51.46486594a22.42452656 22.42452656 0 0 0 17.347275 35.96386406l359.60017688 9.34675875a7.308165 7.308165 0 0 0 2.730945-14.1162975z m456.3372-275.71013531a18.19348406 18.19348406 0 0 0-26.69403375-20.38593375l-368.67768562 212.74452563a22.42452656 22.42452656 0 0 0 1.92320062 39.84873094l257.40126 116.93063812a36.73314469 36.73314469 0 0 0 50.77251375-24.15540844zM317.45515062 860.83767219a45.19523063 45.19523063 0 0 0-7.92358875-62.2732575L55.09203219 594.32043875a7.96205344 7.96205344 0 0 0-11.84692031 10.26989438l183.24261843 310.94318343a29.00187563 29.00187563 0 0 0 48.23388844 2.61555375z" /></svg>