<?xml version="1.0" standalone="no"?><!DOCTYPE svg PUBLIC "-//W3C//DTD SVG 1.1//EN" "http://www.w3.org/Graphics/SVG/1.1/DTD/svg11.dtd"><svg class="icon" width="600px" height="600.00px" viewBox="0 0 1024 1024" version="1.1" xmlns="http://www.w3.org/2000/svg"><path d="M185.8 63.9c-66.8 0-121 54.2-121 121s54.2 121 121 121 121-54.2 121-121-54.2-121-121-121z m-0.1 203.5c-45.7 0-82.7-37-82.7-82.7s37-82.7 82.7-82.7 82.7 37 82.7 82.7-37 82.7-82.7 82.7zM838.2 716.7c-66.8 0-121 54.2-121 121s54.2 121 121 121 121-54.2 121-121-54.2-121-121-121z m-0.1 203.5c-45.7 0-82.7-37-82.7-82.7s37-82.7 82.7-82.7 82.7 37 82.7 82.7-37 82.7-82.7 82.7zM186.2 715.6c-66.8 0-121 54.2-121 121s54.2 121 121 121 121-54.2 121-121-54.2-121-121-121z m-0.1 203.5c-45.7 0-82.7-37-82.7-82.7s37-82.7 82.7-82.7 82.7 37 82.7 82.7-37 82.7-82.7 82.7z" fill="#748696" /><path d="M287.2 818.1h447.6v37H287.2zM167.3 282h37v451h-37zM235.682 261.34l26.163-26.162L776.897 750.23l-26.163 26.162z" fill="#748696" /></svg>