<?xml version="1.0" standalone="no"?><!DOCTYPE svg PUBLIC "-//W3C//DTD SVG 1.1//EN" "http://www.w3.org/Graphics/SVG/1.1/DTD/svg11.dtd"><svg class="icon" width="600px" height="600.00px" viewBox="0 0 1024 1024" version="1.1" xmlns="http://www.w3.org/2000/svg"><path d="M98.6 98.2h50v830h-50z" fill="#707070" /><path d="M98.6 877.5H928v50H98.6zM576.1 792.8c-29.1 0-53.9-16.6-73.6-49.3-14.8-24.6-26.2-56.7-37.2-87.7-24.7-69.7-45-119-81.2-119-38.9 0-91.8 24.3-152.8 70.2-48.1 36.2-84 73.1-84.3 73.4l-36-34.8c1.5-1.6 38.5-39.7 89.6-78.2 71-53.5 132.7-80.6 183.4-80.6 34.2 0 63.1 18.4 85.9 54.6 17.6 28 30.2 63.4 42.4 97.7 18 50.8 36.7 103.4 63.5 103.7 1.7-0.6 18.4-7.8 46.9-82.4 20.3-53.2 40.6-123.9 60.2-192.3 20.2-70.4 41-143.1 62.2-197.2 20.1-51.5 46.2-104.1 87-104.1H928v50h-95.1c-1.3 0.6-7.2 4.3-16.8 20.2-8.5 14.1-17.8 34.5-27.6 60.6-19.2 51-38.6 118.7-57.4 184.3-20.7 72.3-42.2 147.1-64.3 203.3-21 53.2-48.1 107.6-90.7 107.6z" fill="#707070" /></svg>