<?xml version="1.0" standalone="no"?><!DOCTYPE svg PUBLIC "-//W3C//DTD SVG 1.1//EN" "http://www.w3.org/Graphics/SVG/1.1/DTD/svg11.dtd"><svg class="icon" width="600px" height="600.00px" viewBox="0 0 1024 1024" version="1.1" xmlns="http://www.w3.org/2000/svg"><path d="M964.3 120.6c-0.9-1.5-2.5-2.5-4.3-2.5l-896 3.8c-1.8 0-3.4 1-4.3 2.5-0.9 1.6-0.9 3.5 0 5l451.3 774c0.9 1.5 2.5 2.5 4.3 2.5 1.8 0 3.4-1 4.3-2.5l444.7-777.9c0.9-1.5 0.9-3.4 0-4.9zM613.5 328l-186.2 0.8-161.8-92.5 502.2-2.1L613.5 328z m-92.4 159l-86.4-148.2 171.6-0.7L521.1 487z m-98.8-149.5l93.8 160.8-2.6 180.5-253-433.8 161.8 92.5z m103.8 160.9l92.5-161.8 151.2-92-246.3 430.7 2.6-176.9z m258.2-274.3l-536.2 2.3-165.4-94.6 859.4-3.6-157.8 95.9z m-541.1 11l270 463.2-2.7 184.6L77.7 140.5l165.5 94.6z m280 460.9l264.2-462.1L946 137.4 520.6 881.6l2.6-185.6z" fill="#3A3A3A" /></svg>