<?xml version="1.0" standalone="no"?><!DOCTYPE svg PUBLIC "-//W3C//DTD SVG 1.1//EN" "http://www.w3.org/Graphics/SVG/1.1/DTD/svg11.dtd"><svg class="icon" width="600px" height="600.00px" viewBox="0 0 1024 1024" version="1.1" xmlns="http://www.w3.org/2000/svg"><path d="M512 83.584C275.328 83.584 83.584 275.328 83.584 512S275.328 940.416 512 940.416c236.672 0 428.416-191.872 428.416-428.416S748.672 83.584 512 83.584z m-0.768 729.6c0-167.296-135.296-302.976-302.464-303.616 166.784-0.64 301.824-135.68 302.464-302.464 0.64 167.168 136.32 302.464 303.616 302.464-167.68 0-303.616 135.936-303.616 303.616z" fill="#55AEFF" /><path d="M512 1021.184C231.168 1021.184 2.816 792.832 2.816 512S231.168 2.816 512 2.816 1021.184 231.168 1021.184 512 792.832 1021.184 512 1021.184z m0-975.232C254.976 45.952 45.952 254.976 45.952 512S254.976 978.048 512 978.048 978.048 769.024 978.048 512 769.024 45.952 512 45.952z" fill="#002C5B" /><path d="M512 959.488C265.216 959.488 64.512 758.784 64.512 512S265.216 64.512 512 64.512 959.488 265.216 959.488 512 758.784 959.488 512 959.488z m0-851.84C289.024 107.648 107.648 289.024 107.648 512S289.024 916.352 512 916.352 916.352 734.976 916.352 512 734.976 107.648 512 107.648z" fill="#002C5B" /><path d="M815.616 489.344h-1.152c-155.008 0-281.472-126.08-282.112-280.96v-1.024-1.152c0-0.384-0.128-0.768-0.128-1.024 0-0.384-0.128-0.768-0.128-1.024-0.128-0.384-0.128-0.64-0.256-1.024-0.128-0.384-0.128-0.64-0.256-1.024-0.128-0.384-0.256-0.64-0.384-1.024-0.128-0.256-0.256-0.64-0.384-0.896-0.128-0.384-0.256-0.64-0.512-1.024-0.128-0.256-0.256-0.64-0.384-0.896-0.128-0.384-0.384-0.64-0.64-1.024-0.128-0.256-0.256-0.512-0.512-0.768-0.256-0.256-0.384-0.64-0.64-0.896-0.128-0.256-0.384-0.512-0.512-0.768l-0.768-0.768c-0.256-0.256-0.384-0.512-0.64-0.768l-0.768-0.768c-0.256-0.256-0.512-0.512-0.768-0.64-0.256-0.256-0.512-0.384-0.896-0.64-0.256-0.256-0.512-0.384-0.768-0.64-0.256-0.256-0.64-0.384-0.896-0.512-0.256-0.128-0.64-0.384-0.896-0.512-0.256-0.128-0.64-0.256-0.896-0.512-0.256-0.128-0.64-0.256-0.896-0.512-0.256-0.128-0.64-0.256-1.024-0.384-0.384-0.128-0.64-0.256-1.024-0.384-0.384-0.128-0.64-0.128-1.024-0.256-0.384-0.128-0.64-0.256-1.024-0.256-0.384-0.128-0.768-0.128-1.152-0.128-0.384 0-0.64-0.128-1.024-0.128H510.976h-0.128-2.304c-0.384 0-0.64 0.128-1.024 0.128-0.384 0-0.768 0.128-1.152 0.128-0.384 0.128-0.64 0.128-1.024 0.256-0.384 0.128-0.64 0.128-1.024 0.256-0.384 0.128-0.64 0.256-1.024 0.384-0.256 0.128-0.64 0.256-0.896 0.384-0.384 0.128-0.64 0.256-1.024 0.512-0.256 0.128-0.64 0.256-0.896 0.384-0.384 0.128-0.64 0.384-0.896 0.512-0.256 0.128-0.512 0.384-0.768 0.512-0.256 0.256-0.64 0.384-0.896 0.64-0.256 0.256-0.512 0.384-0.768 0.64l-0.768 0.768c-0.256 0.256-0.512 0.384-0.768 0.64l-0.768 0.768c-0.256 0.256-0.512 0.512-0.64 0.768-0.256 0.256-0.384 0.512-0.64 0.768-0.256 0.256-0.384 0.512-0.64 0.768-0.128 0.256-0.384 0.64-0.512 0.896-0.128 0.256-0.384 0.64-0.512 0.896-0.128 0.256-0.256 0.64-0.384 0.896-0.128 0.256-0.256 0.64-0.512 1.024-0.128 0.384-0.256 0.64-0.384 1.024-0.128 0.384-0.256 0.64-0.384 1.024-0.128 0.384-0.128 0.64-0.256 1.024-0.128 0.384-0.128 0.64-0.256 1.024-0.128 0.384-0.128 0.768-0.128 1.024 0 0.384-0.128 0.768-0.128 1.024V208.256c-0.512 154.368-126.592 280.448-280.96 280.96H206.336c-0.384 0-0.64 0.128-1.024 0.128-0.384 0-0.768 0.128-1.152 0.128-0.384 0.128-0.64 0.128-1.024 0.256-0.384 0.128-0.64 0.128-1.024 0.256-0.384 0.128-0.64 0.256-1.024 0.384-0.256 0.128-0.64 0.256-0.896 0.384-0.384 0.128-0.64 0.256-1.024 0.512-0.256 0.128-0.64 0.256-0.896 0.384-0.384 0.128-0.64 0.384-0.896 0.512-0.256 0.128-0.512 0.384-0.768 0.512-0.256 0.256-0.64 0.384-0.896 0.64-0.256 0.256-0.512 0.384-0.768 0.64l-0.768 0.768c-0.256 0.256-0.512 0.384-0.768 0.64l-0.768 0.768c-0.256 0.256-0.512 0.512-0.64 0.768-0.256 0.256-0.384 0.512-0.64 0.768-0.256 0.256-0.384 0.512-0.64 0.768-0.128 0.256-0.384 0.64-0.512 0.896-0.128 0.256-0.384 0.64-0.512 0.896-0.128 0.256-0.256 0.64-0.384 0.896-0.128 0.256-0.256 0.64-0.512 1.024-0.128 0.384-0.256 0.64-0.384 1.024-0.128 0.384-0.256 0.64-0.384 1.024-0.128 0.384-0.128 0.64-0.256 1.024-0.128 0.384-0.128 0.64-0.256 1.024-0.128 0.384-0.128 0.768-0.128 1.024 0 0.384-0.128 0.768-0.128 1.024v4.608c0 0.384 0.128 0.768 0.128 1.024 0 0.384 0.128 0.768 0.128 1.024 0.128 0.384 0.128 0.64 0.256 1.024 0.128 0.384 0.128 0.64 0.256 1.024 0.128 0.384 0.256 0.64 0.384 1.024 0.128 0.256 0.256 0.64 0.384 0.896 0.128 0.384 0.256 0.64 0.512 1.024 0.128 0.256 0.256 0.64 0.384 0.896 0.128 0.384 0.384 0.64 0.64 1.024 0.128 0.256 0.256 0.512 0.512 0.768 0.256 0.256 0.384 0.64 0.64 0.896 0.128 0.256 0.384 0.512 0.512 0.768l0.768 0.768c0.256 0.256 0.384 0.512 0.64 0.768l0.768 0.768c0.256 0.256 0.512 0.512 0.768 0.64 0.256 0.256 0.512 0.384 0.896 0.64 0.256 0.256 0.512 0.384 0.768 0.64 0.256 0.256 0.64 0.384 0.896 0.512 0.256 0.128 0.64 0.384 0.896 0.512 0.256 0.128 0.64 0.256 0.896 0.512 0.256 0.128 0.64 0.256 0.896 0.512 0.256 0.128 0.64 0.256 1.024 0.384 0.384 0.128 0.64 0.256 1.024 0.384 0.384 0.128 0.64 0.128 1.024 0.256 0.384 0.128 0.64 0.256 1.024 0.256 0.384 0.128 0.768 0.128 1.152 0.128 0.384 0 0.64 0.128 1.024 0.128H208.64c155.008 0.512 280.96 127.104 280.96 282.112v1.152c0 11.904 9.6 21.504 21.504 21.504s21.504-9.6 21.504-21.504v-1.152c0-155.52 126.592-282.112 282.112-282.112h1.152c11.904 0 21.504-9.6 21.504-21.504s-9.856-21.248-21.76-21.248zM510.848 698.112c-33.024-85.76-101.376-154.112-187.008-187.136 41.984-16.128 80.64-41.088 113.408-73.856 32.768-32.768 57.728-71.296 73.856-113.408 33.024 85.632 101.504 153.984 187.136 187.008-86.016 33.152-154.368 101.504-187.392 187.392z" fill="#002C5B" /></svg>