<?xml version="1.0" standalone="no"?><!DOCTYPE svg PUBLIC "-//W3C//DTD SVG 1.1//EN" "http://www.w3.org/Graphics/SVG/1.1/DTD/svg11.dtd"><svg class="icon" width="600px" height="600.00px" viewBox="0 0 1024 1024" version="1.1" xmlns="http://www.w3.org/2000/svg"><path d="M80.2 664.4c67.9 0 123-55 123-122.9 0 67.9 55 122.9 122.9 122.9-67.9 0-122.9 55.1-122.9 123-0.1-68-55.1-123-123-123z m0 0M490 760c105.6 0 191.3-85.6 191.3-191.3 0 105.6 85.6 191.3 191.3 191.3-105.6 0-191.3 85.6-191.3 191.3C681.3 845.6 595.6 760 490 760z m0 0M230.4 240.9c83 0 150.3-67.3 150.3-150.3 0 83 67.3 150.3 150.3 150.3-83 0-150.3 67.3-150.3 150.3 0-83-67.3-150.3-150.3-150.3z m0 0" fill="#74A2CA" /><path d="M216.8 425.3c34 0 61.5-27.5 61.5-61.5 0 34 27.5 61.5 61.5 61.5-34 0-61.5 27.5-61.5 61.5 0-34-27.6-61.5-61.5-61.5z m0 0M817.9 432.2c37.7 0 68.3-30.6 68.3-68.3 0 37.7 30.6 68.3 68.3 68.3-37.7 0-68.3 30.6-68.3 68.3 0-37.8-30.6-68.3-68.3-68.3z m0 0M490 500.5c37.7 0 68.3-30.6 68.3-68.3 0 37.7 30.6 68.3 68.3 68.3-37.7 0-68.3 30.6-68.3 68.3 0-37.8-30.6-68.3-68.3-68.3z m0 0M80.2 158.8c37.7 0 68.3-30.6 68.3-68.3 0 37.7 30.6 68.3 68.3 68.3-37.7 0-68.3 30.6-68.3 68.3 0-37.7-30.6-68.3-68.3-68.3z m0 0M626.6 145.3c37.7 0 68.3-30.6 68.3-68.3 0 37.7 30.6 68.3 68.3 68.3-37.7 0-68.3 30.6-68.3 68.3 0-37.8-30.6-68.3-68.3-68.3z m0 0M312.4 883c37.7 0 68.3-30.6 68.3-68.3 0 37.7 30.6 68.3 68.3 68.3-37.7 0-68.3 30.6-68.3 68.3 0-37.7-30.6-68.3-68.3-68.3z m0 0" fill="#206BAB" /><path d="M291.8 486.8h-27c0-26.5-21.5-48-48-48v-27c26.5 0 48-21.5 48-48h27c0 26.5 21.5 48 48 48v27c-26.5 0-48 21.5-48 48z m-32.1-61.5c7.2 5.1 13.6 11.4 18.6 18.6 5.1-7.2 11.4-13.5 18.6-18.6-7.2-5.1-13.6-11.4-18.6-18.6-5.1 7.2-11.4 13.6-18.6 18.6z m0 0M216.6 787.3h-27c0-60.4-49.1-109.5-109.5-109.5v-27c60.4 0 109.5-49.1 109.5-109.5h27c0 60.4 49.1 109.5 109.5 109.5v27c-60.4 0.1-109.5 49.2-109.5 109.5z m-77.3-122.9c27.8 13.4 50.4 36 63.8 63.8 13.4-27.8 36-50.4 63.8-63.8-27.8-13.4-50.4-36-63.8-63.8-13.4 27.8-36 50.4-63.8 63.8z m0 0M899.7 500.5h-27c0-30.2-24.6-54.8-54.8-54.8v-27c30.2 0 54.8-24.6 54.8-54.8h27c0 30.2 24.6 54.8 54.8 54.8v27c-30.2-0.1-54.8 24.5-54.8 54.8z m-36.9-68.3c9.3 6.1 17.2 14.1 23.3 23.3 6.1-9.3 14.1-17.2 23.3-23.3-9.3-6.1-17.2-14.1-23.3-23.3-6 9.2-14 17.1-23.3 23.3z m0 0M571.8 568.8h-27c0-30.2-24.6-54.8-54.8-54.8v-27c30.2 0 54.8-24.6 54.8-54.8h27c0 30.2 24.6 54.8 54.8 54.8v27c-30.2 0-54.8 24.5-54.8 54.8zM535 500.5c9.3 6.1 17.2 14.1 23.3 23.3 6.1-9.3 14.1-17.2 23.3-23.3-9.3-6.1-17.2-14.1-23.3-23.3-6.1 9.2-14.1 17.1-23.3 23.3z m0 0M162 227.1h-27c0-30.2-24.6-54.8-54.8-54.8v-27c30.2 0 54.8-24.6 54.8-54.8h27c0 30.2 24.6 54.8 54.8 54.8v27c-30.2 0-54.8 24.6-54.8 54.8z m-36.9-68.3c9.3 6.1 17.2 14.1 23.3 23.3 6.1-9.3 14.1-17.2 23.3-23.3-9.3-6.1-17.2-14.1-23.3-23.3-6 9.3-14 17.2-23.3 23.3z m0 0M708.4 213.6h-27c0-30.2-24.6-54.8-54.8-54.8v-27c30.2 0 54.8-24.6 54.8-54.8h27c0 30.2 24.6 54.8 54.8 54.8v27c-30.2 0-54.8 24.5-54.8 54.8z m-36.8-68.3c9.3 6.1 17.2 14.1 23.3 23.3 6.1-9.3 14.1-17.2 23.3-23.3-9.3-6.1-17.2-14.1-23.3-23.3-6.1 9.2-14 17.1-23.3 23.3z m0 0M394.2 951.3h-27c0-30.2-24.6-54.8-54.8-54.8v-27c30.2 0 54.8-24.6 54.8-54.8h27c0 30.2 24.6 54.8 54.8 54.8v27c-30.2 0-54.8 24.6-54.8 54.8zM357.4 883c9.3 6.1 17.2 14.1 23.3 23.3 6.1-9.3 14.1-17.2 23.3-23.3-9.3-6.1-17.2-14.1-23.3-23.3-6.1 9.2-14.1 17.2-23.3 23.3z m0 0M694.8 951.3h-27c0-98-79.7-177.8-177.8-177.8v-27c98 0 177.8-79.7 177.8-177.8h27c0 98 79.7 177.8 177.8 177.8v27c-98.1 0-177.8 79.8-177.8 177.8zM563.1 760c54.2 20.8 97.3 64 118.1 118.1 20.8-54.2 64-97.4 118.1-118.1-54.2-20.8-97.4-64-118.1-118.1-20.7 54.2-63.9 97.3-118.1 118.1z m0 0M394.2 391.2h-27c0-75.4-61.4-136.8-136.8-136.8v-27c75.4 0 136.8-61.4 136.8-136.8h27c0 75.4 61.4 136.8 136.8 136.8v27c-75.4 0-136.8 61.3-136.8 136.8z m-98.7-150.3c38.1 16.5 68.6 47.1 85.2 85.2 16.5-38.1 47.1-68.6 85.2-85.2-38.1-16.6-68.6-47.1-85.2-85.2-16.5 38.1-47.1 68.6-85.2 85.2z m0 0" fill="#1C1C1A" /></svg>