<?xml version="1.0" standalone="no"?><!DOCTYPE svg PUBLIC "-//W3C//DTD SVG 1.1//EN" "http://www.w3.org/Graphics/SVG/1.1/DTD/svg11.dtd"><svg class="icon" width="600px" height="600.00px" viewBox="0 0 1024 1024" version="1.1" xmlns="http://www.w3.org/2000/svg"><path d="M435.7632 758.7584C459.3216 792.8704 487.7696 812.8 518.4 812.8c29.7408 0 57.4144-18.7904 80.5632-51.0976-26.7712-6.0544-56.7808-22.9696-86.9632-48.5504-26.2144 22.2144-52.2944 37.8944-76.2368 45.6064z m-98.8928-55.36c-5.7728-24.928-5.376-56.0896 0.928-90.8224-37.7216-13.5168-67.648-31.328-86.2336-51.8016-17.472 37.1968-20.3904 71.5392-5.1648 97.9072 15.6032 27.0272 47.9936 41.7408 90.4704 44.7168z m276.7552-443.3472C587.9616 213.6128 554.7136 185.6 518.4 185.6c-36.7424 0-70.336 28.6784-96.128 76.1024 27.456 5.4848 58.496 22.6752 89.728 49.152 35.8272-30.3744 71.4112-48.5312 101.6256-50.8032z m66.592 39.744c12.384 27.2448 14.1888 66.4128 5.984 111.6288 38.208 13.696 68.4288 31.7888 86.9504 52.608 27.0208-45.1776 34.4768-87.68 16.416-118.9504-17.8432-30.912-57.632-45.7152-109.3504-45.28z m6.7904 404.128c48.4032-0.8704 85.504-15.7056 102.56-45.248 16.4672-28.512 11.7184-66.3552-9.7216-107.0528-17.408 24.3328-50.4064 45.4592-93.6448 60.9536 6.3488 34.976 6.7072 66.336 0.8064 91.3472zM343.6992 299.9808c-45.824 1.8304-80.8704 16.64-97.2992 45.1008-17.024 29.4848-11.3664 68.9536 11.9744 111.232 18.72-17.5808 46.016-32.9152 79.424-44.8896-8.192-45.12-6.4064-84.2048 5.9008-111.4432zM518.4 889.6c-212.0768 0-384-171.9232-384-384s171.9232-384 384-384 384 171.9232 384 384-171.9232 384-384 384z m0-281.6c56.5568 0 102.4-45.8432 102.4-102.4s-45.8432-102.4-102.4-102.4-102.4 45.8432-102.4 102.4 45.8432 102.4 102.4 102.4z" fill="#59AAFF" /></svg>