<?xml version="1.0" standalone="no"?><!DOCTYPE svg PUBLIC "-//W3C//DTD SVG 1.1//EN" "http://www.w3.org/Graphics/SVG/1.1/DTD/svg11.dtd"><svg class="icon" width="600px" height="600.00px" viewBox="0 0 1024 1024" version="1.1" xmlns="http://www.w3.org/2000/svg"><path d="M194.856431 250.358001c-31.969109 31.970132-31.969109 83.804684-0.001023 115.77277 23.417339 23.417339 57.482179 29.659507 86.600357 18.774599l140.368958 140.368958-239.769852 239.767805 130.245389 130.24539 239.769852-239.769852L693.464423 796.913005c-10.885931 29.118178-4.64274 63.183018 18.772552 86.59831 31.970132 31.970132 83.804684 31.970132 115.774817 0 31.969109-31.969109 31.969109-83.803661-0.001023-115.773793-12.824073-12.824073-28.845978-20.490683-45.500287-23.027459l57.335846-410.092006c15.436574-3.012613 30.172183-10.495028 42.13054-22.452361 31.969109-31.969109 31.969109-83.803661 0-115.773794-31.968086-31.968086-83.804684-31.969109-115.774817 0-11.957333 11.957333-19.438725 26.692942-22.451338 42.128493l-410.093029 57.337893c-2.535753-16.653285-10.203386-32.677237-23.028483-45.502333-31.969109-31.968086-83.803661-31.967062-115.77277 0.002046z m262.36957 311.872007l57.887408 57.886385-202.813149 202.813149-57.886385-57.886385 202.812126-202.813149zM323.801199 348.897272l426.282756-59.5994a81.661881 81.661881 0 0 0 16.118096 22.8668 81.716116 81.716116 0 0 0 22.8668 16.11912l-59.599399 426.281733a81.298608 81.298608 0 0 0-3.726881 2.266623L321.535599 352.625176a81.665974 81.665974 0 0 0 2.2656-3.727904z" fill="#707070" /></svg>