<?xml version="1.0" standalone="no"?><!DOCTYPE svg PUBLIC "-//W3C//DTD SVG 1.1//EN" "http://www.w3.org/Graphics/SVG/1.1/DTD/svg11.dtd"><svg class="icon" width="600px" height="600.00px" viewBox="0 0 1024 1024" version="1.1" xmlns="http://www.w3.org/2000/svg"><path d="M942.654832 687.605483L519.250636 435.700243c-15.44783-9.18929-25.37697-2.171456-22.100344 15.59007l90.028433 487.136729c3.28379 17.756409 14.403035 20.215414 24.74252 5.442966 0 0 57.520041-82.45699 104.696504-132.795469l90.49813 134.79194c8.637728 12.8384 26.065655 16.188704 38.752606 7.466042l30.379915-20.999267c12.669554-8.740058 15.966647-26.434046 7.351431-39.299051l-90.458221-134.697795c60.47842-25.067932 145.927557-46.214555 145.927557-46.214555 17.426905-4.300956 19.038612-15.331173 3.585665-24.51637z"  /><path d="M511.999488 887.554398l-0.290619 0.167822-324.629565-187.749058 0.288573-375.021255L512.290107 137.688919l324.629565 187.759291-0.185218 250.299673h64.100924l0.210801-287.259446L512.344343 63.671135 123.294582 287.893896l-0.342807 449.039039 388.702859 224.808093 0.344854-0.198522z"  /></svg>