<?xml version="1.0" standalone="no"?><!DOCTYPE svg PUBLIC "-//W3C//DTD SVG 1.1//EN" "http://www.w3.org/Graphics/SVG/1.1/DTD/svg11.dtd"><svg class="icon" width="600px" height="600.00px" viewBox="0 0 1024 1024" version="1.1" xmlns="http://www.w3.org/2000/svg"><path d="M763.086 162c-42.022 0-76.087 34.065-76.087 76.087a75.713 75.713 0 0 0 12.873 42.322L295.434 718.464c-10.403-5.341-22.022-8.638-34.52-8.638-42.022 0-76.087 34.065-76.087 76.087S218.892 862 260.914 862s76.087-34.065 76.087-76.087c0-6.836-1.192-13.338-2.882-19.641l418.389-453.163c3.489 0.489 6.954 1.065 10.579 1.065 42.022 0 76.087-34.065 76.087-76.087S805.108 162 763.086 162z" fill="#35D9E7" /></svg>