<?xml version="1.0" standalone="no"?><!DOCTYPE svg PUBLIC "-//W3C//DTD SVG 1.1//EN" "http://www.w3.org/Graphics/SVG/1.1/DTD/svg11.dtd"><svg class="icon" width="600px" height="600.00px" viewBox="0 0 1024 1024" version="1.1" xmlns="http://www.w3.org/2000/svg"><path d="M845.7 641h0.1l-0.1-21.1z" fill="#D6D6D6" /><path d="M872 246.6l-27.3 101.9-22.2-22.2-225 225c-8.3 8.3-21.6 8.3-29.9 0l-82.9-82.9-302.8 302.8-29.9-30.1 317.6-317.6c8.2-8.2 21.6-8.3 29.9 0l82.9 82.7 210.1-209.9-22.5-22.5 102-27.2z" fill="#48A0D9" /><path d="M780.5 774.4v-31.6h-61.4c-5.6 0-11-2.2-14.9-6.2L616.3 649 405.8 774.4c-10.5 6.3-24.2 2.3-29.7-8.6L188 393.1l37.7-19.1 177.9 352.2L609 604c8.3-5 18.9-3.6 25.8 3.2l93 93.2h52.7v-31.6l91.5 52.7-91.5 52.9z" fill="#E66E58" /></svg>