<?xml version="1.0" standalone="no"?><!DOCTYPE svg PUBLIC "-//W3C//DTD SVG 1.1//EN" "http://www.w3.org/Graphics/SVG/1.1/DTD/svg11.dtd"><svg class="icon" width="600px" height="600.00px" viewBox="0 0 1024 1024" version="1.1" xmlns="http://www.w3.org/2000/svg"><path d="M513.536 519.168v248.96L243.2 900.224l270.336-381.056z" fill="#FFAE43" /><path d="M511.744 519.168v248.96L782.08 900.224 511.744 519.168z" fill="#FFE05F" /><path d="M513.024 521.472l236.672 76.928 42.112 297.984-278.784-374.912z" fill="#FFAE43" /><path d="M512.384 523.264l236.8 76.928 209.152-216.32-445.952 139.392z" fill="#FFE05F" /><path d="M511.104 521.472l146.304-201.216 296.448 51.968-442.752 149.248z" fill="#FFAE43" /><path d="M512.64 522.624L658.944 321.28 517.888 55.424l-5.248 467.2z" fill="#FFE05F" /><path d="M509.568 523.52L363.264 322.048 504.448 56.32l5.12 467.2z" fill="#FFAE43" /><path d="M511.104 522.368L364.8 321.024 68.352 373.12l442.752 149.248z" fill="#FFE05F" /><path d="M510.464 521.472l-236.8 76.928-42.112 297.984 278.912-374.912z" fill="#FFE05F" /><path d="M510.976 523.264l-236.672 76.928-209.28-216.32 445.952 139.392z" fill="#FFAE43" /><path d="M155.136 363.008l347.008 145.024-434.432-127.36 87.424-17.664z" fill="#FFFFFF" /><path d="M411.52 830.976l93.952-56.32 110.336 62.72 27.008 149.248h-257.28l25.984-155.648z" fill="#FFE05F" /><path d="M250.752 792.96l254.976-276.352-268.288 364.672 13.312-88.32z" fill="#FFFFFF" /><path d="M552.064 797.44l27.008 189.184h55.04l-17.28-161.152-64.768-28.032z" fill="#FFAE43" /><path d="M997.248 365.44a19.2 19.2 0 0 0-15.488-12.8L669.056 307.2 529.152 23.552a19.2 19.2 0 0 0-34.432 0L354.944 307.2 42.24 352.256a19.2 19.2 0 0 0-10.624 32.768l226.304 220.672L204.8 917.12a19.2 19.2 0 0 0 27.904 20.224L384 857.6l-20.736 131.456A19.2 19.2 0 0 0 382.336 1011.2h259.328a19.2 19.2 0 0 0 18.944-22.144L640 857.6l151.168 79.488A19.2 19.2 0 0 0 819.2 917.12l-53.12-311.424 226.304-220.672a19.2 19.2 0 0 0 4.864-19.584zM639.104 332.8a19.2 19.2 0 0 0 14.464 10.496l256 37.248L524.8 505.728V101.376z m-128 211.584l237.824 327.04-227.968-119.808a19.2 19.2 0 0 0-17.92 0l-230.4 120.96z m-140.8-201.088a19.2 19.2 0 0 0 14.592-10.496L499.2 101.376v403.968L115.2 380.544z m-78.464 241.92L106.752 404.736l384 124.672L254.08 855.04 297.472 601.6a19.2 19.2 0 0 0-5.632-16.384zM619.392 972.8H404.608l21.12-137.216L512 790.272l86.272 45.312z m107.264-371.2l43.648 256-237.696-327.424 384-124.8-184.448 179.2a19.2 19.2 0 0 0-5.632 17.024z" fill="#4C3A30" /></svg>