<?xml version="1.0" standalone="no"?><!DOCTYPE svg PUBLIC "-//W3C//DTD SVG 1.1//EN" "http://www.w3.org/Graphics/SVG/1.1/DTD/svg11.dtd"><svg class="icon" width="600px" height="600.00px" viewBox="0 0 1024 1024" version="1.1" xmlns="http://www.w3.org/2000/svg"><path d="M742.139006 882.126782c-1.533936 0-3.076058-0.335644-4.510734-1.019213L512.000512 773.641999 286.356378 881.107569c-3.458775 1.647523-7.53972 1.279133-10.646478-0.959861-3.108804-2.238994-4.749164-5.994528-4.28049-9.797134l30.956036-251.303536L131.914914 434.218496c-2.579755-2.794649-3.442402-6.767124-2.258437-10.381441 1.182942-3.614317 4.230348-6.305613 7.963369-7.033184l244.771773-47.748491L502.694565 147.512658c0.459464-0.88516 1.049912-1.709945 1.762133-2.444679 0.87595-0.906649 1.898233-1.633197 3.006474-2.163269 1.393743-0.669242 2.877537-1.004887 4.349051-1.029446 1.438769-0.032746 2.891863 0.240477 4.279467 0.829901 1.171686 0.494257 2.258437 1.203408 3.197832 2.110057 0.719384 0.695848 1.329275 1.482771 1.814322 2.333138 5.176906 8.689916 99.428523 166.946266 121.541147 207.667713 2.765997 5.094018 0.876973 11.464099-4.216022 14.230096-5.091972 2.764973-11.461029 0.87902-14.230096-4.214998-17.974373-33.102932-86.506213-148.69867-111.783923-191.235462L398.476969 383.417483c-1.494027 2.75167-4.139274 4.692882-7.213285 5.291516l-231.178173 45.096081L321.10888 608.389304c2.090615 2.266623 3.079128 5.337565 2.701528 8.398274l-29.212322 237.148142 212.889645-101.390201c2.854001-1.359974 6.170536-1.359974 9.022491 0l212.878388 101.390201-29.199019-237.150188c-0.376577-3.059686 0.61296-6.129604 2.702552-8.396227l161.0203-174.584224-76.254731-14.874779c-5.689582-1.109264-9.401114-6.620791-8.289804-12.30935 1.108241-5.687536 6.616698-9.404184 12.307304-8.290827l94.704942 18.473747c3.730974 0.727571 6.777357 3.418866 7.962346 7.033184 1.181919 3.614317 0.319272 7.586792-2.25946 10.381441L721.615577 619.047038l30.940686 251.30456c0.467651 3.802606-1.172709 7.55814-4.281513 9.79611C746.456335 881.458563 744.305345 882.126782 742.139006 882.126782z" fill="#1296db" /></svg>