<?xml version="1.0" standalone="no"?><!DOCTYPE svg PUBLIC "-//W3C//DTD SVG 1.1//EN" "http://www.w3.org/Graphics/SVG/1.1/DTD/svg11.dtd"><svg class="icon" width="600px" height="600.00px" viewBox="0 0 1024 1024" version="1.1" xmlns="http://www.w3.org/2000/svg"><path d="M1024 416C1024 186.24 837.76 0 608 0l-192 0C186.24 0 0 186.24 0 416 0 645.76 186.24 832 416 832l128 0 288 192 0-256-3.008 0C945.984 694.4 1024 564.48 1024 416zM704 686.336 704 800 544 704l-128 0C256.96 704 128 575.04 128 416 128 256.96 256.96 128 416 128l192 0C767.04 128 896 256.96 896 416 896 541.248 815.616 646.72 704 686.336z" /></svg>