<?xml version="1.0" standalone="no"?><!DOCTYPE svg PUBLIC "-//W3C//DTD SVG 1.1//EN" "http://www.w3.org/Graphics/SVG/1.1/DTD/svg11.dtd"><svg class="icon" width="600px" height="600.00px" viewBox="0 0 1024 1024" version="1.1" xmlns="http://www.w3.org/2000/svg"><path d="M512 972.8a460.8 460.8 0 1 0 0-921.6 460.8 460.8 0 0 0 0 921.6z m0 51.2C229.2224 1024 0 794.7776 0 512S229.2224 0 512 0s512 229.2224 512 512-229.2224 512-512 512z m0-819.2a25.6 25.6 0 0 1 25.6 25.6v460.8a25.6 25.6 0 1 1-51.2 0v-460.8A25.6 25.6 0 0 1 512 204.8z m0 563.2a25.6 25.6 0 1 1 0 51.2 25.6 25.6 0 0 1 0-51.2z" fill="#000000" /></svg>