<?xml version="1.0" standalone="no"?><!DOCTYPE svg PUBLIC "-//W3C//DTD SVG 1.1//EN" "http://www.w3.org/Graphics/SVG/1.1/DTD/svg11.dtd"><svg class="icon" width="600px" height="600.00px" viewBox="0 0 1024 1024" version="1.1" xmlns="http://www.w3.org/2000/svg"><path d="M959.6 433.9H902c-30.6-155.7-152-278.9-306.8-312V63.6H428.9v58c-155.4 32.7-277.5 156.2-308.2 312.3H66.6v166.3h56.7C157.7 750.8 277.5 868.8 429 900.7v55.8h166.3v-56.1c150.9-32.3 270-150.1 304.3-300.3h60.1V433.9zM595.3 831.6v-41.3H428.9V832C314.5 802.7 224 713.8 192.4 600.3h40.5V433.9h-43.6c28.5-119.1 121.2-213.2 239.6-243.5v39.5h166.3v-39.1C712.9 221.5 805 315.3 833.4 433.9h-40.2v166.3h37.1C798.9 713.3 709 802 595.3 831.6z" /></svg>