<?xml version="1.0" standalone="no"?><!DOCTYPE svg PUBLIC "-//W3C//DTD SVG 1.1//EN" "http://www.w3.org/Graphics/SVG/1.1/DTD/svg11.dtd"><svg class="icon" width="600px" height="600.00px" viewBox="0 0 1024 1024" version="1.1" xmlns="http://www.w3.org/2000/svg"><path d="M897.480579 219.359105l31.413149 40.007312 15.212657-19.460347 15.163265-19.460347c33.635777-43.020209 25.881274-105.204414-16.891976-138.642624l-77.989563-60.949412c-42.970817-33.536994-105.155022-25.733098-138.593232 17.138935l-30.375922 38.871302 46.428239 20.793924 22.868377-29.289304c16.743801-21.436017 47.909991-25.288573 69.296616-8.594163l77.989563 60.949412c21.337233 16.694409 25.189789 47.8606 8.396596 69.296616L897.480579 219.359105z"  /><path d="M511.978021 233.238185 511.978021 529.193513 314.411046 529.193513 314.411046 578.782823 511.978021 578.782823 511.978021 578.98039 561.172197 578.98039 561.172197 578.782823 561.369764 578.782823 561.369764 529.193513 561.172197 529.193513 561.172197 233.238185Z"  /><path d="M298.259946 38.042015c-33.586386-43.020209-95.819983-50.577145-138.593232-17.138935L81.627759 81.852491c-42.970817 33.536994-50.379578 95.770591-16.891976 138.642624L95.111705 259.366418l31.413149-40.007312L103.656477 190.069802c-16.743801-21.436017-12.990029-52.602207 8.396596-69.296616L190.042636 59.823774c21.337233-16.694409 52.503423-12.841853 69.296616 8.594163l22.868377 29.289304 46.428239-20.793924L313.423212 57.502362 298.259946 38.042015z"  /><path d="M67.452329 529.588647c0 149.212457 73.494914 281.236588 186.305657 361.893305l-98.042611 97.598085 34.574221 34.426045 105.747723-105.303197c63.912916 35.611447 137.556006 55.911454 215.940703 55.911454 76.804161 0 149.01489-19.460347 212.038755-53.738217l103.574486 103.129961 34.574221-34.426045-95.523632-95.128498c114.786412-80.360367 189.861862-213.619291 189.861862-364.362892 0-245.526357-198.999335-444.525692-444.525692-444.525692C266.501055 85.062955 67.452329 284.111681 67.452329 529.588647zM907.111969 529.588647c0 218.212723-176.921225 395.133949-395.133949 395.133949-218.212723 0-395.133949-176.921225-395.133949-395.133949 0-218.212723 176.921225-395.133949 395.133949-395.133949C730.190744 134.454698 907.111969 311.375924 907.111969 529.588647z"  /></svg>