<?xml version="1.0" standalone="no"?><!DOCTYPE svg PUBLIC "-//W3C//DTD SVG 1.1//EN" "http://www.w3.org/Graphics/SVG/1.1/DTD/svg11.dtd"><svg class="icon" width="600px" height="600.00px" viewBox="0 0 1024 1024" version="1.1" xmlns="http://www.w3.org/2000/svg"><path d="M512 64C264.96 64 64 264.981333 64 512s200.96 448 448 448 448-200.981333 448-448S759.04 64 512 64z m0 832c-211.733333 0-384-172.266667-384-384S300.266667 128 512 128s384 172.266667 384 384-172.266667 384-384 384z" fill="#1296db" /><path d="M512 217.28a32 32 0 0 0-32 32v58.368a32 32 0 1 0 64 0v-58.368a32 32 0 0 0-32-32zM348.864 303.573333a32 32 0 0 0-45.269333 45.248l41.28 41.301334c6.250667 6.250667 14.442667 9.365333 22.634666 9.365333s16.384-3.114667 22.634667-9.365333a32 32 0 0 0 0-45.248l-41.28-41.301334zM339.648 512a32 32 0 0 0-32-32h-58.389333a32 32 0 1 0 0 64h58.389333a32 32 0 0 0 32-32zM344.874667 633.877333l-41.28 41.301334a32.021333 32.021333 0 0 0 45.269333 45.248l41.28-41.301334a32.021333 32.021333 0 0 0-45.269333-45.248zM512 684.352a32 32 0 0 0-32 32v58.368a32 32 0 1 0 64 0v-58.368a32 32 0 0 0-32-32zM679.125333 633.877333a32 32 0 0 0-45.269333 45.248l41.28 41.301334c6.250667 6.250667 14.442667 9.365333 22.634667 9.365333s16.384-3.114667 22.634666-9.365333a32 32 0 0 0 0-45.248l-41.28-41.301334zM774.741333 480h-58.389333a32 32 0 1 0 0 64h58.389333a32 32 0 1 0 0-64zM656.490667 399.509333c8.192 0 16.384-3.114667 22.634666-9.365333l41.28-41.301333a32.021333 32.021333 0 0 0-45.269333-45.248l-41.28 41.301333a32.021333 32.021333 0 0 0 22.634667 54.613333z" fill="#1296db" /></svg>