<?xml version="1.0" standalone="no"?><!DOCTYPE svg PUBLIC "-//W3C//DTD SVG 1.1//EN" "http://www.w3.org/Graphics/SVG/1.1/DTD/svg11.dtd"><svg class="icon" width="600px" height="600.00px" viewBox="0 0 1024 1024" version="1.1" xmlns="http://www.w3.org/2000/svg"><path d="M576 256 448 256l0 320 320 0L768 448 576 448 576 256zM512 0C229.248 0 0 229.248 0 512c0 282.752 229.248 512 512 512s512-229.248 512-512C1024 229.248 794.752 0 512 0zM512 896c-212.096 0-384-171.904-384-384 0-212.096 171.904-384 384-384 212.096 0 384 171.904 384 384C896 724.096 724.096 896 512 896z" /></svg>