<?xml version="1.0" standalone="no"?><!DOCTYPE svg PUBLIC "-//W3C//DTD SVG 1.1//EN" "http://www.w3.org/Graphics/SVG/1.1/DTD/svg11.dtd"><svg class="icon" width="600px" height="507.35px" viewBox="0 0 1211 1024" version="1.1" xmlns="http://www.w3.org/2000/svg"><path d="M605.090909 977.454545c-171.706182 0-321.675636-92.951273-402.338909-231.284364L149.643636 746.170182C234.682182 911.173818 406.714182 1024 605.090909 1024c267.077818 0 486.4-204.520727 509.905455-465.454545L1210.181818 558.545455l-116.363636-139.636364L977.454545 558.545455l90.810182 0C1044.898909 793.739636 846.429091 977.454545 605.090909 977.454545z"  /><path d="M605.090909 0C354.117818 0 145.314909 180.596364 101.515636 418.909091L0 418.909091l116.363636 139.636364L232.727273 418.909091 148.945455 418.909091C192.093091 206.475636 379.904 46.545455 605.090909 46.545455c152.017455 0 286.999273 72.843636 371.944727 185.576727l56.878545 0C942.452364 92.346182 784.570182 0 605.090909 0z"  /></svg>