<?xml version="1.0" standalone="no"?><!DOCTYPE svg PUBLIC "-//W3C//DTD SVG 1.1//EN" "http://www.w3.org/Graphics/SVG/1.1/DTD/svg11.dtd"><svg class="icon" width="600px" height="600.00px" viewBox="0 0 1024 1024" version="1.1" xmlns="http://www.w3.org/2000/svg"><path d="M512 952.32c243.17952 0 440.32-197.14048 440.32-440.32s-197.14048-440.32-440.32-440.32-440.32 197.14048-440.32 440.32 197.14048 440.32 440.32 440.32z m0 46.08c-268.63104 0-486.4-217.76896-486.4-486.4S243.36896 25.6 512 25.6s486.4 217.76896 486.4 486.4-217.76896 486.4-486.4 486.4z m35.14368-486.4l184.63744 184.63744a23.04 23.04 0 0 1-32.58368 32.58368L514.56 544.58368l-184.63744 184.63744a23.04 23.04 0 0 1-32.58368-32.58368L481.97632 512 297.33888 327.36256a23.04 23.04 0 0 1 32.58368-32.58368L514.56 479.41632l184.63744-184.63744a23.04 23.04 0 1 1 32.58368 32.58368L547.14368 512z" fill="#000000" /></svg>