<?xml version="1.0" standalone="no"?><!DOCTYPE svg PUBLIC "-//W3C//DTD SVG 1.1//EN" "http://www.w3.org/Graphics/SVG/1.1/DTD/svg11.dtd"><svg class="icon" width="600px" height="600.00px" viewBox="0 0 1024 1024" version="1.1" xmlns="http://www.w3.org/2000/svg"><path d="M1024 512c0-282.763636-229.236364-512-512-512C229.236364 0 0 229.236364 0 512c0 282.763636 229.236364 512 512 512C794.763636 1024 1024 794.763636 1024 512zM512 46.545455c257.070545 0 465.454545 208.384 465.454545 465.454545 0 120.180364-45.521455 229.701818-120.273455 312.273455L199.726545 166.818909C282.298182 92.066909 391.819636 46.545455 512 46.545455zM46.545455 512c0-120.180364 45.521455-229.701818 120.273455-312.273455l657.454545 657.454545C741.701818 931.933091 632.180364 977.454545 512 977.454545 254.929455 977.454545 46.545455 769.070545 46.545455 512z" /></svg>